<?xml version="1.0" standalone="no"?>
<!DOCTYPE svg PUBLIC "-//W3C//DTD SVG 20010904//EN"
 "http://www.w3.org/TR/2001/REC-SVG-20010904/DTD/svg10.dtd">
<svg version="1.0" xmlns="http://www.w3.org/2000/svg"
 width="99.000000pt" height="99.000000pt" viewBox="0 0 99.000000 99.000000"
 preserveAspectRatio="xMidYMid meet">
<metadata>
Created by potrace 1.14, written by Peter Selinger 2001-2017
</metadata>
<g transform="translate(0.000000,99.000000) scale(0.100000,-0.100000)"
fill="#000000" stroke="none">
<path d="M8 908 c-9 -23 2 -128 16 -162 64 -154 274 -198 394 -83 36 34 72 95
73 124 0 10 7 -1 15 -23 50 -140 220 -208 351 -141 71 37 121 115 128 204 9
103 61 93 -490 93 -377 0 -484 -3 -487 -12z"/>
<path d="M190 571 c-76 -23 -148 -90 -171 -157 -53 -159 59 -320 228 -328 32
-2 64 1 71 7 8 6 12 42 13 106 0 60 4 87 8 71 23 -74 90 -148 153 -169 46 -15
129 -20 151 -9 14 7 17 24 18 111 1 65 4 91 8 72 27 -108 118 -182 234 -189
77 -4 85 2 85 75 0 46 -5 66 -19 80 -16 16 -17 19 -3 27 22 12 28 90 9 119
-14 21 -14 25 -1 38 17 18 19 122 3 143 -13 17 -96 14 -152 -5 -68 -23 -133
-92 -153 -164 -9 -28 -10 -18 -11 61 -1 52 -5 101 -10 108 -14 23 -131 9 -191
-24 -52 -28 -78 -57 -111 -122 l-18 -37 -1 91 c0 74 -3 93 -16 98 -21 8 -93 6
-124 -3z"/>
</g>
</svg>
