<?xml version="1.0" encoding="utf-8"?>
<!-- Generator: Adobe Illustrator 25.0.1, SVG Export Plug-In . SVG Version: 6.00 Build 0)  -->
<svg version="1.1" id="Слой_1" xmlns="http://www.w3.org/2000/svg" xmlns:xlink="http://www.w3.org/1999/xlink" x="0px" y="0px"
	 viewBox="0 0 1417 917" style="enable-background:new 0 0 1417 917;" xml:space="preserve">
<style type="text/css">
	.st0{opacity:0.9;}
	.st1{fill:#FF4E42;}
	.st2{fill:#FFF67C;}
	.st3{fill:#A0DEE3;}
</style>
<g class="st0">
	<path class="st1" d="M1296.4,460.2c13.5,0,24.5-11,24.5-24.5c0-13.5-11-24.5-24.5-24.5s-24.5,11-24.5,24.5
		C1271.9,449.2,1282.9,460.2,1296.4,460.2z"/>
	<path class="st1" d="M1296.4,494.7c13,0,23.6-10.6,23.6-23.6s-10.6-23.6-23.6-23.6s-23.6,10.6-23.6,23.6S1283.4,494.7,1296.4,494.7
		z"/>
	<path class="st1" d="M1296.4,529.2c12.5,0,22.7-10.2,22.7-22.7s-10.2-22.7-22.7-22.7c-12.5,0-22.7,10.2-22.7,22.7
		S1283.9,529.2,1296.4,529.2z"/>
	<path class="st1" d="M1296.4,563.8c12,0,21.8-9.8,21.8-21.8s-9.8-21.8-21.8-21.8c-12,0-21.8,9.8-21.8,21.8
		S1284.4,563.8,1296.4,563.8z"/>
	<path class="st1" d="M1296.4,598.3c11.5,0,20.9-9.4,20.9-20.9c0-11.5-9.4-20.9-20.9-20.9c-11.5,0-20.9,9.4-20.9,20.9
		C1275.5,588.9,1284.9,598.3,1296.4,598.3z"/>
	<path class="st1" d="M1296.4,632.8c11,0,20-9,20-20c0-11-9-20-20-20c-11.1,0-20,9-20,20C1276.4,623.8,1285.3,632.8,1296.4,632.8z"
		/>
	<path class="st1" d="M1296.4,667.4c10.5,0,19.1-8.6,19.1-19.1s-8.6-19.1-19.1-19.1c-10.6,0-19.1,8.6-19.1,19.1
		S1285.8,667.4,1296.4,667.4z"/>
	<path class="st1" d="M1296.4,701.9c10,0,18.2-8.1,18.2-18.2s-8.2-18.2-18.2-18.2c-10.1,0-18.2,8.1-18.2,18.2
		S1286.3,701.9,1296.4,701.9z"/>
	<path class="st1" d="M1296.4,736.4c9.5,0,17.3-7.7,17.3-17.3c0-9.6-7.8-17.3-17.3-17.3c-9.6,0-17.3,7.7-17.3,17.3
		C1279.1,728.7,1286.8,736.4,1296.4,736.4z"/>
	<path class="st1" d="M1296.4,771c9.1,0,16.4-7.3,16.4-16.4c0-9.1-7.3-16.4-16.4-16.4c-9.1,0-16.4,7.3-16.4,16.4
		C1280,763.7,1287.3,771,1296.4,771z"/>
	<path class="st1" d="M1296.4,805.5c8.6,0,15.5-6.9,15.5-15.5s-6.9-15.5-15.5-15.5c-8.6,0-15.5,6.9-15.5,15.5
		S1287.8,805.5,1296.4,805.5z"/>
	<path class="st1" d="M1296.4,840c8.1,0,14.6-6.5,14.6-14.6c0-8.1-6.5-14.6-14.6-14.6c-8.1,0-14.6,6.5-14.6,14.6
		C1281.8,833.5,1288.3,840,1296.4,840z"/>
	<path class="st1" d="M1296.4,874.6c7.6,0,13.7-6.1,13.7-13.7c0-7.6-6.1-13.7-13.7-13.7c-7.6,0-13.7,6.1-13.7,13.7
		C1282.7,868.5,1288.8,874.6,1296.4,874.6z"/>
	<path class="st1" d="M1296.4,909.1c7.1,0,12.8-5.7,12.8-12.8c0-7.1-5.7-12.8-12.8-12.8c-7.1,0-12.8,5.7-12.8,12.8
		C1283.6,903.4,1289.3,909.1,1296.4,909.1z"/>
</g>
<g class="st0">
	<path class="st1" d="M1225.6,425.7c14.1,0,25.5-11.4,25.5-25.5c0-14.1-11.4-25.5-25.5-25.5c-14.1,0-25.5,11.4-25.5,25.5
		C1200.1,414.3,1211.5,425.7,1225.6,425.7z"/>
	<path class="st1" d="M1225.6,460.2c13.5,0,24.5-11,24.5-24.5c0-13.5-11-24.5-24.5-24.5s-24.5,11-24.5,24.5
		C1201.1,449.2,1212.1,460.2,1225.6,460.2z"/>
	<path class="st1" d="M1225.6,494.7c13,0,23.6-10.6,23.6-23.6s-10.6-23.6-23.6-23.6s-23.6,10.6-23.6,23.6S1212.6,494.7,1225.6,494.7
		z"/>
	<path class="st1" d="M1225.6,529.2c12.5,0,22.7-10.2,22.7-22.7s-10.2-22.7-22.7-22.7c-12.5,0-22.7,10.2-22.7,22.7
		S1213.1,529.2,1225.6,529.2z"/>
	<path class="st1" d="M1225.6,563.8c12,0,21.8-9.8,21.8-21.8s-9.8-21.8-21.8-21.8c-12,0-21.8,9.8-21.8,21.8
		S1213.6,563.8,1225.6,563.8z"/>
	<path class="st1" d="M1225.6,598.3c11.5,0,20.9-9.4,20.9-20.9c0-11.5-9.4-20.9-20.9-20.9c-11.5,0-20.9,9.4-20.9,20.9
		C1204.7,588.9,1214.1,598.3,1225.6,598.3z"/>
	<path class="st1" d="M1225.6,632.8c11.1,0,20-9,20-20c0-11-8.9-20-20-20c-11,0-20,9-20,20C1205.6,623.8,1214.6,632.8,1225.6,632.8z
		"/>
	<path class="st1" d="M1225.6,667.4c10.6,0,19.1-8.6,19.1-19.1s-8.5-19.1-19.1-19.1c-10.5,0-19.1,8.6-19.1,19.1
		S1215.1,667.4,1225.6,667.4z"/>
	<path class="st1" d="M1225.6,701.9c10.1,0,18.2-8.1,18.2-18.2s-8.2-18.2-18.2-18.2c-10,0-18.2,8.1-18.2,18.2
		S1215.6,701.9,1225.6,701.9z"/>
	<path class="st1" d="M1225.6,736.4c9.6,0,17.3-7.7,17.3-17.3c0-9.6-7.8-17.3-17.3-17.3c-9.5,0-17.3,7.7-17.3,17.3
		C1208.3,728.7,1216.1,736.4,1225.6,736.4z"/>
	<path class="st1" d="M1225.6,771c9.1,0,16.4-7.3,16.4-16.4c0-9.1-7.3-16.4-16.4-16.4c-9.1,0-16.4,7.3-16.4,16.4
		C1209.2,763.7,1216.5,771,1225.6,771z"/>
	<path class="st1" d="M1225.6,805.5c8.6,0,15.5-6.9,15.5-15.5s-6.9-15.5-15.5-15.5c-8.6,0-15.5,6.9-15.5,15.5
		S1217,805.5,1225.6,805.5z"/>
	<path class="st1" d="M1225.6,840c8.1,0,14.6-6.5,14.6-14.6c0-8.1-6.5-14.6-14.6-14.6c-8.1,0-14.6,6.5-14.6,14.6
		C1211,833.5,1217.5,840,1225.6,840z"/>
	<path class="st1" d="M1225.6,874.6c7.6,0,13.7-6.1,13.7-13.7c0-7.6-6.1-13.7-13.7-13.7c-7.6,0-13.7,6.1-13.7,13.7
		C1211.9,868.5,1218,874.6,1225.6,874.6z"/>
	<path class="st1" d="M1225.6,909.1c7.1,0,12.8-5.7,12.8-12.8c0-7.1-5.7-12.8-12.8-12.8c-7.1,0-12.8,5.7-12.8,12.8
		C1212.8,903.4,1218.5,909.1,1225.6,909.1z"/>
</g>
<g class="st0">
	<path class="st1" d="M1154.7,391.2c14.6,0,26.4-11.8,26.4-26.4c0-14.6-11.8-26.4-26.4-26.4c-14.6,0-26.4,11.8-26.4,26.4
		C1128.3,379.4,1140.1,391.2,1154.7,391.2z"/>
	<path class="st1" d="M1154.7,425.7c14.1,0,25.5-11.4,25.5-25.5c0-14.1-11.4-25.5-25.5-25.5c-14.1,0-25.5,11.4-25.5,25.5
		C1129.2,414.3,1140.6,425.7,1154.7,425.7z"/>
	<path class="st1" d="M1154.7,460.2c13.5,0,24.5-11,24.5-24.5c0-13.5-11-24.5-24.5-24.5c-13.5,0-24.5,11-24.5,24.5
		C1130.2,449.2,1141.2,460.2,1154.7,460.2z"/>
	<path class="st1" d="M1154.7,494.7c13,0,23.6-10.6,23.6-23.6s-10.6-23.6-23.6-23.6c-13,0-23.6,10.6-23.6,23.6
		S1141.7,494.7,1154.7,494.7z"/>
	<path class="st1" d="M1154.7,529.2c12.5,0,22.7-10.2,22.7-22.7s-10.2-22.7-22.7-22.7c-12.5,0-22.7,10.2-22.7,22.7
		S1142.2,529.2,1154.7,529.2z"/>
	<path class="st1" d="M1154.7,563.8c12,0,21.8-9.8,21.8-21.8s-9.8-21.8-21.8-21.8c-12,0-21.8,9.8-21.8,21.8
		S1142.7,563.8,1154.7,563.8z"/>
	<path class="st1" d="M1154.7,598.3c11.5,0,20.9-9.4,20.9-20.9c0-11.5-9.4-20.9-20.9-20.9c-11.5,0-20.9,9.4-20.9,20.9
		C1133.8,588.9,1143.2,598.3,1154.7,598.3z"/>
	<path class="st1" d="M1154.7,632.8c11.1,0,20-9,20-20c0-11-8.9-20-20-20c-11,0-20,9-20,20C1134.7,623.8,1143.7,632.8,1154.7,632.8z
		"/>
	<path class="st1" d="M1154.7,667.4c10.6,0,19.1-8.6,19.1-19.1s-8.6-19.1-19.1-19.1c-10.5,0-19.1,8.6-19.1,19.1
		S1144.2,667.4,1154.7,667.4z"/>
	<path class="st1" d="M1154.7,701.9c10.1,0,18.2-8.1,18.2-18.2s-8.2-18.2-18.2-18.2c-10,0-18.2,8.1-18.2,18.2
		S1144.7,701.9,1154.7,701.9z"/>
	<path class="st1" d="M1154.7,736.4c9.6,0,17.3-7.7,17.3-17.3c0-9.6-7.8-17.3-17.3-17.3c-9.5,0-17.3,7.7-17.3,17.3
		C1137.4,728.7,1145.2,736.4,1154.7,736.4z"/>
	<path class="st1" d="M1154.7,771c9.1,0,16.4-7.3,16.4-16.4c0-9.1-7.3-16.4-16.4-16.4c-9.1,0-16.4,7.3-16.4,16.4
		C1138.3,763.7,1145.6,771,1154.7,771z"/>
	<path class="st1" d="M1154.7,805.5c8.6,0,15.5-6.9,15.5-15.5s-6.9-15.5-15.5-15.5c-8.6,0-15.5,6.9-15.5,15.5
		S1146.1,805.5,1154.7,805.5z"/>
	<path class="st1" d="M1154.7,840c8.1,0,14.6-6.5,14.6-14.6c0-8.1-6.5-14.6-14.6-14.6c-8.1,0-14.6,6.5-14.6,14.6
		C1140.1,833.5,1146.6,840,1154.7,840z"/>
	<path class="st1" d="M1154.7,874.6c7.6,0,13.7-6.1,13.7-13.7c0-7.6-6.1-13.7-13.7-13.7c-7.6,0-13.7,6.1-13.7,13.7
		C1141,868.5,1147.1,874.6,1154.7,874.6z"/>
	<path class="st1" d="M1154.7,909.1c7.1,0,12.8-5.7,12.8-12.8c0-7.1-5.7-12.8-12.8-12.8c-7.1,0-12.8,5.7-12.8,12.8
		C1141.9,903.4,1147.6,909.1,1154.7,909.1z"/>
</g>
<g class="st0">
	<path class="st1" d="M1083.9,356.7c15.1,0,27.3-12.2,27.3-27.3s-12.2-27.3-27.3-27.3c-15.1,0-27.3,12.2-27.3,27.3
		S1068.8,356.7,1083.9,356.7z"/>
	<path class="st1" d="M1083.9,391.2c14.6,0,26.4-11.8,26.4-26.4c0-14.6-11.8-26.4-26.4-26.4c-14.6,0-26.4,11.8-26.4,26.4
		C1057.5,379.4,1069.3,391.2,1083.9,391.2z"/>
	<path class="st1" d="M1083.9,425.7c14.1,0,25.5-11.4,25.5-25.5c0-14.1-11.4-25.5-25.5-25.5c-14.1,0-25.5,11.4-25.5,25.5
		C1058.4,414.3,1069.8,425.7,1083.9,425.7z"/>
	<path class="st1" d="M1083.9,460.2c13.5,0,24.5-11,24.5-24.5c0-13.5-11-24.5-24.5-24.5s-24.5,11-24.5,24.5
		C1059.4,449.2,1070.4,460.2,1083.9,460.2z"/>
	<path class="st1" d="M1083.9,494.7c13,0,23.6-10.6,23.6-23.6s-10.6-23.6-23.6-23.6s-23.6,10.6-23.6,23.6S1070.9,494.7,1083.9,494.7
		z"/>
	<path class="st1" d="M1083.9,529.2c12.5,0,22.7-10.2,22.7-22.7s-10.2-22.7-22.7-22.7c-12.5,0-22.7,10.2-22.7,22.7
		S1071.4,529.2,1083.9,529.2z"/>
	<path class="st1" d="M1083.9,563.8c12,0,21.8-9.8,21.8-21.8s-9.8-21.8-21.8-21.8c-12,0-21.8,9.8-21.8,21.8
		S1071.9,563.8,1083.9,563.8z"/>
	<path class="st1" d="M1083.9,598.3c11.5,0,20.9-9.4,20.9-20.9c0-11.5-9.4-20.9-20.9-20.9c-11.5,0-20.9,9.4-20.9,20.9
		C1063,588.9,1072.4,598.3,1083.9,598.3z"/>
	<path class="st1" d="M1083.9,632.8c11,0,20-9,20-20c0-11-9-20-20-20c-11.1,0-20,9-20,20C1063.9,623.8,1072.8,632.8,1083.9,632.8z"
		/>
	<path class="st1" d="M1083.9,667.4c10.5,0,19.1-8.6,19.1-19.1s-8.6-19.1-19.1-19.1c-10.6,0-19.1,8.6-19.1,19.1
		S1073.3,667.4,1083.9,667.4z"/>
	<path class="st1" d="M1083.9,701.9c10,0,18.2-8.1,18.2-18.2s-8.2-18.2-18.2-18.2c-10.1,0-18.2,8.1-18.2,18.2
		S1073.8,701.9,1083.9,701.9z"/>
	<path class="st1" d="M1083.9,736.4c9.5,0,17.3-7.7,17.3-17.3c0-9.6-7.8-17.3-17.3-17.3c-9.6,0-17.3,7.7-17.3,17.3
		C1066.6,728.7,1074.3,736.4,1083.9,736.4z"/>
	<path class="st1" d="M1083.9,771c9.1,0,16.4-7.3,16.4-16.4c0-9.1-7.3-16.4-16.4-16.4c-9.1,0-16.4,7.3-16.4,16.4
		C1067.5,763.7,1074.8,771,1083.9,771z"/>
	<path class="st1" d="M1083.9,805.5c8.6,0,15.5-6.9,15.5-15.5s-6.9-15.5-15.5-15.5c-8.6,0-15.5,6.9-15.5,15.5
		S1075.3,805.5,1083.9,805.5z"/>
	<path class="st1" d="M1083.9,840c8.1,0,14.6-6.5,14.6-14.6c0-8.1-6.5-14.6-14.6-14.6c-8.1,0-14.6,6.5-14.6,14.6
		C1069.3,833.5,1075.8,840,1083.9,840z"/>
	<path class="st1" d="M1083.9,874.6c7.6,0,13.7-6.1,13.7-13.7c0-7.6-6.1-13.7-13.7-13.7c-7.6,0-13.7,6.1-13.7,13.7
		C1070.2,868.5,1076.3,874.6,1083.9,874.6z"/>
	<path class="st1" d="M1083.9,909.1c7.1,0,12.8-5.7,12.8-12.8c0-7.1-5.7-12.8-12.8-12.8c-7.1,0-12.8,5.7-12.8,12.8
		C1071.1,903.4,1076.8,909.1,1083.9,909.1z"/>
</g>
<g class="st0">
	<path class="st1" d="M1013,322.1c15.6,0,28.2-12.6,28.2-28.2s-12.6-28.2-28.2-28.2s-28.2,12.6-28.2,28.2S997.4,322.1,1013,322.1z"
		/>
	<path class="st1" d="M1013,356.7c15.1,0,27.3-12.2,27.3-27.3s-12.2-27.3-27.3-27.3s-27.3,12.2-27.3,27.3S997.9,356.7,1013,356.7z"
		/>
	<path class="st1" d="M1013,391.2c14.6,0,26.4-11.8,26.4-26.4c0-14.6-11.8-26.4-26.4-26.4c-14.6,0-26.4,11.8-26.4,26.4
		C986.6,379.4,998.4,391.2,1013,391.2z"/>
	<path class="st1" d="M1013,425.7c14.1,0,25.5-11.4,25.5-25.5c0-14.1-11.4-25.5-25.5-25.5s-25.5,11.4-25.5,25.5
		C987.5,414.3,998.9,425.7,1013,425.7z"/>
	<path class="st1" d="M1013,460.2c13.5,0,24.5-11,24.5-24.5c0-13.5-11-24.5-24.5-24.5s-24.5,11-24.5,24.5
		C988.5,449.2,999.5,460.2,1013,460.2z"/>
	<path class="st1" d="M1013,494.7c13,0,23.6-10.6,23.6-23.6s-10.6-23.6-23.6-23.6c-13,0-23.6,10.6-23.6,23.6S1000,494.7,1013,494.7z
		"/>
	<path class="st1" d="M1013,529.2c12.5,0,22.7-10.2,22.7-22.7s-10.2-22.7-22.7-22.7s-22.7,10.2-22.7,22.7S1000.5,529.2,1013,529.2z"
		/>
	<path class="st1" d="M1013,563.8c12,0,21.8-9.8,21.8-21.8s-9.8-21.8-21.8-21.8c-12,0-21.8,9.8-21.8,21.8S1001,563.8,1013,563.8z"/>
	<path class="st1" d="M1013,598.3c11.5,0,20.9-9.4,20.9-20.9c0-11.5-9.4-20.9-20.9-20.9c-11.5,0-20.9,9.4-20.9,20.9
		C992.1,588.9,1001.5,598.3,1013,598.3z"/>
	<path class="st1" d="M1013,632.8c11,0,20-9,20-20c0-11-9-20-20-20s-20,9-20,20C993,623.8,1002,632.8,1013,632.8z"/>
	<path class="st1" d="M1013,667.4c10.5,0,19.1-8.6,19.1-19.1s-8.6-19.1-19.1-19.1s-19.1,8.6-19.1,19.1S1002.5,667.4,1013,667.4z"/>
	<path class="st1" d="M1013,701.9c10.1,0,18.2-8.1,18.2-18.2s-8.1-18.2-18.2-18.2s-18.2,8.1-18.2,18.2S1002.9,701.9,1013,701.9z"/>
	<path class="st1" d="M1013,736.4c9.6,0,17.3-7.7,17.3-17.3c0-9.6-7.7-17.3-17.3-17.3c-9.6,0-17.3,7.7-17.3,17.3
		C995.7,728.7,1003.4,736.4,1013,736.4z"/>
	<path class="st1" d="M1013,771c9.1,0,16.4-7.3,16.4-16.4c0-9.1-7.3-16.4-16.4-16.4c-9.1,0-16.4,7.3-16.4,16.4
		C996.6,763.7,1003.9,771,1013,771z"/>
	<path class="st1" d="M1013,805.5c8.6,0,15.5-6.9,15.5-15.5s-6.9-15.5-15.5-15.5s-15.5,6.9-15.5,15.5S1004.4,805.5,1013,805.5z"/>
	<path class="st1" d="M1013,840c8.1,0,14.6-6.5,14.6-14.6c0-8.1-6.5-14.6-14.6-14.6s-14.6,6.5-14.6,14.6
		C998.4,833.5,1004.9,840,1013,840z"/>
	<path class="st1" d="M1013,874.6c7.6,0,13.7-6.1,13.7-13.7c0-7.6-6.1-13.7-13.7-13.7s-13.7,6.1-13.7,13.7
		C999.3,868.5,1005.4,874.6,1013,874.6z"/>
	<path class="st1" d="M1013,909.1c7.1,0,12.8-5.7,12.8-12.8c0-7.1-5.7-12.8-12.8-12.8s-12.8,5.7-12.8,12.8
		C1000.2,903.4,1005.9,909.1,1013,909.1z"/>
</g>
<g class="st0">
	<path class="st1" d="M942.1,253.1c16.6,0,30-13.4,30-30s-13.4-30-30-30c-16.6,0-30,13.4-30,30S925.5,253.1,942.1,253.1z"/>
	<path class="st1" d="M942.1,287.6c16.1,0,29.1-13,29.1-29.1c0-16.1-13-29.1-29.1-29.1c-16.1,0-29.1,13-29.1,29.1
		C913,274.6,926,287.6,942.1,287.6z"/>
	<path class="st1" d="M942.1,322.1c15.6,0,28.2-12.6,28.2-28.2s-12.6-28.2-28.2-28.2c-15.6,0-28.2,12.6-28.2,28.2
		S926.5,322.1,942.1,322.1z"/>
	<path class="st1" d="M942.1,356.7c15.1,0,27.3-12.2,27.3-27.3s-12.2-27.3-27.3-27.3c-15.1,0-27.3,12.2-27.3,27.3
		S927,356.7,942.1,356.7z"/>
	<path class="st1" d="M942.1,391.2c14.6,0,26.4-11.8,26.4-26.4c0-14.6-11.8-26.4-26.4-26.4c-14.6,0-26.4,11.8-26.4,26.4
		C915.7,379.4,927.5,391.2,942.1,391.2z"/>
	<path class="st1" d="M942.1,425.7c14.1,0,25.5-11.4,25.5-25.5c0-14.1-11.4-25.5-25.5-25.5c-14.1,0-25.5,11.4-25.5,25.5
		C916.6,414.3,928,425.7,942.1,425.7z"/>
	<path class="st1" d="M942.1,460.2c13.5,0,24.5-11,24.5-24.5c0-13.5-11-24.5-24.5-24.5s-24.5,11-24.5,24.5
		C917.6,449.2,928.6,460.2,942.1,460.2z"/>
	<path class="st1" d="M942.1,494.7c13,0,23.6-10.6,23.6-23.6s-10.6-23.6-23.6-23.6s-23.6,10.6-23.6,23.6S929.1,494.7,942.1,494.7z"
		/>
	<path class="st1" d="M942.1,529.2c12.5,0,22.7-10.2,22.7-22.7s-10.2-22.7-22.7-22.7c-12.5,0-22.7,10.2-22.7,22.7
		S929.6,529.2,942.1,529.2z"/>
	<path class="st1" d="M942.1,563.8c12,0,21.8-9.8,21.8-21.8s-9.8-21.8-21.8-21.8c-12,0-21.8,9.8-21.8,21.8S930.1,563.8,942.1,563.8z
		"/>
	<path class="st1" d="M942.1,598.3c11.5,0,20.9-9.4,20.9-20.9c0-11.5-9.4-20.9-20.9-20.9c-11.5,0-20.9,9.4-20.9,20.9
		C921.2,588.9,930.6,598.3,942.1,598.3z"/>
	<path class="st1" d="M942.1,632.8c11,0,20-9,20-20c0-11-9-20-20-20c-11,0-20,9-20,20C922.1,623.8,931.1,632.8,942.1,632.8z"/>
	<path class="st1" d="M942.1,667.4c10.5,0,19.1-8.6,19.1-19.1s-8.6-19.1-19.1-19.1c-10.5,0-19.1,8.6-19.1,19.1
		S931.6,667.4,942.1,667.4z"/>
	<path class="st1" d="M942.1,701.9c10.1,0,18.2-8.1,18.2-18.2s-8.1-18.2-18.2-18.2s-18.2,8.1-18.2,18.2S932,701.9,942.1,701.9z"/>
	<path class="st1" d="M942.1,736.4c9.6,0,17.3-7.7,17.3-17.3c0-9.6-7.7-17.3-17.3-17.3c-9.6,0-17.3,7.7-17.3,17.3
		C924.8,728.7,932.5,736.4,942.1,736.4z"/>
	<path class="st1" d="M942.1,771c9.1,0,16.4-7.3,16.4-16.4c0-9.1-7.3-16.4-16.4-16.4c-9.1,0-16.4,7.3-16.4,16.4
		C925.7,763.7,933,771,942.1,771z"/>
	<path class="st1" d="M942.1,805.5c8.6,0,15.5-6.9,15.5-15.5s-6.9-15.5-15.5-15.5s-15.5,6.9-15.5,15.5S933.5,805.5,942.1,805.5z"/>
	<path class="st1" d="M942.1,840c8.1,0,14.6-6.5,14.6-14.6c0-8.1-6.5-14.6-14.6-14.6c-8.1,0-14.6,6.5-14.6,14.6
		C927.5,833.5,934,840,942.1,840z"/>
	<path class="st1" d="M942.1,874.6c7.6,0,13.7-6.1,13.7-13.7c0-7.6-6.1-13.7-13.7-13.7c-7.6,0-13.7,6.1-13.7,13.7
		C928.4,868.5,934.5,874.6,942.1,874.6z"/>
	<path class="st1" d="M942.1,909.1c7.1,0,12.8-5.7,12.8-12.8c0-7.1-5.7-12.8-12.8-12.8c-7.1,0-12.8,5.7-12.8,12.8
		C929.3,903.4,935,909.1,942.1,909.1z"/>
</g>
<g class="st0">
	<path class="st1" d="M871.3,184c17.6,0,31.8-14.2,31.8-31.8s-14.2-31.8-31.8-31.8s-31.8,14.2-31.8,31.8S853.7,184,871.3,184z"/>
	<path class="st1" d="M871.3,218.5c17.1,0,30.9-13.8,30.9-30.9c0-17.1-13.8-30.9-30.9-30.9c-17.1,0-30.9,13.8-30.9,30.9
		C840.4,204.7,854.2,218.5,871.3,218.5z"/>
	<path class="st1" d="M871.3,253.1c16.6,0,30-13.4,30-30s-13.4-30-30-30c-16.6,0-30,13.4-30,30S854.7,253.1,871.3,253.1z"/>
	<path class="st1" d="M871.3,287.6c16.1,0,29.1-13,29.1-29.1c0-16.1-13-29.1-29.1-29.1c-16.1,0-29.1,13-29.1,29.1
		C842.2,274.6,855.2,287.6,871.3,287.6z"/>
	<path class="st1" d="M871.3,322.1c15.6,0,28.2-12.6,28.2-28.2s-12.6-28.2-28.2-28.2c-15.6,0-28.2,12.6-28.2,28.2
		S855.7,322.1,871.3,322.1z"/>
	<path class="st1" d="M871.3,356.7c15.1,0,27.3-12.2,27.3-27.3s-12.2-27.3-27.3-27.3c-15.1,0-27.3,12.2-27.3,27.3
		S856.2,356.7,871.3,356.7z"/>
	<path class="st1" d="M871.3,391.2c14.6,0,26.4-11.8,26.4-26.4c0-14.6-11.8-26.4-26.4-26.4s-26.4,11.8-26.4,26.4
		C844.9,379.4,856.7,391.2,871.3,391.2z"/>
	<path class="st1" d="M871.3,425.7c14.1,0,25.5-11.4,25.5-25.5c0-14.1-11.4-25.5-25.5-25.5s-25.5,11.4-25.5,25.5
		C845.8,414.3,857.2,425.7,871.3,425.7z"/>
	<path class="st1" d="M871.3,460.2c13.5,0,24.5-11,24.5-24.5c0-13.5-11-24.5-24.5-24.5s-24.5,11-24.5,24.5
		C846.8,449.2,857.8,460.2,871.3,460.2z"/>
	<path class="st1" d="M871.3,494.7c13,0,23.6-10.6,23.6-23.6s-10.6-23.6-23.6-23.6s-23.6,10.6-23.6,23.6S858.3,494.7,871.3,494.7z"
		/>
	<path class="st1" d="M871.3,529.2c12.5,0,22.7-10.2,22.7-22.7s-10.2-22.7-22.7-22.7s-22.7,10.2-22.7,22.7S858.8,529.2,871.3,529.2z
		"/>
	<path class="st1" d="M871.3,563.8c12,0,21.8-9.8,21.8-21.8s-9.8-21.8-21.8-21.8c-12,0-21.8,9.8-21.8,21.8S859.3,563.8,871.3,563.8z
		"/>
	<path class="st1" d="M871.3,598.3c11.5,0,20.9-9.4,20.9-20.9c0-11.5-9.4-20.9-20.9-20.9c-11.5,0-20.9,9.4-20.9,20.9
		C850.4,588.9,859.8,598.3,871.3,598.3z"/>
	<path class="st1" d="M871.3,632.8c11,0,20-9,20-20c0-11-9-20-20-20c-11,0-20,9-20,20C851.3,623.8,860.3,632.8,871.3,632.8z"/>
	<path class="st1" d="M871.3,667.4c10.5,0,19.1-8.6,19.1-19.1s-8.6-19.1-19.1-19.1s-19.1,8.6-19.1,19.1S860.8,667.4,871.3,667.4z"/>
	<path class="st1" d="M871.3,701.9c10.1,0,18.2-8.1,18.2-18.2s-8.1-18.2-18.2-18.2s-18.2,8.1-18.2,18.2S861.2,701.9,871.3,701.9z"/>
	<path class="st1" d="M871.3,736.4c9.6,0,17.3-7.7,17.3-17.3c0-9.6-7.7-17.3-17.3-17.3c-9.6,0-17.3,7.7-17.3,17.3
		C854,728.7,861.7,736.4,871.3,736.4z"/>
	<path class="st1" d="M871.3,771c9.1,0,16.4-7.3,16.4-16.4c0-9.1-7.3-16.4-16.4-16.4c-9.1,0-16.4,7.3-16.4,16.4
		C854.9,763.7,862.2,771,871.3,771z"/>
	<path class="st1" d="M871.3,805.5c8.6,0,15.5-6.9,15.5-15.5s-6.9-15.5-15.5-15.5s-15.5,6.9-15.5,15.5S862.7,805.5,871.3,805.5z"/>
	<path class="st1" d="M871.3,840c8.1,0,14.6-6.5,14.6-14.6c0-8.1-6.5-14.6-14.6-14.6s-14.6,6.5-14.6,14.6
		C856.7,833.5,863.2,840,871.3,840z"/>
	<path class="st1" d="M871.3,874.6c7.6,0,13.7-6.1,13.7-13.7c0-7.6-6.1-13.7-13.7-13.7c-7.6,0-13.7,6.1-13.7,13.7
		C857.6,868.5,863.7,874.6,871.3,874.6z"/>
	<path class="st1" d="M871.3,909.1c7.1,0,12.8-5.7,12.8-12.8c0-7.1-5.7-12.8-12.8-12.8c-7.1,0-12.8,5.7-12.8,12.8
		C858.5,903.4,864.2,909.1,871.3,909.1z"/>
</g>
<g class="st0">
	<path class="st1" d="M800.4,149.5c18.1,0,32.7-14.6,32.7-32.7s-14.6-32.7-32.7-32.7s-32.7,14.6-32.7,32.7S782.3,149.5,800.4,149.5z
		"/>
	<path class="st1" d="M800.4,184c17.6,0,31.8-14.2,31.8-31.8s-14.2-31.8-31.8-31.8c-17.6,0-31.8,14.2-31.8,31.8S782.8,184,800.4,184
		z"/>
	<path class="st1" d="M800.4,218.5c17.1,0,30.9-13.8,30.9-30.9c0-17.1-13.8-30.9-30.9-30.9c-17.1,0-30.9,13.8-30.9,30.9
		C769.5,204.7,783.3,218.5,800.4,218.5z"/>
	<path class="st1" d="M800.4,253.1c16.6,0,30-13.4,30-30s-13.4-30-30-30c-16.6,0-30,13.4-30,30S783.8,253.1,800.4,253.1z"/>
	<path class="st1" d="M800.4,287.6c16.1,0,29.1-13,29.1-29.1c0-16.1-13-29.1-29.1-29.1c-16.1,0-29.1,13-29.1,29.1
		C771.3,274.6,784.3,287.6,800.4,287.6z"/>
	<path class="st1" d="M800.4,322.1c15.6,0,28.2-12.6,28.2-28.2s-12.6-28.2-28.2-28.2c-15.6,0-28.2,12.6-28.2,28.2
		S784.8,322.1,800.4,322.1z"/>
	<path class="st1" d="M800.4,356.7c15.1,0,27.3-12.2,27.3-27.3s-12.2-27.3-27.3-27.3c-15.1,0-27.3,12.2-27.3,27.3
		S785.3,356.7,800.4,356.7z"/>
	<path class="st1" d="M800.4,391.2c14.6,0,26.4-11.8,26.4-26.4c0-14.6-11.8-26.4-26.4-26.4c-14.6,0-26.4,11.8-26.4,26.4
		C774,379.4,785.8,391.2,800.4,391.2z"/>
	<path class="st1" d="M800.4,425.7c14.1,0,25.5-11.4,25.5-25.5c0-14.1-11.4-25.5-25.5-25.5c-14.1,0-25.5,11.4-25.5,25.5
		C774.9,414.3,786.3,425.7,800.4,425.7z"/>
	<path class="st1" d="M800.4,460.2c13.5,0,24.5-11,24.5-24.5c0-13.5-11-24.5-24.5-24.5s-24.5,11-24.5,24.5
		C775.9,449.2,786.9,460.2,800.4,460.2z"/>
	<path class="st1" d="M800.4,494.7c13,0,23.6-10.6,23.6-23.6s-10.6-23.6-23.6-23.6s-23.6,10.6-23.6,23.6S787.4,494.7,800.4,494.7z"
		/>
	<path class="st1" d="M800.4,529.2c12.5,0,22.7-10.2,22.7-22.7s-10.2-22.7-22.7-22.7c-12.5,0-22.7,10.2-22.7,22.7
		S787.9,529.2,800.4,529.2z"/>
	<path class="st1" d="M800.4,563.8c12,0,21.8-9.8,21.8-21.8s-9.8-21.8-21.8-21.8c-12,0-21.8,9.8-21.8,21.8S788.4,563.8,800.4,563.8z
		"/>
	<path class="st1" d="M800.4,598.3c11.5,0,20.9-9.4,20.9-20.9c0-11.5-9.4-20.9-20.9-20.9c-11.5,0-20.9,9.4-20.9,20.9
		C779.5,588.9,788.9,598.3,800.4,598.3z"/>
	<path class="st1" d="M800.4,632.8c11,0,20-9,20-20c0-11-9-20-20-20c-11,0-20,9-20,20C780.4,623.8,789.4,632.8,800.4,632.8z"/>
	<path class="st1" d="M800.4,667.4c10.5,0,19.1-8.6,19.1-19.1s-8.6-19.1-19.1-19.1c-10.5,0-19.1,8.6-19.1,19.1
		S789.9,667.4,800.4,667.4z"/>
	<path class="st1" d="M800.4,701.9c10.1,0,18.2-8.1,18.2-18.2s-8.1-18.2-18.2-18.2c-10.1,0-18.2,8.1-18.2,18.2
		S790.3,701.9,800.4,701.9z"/>
	<path class="st1" d="M800.4,736.4c9.6,0,17.3-7.7,17.3-17.3c0-9.6-7.7-17.3-17.3-17.3c-9.6,0-17.3,7.7-17.3,17.3
		C783.1,728.7,790.8,736.4,800.4,736.4z"/>
	<path class="st1" d="M800.4,771c9.1,0,16.4-7.3,16.4-16.4c0-9.1-7.3-16.4-16.4-16.4c-9.1,0-16.4,7.3-16.4,16.4
		C784,763.7,791.3,771,800.4,771z"/>
	<path class="st1" d="M800.4,805.5c8.6,0,15.5-6.9,15.5-15.5s-6.9-15.5-15.5-15.5s-15.5,6.9-15.5,15.5S791.8,805.5,800.4,805.5z"/>
	<path class="st1" d="M800.4,840c8.1,0,14.6-6.5,14.6-14.6c0-8.1-6.5-14.6-14.6-14.6c-8.1,0-14.6,6.5-14.6,14.6
		C785.8,833.5,792.3,840,800.4,840z"/>
	<path class="st1" d="M800.4,874.6c7.6,0,13.7-6.1,13.7-13.7c0-7.6-6.1-13.7-13.7-13.7c-7.6,0-13.7,6.1-13.7,13.7
		C786.7,868.5,792.8,874.6,800.4,874.6z"/>
	<path class="st1" d="M800.4,909.1c7.1,0,12.8-5.7,12.8-12.8c0-7.1-5.7-12.8-12.8-12.8c-7.1,0-12.8,5.7-12.8,12.8
		C787.6,903.4,793.3,909.1,800.4,909.1z"/>
</g>
<g class="st0">
	<path class="st1" d="M729.5,114.9c18.6,0,33.6-15,33.6-33.6s-15-33.6-33.6-33.6s-33.6,15-33.6,33.6S710.9,114.9,729.5,114.9z"/>
	<path class="st1" d="M729.5,149.5c18.1,0,32.7-14.6,32.7-32.7s-14.6-32.7-32.7-32.7s-32.7,14.6-32.7,32.7S711.4,149.5,729.5,149.5z
		"/>
	<path class="st1" d="M729.5,184c17.6,0,31.8-14.2,31.8-31.8s-14.2-31.8-31.8-31.8s-31.8,14.2-31.8,31.8S711.9,184,729.5,184z"/>
	<path class="st1" d="M729.5,218.5c17.1,0,30.9-13.8,30.9-30.9c0-17.1-13.8-30.9-30.9-30.9s-30.9,13.8-30.9,30.9
		C698.6,204.7,712.4,218.5,729.5,218.5z"/>
	<path class="st1" d="M729.5,253.1c16.6,0,30-13.4,30-30s-13.4-30-30-30c-16.6,0-30,13.4-30,30S712.9,253.1,729.5,253.1z"/>
	<path class="st1" d="M729.5,287.6c16.1,0,29.1-13,29.1-29.1c0-16.1-13-29.1-29.1-29.1c-16.1,0-29.1,13-29.1,29.1
		C700.4,274.6,713.4,287.6,729.5,287.6z"/>
	<path class="st1" d="M729.5,322.1c15.6,0,28.2-12.6,28.2-28.2s-12.6-28.2-28.2-28.2s-28.2,12.6-28.2,28.2S713.9,322.1,729.5,322.1z
		"/>
	<path class="st1" d="M729.5,356.7c15.1,0,27.3-12.2,27.3-27.3s-12.2-27.3-27.3-27.3s-27.3,12.2-27.3,27.3S714.4,356.7,729.5,356.7z
		"/>
	<path class="st1" d="M729.5,391.2c14.6,0,26.4-11.8,26.4-26.4c0-14.6-11.8-26.4-26.4-26.4s-26.4,11.8-26.4,26.4
		C703.1,379.4,714.9,391.2,729.5,391.2z"/>
	<path class="st1" d="M729.5,425.7c14.1,0,25.5-11.4,25.5-25.5c0-14.1-11.4-25.5-25.5-25.5S704,386.1,704,400.2
		C704,414.3,715.4,425.7,729.5,425.7z"/>
	<path class="st1" d="M729.5,460.2c13.5,0,24.5-11,24.5-24.5c0-13.5-11-24.5-24.5-24.5s-24.5,11-24.5,24.5
		C705,449.2,716,460.2,729.5,460.2z"/>
	<path class="st1" d="M729.5,494.7c13,0,23.6-10.6,23.6-23.6s-10.6-23.6-23.6-23.6s-23.6,10.6-23.6,23.6S716.5,494.7,729.5,494.7z"
		/>
	<path class="st1" d="M729.5,529.2c12.5,0,22.7-10.2,22.7-22.7s-10.2-22.7-22.7-22.7s-22.7,10.2-22.7,22.7S717,529.2,729.5,529.2z"
		/>
	<path class="st1" d="M729.5,563.8c12,0,21.8-9.8,21.8-21.8s-9.8-21.8-21.8-21.8s-21.8,9.8-21.8,21.8S717.5,563.8,729.5,563.8z"/>
	<path class="st1" d="M729.5,598.3c11.5,0,20.9-9.4,20.9-20.9c0-11.5-9.4-20.9-20.9-20.9s-20.9,9.4-20.9,20.9
		C708.6,588.9,718,598.3,729.5,598.3z"/>
	<path class="st1" d="M729.5,632.8c11,0,20-9,20-20c0-11-9-20-20-20s-20,9-20,20C709.5,623.8,718.5,632.8,729.5,632.8z"/>
	<path class="st1" d="M729.5,667.4c10.5,0,19.1-8.6,19.1-19.1s-8.6-19.1-19.1-19.1s-19.1,8.6-19.1,19.1S719,667.4,729.5,667.4z"/>
	<path class="st1" d="M729.5,701.9c10.1,0,18.2-8.1,18.2-18.2s-8.1-18.2-18.2-18.2s-18.2,8.1-18.2,18.2S719.4,701.9,729.5,701.9z"/>
	<path class="st1" d="M729.5,736.4c9.6,0,17.3-7.7,17.3-17.3c0-9.6-7.7-17.3-17.3-17.3c-9.6,0-17.3,7.7-17.3,17.3
		C712.2,728.7,719.9,736.4,729.5,736.4z"/>
	<path class="st1" d="M729.5,771c9.1,0,16.4-7.3,16.4-16.4c0-9.1-7.3-16.4-16.4-16.4c-9.1,0-16.4,7.3-16.4,16.4
		C713.1,763.7,720.4,771,729.5,771z"/>
	<path class="st1" d="M729.5,805.5c8.6,0,15.5-6.9,15.5-15.5s-6.9-15.5-15.5-15.5S714,781.4,714,790S720.9,805.5,729.5,805.5z"/>
	<path class="st1" d="M729.5,840c8.1,0,14.6-6.5,14.6-14.6c0-8.1-6.5-14.6-14.6-14.6s-14.6,6.5-14.6,14.6
		C714.9,833.5,721.4,840,729.5,840z"/>
	<path class="st1" d="M729.5,874.6c7.6,0,13.7-6.1,13.7-13.7c0-7.6-6.1-13.7-13.7-13.7s-13.7,6.1-13.7,13.7
		C715.8,868.5,721.9,874.6,729.5,874.6z"/>
	<path class="st1" d="M729.5,909.1c7.1,0,12.8-5.7,12.8-12.8c0-7.1-5.7-12.8-12.8-12.8s-12.8,5.7-12.8,12.8
		C716.7,903.4,722.4,909.1,729.5,909.1z"/>
</g>
<g class="st0">
	<path class="st1" d="M658.7,80.4c19.1,0,34.5-15.4,34.5-34.5c0-19.1-15.4-34.5-34.5-34.5s-34.5,15.4-34.5,34.5
		C624.2,65,639.6,80.4,658.7,80.4z"/>
	<path class="st1" d="M658.7,114.9c18.6,0,33.6-15,33.6-33.6s-15-33.6-33.6-33.6s-33.6,15-33.6,33.6S640.1,114.9,658.7,114.9z"/>
	<path class="st1" d="M658.7,149.5c18.1,0,32.7-14.6,32.7-32.7s-14.6-32.7-32.7-32.7S626,98.7,626,116.8S640.6,149.5,658.7,149.5z"
		/>
	<path class="st1" d="M658.7,184c17.6,0,31.8-14.2,31.8-31.8s-14.2-31.8-31.8-31.8s-31.8,14.2-31.8,31.8S641.1,184,658.7,184z"/>
	<path class="st1" d="M658.7,218.5c17.1,0,30.9-13.8,30.9-30.9c0-17.1-13.8-30.9-30.9-30.9c-17.1,0-30.9,13.8-30.9,30.9
		C627.8,204.7,641.6,218.5,658.7,218.5z"/>
	<path class="st1" d="M658.7,253.1c16.6,0,30-13.4,30-30s-13.4-30-30-30c-16.6,0-30,13.4-30,30S642.1,253.1,658.7,253.1z"/>
	<path class="st1" d="M658.7,287.6c16.1,0,29.1-13,29.1-29.1c0-16.1-13-29.1-29.1-29.1c-16.1,0-29.1,13-29.1,29.1
		C629.6,274.6,642.6,287.6,658.7,287.6z"/>
	<path class="st1" d="M658.7,322.1c15.6,0,28.2-12.6,28.2-28.2s-12.6-28.2-28.2-28.2c-15.6,0-28.2,12.6-28.2,28.2
		S643.1,322.1,658.7,322.1z"/>
	<path class="st1" d="M658.7,356.7c15.1,0,27.3-12.2,27.3-27.3s-12.2-27.3-27.3-27.3c-15.1,0-27.3,12.2-27.3,27.3
		S643.6,356.7,658.7,356.7z"/>
	<path class="st1" d="M658.7,391.2c14.6,0,26.4-11.8,26.4-26.4c0-14.6-11.8-26.4-26.4-26.4s-26.4,11.8-26.4,26.4
		C632.3,379.4,644.1,391.2,658.7,391.2z"/>
	<path class="st1" d="M658.7,425.7c14.1,0,25.5-11.4,25.5-25.5c0-14.1-11.4-25.5-25.5-25.5s-25.5,11.4-25.5,25.5
		C633.2,414.3,644.6,425.7,658.7,425.7z"/>
	<path class="st1" d="M658.7,460.2c13.5,0,24.5-11,24.5-24.5c0-13.5-11-24.5-24.5-24.5s-24.5,11-24.5,24.5
		C634.2,449.2,645.2,460.2,658.7,460.2z"/>
	<path class="st1" d="M658.7,494.7c13,0,23.6-10.6,23.6-23.6s-10.6-23.6-23.6-23.6s-23.6,10.6-23.6,23.6S645.7,494.7,658.7,494.7z"
		/>
	<path class="st1" d="M658.7,529.2c12.5,0,22.7-10.2,22.7-22.7s-10.2-22.7-22.7-22.7S636,494,636,506.5S646.2,529.2,658.7,529.2z"/>
	<path class="st1" d="M658.7,563.8c12,0,21.8-9.8,21.8-21.8s-9.8-21.8-21.8-21.8c-12,0-21.8,9.8-21.8,21.8S646.7,563.8,658.7,563.8z
		"/>
	<path class="st1" d="M658.7,598.3c11.5,0,20.9-9.4,20.9-20.9c0-11.5-9.4-20.9-20.9-20.9c-11.5,0-20.9,9.4-20.9,20.9
		C637.8,588.9,647.2,598.3,658.7,598.3z"/>
	<path class="st1" d="M658.7,632.8c11,0,20-9,20-20c0-11-9-20-20-20c-11,0-20,9-20,20C638.7,623.8,647.7,632.8,658.7,632.8z"/>
	<path class="st1" d="M658.7,667.4c10.5,0,19.1-8.6,19.1-19.1s-8.6-19.1-19.1-19.1s-19.1,8.6-19.1,19.1S648.2,667.4,658.7,667.4z"/>
	<path class="st1" d="M658.7,701.9c10.1,0,18.2-8.1,18.2-18.2s-8.1-18.2-18.2-18.2s-18.2,8.1-18.2,18.2S648.6,701.9,658.7,701.9z"/>
	<path class="st1" d="M658.7,736.4c9.6,0,17.3-7.7,17.3-17.3c0-9.6-7.7-17.3-17.3-17.3c-9.6,0-17.3,7.7-17.3,17.3
		C641.4,728.7,649.1,736.4,658.7,736.4z"/>
	<path class="st1" d="M658.7,771c9.1,0,16.4-7.3,16.4-16.4c0-9.1-7.3-16.4-16.4-16.4c-9.1,0-16.4,7.3-16.4,16.4
		C642.3,763.7,649.6,771,658.7,771z"/>
	<path class="st1" d="M658.7,805.5c8.6,0,15.5-6.9,15.5-15.5s-6.9-15.5-15.5-15.5s-15.5,6.9-15.5,15.5S650.1,805.5,658.7,805.5z"/>
	<path class="st1" d="M658.7,840c8.1,0,14.6-6.5,14.6-14.6c0-8.1-6.5-14.6-14.6-14.6s-14.6,6.5-14.6,14.6
		C644.1,833.5,650.6,840,658.7,840z"/>
	<path class="st1" d="M658.7,874.6c7.6,0,13.7-6.1,13.7-13.7c0-7.6-6.1-13.7-13.7-13.7c-7.6,0-13.7,6.1-13.7,13.7
		C645,868.5,651.1,874.6,658.7,874.6z"/>
	<path class="st1" d="M658.7,909.1c7.1,0,12.8-5.7,12.8-12.8c0-7.1-5.7-12.8-12.8-12.8c-7.1,0-12.8,5.7-12.8,12.8
		C645.9,903.4,651.6,909.1,658.7,909.1z"/>
</g>
<g class="st0">
	<path class="st1" d="M587.8,80.4c19.1,0,34.5-15.4,34.5-34.5c0-19.1-15.4-34.5-34.5-34.5s-34.5,15.4-34.5,34.5
		C553.3,65,568.7,80.4,587.8,80.4z"/>
	<path class="st1" d="M587.8,114.9c18.6,0,33.6-15,33.6-33.6s-15-33.6-33.6-33.6s-33.6,15-33.6,33.6S569.2,114.9,587.8,114.9z"/>
	<path class="st1" d="M587.8,149.5c18.1,0,32.7-14.6,32.7-32.7s-14.6-32.7-32.7-32.7s-32.7,14.6-32.7,32.7S569.7,149.5,587.8,149.5z
		"/>
	<path class="st1" d="M587.8,184c17.6,0,31.8-14.2,31.8-31.8s-14.2-31.8-31.8-31.8S556,134.6,556,152.2S570.2,184,587.8,184z"/>
	<path class="st1" d="M587.8,218.5c17.1,0,30.9-13.8,30.9-30.9c0-17.1-13.8-30.9-30.9-30.9c-17.1,0-30.9,13.8-30.9,30.9
		C556.9,204.7,570.7,218.5,587.8,218.5z"/>
	<path class="st1" d="M587.8,253.1c16.6,0,30-13.4,30-30s-13.4-30-30-30c-16.6,0-30,13.4-30,30S571.2,253.1,587.8,253.1z"/>
	<path class="st1" d="M587.8,287.6c16.1,0,29.1-13,29.1-29.1c0-16.1-13-29.1-29.1-29.1c-16.1,0-29.1,13-29.1,29.1
		C558.7,274.6,571.7,287.6,587.8,287.6z"/>
	<path class="st1" d="M587.8,322.1c15.6,0,28.2-12.6,28.2-28.2s-12.6-28.2-28.2-28.2c-15.6,0-28.2,12.6-28.2,28.2
		S572.2,322.1,587.8,322.1z"/>
	<path class="st1" d="M587.8,356.7c15.1,0,27.3-12.2,27.3-27.3s-12.2-27.3-27.3-27.3c-15.1,0-27.3,12.2-27.3,27.3
		S572.7,356.7,587.8,356.7z"/>
	<path class="st1" d="M587.8,391.2c14.6,0,26.4-11.8,26.4-26.4c0-14.6-11.8-26.4-26.4-26.4s-26.4,11.8-26.4,26.4
		C561.4,379.4,573.2,391.2,587.8,391.2z"/>
	<path class="st1" d="M587.8,425.7c14.1,0,25.5-11.4,25.5-25.5c0-14.1-11.4-25.5-25.5-25.5s-25.5,11.4-25.5,25.5
		C562.3,414.3,573.7,425.7,587.8,425.7z"/>
	<path class="st1" d="M587.8,460.2c13.5,0,24.5-11,24.5-24.5c0-13.5-11-24.5-24.5-24.5s-24.5,11-24.5,24.5
		C563.3,449.2,574.3,460.2,587.8,460.2z"/>
	<path class="st1" d="M587.8,494.7c13,0,23.6-10.6,23.6-23.6s-10.6-23.6-23.6-23.6s-23.6,10.6-23.6,23.6S574.8,494.7,587.8,494.7z"
		/>
	<path class="st1" d="M587.8,529.2c12.5,0,22.7-10.2,22.7-22.7s-10.2-22.7-22.7-22.7s-22.7,10.2-22.7,22.7S575.3,529.2,587.8,529.2z
		"/>
	<path class="st1" d="M587.8,563.8c12,0,21.8-9.8,21.8-21.8s-9.8-21.8-21.8-21.8c-12,0-21.8,9.8-21.8,21.8S575.8,563.8,587.8,563.8z
		"/>
	<path class="st1" d="M587.8,598.3c11.5,0,20.9-9.4,20.9-20.9c0-11.5-9.4-20.9-20.9-20.9c-11.5,0-20.9,9.4-20.9,20.9
		C566.9,588.9,576.3,598.3,587.8,598.3z"/>
	<path class="st1" d="M587.8,632.8c11,0,20-9,20-20c0-11-9-20-20-20c-11,0-20,9-20,20C567.8,623.8,576.8,632.8,587.8,632.8z"/>
	<path class="st1" d="M587.8,667.4c10.5,0,19.1-8.6,19.1-19.1s-8.6-19.1-19.1-19.1s-19.1,8.6-19.1,19.1S577.3,667.4,587.8,667.4z"/>
	<path class="st1" d="M587.8,701.9c10.1,0,18.2-8.1,18.2-18.2s-8.1-18.2-18.2-18.2c-10.1,0-18.2,8.1-18.2,18.2
		S577.7,701.9,587.8,701.9z"/>
	<path class="st1" d="M587.8,736.4c9.6,0,17.3-7.7,17.3-17.3c0-9.6-7.7-17.3-17.3-17.3s-17.3,7.7-17.3,17.3
		C570.5,728.7,578.2,736.4,587.8,736.4z"/>
	<path class="st1" d="M587.8,771c9.1,0,16.4-7.3,16.4-16.4c0-9.1-7.3-16.4-16.4-16.4c-9.1,0-16.4,7.3-16.4,16.4
		C571.4,763.7,578.7,771,587.8,771z"/>
	<path class="st1" d="M587.8,805.5c8.6,0,15.5-6.9,15.5-15.5s-6.9-15.5-15.5-15.5s-15.5,6.9-15.5,15.5S579.2,805.5,587.8,805.5z"/>
	<path class="st1" d="M587.8,840c8.1,0,14.6-6.5,14.6-14.6c0-8.1-6.5-14.6-14.6-14.6s-14.6,6.5-14.6,14.6
		C573.2,833.5,579.7,840,587.8,840z"/>
	<path class="st1" d="M587.8,874.6c7.6,0,13.7-6.1,13.7-13.7c0-7.6-6.1-13.7-13.7-13.7c-7.6,0-13.7,6.1-13.7,13.7
		C574.1,868.5,580.2,874.6,587.8,874.6z"/>
	<path class="st1" d="M587.8,909.1c7.1,0,12.8-5.7,12.8-12.8c0-7.1-5.7-12.8-12.8-12.8c-7.1,0-12.8,5.7-12.8,12.8
		C575,903.4,580.7,909.1,587.8,909.1z"/>
	<path class="st1" d="M517,805.5c8.6,0,15.5-6.9,15.5-15.5s-6.9-15.5-15.5-15.5s-15.5,6.9-15.5,15.5S508.4,805.5,517,805.5z"/>
	<path class="st1" d="M517,840c8.1,0,14.6-6.5,14.6-14.6c0-8.1-6.5-14.6-14.6-14.6s-14.6,6.5-14.6,14.6
		C502.4,833.5,508.9,840,517,840z"/>
	<path class="st1" d="M517,874.6c7.6,0,13.7-6.1,13.7-13.7c0-7.6-6.1-13.7-13.7-13.7c-7.6,0-13.7,6.1-13.7,13.7
		C503.3,868.5,509.4,874.6,517,874.6z"/>
	<path class="st1" d="M517,909.1c7.1,0,12.8-5.7,12.8-12.8c0-7.1-5.7-12.8-12.8-12.8c-7.1,0-12.8,5.7-12.8,12.8
		C504.2,903.4,509.9,909.1,517,909.1z"/>
	<path class="st1" d="M446.2,805.5c8.6,0,15.5-6.9,15.5-15.5s-6.9-15.5-15.5-15.5s-15.5,6.9-15.5,15.5S437.6,805.5,446.2,805.5z"/>
	<path class="st1" d="M446.2,840c8.1,0,14.6-6.5,14.6-14.6c0-8.1-6.5-14.6-14.6-14.6c-8.1,0-14.6,6.5-14.6,14.6
		C431.6,833.5,438.1,840,446.2,840z"/>
	<path class="st1" d="M446.2,874.6c7.6,0,13.7-6.1,13.7-13.7c0-7.6-6.1-13.7-13.7-13.7c-7.6,0-13.7,6.1-13.7,13.7
		C432.5,868.5,438.6,874.6,446.2,874.6z"/>
	<path class="st1" d="M446.2,909.1c7.1,0,12.8-5.7,12.8-12.8c0-7.1-5.7-12.8-12.8-12.8s-12.8,5.7-12.8,12.8
		C433.4,903.4,439.1,909.1,446.2,909.1z"/>
	<path class="st1" d="M375.4,805.5c8.6,0,15.5-6.9,15.5-15.5s-6.9-15.5-15.5-15.5s-15.5,6.9-15.5,15.5S366.8,805.5,375.4,805.5z"/>
	<path class="st1" d="M375.4,840c8.1,0,14.6-6.5,14.6-14.6c0-8.1-6.5-14.6-14.6-14.6c-8.1,0-14.6,6.5-14.6,14.6
		C360.8,833.5,367.3,840,375.4,840z"/>
	<path class="st1" d="M304.6,805.5c8.6,0,15.5-6.9,15.5-15.5s-6.9-15.5-15.5-15.5c-8.6,0-15.5,6.9-15.5,15.5S296,805.5,304.6,805.5z
		"/>
	<path class="st1" d="M304.6,840c8.1,0,14.6-6.5,14.6-14.6c0-8.1-6.5-14.6-14.6-14.6c-8.1,0-14.6,6.5-14.6,14.6
		C290,833.5,296.5,840,304.6,840z"/>
	<path class="st1" d="M233.8,805.5c8.6,0,15.5-6.9,15.5-15.5s-6.9-15.5-15.5-15.5s-15.5,6.9-15.5,15.5S225.2,805.5,233.8,805.5z"/>
	<path class="st1" d="M233.8,840c8.1,0,14.6-6.5,14.6-14.6c0-8.1-6.5-14.6-14.6-14.6s-14.6,6.5-14.6,14.6
		C219.2,833.5,225.7,840,233.8,840z"/>
	<path class="st1" d="M163,805.5c8.6,0,15.5-6.9,15.5-15.5s-6.9-15.5-15.5-15.5c-8.6,0-15.5,6.9-15.5,15.5S154.4,805.5,163,805.5z"
		/>
	<path class="st1" d="M163,840c8.1,0,14.6-6.5,14.6-14.6c0-8.1-6.5-14.6-14.6-14.6s-14.6,6.5-14.6,14.6
		C148.4,833.5,154.9,840,163,840z"/>
	<path class="st1" d="M92.2,805.5c8.6,0,15.5-6.9,15.5-15.5s-6.9-15.5-15.5-15.5s-15.5,6.9-15.5,15.5S83.6,805.5,92.2,805.5z"/>
	<path class="st1" d="M92.2,840c8.1,0,14.6-6.5,14.6-14.6c0-8.1-6.5-14.6-14.6-14.6s-14.6,6.5-14.6,14.6
		C77.6,833.5,84.1,840,92.2,840z"/>
</g>
<g class="st0">
	<path class="st1" d="M516.9,80.4c19.1,0,34.5-15.4,34.5-34.5c0-19.1-15.4-34.5-34.5-34.5c-19.1,0-34.5,15.4-34.5,34.5
		C482.4,65,497.8,80.4,516.9,80.4z"/>
	<path class="st1" d="M516.9,114.9c18.6,0,33.6-15,33.6-33.6s-15-33.6-33.6-33.6c-18.6,0-33.6,15-33.6,33.6S498.3,114.9,516.9,114.9
		z"/>
	<path class="st1" d="M516.9,149.5c18.1,0,32.7-14.6,32.7-32.7S535,84.1,516.9,84.1c-18.1,0-32.7,14.6-32.7,32.7
		S498.8,149.5,516.9,149.5z"/>
	<path class="st1" d="M516.9,184c17.6,0,31.8-14.2,31.8-31.8s-14.2-31.8-31.8-31.8c-17.6,0-31.8,14.2-31.8,31.8S499.3,184,516.9,184
		z"/>
	<path class="st1" d="M516.9,218.5c17.1,0,30.9-13.8,30.9-30.9c0-17.1-13.8-30.9-30.9-30.9c-17.1,0-30.9,13.8-30.9,30.9
		C486,204.7,499.8,218.5,516.9,218.5z"/>
	<path class="st1" d="M516.9,253.1c16.6,0,30-13.4,30-30s-13.4-30-30-30c-16.6,0-30,13.4-30,30S500.3,253.1,516.9,253.1z"/>
	<path class="st1" d="M516.9,287.6c16.1,0,29.1-13,29.1-29.1c0-16.1-13-29.1-29.1-29.1c-16.1,0-29.1,13-29.1,29.1
		C487.8,274.6,500.8,287.6,516.9,287.6z"/>
	<path class="st1" d="M516.9,322.1c15.6,0,28.2-12.6,28.2-28.2s-12.6-28.2-28.2-28.2c-15.6,0-28.2,12.6-28.2,28.2
		S501.3,322.1,516.9,322.1z"/>
	<path class="st1" d="M516.9,356.7c15.1,0,27.3-12.2,27.3-27.3s-12.2-27.3-27.3-27.3c-15.1,0-27.3,12.2-27.3,27.3
		S501.8,356.7,516.9,356.7z"/>
	<path class="st1" d="M516.9,391.2c14.6,0,26.4-11.8,26.4-26.4c0-14.6-11.8-26.4-26.4-26.4c-14.6,0-26.4,11.8-26.4,26.4
		C490.5,379.4,502.3,391.2,516.9,391.2z"/>
	<path class="st1" d="M516.9,425.7c14.1,0,25.5-11.4,25.5-25.5c0-14.1-11.4-25.5-25.5-25.5c-14.1,0-25.5,11.4-25.5,25.5
		C491.4,414.3,502.8,425.7,516.9,425.7z"/>
	<path class="st1" d="M516.9,460.2c13.5,0,24.5-11,24.5-24.5c0-13.5-11-24.5-24.5-24.5c-13.5,0-24.5,11-24.5,24.5
		C492.4,449.2,503.4,460.2,516.9,460.2z"/>
	<path class="st1" d="M516.9,494.7c13,0,23.6-10.6,23.6-23.6s-10.6-23.6-23.6-23.6c-13,0-23.6,10.6-23.6,23.6
		S503.9,494.7,516.9,494.7z"/>
	<path class="st1" d="M516.9,529.2c12.5,0,22.7-10.2,22.7-22.7s-10.2-22.7-22.7-22.7c-12.5,0-22.7,10.2-22.7,22.7
		S504.4,529.2,516.9,529.2z"/>
	<path class="st1" d="M516.9,563.8c12,0,21.8-9.8,21.8-21.8s-9.8-21.8-21.8-21.8c-12,0-21.8,9.8-21.8,21.8S504.9,563.8,516.9,563.8z
		"/>
	<path class="st1" d="M516.9,598.3c11.5,0,20.9-9.4,20.9-20.9c0-11.5-9.4-20.9-20.9-20.9c-11.5,0-20.9,9.4-20.9,20.9
		C496,588.9,505.4,598.3,516.9,598.3z"/>
	<path class="st1" d="M516.9,632.8c11,0,20-9,20-20c0-11-9-20-20-20s-20,9-20,20C496.9,623.8,505.9,632.8,516.9,632.8z"/>
	<path class="st1" d="M516.9,667.4c10.5,0,19.1-8.6,19.1-19.1s-8.6-19.1-19.1-19.1c-10.5,0-19.1,8.6-19.1,19.1
		S506.4,667.4,516.9,667.4z"/>
	<path class="st1" d="M516.9,701.9c10.1,0,18.2-8.1,18.2-18.2s-8.1-18.2-18.2-18.2c-10.1,0-18.2,8.1-18.2,18.2
		S506.8,701.9,516.9,701.9z"/>
	<path class="st1" d="M516.9,736.4c9.6,0,17.3-7.7,17.3-17.3c0-9.6-7.7-17.3-17.3-17.3c-9.6,0-17.3,7.7-17.3,17.3
		C499.6,728.7,507.3,736.4,516.9,736.4z"/>
	<path class="st1" d="M516.9,771c9.1,0,16.4-7.3,16.4-16.4c0-9.1-7.3-16.4-16.4-16.4c-9.1,0-16.4,7.3-16.4,16.4
		C500.5,763.7,507.8,771,516.9,771z"/>
</g>
<g class="st0">
	<path class="st1" d="M446.1,114.9c18.6,0,33.6-15,33.6-33.6s-15-33.6-33.6-33.6s-33.6,15-33.6,33.6S427.5,114.9,446.1,114.9z"/>
	<path class="st1" d="M446.1,149.5c18.1,0,32.7-14.6,32.7-32.7s-14.6-32.7-32.7-32.7s-32.7,14.6-32.7,32.7S428,149.5,446.1,149.5z"
		/>
	<path class="st1" d="M446.1,184c17.6,0,31.8-14.2,31.8-31.8s-14.2-31.8-31.8-31.8c-17.6,0-31.8,14.2-31.8,31.8S428.5,184,446.1,184
		z"/>
	<path class="st1" d="M446.1,218.5c17.1,0,30.9-13.8,30.9-30.9c0-17.1-13.8-30.9-30.9-30.9c-17.1,0-30.9,13.8-30.9,30.9
		C415.2,204.7,429,218.5,446.1,218.5z"/>
	<path class="st1" d="M446.1,253.1c16.6,0,30-13.4,30-30s-13.4-30-30-30s-30,13.4-30,30S429.5,253.1,446.1,253.1z"/>
	<path class="st1" d="M446.1,287.6c16.1,0,29.1-13,29.1-29.1c0-16.1-13-29.1-29.1-29.1c-16.1,0-29.1,13-29.1,29.1
		C417,274.6,430,287.6,446.1,287.6z"/>
	<path class="st1" d="M446.1,322.1c15.6,0,28.2-12.6,28.2-28.2s-12.6-28.2-28.2-28.2s-28.2,12.6-28.2,28.2S430.5,322.1,446.1,322.1z
		"/>
	<path class="st1" d="M446.1,356.7c15.1,0,27.3-12.2,27.3-27.3s-12.2-27.3-27.3-27.3s-27.3,12.2-27.3,27.3S431,356.7,446.1,356.7z"
		/>
	<path class="st1" d="M446.1,391.2c14.6,0,26.4-11.8,26.4-26.4c0-14.6-11.8-26.4-26.4-26.4c-14.6,0-26.4,11.8-26.4,26.4
		C419.7,379.4,431.5,391.2,446.1,391.2z"/>
	<path class="st1" d="M446.1,425.7c14.1,0,25.5-11.4,25.5-25.5c0-14.1-11.4-25.5-25.5-25.5s-25.5,11.4-25.5,25.5
		C420.6,414.3,432,425.7,446.1,425.7z"/>
	<path class="st1" d="M446.1,460.2c13.5,0,24.5-11,24.5-24.5c0-13.5-11-24.5-24.5-24.5s-24.5,11-24.5,24.5
		C421.6,449.2,432.6,460.2,446.1,460.2z"/>
	<path class="st1" d="M446.1,494.7c13,0,23.6-10.6,23.6-23.6s-10.6-23.6-23.6-23.6s-23.6,10.6-23.6,23.6S433.1,494.7,446.1,494.7z"
		/>
	<path class="st1" d="M446.1,529.2c12.5,0,22.7-10.2,22.7-22.7s-10.2-22.7-22.7-22.7c-12.5,0-22.7,10.2-22.7,22.7
		S433.6,529.2,446.1,529.2z"/>
	<path class="st1" d="M446.1,563.8c12,0,21.8-9.8,21.8-21.8s-9.8-21.8-21.8-21.8s-21.8,9.8-21.8,21.8S434.1,563.8,446.1,563.8z"/>
	<path class="st1" d="M446.1,598.3c11.5,0,20.9-9.4,20.9-20.9c0-11.5-9.4-20.9-20.9-20.9s-20.9,9.4-20.9,20.9
		C425.2,588.9,434.6,598.3,446.1,598.3z"/>
	<path class="st1" d="M446.1,632.8c11,0,20-9,20-20c0-11-9-20-20-20c-11,0-20,9-20,20C426.1,623.8,435.1,632.8,446.1,632.8z"/>
	<path class="st1" d="M446.1,667.4c10.5,0,19.1-8.6,19.1-19.1s-8.6-19.1-19.1-19.1c-10.5,0-19.1,8.6-19.1,19.1
		S435.6,667.4,446.1,667.4z"/>
	<path class="st1" d="M446.1,701.9c10.1,0,18.2-8.1,18.2-18.2s-8.1-18.2-18.2-18.2s-18.2,8.1-18.2,18.2S436,701.9,446.1,701.9z"/>
	<path class="st1" d="M446.1,736.4c9.6,0,17.3-7.7,17.3-17.3c0-9.6-7.7-17.3-17.3-17.3c-9.6,0-17.3,7.7-17.3,17.3
		C428.8,728.7,436.5,736.4,446.1,736.4z"/>
	<path class="st1" d="M446.1,771c9.1,0,16.4-7.3,16.4-16.4c0-9.1-7.3-16.4-16.4-16.4c-9.1,0-16.4,7.3-16.4,16.4
		C429.7,763.7,437,771,446.1,771z"/>
</g>
<g class="st0">
	<path class="st1" d="M375.2,149.5c18.1,0,32.7-14.6,32.7-32.7s-14.6-32.7-32.7-32.7s-32.7,14.6-32.7,32.7S357.1,149.5,375.2,149.5z
		"/>
	<path class="st1" d="M375.2,184c17.6,0,31.8-14.2,31.8-31.8s-14.2-31.8-31.8-31.8c-17.6,0-31.8,14.2-31.8,31.8S357.6,184,375.2,184
		z"/>
	<path class="st1" d="M375.2,218.5c17.1,0,30.9-13.8,30.9-30.9c0-17.1-13.8-30.9-30.9-30.9c-17.1,0-30.9,13.8-30.9,30.9
		C344.3,204.7,358.1,218.5,375.2,218.5z"/>
	<path class="st1" d="M375.2,253.1c16.6,0,30-13.4,30-30s-13.4-30-30-30c-16.6,0-30,13.4-30,30S358.6,253.1,375.2,253.1z"/>
	<path class="st1" d="M375.2,287.6c16.1,0,29.1-13,29.1-29.1c0-16.1-13-29.1-29.1-29.1c-16.1,0-29.1,13-29.1,29.1
		C346.1,274.6,359.1,287.6,375.2,287.6z"/>
	<path class="st1" d="M375.2,322.1c15.6,0,28.2-12.6,28.2-28.2s-12.6-28.2-28.2-28.2c-15.6,0-28.2,12.6-28.2,28.2
		S359.6,322.1,375.2,322.1z"/>
	<path class="st1" d="M375.2,356.7c15.1,0,27.3-12.2,27.3-27.3s-12.2-27.3-27.3-27.3c-15.1,0-27.3,12.2-27.3,27.3
		S360.1,356.7,375.2,356.7z"/>
	<path class="st1" d="M375.2,391.2c14.6,0,26.4-11.8,26.4-26.4c0-14.6-11.8-26.4-26.4-26.4c-14.6,0-26.4,11.8-26.4,26.4
		C348.8,379.4,360.6,391.2,375.2,391.2z"/>
	<path class="st1" d="M375.2,425.7c14.1,0,25.5-11.4,25.5-25.5c0-14.1-11.4-25.5-25.5-25.5c-14.1,0-25.5,11.4-25.5,25.5
		C349.7,414.3,361.1,425.7,375.2,425.7z"/>
	<path class="st1" d="M375.2,460.2c13.5,0,24.5-11,24.5-24.5c0-13.5-11-24.5-24.5-24.5c-13.5,0-24.5,11-24.5,24.5
		C350.7,449.2,361.7,460.2,375.2,460.2z"/>
	<path class="st1" d="M375.2,494.7c13,0,23.6-10.6,23.6-23.6s-10.6-23.6-23.6-23.6c-13,0-23.6,10.6-23.6,23.6
		S362.2,494.7,375.2,494.7z"/>
	<path class="st1" d="M375.2,529.2c12.5,0,22.7-10.2,22.7-22.7s-10.2-22.7-22.7-22.7c-12.5,0-22.7,10.2-22.7,22.7
		S362.7,529.2,375.2,529.2z"/>
	<path class="st1" d="M375.2,563.8c12,0,21.8-9.8,21.8-21.8s-9.8-21.8-21.8-21.8c-12,0-21.8,9.8-21.8,21.8S363.2,563.8,375.2,563.8z
		"/>
	<path class="st1" d="M375.2,598.3c11.5,0,20.9-9.4,20.9-20.9c0-11.5-9.4-20.9-20.9-20.9s-20.9,9.4-20.9,20.9
		C354.3,588.9,363.7,598.3,375.2,598.3z"/>
	<path class="st1" d="M375.2,632.8c11,0,20-9,20-20c0-11-9-20-20-20c-11,0-20,9-20,20C355.2,623.8,364.2,632.8,375.2,632.8z"/>
	<path class="st1" d="M375.2,667.4c10.5,0,19.1-8.6,19.1-19.1s-8.6-19.1-19.1-19.1c-10.5,0-19.1,8.6-19.1,19.1
		S364.7,667.4,375.2,667.4z"/>
	<path class="st1" d="M375.2,701.9c10.1,0,18.2-8.1,18.2-18.2s-8.1-18.2-18.2-18.2s-18.2,8.1-18.2,18.2S365.1,701.9,375.2,701.9z"/>
	<path class="st1" d="M375.2,736.4c9.6,0,17.3-7.7,17.3-17.3c0-9.6-7.7-17.3-17.3-17.3c-9.6,0-17.3,7.7-17.3,17.3
		C357.9,728.7,365.6,736.4,375.2,736.4z"/>
	<path class="st1" d="M375.2,771c9.1,0,16.4-7.3,16.4-16.4c0-9.1-7.3-16.4-16.4-16.4c-9.1,0-16.4,7.3-16.4,16.4
		C358.8,763.7,366.1,771,375.2,771z"/>
</g>
<g class="st0">
	<path class="st1" d="M304.3,184c17.6,0,31.8-14.2,31.8-31.8s-14.2-31.8-31.8-31.8c-17.6,0-31.8,14.2-31.8,31.8S286.7,184,304.3,184
		z"/>
	<path class="st1" d="M304.3,218.5c17.1,0,30.9-13.8,30.9-30.9c0-17.1-13.8-30.9-30.9-30.9c-17.1,0-30.9,13.8-30.9,30.9
		C273.4,204.7,287.2,218.5,304.3,218.5z"/>
	<path class="st1" d="M304.3,253.1c16.6,0,30-13.4,30-30s-13.4-30-30-30c-16.6,0-30,13.4-30,30S287.7,253.1,304.3,253.1z"/>
	<path class="st1" d="M304.3,287.6c16.1,0,29.1-13,29.1-29.1c0-16.1-13-29.1-29.1-29.1c-16.1,0-29.1,13-29.1,29.1
		C275.2,274.6,288.2,287.6,304.3,287.6z"/>
	<path class="st1" d="M304.3,322.1c15.6,0,28.2-12.6,28.2-28.2s-12.6-28.2-28.2-28.2c-15.6,0-28.2,12.6-28.2,28.2
		S288.7,322.1,304.3,322.1z"/>
	<path class="st1" d="M304.3,356.7c15.1,0,27.3-12.2,27.3-27.3s-12.2-27.3-27.3-27.3c-15.1,0-27.3,12.2-27.3,27.3
		S289.2,356.7,304.3,356.7z"/>
	<path class="st1" d="M304.3,391.2c14.6,0,26.4-11.8,26.4-26.4c0-14.6-11.8-26.4-26.4-26.4c-14.6,0-26.4,11.8-26.4,26.4
		C277.9,379.4,289.7,391.2,304.3,391.2z"/>
	<path class="st1" d="M304.3,425.7c14.1,0,25.5-11.4,25.5-25.5c0-14.1-11.4-25.5-25.5-25.5s-25.5,11.4-25.5,25.5
		C278.8,414.3,290.2,425.7,304.3,425.7z"/>
	<path class="st1" d="M304.3,460.2c13.5,0,24.5-11,24.5-24.5c0-13.5-11-24.5-24.5-24.5s-24.5,11-24.5,24.5
		C279.8,449.2,290.8,460.2,304.3,460.2z"/>
	<path class="st1" d="M304.3,494.7c13,0,23.6-10.6,23.6-23.6s-10.6-23.6-23.6-23.6c-13,0-23.6,10.6-23.6,23.6
		S291.3,494.7,304.3,494.7z"/>
	<path class="st1" d="M304.3,529.2c12.5,0,22.7-10.2,22.7-22.7s-10.2-22.7-22.7-22.7c-12.5,0-22.7,10.2-22.7,22.7
		S291.8,529.2,304.3,529.2z"/>
	<path class="st1" d="M304.3,563.8c12,0,21.8-9.8,21.8-21.8s-9.8-21.8-21.8-21.8c-12,0-21.8,9.8-21.8,21.8S292.3,563.8,304.3,563.8z
		"/>
	<path class="st1" d="M304.3,598.3c11.5,0,20.9-9.4,20.9-20.9c0-11.5-9.4-20.9-20.9-20.9c-11.5,0-20.9,9.4-20.9,20.9
		C283.4,588.9,292.8,598.3,304.3,598.3z"/>
	<path class="st1" d="M304.3,632.8c11,0,20-9,20-20c0-11-9-20-20-20c-11,0-20,9-20,20C284.3,623.8,293.3,632.8,304.3,632.8z"/>
	<path class="st1" d="M304.3,667.4c10.5,0,19.1-8.6,19.1-19.1s-8.6-19.1-19.1-19.1c-10.5,0-19.1,8.6-19.1,19.1
		S293.8,667.4,304.3,667.4z"/>
	<path class="st1" d="M304.3,701.9c10.1,0,18.2-8.1,18.2-18.2s-8.1-18.2-18.2-18.2s-18.2,8.1-18.2,18.2S294.2,701.9,304.3,701.9z"/>
	<path class="st1" d="M304.3,736.4c9.6,0,17.3-7.7,17.3-17.3c0-9.6-7.7-17.3-17.3-17.3c-9.6,0-17.3,7.7-17.3,17.3
		C287,728.7,294.7,736.4,304.3,736.4z"/>
	<path class="st1" d="M304.3,771c9.1,0,16.4-7.3,16.4-16.4c0-9.1-7.3-16.4-16.4-16.4s-16.4,7.3-16.4,16.4
		C287.9,763.7,295.2,771,304.3,771z"/>
</g>
<g class="st0">
	<path class="st1" d="M233.5,253.1c16.6,0,30-13.4,30-30s-13.4-30-30-30s-30,13.4-30,30S216.9,253.1,233.5,253.1z"/>
	<path class="st1" d="M233.5,287.6c16.1,0,29.1-13,29.1-29.1c0-16.1-13-29.1-29.1-29.1c-16.1,0-29.1,13-29.1,29.1
		C204.4,274.6,217.4,287.6,233.5,287.6z"/>
	<path class="st1" d="M233.5,322.1c15.6,0,28.2-12.6,28.2-28.2s-12.6-28.2-28.2-28.2s-28.2,12.6-28.2,28.2S217.9,322.1,233.5,322.1z
		"/>
	<path class="st1" d="M233.5,356.7c15.1,0,27.3-12.2,27.3-27.3s-12.2-27.3-27.3-27.3s-27.3,12.2-27.3,27.3S218.4,356.7,233.5,356.7z
		"/>
	<path class="st1" d="M233.5,391.2c14.6,0,26.4-11.8,26.4-26.4c0-14.6-11.8-26.4-26.4-26.4s-26.4,11.8-26.4,26.4
		C207.1,379.4,218.9,391.2,233.5,391.2z"/>
	<path class="st1" d="M233.5,425.7c14.1,0,25.5-11.4,25.5-25.5c0-14.1-11.4-25.5-25.5-25.5S208,386.1,208,400.2
		C208,414.3,219.4,425.7,233.5,425.7z"/>
	<path class="st1" d="M233.5,460.2c13.5,0,24.5-11,24.5-24.5c0-13.5-11-24.5-24.5-24.5s-24.5,11-24.5,24.5
		C209,449.2,220,460.2,233.5,460.2z"/>
	<path class="st1" d="M233.5,494.7c13,0,23.6-10.6,23.6-23.6s-10.6-23.6-23.6-23.6s-23.6,10.6-23.6,23.6S220.5,494.7,233.5,494.7z"
		/>
	<path class="st1" d="M233.5,529.2c12.5,0,22.7-10.2,22.7-22.7s-10.2-22.7-22.7-22.7s-22.7,10.2-22.7,22.7S221,529.2,233.5,529.2z"
		/>
	<path class="st1" d="M233.5,563.8c12,0,21.8-9.8,21.8-21.8s-9.8-21.8-21.8-21.8s-21.8,9.8-21.8,21.8S221.5,563.8,233.5,563.8z"/>
	<path class="st1" d="M233.5,598.3c11.5,0,20.9-9.4,20.9-20.9c0-11.5-9.4-20.9-20.9-20.9s-20.9,9.4-20.9,20.9
		C212.6,588.9,222,598.3,233.5,598.3z"/>
	<path class="st1" d="M233.5,632.8c11,0,20-9,20-20c0-11-9-20-20-20s-20,9-20,20C213.5,623.8,222.5,632.8,233.5,632.8z"/>
	<path class="st1" d="M233.5,667.4c10.5,0,19.1-8.6,19.1-19.1s-8.6-19.1-19.1-19.1s-19.1,8.6-19.1,19.1S223,667.4,233.5,667.4z"/>
	<path class="st1" d="M233.5,701.9c10.1,0,18.2-8.1,18.2-18.2s-8.1-18.2-18.2-18.2s-18.2,8.1-18.2,18.2S223.4,701.9,233.5,701.9z"/>
	<path class="st1" d="M233.5,736.4c9.6,0,17.3-7.7,17.3-17.3c0-9.6-7.7-17.3-17.3-17.3c-9.6,0-17.3,7.7-17.3,17.3
		C216.2,728.7,223.9,736.4,233.5,736.4z"/>
	<path class="st1" d="M233.5,771c9.1,0,16.4-7.3,16.4-16.4c0-9.1-7.3-16.4-16.4-16.4c-9.1,0-16.4,7.3-16.4,16.4
		C217.1,763.7,224.4,771,233.5,771z"/>
</g>
<g class="st0">
	<path class="st1" d="M162.6,322.1c15.6,0,28.2-12.6,28.2-28.2s-12.6-28.2-28.2-28.2s-28.2,12.6-28.2,28.2S147,322.1,162.6,322.1z"
		/>
	<path class="st1" d="M162.6,356.7c15.1,0,27.3-12.2,27.3-27.3s-12.2-27.3-27.3-27.3s-27.3,12.2-27.3,27.3S147.5,356.7,162.6,356.7z
		"/>
	<path class="st1" d="M162.6,391.2c14.6,0,26.4-11.8,26.4-26.4c0-14.6-11.8-26.4-26.4-26.4c-14.6,0-26.4,11.8-26.4,26.4
		C136.2,379.4,148,391.2,162.6,391.2z"/>
	<path class="st1" d="M162.6,425.7c14.1,0,25.5-11.4,25.5-25.5c0-14.1-11.4-25.5-25.5-25.5c-14.1,0-25.5,11.4-25.5,25.5
		C137.1,414.3,148.5,425.7,162.6,425.7z"/>
	<path class="st1" d="M162.6,460.2c13.5,0,24.5-11,24.5-24.5c0-13.5-11-24.5-24.5-24.5c-13.5,0-24.5,11-24.5,24.5
		C138.1,449.2,149.1,460.2,162.6,460.2z"/>
	<path class="st1" d="M162.6,494.7c13,0,23.6-10.6,23.6-23.6s-10.6-23.6-23.6-23.6S139,458.1,139,471.1S149.6,494.7,162.6,494.7z"/>
	<path class="st1" d="M162.6,529.2c12.5,0,22.7-10.2,22.7-22.7s-10.2-22.7-22.7-22.7c-12.5,0-22.7,10.2-22.7,22.7
		S150.1,529.2,162.6,529.2z"/>
	<path class="st1" d="M162.6,563.8c12,0,21.8-9.8,21.8-21.8s-9.8-21.8-21.8-21.8c-12,0-21.8,9.8-21.8,21.8S150.6,563.8,162.6,563.8z
		"/>
	<path class="st1" d="M162.6,598.3c11.5,0,20.9-9.4,20.9-20.9c0-11.5-9.4-20.9-20.9-20.9s-20.9,9.4-20.9,20.9
		C141.7,588.9,151.1,598.3,162.6,598.3z"/>
	<path class="st1" d="M162.6,632.8c11,0,20-9,20-20c0-11-9-20-20-20c-11,0-20,9-20,20C142.6,623.8,151.6,632.8,162.6,632.8z"/>
	<path class="st1" d="M162.6,667.4c10.5,0,19.1-8.6,19.1-19.1s-8.6-19.1-19.1-19.1c-10.5,0-19.1,8.6-19.1,19.1
		S152.1,667.4,162.6,667.4z"/>
	<path class="st1" d="M162.6,701.9c10.1,0,18.2-8.1,18.2-18.2s-8.1-18.2-18.2-18.2c-10.1,0-18.2,8.1-18.2,18.2
		S152.5,701.9,162.6,701.9z"/>
	<path class="st1" d="M162.6,736.4c9.6,0,17.3-7.7,17.3-17.3c0-9.6-7.7-17.3-17.3-17.3c-9.6,0-17.3,7.7-17.3,17.3
		C145.3,728.7,153,736.4,162.6,736.4z"/>
	<path class="st1" d="M162.6,771c9.1,0,16.4-7.3,16.4-16.4c0-9.1-7.3-16.4-16.4-16.4c-9.1,0-16.4,7.3-16.4,16.4
		C146.2,763.7,153.5,771,162.6,771z"/>
</g>
<g class="st0">
	<path class="st1" d="M91.7,391.2c14.6,0,26.4-11.8,26.4-26.4c0-14.6-11.8-26.4-26.4-26.4c-14.6,0-26.4,11.8-26.4,26.4
		C65.3,379.4,77.1,391.2,91.7,391.2z"/>
	<path class="st1" d="M91.7,425.7c14.1,0,25.5-11.4,25.5-25.5c0-14.1-11.4-25.5-25.5-25.5c-14.1,0-25.5,11.4-25.5,25.5
		C66.2,414.3,77.6,425.7,91.7,425.7z"/>
	<path class="st1" d="M91.7,460.2c13.5,0,24.5-11,24.5-24.5c0-13.5-11-24.5-24.5-24.5c-13.5,0-24.5,11-24.5,24.5
		C67.2,449.2,78.2,460.2,91.7,460.2z"/>
	<path class="st1" d="M91.7,494.7c13,0,23.6-10.6,23.6-23.6s-10.6-23.6-23.6-23.6s-23.6,10.6-23.6,23.6S78.7,494.7,91.7,494.7z"/>
	<path class="st1" d="M91.7,529.2c12.5,0,22.7-10.2,22.7-22.7s-10.2-22.7-22.7-22.7S69,494,69,506.5S79.2,529.2,91.7,529.2z"/>
	<path class="st1" d="M91.7,563.8c12,0,21.8-9.8,21.8-21.8s-9.8-21.8-21.8-21.8S69.9,530,69.9,542S79.7,563.8,91.7,563.8z"/>
	<path class="st1" d="M91.7,598.3c11.5,0,20.9-9.4,20.9-20.9c0-11.5-9.4-20.9-20.9-20.9c-11.5,0-20.9,9.4-20.9,20.9
		C70.8,588.9,80.2,598.3,91.7,598.3z"/>
	<path class="st1" d="M91.7,632.8c11,0,20-9,20-20c0-11-9-20-20-20s-20,9-20,20C71.7,623.8,80.7,632.8,91.7,632.8z"/>
	<path class="st1" d="M91.7,667.4c10.5,0,19.1-8.6,19.1-19.1s-8.6-19.1-19.1-19.1s-19.1,8.6-19.1,19.1S81.2,667.4,91.7,667.4z"/>
	<path class="st1" d="M91.7,701.9c10.1,0,18.2-8.1,18.2-18.2s-8.1-18.2-18.2-18.2s-18.2,8.1-18.2,18.2S81.6,701.9,91.7,701.9z"/>
	<path class="st1" d="M91.7,736.4c9.6,0,17.3-7.7,17.3-17.3c0-9.6-7.7-17.3-17.3-17.3c-9.6,0-17.3,7.7-17.3,17.3
		C74.4,728.7,82.1,736.4,91.7,736.4z"/>
	<path class="st1" d="M91.7,771c9.1,0,16.4-7.3,16.4-16.4c0-9.1-7.3-16.4-16.4-16.4c-9.1,0-16.4,7.3-16.4,16.4
		C75.3,763.7,82.6,771,91.7,771z"/>
</g>
<path class="st2" d="M1331.4,909.9l-958.3-12l958.3-12c6.6-0.1,12.1,5.2,12.2,11.9s-5.2,12.1-11.9,12.2
	C1331.7,909.9,1331.5,909.9,1331.4,909.9z"/>
<path class="st2" d="M1331.4,874.4l-922.9-12l922.9-12c6.6-0.1,12.1,5.2,12.2,11.9s-5.2,12.1-11.9,12.2
	C1331.7,874.4,1331.5,874.4,1331.4,874.4z"/>
<path class="st2" d="M1331.4,839L444,827l887.4-12c6.6-0.1,12.1,5.2,12.2,11.8c0.1,6.6-5.2,12.1-11.8,12.2
	C1331.7,839,1331.5,839,1331.4,839z"/>
<path class="st2" d="M1331.4,803.6l-743.7-12l743.7-12c6.6-0.1,12.1,5.2,12.2,11.8c0.1,6.6-5.2,12.1-11.8,12.2
	C1331.7,803.6,1331.5,803.6,1331.4,803.6z"/>
<path class="st2" d="M1331.4,768.1l-672.8-12l672.8-12c6.6-0.1,12.1,5.2,12.2,11.8c0.1,6.6-5.2,12.1-11.8,12.2
	C1331.7,768.2,1331.6,768.1,1331.4,768.1z"/>
<path class="st2" d="M1331.4,732.7l-602.4-12l602.4-12c6.6-0.1,12.1,5.1,12.2,11.8s-5.1,12.1-11.8,12.2
	C1331.8,732.7,1331.6,732.7,1331.4,732.7z"/>
<path class="st2" d="M1331.4,697.3l-566.9-12l566.9-12c6.6-0.1,12.1,5.1,12.3,11.8c0.1,6.6-5.1,12.1-11.8,12.3
	C1331.8,697.3,1331.6,697.3,1331.4,697.3z"/>
<path class="st2" d="M1331.4,661.8l-531.5-12l531.5-12c6.6-0.1,12.1,5.1,12.3,11.7c0.2,6.6-5.1,12.1-11.7,12.3
	C1331.8,661.9,1331.6,661.9,1331.4,661.8z"/>
<path class="st2" d="M1331.4,626.4l-496.1-12l496.1-12c6.6-0.2,12.1,5.1,12.3,11.7c0.2,6.6-5.1,12.1-11.7,12.3
	C1331.8,626.4,1331.6,626.4,1331.4,626.4z"/>
<path class="st2" d="M1331.4,591l-460.6-12l460.6-12c6.6-0.2,12.1,5.1,12.3,11.7c0.2,6.6-5.1,12.1-11.7,12.3
	C1331.9,591,1331.6,591,1331.4,591z"/>
<path class="st2" d="M1331.4,555.5l-425.2-12l425.2-12c6.6-0.2,12.2,5,12.3,11.7c0.1,6.7-5,12.2-11.7,12.3
	C1331.9,555.6,1331.7,555.6,1331.4,555.5z"/>
<path class="st2" d="M1331.4,520.1l-318.9-12l318.9-12c6.6-0.2,12.2,4.9,12.5,11.6c0.2,6.6-4.9,12.2-11.6,12.5
	C1332,520.1,1331.7,520.1,1331.4,520.1z"/>
<path class="st2" d="M1331.4,484.7l-248-12l248-12c6.6-0.3,12.3,4.8,12.6,11.4c0.3,6.6-4.8,12.3-11.4,12.6
	C1332.2,484.7,1331.8,484.7,1331.4,484.7z"/>
<path class="st2" d="M1331.4,449.3l-194.9-12l194.9-12c6.6-0.4,12.3,4.6,12.7,11.3c0.4,6.6-4.6,12.3-11.3,12.7
	C1332.4,449.3,1331.9,449.3,1331.4,449.3z"/>
<path class="st2" d="M1331.4,413.8l-159.4-12l159.4-12c6.6-0.5,12.4,4.5,12.9,11.1s-4.5,12.4-11.1,12.9
	C1332.7,413.9,1332,413.9,1331.4,413.8z"/>
<path class="st2" d="M1331.4,378.4l-124-12l124-12c6.6-0.6,12.5,4.2,13.2,10.8c0.6,6.6-4.2,12.5-10.8,13.2
	C1333,378.5,1332.2,378.5,1331.4,378.4z"/>
<path class="st2" d="M1331.4,343l-88.6-12l88.6-12c6.6-0.9,12.7,3.7,13.6,10.4c0.9,6.7-3.7,12.7-10.4,13.6
	C1333.6,343.1,1332.5,343.1,1331.4,343z"/>
<path class="st2" d="M1331.4,307.5l-70.9-12l70.9-12c6.6-1.1,12.9,3.3,14,10s-3.3,12.9-10,14
	C1334.1,307.8,1332.7,307.7,1331.4,307.5z"/>
<path class="st2" d="M1331.4,272.1l-53.1-12l53.1-12c6.6-1.5,13.2,2.7,14.7,9.3s-2.7,13.2-9.3,14.7
	C1335,272.5,1333.2,272.5,1331.4,272.1z"/>
<path class="st2" d="M1331.4,236.7l-35.4-12l35.4-12c6.6-2.2,13.8,1.3,16.1,7.9s-1.3,13.8-7.9,16.1
	C1336.8,237.6,1334,237.5,1331.4,236.7z"/>
<path class="st3" d="M91.2,851.1c-1.7-6.4-2.8-12.8-3.7-19.2c-0.9-6.4-1.6-12.8-2.1-19.2c-0.5-6.4-0.8-12.8-0.9-19.2
	c-0.2-6.4-0.1-12.8,0.5-19.2c1.1-12.8,3.8-25.6,4.4-38.4c0.3-6.4,0.2-12.8-0.1-19.2c-0.3-6.4-1-12.8-1.8-19.2
	c-0.4-3.2-0.8-6.4-1.2-9.6c-0.4-3.2-0.7-6.4-1-9.6c-0.6-6.4-0.9-12.8-1.2-19.2c-0.7-12.8-1.3-25.6-1-38.4c0.1-6.4,0.4-12.8,0.8-19.2
	c0.4-6.4,0.9-12.8,1.5-19.2c0.6-6.4,1.4-12.8,2.3-19.2c1-6.4,2-12.8,3.5-19.2h1.7c1.5,6.4,2.6,12.8,3.5,19.2
	c0.9,6.4,1.7,12.8,2.3,19.2c0.6,6.4,1.2,12.8,1.5,19.2c0.4,6.4,0.7,12.8,0.8,19.2c0.3,12.8-0.4,25.6-1.1,38.4
	c-0.3,6.4-0.6,12.8-1.2,19.2c-0.3,3.2-0.6,6.4-1,9.6c-0.4,3.2-0.8,6.4-1.2,9.6c-0.8,6.4-1.5,12.8-1.8,19.2
	c-0.3,6.4-0.4,12.8-0.1,19.2c0.5,12.8,3.3,25.6,4.4,38.4c0.6,6.4,0.7,12.8,0.5,19.2c-0.1,6.4-0.5,12.8-0.9,19.2
	c-0.5,6.4-1.1,12.8-2.1,19.2c-0.9,6.4-2,12.8-3.7,19.2H91.2z"/>
<path class="st3" d="M126.7,851.1c-1.7-6.4-2.8-12.8-3.7-19.2c-0.9-6.4-1.6-12.8-2.1-19.2c-0.5-6.4-0.8-12.8-0.9-19.2
	c-0.2-6.4-0.1-12.8,0.5-19.2c1.1-12.8,3.8-25.6,4.4-38.4c0.3-6.4,0.2-12.8-0.1-19.2c-0.3-6.4-1-12.8-1.8-19.2
	c-0.4-3.2-0.8-6.4-1.2-9.6c-0.4-3.2-0.7-6.4-1-9.6c-0.6-6.4-0.9-12.8-1.2-19.2c-0.7-12.8-1.3-25.6-1.1-38.4
	c0.1-6.4,0.4-12.8,0.8-19.2c0.4-6.4,0.9-12.8,1.5-19.2c0.6-6.4,1.4-12.8,2.3-19.2c1-6.4,2-12.8,3.5-19.2h1.7
	c1.5,6.4,2.6,12.8,3.5,19.2c0.9,6.4,1.7,12.8,2.3,19.2c0.6,6.4,1.2,12.8,1.5,19.2c0.4,6.4,0.7,12.8,0.8,19.2
	c0.3,12.8-0.4,25.6-1.1,38.4c-0.3,6.4-0.6,12.8-1.2,19.2c-0.3,3.2-0.6,6.4-1,9.6c-0.4,3.2-0.8,6.4-1.2,9.6
	c-0.8,6.4-1.5,12.8-1.8,19.2c-0.3,6.4-0.4,12.8-0.1,19.2c0.5,12.8,3.3,25.6,4.4,38.4c0.6,6.4,0.7,12.8,0.5,19.2
	c-0.1,6.4-0.5,12.8-0.9,19.2c-0.5,6.4-1.1,12.8-2.1,19.2c-0.9,6.4-2,12.8-3.7,19.2H126.7z"/>
<path class="st3" d="M162.1,851.1c-1.7-6.4-2.8-12.8-3.7-19.2c-0.9-6.4-1.6-12.8-2.1-19.2c-0.5-6.4-0.8-12.8-0.9-19.2
	c-0.2-6.4-0.1-12.8,0.5-19.2c1.1-12.8,3.8-25.6,4.4-38.4c0.3-6.4,0.2-12.8-0.1-19.2c-0.3-6.4-1-12.8-1.8-19.2
	c-0.4-3.2-0.8-6.4-1.2-9.6c-0.4-3.2-0.7-6.4-1-9.6c-0.6-6.4-0.9-12.8-1.2-19.2c-0.7-12.8-1.3-25.6-1.1-38.4
	c0.1-6.4,0.4-12.8,0.8-19.2c0.4-6.4,0.9-12.8,1.5-19.2c0.6-6.4,1.4-12.8,2.3-19.2c1-6.4,2-12.8,3.5-19.2h1.7
	c1.5,6.4,2.6,12.8,3.5,19.2c0.9,6.4,1.7,12.8,2.3,19.2c0.6,6.4,1.2,12.8,1.5,19.2c0.4,6.4,0.7,12.8,0.8,19.2
	c0.3,12.8-0.4,25.6-1.1,38.4c-0.3,6.4-0.6,12.8-1.2,19.2c-0.3,3.2-0.6,6.4-1,9.6c-0.4,3.2-0.8,6.4-1.2,9.6
	c-0.8,6.4-1.5,12.8-1.8,19.2c-0.3,6.4-0.4,12.8-0.1,19.2c0.5,12.8,3.3,25.6,4.4,38.4c0.6,6.4,0.7,12.8,0.5,19.2
	c-0.1,6.4-0.5,12.8-0.9,19.2c-0.5,6.4-1.1,12.8-2.1,19.2c-0.9,6.4-2,12.8-3.7,19.2H162.1z"/>
<path class="st3" d="M197.5,851.1c-1.7-7.1-2.8-14.3-3.7-21.4c-0.9-7.1-1.6-14.3-2.1-21.4c-0.5-7.1-0.8-14.3-0.9-21.4
	c-0.2-7.1-0.1-14.3,0.5-21.4c1.1-14.3,3.8-28.6,4.4-42.9c0.3-7.1,0.2-14.3-0.1-21.4c-0.3-7.1-1-14.3-1.8-21.4l-1.2-10.7
	c-0.4-3.6-0.7-7.1-1-10.7c-0.6-7.1-0.9-14.3-1.2-21.4c-0.7-14.3-1.3-28.6-1.1-42.9c0.1-7.1,0.4-14.3,0.8-21.4
	c0.4-7.1,0.9-14.3,1.5-21.4c0.6-7.1,1.4-14.3,2.3-21.4c1-7.1,2-14.3,3.5-21.4h1.7c1.5,7.1,2.6,14.3,3.5,21.4
	c0.9,7.1,1.7,14.3,2.3,21.4c0.6,7.1,1.2,14.3,1.5,21.4c0.4,7.1,0.7,14.3,0.8,21.4c0.3,14.3-0.4,28.6-1,42.9
	c-0.3,7.1-0.6,14.3-1.2,21.4c-0.3,3.6-0.6,7.1-1,10.7l-1.2,10.7c-0.8,7.1-1.5,14.3-1.8,21.4c-0.3,7.1-0.4,14.3-0.1,21.4
	c0.5,14.3,3.3,28.6,4.4,42.9c0.6,7.1,0.7,14.3,0.5,21.4c-0.1,7.1-0.5,14.3-0.9,21.4c-0.5,7.1-1.1,14.3-2.1,21.4
	c-0.9,7.1-2,14.3-3.7,21.4H197.5z"/>
<path class="st3" d="M233,851.1c-1.7-8.3-2.8-16.5-3.7-24.8c-0.9-8.3-1.6-16.5-2.1-24.8s-0.8-16.5-0.9-24.8
	c-0.2-8.3-0.1-16.5,0.5-24.8c1.1-16.5,3.8-33,4.3-49.5c0.6-16.5-0.3-33-1.9-49.5l-1.2-12.4c-0.4-4.1-0.7-8.3-1-12.4
	c-0.6-8.3-0.9-16.5-1.2-24.8c-0.6-16.5-1.3-33-1-49.5s1.1-33,2.4-49.5c0.6-8.3,1.4-16.5,2.3-24.8c1-8.3,2-16.5,3.5-24.8h1.7
	c1.5,8.3,2.5,16.5,3.5,24.8c0.9,8.3,1.7,16.5,2.3,24.8c1.3,16.5,2.1,33,2.4,49.5c0.3,16.5-0.4,33-1,49.5c-0.3,8.3-0.6,16.5-1.2,24.8
	c-0.3,4.1-0.6,8.3-1,12.4l-1.2,12.4c-1.6,16.5-2.5,33-1.9,49.5c0.5,16.5,3.3,33,4.3,49.5c0.6,8.3,0.7,16.5,0.5,24.8
	c-0.1,8.3-0.5,16.5-0.9,24.8c-0.5,8.3-1.1,16.5-2.1,24.8c-0.9,8.3-2,16.5-3.7,24.8H233z"/>
<path class="st3" d="M268.4,851.1c-1.7-9.7-2.8-19.5-3.7-29.2c-0.9-9.7-1.6-19.5-2.1-29.2s-0.8-19.5-0.9-29.2
	c-0.2-9.7-0.1-19.5,0.5-29.2c1.1-19.5,3.8-38.9,4.3-58.4c0.6-19.5-0.3-38.9-1.9-58.4l-1.2-14.6c-0.4-4.9-0.7-9.7-1-14.6
	c-0.6-9.7-0.9-19.5-1.2-29.2c-0.6-19.5-1.3-38.9-1-58.4c0.3-19.5,1.1-38.9,2.4-58.4c0.6-9.7,1.4-19.5,2.3-29.2
	c1-9.7,2-19.5,3.5-29.2h1.7c1.5,9.7,2.5,19.5,3.5,29.2c0.9,9.7,1.7,19.5,2.3,29.2c1.3,19.5,2.1,38.9,2.4,58.4
	c0.3,19.5-0.4,38.9-1,58.4c-0.3,9.7-0.6,19.5-1.2,29.2c-0.3,4.9-0.6,9.7-1,14.6l-1.2,14.6c-1.6,19.5-2.5,38.9-1.9,58.4
	c0.5,19.5,3.3,38.9,4.3,58.4c0.6,9.7,0.7,19.5,0.5,29.2c-0.1,9.7-0.5,19.5-0.9,29.2c-0.5,9.7-1.1,19.5-2.1,29.2
	c-0.9,9.7-2,19.5-3.7,29.2H268.4z"/>
<path class="st3" d="M303.8,851.1c-1.7-11.2-2.8-22.4-3.7-33.6s-1.6-22.4-2.1-33.6c-0.5-11.2-0.8-22.4-0.9-33.6
	c-0.2-11.2-0.1-22.4,0.5-33.6c1.1-22.4,3.8-44.8,4.3-67.2c0.6-22.4-0.3-44.8-1.9-67.2l-1.2-16.8c-0.4-5.6-0.7-11.2-1-16.8
	c-0.6-11.2-0.9-22.4-1.2-33.6c-0.6-22.4-1.3-44.8-1-67.2c0.3-22.4,1.1-44.8,2.4-67.2c0.6-11.2,1.4-22.4,2.3-33.6
	c1-11.2,2-22.4,3.5-33.6h1.7c1.5,11.2,2.5,22.4,3.5,33.6c0.9,11.2,1.7,22.4,2.3,33.6c1.3,22.4,2.1,44.8,2.4,67.2
	c0.3,22.4-0.4,44.8-1,67.2c-0.3,11.2-0.6,22.4-1.2,33.6c-0.3,5.6-0.6,11.2-1,16.8l-1.2,16.8c-1.6,22.4-2.5,44.8-1.9,67.2
	c0.5,22.4,3.3,44.8,4.3,67.2c0.6,11.2,0.7,22.4,0.5,33.6c-0.1,11.2-0.5,22.4-0.9,33.6c-0.5,11.2-1.1,22.4-2.1,33.6
	c-0.9,11.2-2,22.4-3.7,33.6H303.8z"/>
<path class="st3" d="M339.3,851.1c-1.7-12.3-2.8-24.6-3.7-36.9s-1.6-24.6-2.1-36.9s-0.8-24.6-0.9-36.9c-0.2-12.3-0.1-24.6,0.5-36.9
	c1.1-24.6,3.8-49.3,4.3-73.9c0.6-24.6-0.3-49.3-1.9-73.9l-1.2-18.5l-0.6-9.2l-0.5-9.2c-0.6-12.3-0.9-24.6-1.2-36.9
	c-0.7-24.6-1.3-49.3-1-73.9s1.1-49.3,2.4-73.9c0.6-12.3,1.4-24.6,2.4-36.9c0.9-12.3,2-24.6,3.5-36.9h1.7c1.5,12.3,2.6,24.6,3.5,36.9
	c1,12.3,1.7,24.6,2.4,36.9c1.3,24.6,2.1,49.3,2.4,73.9c0.3,24.6-0.4,49.3-1,73.9c-0.3,12.3-0.6,24.6-1.2,36.9l-0.5,9.2l-0.6,9.2
	l-1.2,18.5c-1.6,24.6-2.5,49.3-1.9,73.9c0.5,24.6,3.3,49.3,4.3,73.9c0.6,12.3,0.7,24.6,0.5,36.9c-0.1,12.3-0.5,24.6-0.9,36.9
	c-0.5,12.3-1.1,24.6-2.1,36.9c-0.9,12.3-2,24.6-3.7,36.9H339.3z"/>
<path class="st3" d="M374.7,851.1c-1.7-15.3-2.8-30.5-3.7-45.8s-1.6-30.5-2.1-45.8s-0.8-30.5-0.9-45.8c-0.2-15.3-0.1-30.5,0.5-45.8
	c1.1-30.5,3.8-61.1,4.3-91.6c0.3-15.3,0.2-30.5-0.1-45.8c-0.1-3.8-0.2-7.6-0.3-11.4l-0.4-11.4c-0.3-7.6-0.7-15.3-1-22.9l-1.2-22.9
	l-0.6-11.4l-0.5-11.4c-0.6-15.3-0.9-30.5-1.2-45.8c-0.6-30.5-1.3-61.1-1-91.6s1.1-61.1,2.4-91.6c0.3-7.6,0.7-15.3,1.1-22.9l0.6-11.4
	l0.7-11.4c0.9-15.3,2-30.5,3.5-45.8h1.7c1.5,15.3,2.6,30.5,3.5,45.8l0.7,11.4l0.6,11.4c0.4,7.6,0.8,15.3,1.1,22.9
	c1.3,30.5,2.1,61.1,2.4,91.6c0.3,30.5-0.4,61.1-1,91.6c-0.3,15.3-0.6,30.5-1.2,45.8l-0.5,11.4l-0.6,11.4l-1.2,22.9
	c-0.3,7.6-0.8,15.3-1,22.9l-0.4,11.4c-0.1,3.8-0.2,7.6-0.3,11.4c-0.3,15.3-0.4,30.5-0.1,45.8c0.5,30.5,3.3,61.1,4.3,91.6
	c0.6,15.3,0.7,30.5,0.5,45.8c-0.1,15.3-0.5,30.5-0.9,45.8c-0.5,15.3-1.1,30.5-2.1,45.8c-0.9,15.3-2,30.5-3.7,45.8H374.7z"/>
<path class="st3" d="M410.1,897.9c-1.7-17.3-2.8-34.7-3.7-52c-0.9-17.3-1.6-34.7-2.1-52c-0.5-17.3-0.8-34.7-0.9-52
	c-0.2-17.3-0.1-34.7,0.5-52c1.1-34.7,3.8-69.4,4.3-104.1c0.3-17.3,0.2-34.7-0.1-52c-0.1-4.3-0.2-8.7-0.3-13l-0.4-13
	c-0.3-8.7-0.7-17.3-1-26l-1.2-26l-0.6-13l-0.5-13c-0.6-17.3-0.9-34.7-1.2-52c-0.6-34.7-1.3-69.4-1-104.1
	c0.3-34.7,1.1-69.4,2.4-104.1c0.3-8.7,0.7-17.3,1.1-26l0.6-13l0.7-13c0.9-17.3,2-34.7,3.5-52h1.7c1.5,17.3,2.6,34.7,3.5,52l0.7,13
	l0.6,13c0.4,8.7,0.8,17.3,1.1,26c1.3,34.7,2.1,69.4,2.4,104.1c0.3,34.7-0.4,69.4-1,104.1c-0.3,17.3-0.6,34.7-1.2,52l-0.5,13l-0.6,13
	l-1.2,26c-0.3,8.7-0.8,17.3-1,26l-0.4,13c-0.1,4.3-0.2,8.7-0.3,13c-0.3,17.3-0.4,34.7-0.1,52c0.5,34.7,3.2,69.4,4.3,104.1
	c0.6,17.3,0.7,34.7,0.5,52c-0.1,17.3-0.5,34.7-0.9,52c-0.5,17.3-1.1,34.7-2.1,52c-0.9,17.3-2,34.7-3.7,52H410.1z"/>
<path class="st3" d="M445.6,897.9c-1.7-17.7-2.7-35.4-3.7-53.1c-0.9-17.7-1.6-35.4-2.1-53.1s-0.8-35.4-0.9-53.1
	c-0.2-17.7-0.1-35.4,0.5-53.1c1.1-35.4,3.8-70.9,4.3-106.3c0.3-17.7,0.2-35.4-0.1-53.1c-0.1-4.4-0.2-8.9-0.3-13.3l-0.4-13.3
	c-0.3-8.9-0.7-17.7-1-26.6l-1.1-26.6l-0.6-13.3l-0.5-13.3c-0.6-17.7-0.9-35.4-1.2-53.1L438,340l-0.4-26.6
	c-0.3-17.7-0.3-35.4-0.2-53.1c0.1-17.7,0.4-35.4,0.8-53.1l0.7-26.6l0.9-26.6c0.3-8.9,0.7-17.7,1.1-26.6l0.6-13.3l0.7-13.3
	c0.9-17.7,2-35.4,3.5-53.1h1.7c1.5,17.7,2.6,35.4,3.5,53.1l0.7,13.3l0.6,13.3c0.4,8.9,0.8,17.7,1.1,26.6l0.9,26.6l0.7,26.6
	c0.4,17.7,0.7,35.4,0.8,53.1c0.1,17.7,0.1,35.4-0.2,53.1l-0.4,26.6l-0.5,26.6c-0.3,17.7-0.6,35.4-1.2,53.1l-0.5,13.3l-0.6,13.3
	l-1.1,26.6c-0.3,8.9-0.8,17.7-1,26.6l-0.4,13.3c-0.1,4.4-0.2,8.9-0.3,13.3c-0.3,17.7-0.4,35.4-0.1,53.1c0.5,35.4,3.2,70.9,4.3,106.3
	c0.6,17.7,0.7,35.4,0.5,53.1c-0.1,17.7-0.5,35.4-0.9,53.1c-0.5,17.7-1.1,35.4-2.1,53.1s-2,35.4-3.7,53.1H445.6z"/>
<path class="st3" d="M481,897.9c-1.7-18.1-2.7-36.2-3.7-54.3c-0.9-18.1-1.6-36.2-2.1-54.3c-0.5-18.1-0.8-36.2-0.9-54.3
	c-0.2-18.1-0.1-36.2,0.5-54.3c1.1-36.2,3.8-72.3,4.3-108.5c0.3-18.1,0.2-36.2-0.1-54.3c-0.1-4.5-0.2-9-0.3-13.6l-0.4-13.6
	c-0.3-9-0.7-18.1-1-27.1l-1.1-27.1l-0.6-13.6l-0.5-13.6c-0.6-18.1-0.9-36.2-1.2-54.3l-0.5-27.1L473,301c-0.3-18.1-0.3-36.2-0.2-54.3
	c0.1-18.1,0.4-36.2,0.8-54.3l0.7-27.1l0.9-27.1c0.3-9,0.7-18.1,1.1-27.1l0.6-13.6l0.7-13.6c0.9-18.1,2-36.2,3.5-54.3h1.7
	c1.5,18.1,2.6,36.2,3.5,54.3l0.7,13.6l0.6,13.6c0.4,9,0.8,18.1,1.1,27.1l0.9,27.1l0.7,27.1c0.4,18.1,0.7,36.2,0.8,54.3
	c0.1,18.1,0.1,36.2-0.2,54.3l-0.4,27.1l-0.5,27.1c-0.3,18.1-0.6,36.2-1.2,54.3l-0.5,13.6l-0.6,13.6l-1.1,27.1
	c-0.3,9-0.8,18.1-1,27.1l-0.4,13.6c-0.1,4.5-0.2,9-0.3,13.6c-0.3,18.1-0.4,36.2-0.1,54.3c0.5,36.2,3.2,72.3,4.3,108.5
	c0.6,18.1,0.7,36.2,0.5,54.3c-0.1,18.1-0.5,36.2-0.9,54.3c-0.5,18.1-1.1,36.2-2.1,54.3c-1,18.1-2,36.2-3.7,54.3H481V897.9z"/>
<path class="st3" d="M516.4,897.9c-1.7-18.5-2.7-36.9-3.7-55.4c-0.9-18.5-1.6-36.9-2.1-55.4s-0.8-36.9-0.9-55.4
	c-0.2-18.5-0.1-36.9,0.5-55.4c1.1-36.9,3.8-73.8,4.3-110.7c0.3-18.5,0.2-36.9-0.1-55.4c-0.1-4.6-0.2-9.2-0.3-13.8l-0.4-13.8
	c-0.3-9.2-0.7-18.5-1-27.7l-1.1-27.7l-0.6-13.8l-0.5-13.8c-0.6-18.5-0.9-36.9-1.2-55.4l-0.5-27.7l-0.4-27.7
	c-0.3-18.5-0.3-36.9-0.2-55.4c0.1-18.5,0.4-36.9,0.8-55.4l0.7-27.7l0.9-27.7c0.3-9.2,0.7-18.5,1.1-27.7l0.6-13.8l0.7-13.8
	c0.9-18.5,2-36.9,3.5-55.4h1.7c1.5,18.5,2.6,36.9,3.5,55.4l0.7,13.8l0.6,13.8c0.4,9.2,0.8,18.5,1.1,27.7l0.9,27.7l0.7,27.7
	c0.4,18.5,0.7,36.9,0.8,55.4s0.1,36.9-0.2,55.4l-0.4,27.7l-0.5,27.7c-0.3,18.5-0.6,36.9-1.2,55.4l-0.5,13.8l-0.6,13.8l-1.1,27.7
	c-0.3,9.2-0.8,18.5-1,27.7l-0.4,13.8c-0.1,4.6-0.2,9.2-0.3,13.8c-0.3,18.5-0.4,36.9-0.1,55.4c0.5,36.9,3.2,73.8,4.3,110.7
	c0.6,18.5,0.7,36.9,0.5,55.4c-0.1,18.5-0.5,36.9-0.9,55.4c-0.5,18.5-1.1,36.9-2.1,55.4s-2,36.9-3.7,55.4H516.4z"/>
<path class="st3" d="M551.8,897.9c-1.7-18.5-2.7-36.9-3.7-55.4c-0.9-18.5-1.6-36.9-2.1-55.4s-0.8-36.9-0.9-55.4
	c-0.2-18.5-0.1-36.9,0.5-55.4c1.1-36.9,3.8-73.8,4.3-110.7c0.3-18.5,0.2-36.9-0.1-55.4c-0.1-4.6-0.2-9.2-0.3-13.8l-0.4-13.8
	c-0.3-9.2-0.7-18.5-1-27.7l-1.1-27.7l-0.6-13.8l-0.5-13.8c-0.6-18.5-0.9-36.9-1.2-55.4l-0.5-27.7l-0.4-27.7
	c-0.3-18.5-0.3-36.9-0.2-55.4c0.1-18.5,0.4-36.9,0.8-55.4l0.7-27.7l0.9-27.7c0.3-9.2,0.7-18.5,1.1-27.7l0.6-13.8l0.7-13.8
	c0.9-18.5,2-36.9,3.5-55.4h1.7c1.5,18.5,2.6,36.9,3.5,55.4l0.7,13.8l0.6,13.8c0.4,9.2,0.8,18.5,1.1,27.7l0.9,27.7l0.7,27.7
	c0.4,18.5,0.7,36.9,0.8,55.4c0.1,18.5,0.1,36.9-0.2,55.4l-0.4,27.7l-0.5,27.7c-0.3,18.5-0.6,36.9-1.2,55.4l-0.5,13.8l-0.6,13.8
	l-1.1,27.7c-0.4,9.2-0.8,18.5-1,27.7l-0.4,13.8c-0.1,4.6-0.2,9.2-0.3,13.8c-0.3,18.5-0.4,36.9-0.1,55.4c0.5,36.9,3.2,73.8,4.3,110.7
	c0.6,18.5,0.7,36.9,0.5,55.4c-0.1,18.5-0.5,36.9-0.9,55.4c-0.5,18.5-1.1,36.9-2.1,55.4s-2,36.9-3.7,55.4H551.8z"/>
<path class="st3" d="M587.3,897.9c-1.7-18.5-2.7-36.9-3.7-55.4c-0.9-18.5-1.6-36.9-2.1-55.4s-0.8-36.9-0.9-55.4
	c-0.2-18.5-0.1-36.9,0.5-55.4c1.1-36.9,3.8-73.8,4.3-110.7c0.3-18.5,0.2-36.9-0.1-55.4c-0.1-4.6-0.2-9.2-0.3-13.8l-0.4-13.8
	c-0.3-9.2-0.7-18.5-1-27.7l-1.1-27.7l-0.6-13.8l-0.5-13.8c-0.6-18.5-0.9-36.9-1.2-55.4l-0.5-27.7l-0.4-27.7
	c-0.3-18.5-0.3-36.9-0.2-55.4c0.1-18.5,0.4-36.9,0.8-55.4l0.7-27.7l0.9-27.7c0.3-9.2,0.7-18.5,1.1-27.7l0.6-13.8l0.7-13.8
	c0.9-18.5,2-36.9,3.5-55.4h1.7c1.5,18.5,2.6,36.9,3.5,55.4l0.7,13.8l0.6,13.8c0.4,9.2,0.8,18.5,1.1,27.7l0.9,27.7l0.7,27.7
	c0.4,18.5,0.7,36.9,0.8,55.4c0.1,18.5,0.1,36.9-0.2,55.4l-0.4,27.7l-0.5,27.7c-0.3,18.5-0.6,36.9-1.2,55.4l-0.5,13.8l-0.6,13.8
	l-1.1,27.7c-0.3,9.2-0.8,18.5-1,27.7l-0.4,13.8c-0.1,4.6-0.2,9.2-0.3,13.8c-0.3,18.5-0.4,36.9-0.1,55.4c0.5,36.9,3.2,73.8,4.3,110.7
	c0.6,18.5,0.7,36.9,0.5,55.4c-0.1,18.5-0.5,36.9-0.9,55.4c-0.5,18.5-1.1,36.9-2.1,55.4s-2,36.9-3.7,55.4H587.3z"/>
<path class="st3" d="M622.7,897.9c-1.7-18.1-2.7-36.2-3.7-54.3c-0.9-18.1-1.6-36.2-2.1-54.3c-0.5-18.1-0.8-36.2-0.9-54.3
	c-0.2-18.1-0.1-36.2,0.5-54.3c1.1-36.2,3.8-72.3,4.3-108.5c0.3-18.1,0.2-36.2-0.1-54.3c-0.1-4.5-0.2-9-0.3-13.6l-0.4-13.6
	c-0.3-9-0.7-18.1-1-27.1l-1.1-27.1l-0.6-13.6l-0.5-13.6c-0.6-18.1-0.9-36.2-1.2-54.3l-0.5-27.1l-0.4-27.1
	c-0.3-18.1-0.3-36.2-0.2-54.3s0.4-36.2,0.8-54.3l0.7-27.1l0.9-27.1c0.3-9,0.7-18.1,1.1-27.1l0.6-13.6l0.7-13.6
	c0.9-18.1,2-36.2,3.5-54.3h1.7c1.5,18.1,2.6,36.2,3.5,54.3l0.7,13.6l0.6,13.6c0.4,9,0.8,18.1,1.1,27.1l0.9,27.1l0.7,27.1
	c0.4,18.1,0.7,36.2,0.8,54.3c0.1,18.1,0.1,36.2-0.2,54.3l-0.4,27.1l-0.5,27.1c-0.3,18.1-0.6,36.2-1.2,54.3l-0.5,13.6l-0.6,13.6
	l-1.1,27.1c-0.4,9-0.8,18.1-1,27.1l-0.4,13.6c-0.1,4.5-0.2,9-0.3,13.6c-0.3,18.1-0.4,36.2-0.1,54.3c0.5,36.2,3.2,72.3,4.3,108.5
	c0.6,18.1,0.7,36.2,0.5,54.3c-0.1,18.1-0.5,36.2-0.9,54.3c-0.5,18.1-1.1,36.2-2.1,54.3c-1,18.1-2,36.2-3.7,54.3H622.7z"/>
<path class="st3" d="M658.1,897.9c-1.7-18.1-2.7-36.2-3.7-54.3c-0.9-18.1-1.6-36.2-2.1-54.3c-0.5-18.1-0.8-36.2-0.9-54.3
	c-0.2-18.1-0.1-36.2,0.5-54.3c1.1-36.2,3.8-72.3,4.3-108.5c0.3-18.1,0.2-36.2-0.1-54.3c-0.1-4.5-0.2-9-0.3-13.6l-0.4-13.6
	c-0.3-9-0.7-18.1-1-27.1l-1.1-27.1l-0.6-13.6l-0.5-13.6c-0.6-18.1-0.9-36.2-1.2-54.3l-0.5-27.1l-0.4-27.1
	c-0.3-18.1-0.3-36.2-0.2-54.3c0.1-18.1,0.4-36.2,0.8-54.3l0.7-27.1l0.9-27.1c0.3-9,0.7-18.1,1.1-27.1l0.6-13.6l0.7-13.6
	c0.9-18.1,2-36.2,3.5-54.3h1.7c1.5,18.1,2.6,36.2,3.5,54.3l0.7,13.6l0.6,13.6c0.4,9,0.8,18.1,1.1,27.1l0.9,27.1l0.7,27.1
	c0.4,18.1,0.7,36.2,0.8,54.3c0.1,18.1,0.1,36.2-0.2,54.3l-0.4,27.1l-0.5,27.1c-0.3,18.1-0.6,36.2-1.2,54.3l-0.5,13.6l-0.6,13.6
	l-1.1,27.1c-0.3,9-0.8,18.1-1,27.1l-0.4,13.6c-0.1,4.5-0.2,9-0.3,13.6c-0.3,18.1-0.4,36.2-0.1,54.3c0.5,36.2,3.2,72.3,4.3,108.5
	c0.6,18.1,0.7,36.2,0.5,54.3c-0.1,18.1-0.5,36.2-0.9,54.3c-0.5,18.1-1.1,36.2-2.1,54.3c-1,18.1-2,36.2-3.7,54.3H658.1z"/>
<path class="st3" d="M693.6,897.9c-1.7-17.7-2.7-35.4-3.7-53.1c-0.9-17.7-1.6-35.4-2.1-53.1s-0.8-35.4-0.9-53.1
	c-0.2-17.7-0.1-35.4,0.5-53.1c1.1-35.4,3.8-70.9,4.3-106.3c0.3-17.7,0.2-35.4-0.1-53.1c-0.1-4.4-0.2-8.9-0.3-13.3l-0.4-13.3
	c-0.3-8.9-0.7-17.7-1-26.6l-1.1-26.6l-0.6-13.3l-0.5-13.3c-0.6-17.7-0.9-35.4-1.2-53.1L686,340l-0.4-26.6
	c-0.3-17.7-0.3-35.4-0.2-53.1c0.1-17.7,0.4-35.4,0.8-53.1l0.7-26.6l0.9-26.6c0.3-8.9,0.7-17.7,1.1-26.6l0.6-13.3l0.7-13.3
	c0.9-17.7,2-35.4,3.5-53.1h1.7c1.5,17.7,2.6,35.4,3.5,53.1l0.7,13.3l0.6,13.3c0.4,8.9,0.8,17.7,1.1,26.6l0.9,26.6l0.7,26.6
	c0.4,17.7,0.7,35.4,0.8,53.1c0.1,17.7,0.1,35.4-0.2,53.1l-0.4,26.6l-0.5,26.6c-0.3,17.7-0.6,35.4-1.2,53.1l-0.5,13.3l-0.6,13.3
	l-1.1,26.6c-0.3,8.9-0.8,17.7-1,26.6l-0.4,13.3c-0.1,4.4-0.2,8.9-0.3,13.3c-0.3,17.7-0.4,35.4-0.1,53.1c0.5,35.4,3.2,70.9,4.3,106.3
	c0.6,17.7,0.7,35.4,0.5,53.1c-0.1,17.7-0.5,35.4-0.9,53.1c-0.5,17.7-1.1,35.4-2.1,53.1s-2,35.4-3.7,53.1H693.6z"/>
<path class="st3" d="M729,897.9c-1.7-17-2.8-34-3.7-50.9c-0.9-17-1.6-34-2.1-50.9c-0.5-17-0.8-34-0.9-50.9c-0.2-17-0.1-34,0.5-50.9
	c1.1-34,3.8-67.9,4.3-101.9c0.3-17,0.2-34-0.1-50.9c-0.1-4.2-0.2-8.5-0.3-12.7l-0.4-12.7c-0.3-8.5-0.7-17-1-25.5l-1.2-25.5
	l-0.6-12.7l-0.5-12.7c-0.6-17-0.9-34-1.2-50.9c-0.6-34-1.3-67.9-1-101.9s1.1-67.9,2.4-101.9c0.3-8.5,0.7-17,1.1-25.5l0.6-12.7
	l0.7-12.7c0.9-17,2-34,3.5-50.9h1.7c1.5,17,2.6,34,3.5,50.9l0.7,12.7l0.6,12.7c0.4,8.5,0.8,17,1.1,25.5c1.3,34,2.1,67.9,2.4,101.9
	c0.3,34-0.4,67.9-1,101.9c-0.3,17-0.6,34-1.2,50.9l-0.5,12.7l-0.6,12.7l-1.2,25.5c-0.3,8.5-0.8,17-1,25.5l-0.4,12.7
	c-0.1,4.2-0.2,8.5-0.3,12.7c-0.3,17-0.4,34-0.1,50.9c0.5,34,3.2,67.9,4.3,101.9c0.6,17,0.7,34,0.5,50.9c-0.1,17-0.5,34-0.9,50.9
	c-0.5,17-1.1,34-2.1,50.9c-0.9,17-2,34-3.7,50.9H729z"/>
<path class="st3" d="M764.4,897.9c-1.7-15.9-2.8-31.7-3.7-47.6c-0.9-15.9-1.6-31.7-2.1-47.6c-0.5-15.9-0.8-31.7-0.9-47.6
	c-0.2-15.9-0.1-31.7,0.5-47.6c1.1-31.7,3.8-63.5,4.3-95.2c0.3-15.9,0.2-31.7-0.1-47.6c-0.1-4-0.2-7.9-0.3-11.9l-0.4-11.9
	c-0.3-7.9-0.7-15.9-1-23.8l-1.2-23.8l-0.6-11.9l-0.5-11.9c-0.6-15.9-0.9-31.7-1.2-47.6c-0.7-31.7-1.3-63.5-1-95.2s1.1-63.5,2.4-95.2
	c0.3-7.9,0.7-15.9,1.1-23.8l0.6-11.9l0.7-11.9c0.9-15.9,2-31.7,3.5-47.6h1.7c1.5,15.9,2.6,31.7,3.5,47.6l0.7,11.9l0.6,11.9
	c0.4,7.9,0.8,15.9,1.1,23.8c1.3,31.7,2.1,63.5,2.4,95.2s-0.4,63.5-1,95.2c-0.3,15.9-0.6,31.7-1.2,47.6l-0.5,11.9l-0.6,11.9L770,517
	c-0.3,7.9-0.8,15.9-1,23.8l-0.4,11.9c-0.1,4-0.2,7.9-0.3,11.9c-0.3,15.9-0.4,31.7-0.1,47.6c0.5,31.7,3.2,63.5,4.3,95.2
	c0.6,15.9,0.7,31.7,0.5,47.6c-0.1,15.9-0.5,31.7-0.9,47.6c-0.5,15.9-1.1,31.7-2.1,47.6c-0.9,15.9-2,31.7-3.7,47.6h-1.9V897.9z"/>
<path class="st3" d="M799.9,897.9c-1.7-14.4-2.8-28.8-3.7-43.2c-0.9-14.4-1.6-28.8-2.1-43.2s-0.8-28.8-0.9-43.2
	c-0.2-14.4-0.1-28.8,0.5-43.2c1.1-28.8,3.8-57.6,4.3-86.4c0.3-14.4,0.2-28.8-0.1-43.2c-0.1-3.6-0.2-7.2-0.3-10.8l-0.4-10.8
	c-0.3-7.2-0.7-14.4-1-21.6l-1.2-21.6l-0.6-10.8l-0.5-10.8c-0.6-14.4-0.9-28.8-1.2-43.2c-0.6-28.8-1.3-57.6-1-86.4s1.1-57.6,2.4-86.4
	c0.3-7.2,0.7-14.4,1.1-21.6l0.6-10.8l0.7-10.8c0.9-14.4,2-28.8,3.5-43.2h1.7c1.5,14.4,2.6,28.8,3.5,43.2l0.7,10.8l0.6,10.8
	c0.4,7.2,0.8,14.4,1.1,21.6c1.3,28.8,2.1,57.6,2.4,86.4s-0.4,57.6-1,86.4c-0.3,14.4-0.6,28.8-1.2,43.2l-0.5,10.8l-0.5,10.8
	l-1.2,21.6c-0.3,7.2-0.8,14.4-1,21.6l-0.4,10.8c-0.1,3.6-0.2,7.2-0.3,10.8c-0.3,14.4-0.4,28.8-0.1,43.2c0.5,28.8,3.3,57.6,4.3,86.4
	c0.6,14.4,0.7,28.8,0.5,43.2c-0.1,14.4-0.5,28.8-0.9,43.2c-0.5,14.4-1.1,28.8-2.1,43.2c-0.9,14.4-2,28.8-3.7,43.2H799.9z"/>
<path class="st3" d="M835.3,897.9c-1.7-13.3-2.8-26.6-3.7-39.9c-0.9-13.3-1.6-26.6-2.1-39.9c-0.5-13.3-0.8-26.6-0.9-39.9
	c-0.2-13.3-0.1-26.6,0.5-39.9c1.1-26.6,3.8-53.1,4.3-79.7c0.6-26.6-0.3-53.1-1.9-79.7l-1.2-19.9l-0.6-10l-0.5-10
	c-0.6-13.3-0.9-26.6-1.2-39.9c-0.7-26.6-1.3-53.1-1-79.7s1.1-53.1,2.4-79.7c0.6-13.3,1.4-26.6,2.4-39.9c0.9-13.3,2-26.6,3.5-39.9
	h1.7c1.5,13.3,2.6,26.6,3.5,39.9c1,13.3,1.7,26.6,2.4,39.9c1.3,26.6,2.1,53.1,2.4,79.7s-0.4,53.1-1,79.7
	c-0.3,13.3-0.6,26.6-1.2,39.9l-0.5,10l-0.6,10l-1.2,19.9c-1.6,26.6-2.5,53.1-1.9,79.7c0.5,26.6,3.3,53.1,4.3,79.7
	c0.6,13.3,0.7,26.6,0.5,39.9c-0.1,13.3-0.5,26.6-0.9,39.9c-0.5,13.3-1.1,26.6-2.1,39.9c-0.9,13.3-2,26.6-3.7,39.9H835.3z"/>
<path class="st3" d="M870.7,897.9c-1.7-11.8-2.8-23.6-3.7-35.4s-1.6-23.6-2.1-35.4c-0.5-11.8-0.8-23.6-0.9-35.4
	c-0.2-11.8-0.1-23.6,0.5-35.4c1.1-23.6,3.8-47.2,4.3-70.9c0.6-23.6-0.3-47.2-1.9-70.9l-1.2-17.7l-0.6-8.9l-0.5-8.9
	c-0.6-11.8-0.9-23.6-1.2-35.4c-0.6-23.6-1.3-47.2-1-70.9c0.3-23.6,1.1-47.2,2.4-70.9c0.6-11.8,1.4-23.6,2.4-35.4
	c0.9-11.8,2-23.6,3.5-35.4h1.7c1.5,11.8,2.6,23.6,3.5,35.4c1,11.8,1.7,23.6,2.4,35.4c1.3,23.6,2.1,47.2,2.4,70.9
	c0.3,23.6-0.4,47.2-1,70.9c-0.3,11.8-0.6,23.6-1.2,35.4l-0.5,8.9l-0.6,8.9l-1.2,17.7c-1.6,23.6-2.5,47.2-1.9,70.9
	c0.5,23.6,3.3,47.2,4.3,70.9c0.6,11.8,0.7,23.6,0.5,35.4c-0.1,11.8-0.5,23.6-0.9,35.4c-0.5,11.8-1.1,23.6-2.1,35.4
	c-0.9,11.8-2,23.6-3.7,35.4H870.7z"/>
<path class="st3" d="M906.2,897.9c-1.7-10.7-2.8-21.4-3.7-32.1s-1.6-21.4-2.1-32.1s-0.8-21.4-0.9-32.1c-0.2-10.7-0.1-21.4,0.5-32.1
	c1.1-21.4,3.8-42.8,4.3-64.2c0.6-21.4-0.3-42.8-1.9-64.2l-1.2-16.1c-0.4-5.4-0.7-10.7-1-16.1c-0.6-10.7-0.9-21.4-1.2-32.1
	c-0.7-21.4-1.3-42.8-1-64.2c0.3-21.4,1.1-42.8,2.4-64.2c0.6-10.7,1.4-21.4,2.3-32.1c1-10.7,2-21.4,3.5-32.1h1.7
	c1.5,10.7,2.5,21.4,3.5,32.1c0.9,10.7,1.7,21.4,2.3,32.1c1.3,21.4,2.1,42.8,2.4,64.2c0.3,21.4-0.4,42.8-1,64.2
	c-0.3,10.7-0.6,21.4-1.2,32.1c-0.3,5.4-0.6,10.7-1,16.1l-1.2,16.1c-1.6,21.4-2.5,42.8-1.9,64.2c0.5,21.4,3.3,42.8,4.3,64.2
	c0.6,10.7,0.7,21.4,0.5,32.1c-0.1,10.7-0.5,21.4-0.9,32.1c-0.5,10.7-1.1,21.4-2.1,32.1c-0.9,10.7-2,21.4-3.7,32.1H906.2z"/>
<path class="st3" d="M941.6,897.9c-1.7-9.6-2.8-19.2-3.7-28.8c-0.9-9.6-1.6-19.2-2.1-28.8c-0.5-9.6-0.8-19.2-0.9-28.8
	c-0.2-9.6-0.1-19.2,0.5-28.8c1.1-19.2,3.8-38.4,4.3-57.6c0.6-19.2-0.3-38.4-1.9-57.6l-1.2-14.4c-0.4-4.8-0.7-9.6-1-14.4
	c-0.6-9.6-0.9-19.2-1.2-28.8c-0.6-19.2-1.3-38.4-1-57.6c0.3-19.2,1.1-38.4,2.4-57.6c0.6-9.6,1.4-19.2,2.3-28.8
	c1-9.6,2-19.2,3.5-28.8h1.7c1.5,9.6,2.5,19.2,3.5,28.8c0.9,9.6,1.7,19.2,2.3,28.8c1.3,19.2,2.1,38.4,2.4,57.6s-0.4,38.4-1,57.6
	c-0.3,9.6-0.6,19.2-1.2,28.8c-0.3,4.8-0.6,9.6-1,14.4l-1.2,14.4c-1.6,19.2-2.5,38.4-1.9,57.6c0.5,19.2,3.3,38.4,4.3,57.6
	c0.6,9.6,0.7,19.2,0.5,28.8c-0.1,9.6-0.5,19.2-0.9,28.8c-0.5,9.6-1.1,19.2-2.1,28.8c-0.9,9.6-2,19.2-3.7,28.8H941.6z"/>
<path class="st3" d="M977,897.9c-1.7-9.2-2.8-18.5-3.7-27.7c-0.9-9.2-1.6-18.5-2.1-27.7s-0.8-18.5-0.9-27.7
	c-0.2-9.2-0.1-18.5,0.5-27.7c1.1-18.5,3.8-36.9,4.3-55.4c0.6-18.5-0.3-36.9-1.9-55.4l-1.2-13.8c-0.4-4.6-0.7-9.2-1-13.8
	c-0.6-9.2-0.9-18.5-1.2-27.7c-0.7-18.5-1.3-36.9-1-55.4s1.1-36.9,2.4-55.4c0.6-9.2,1.4-18.5,2.3-27.7c1-9.2,2-18.5,3.5-27.7h1.7
	c1.5,9.2,2.5,18.5,3.5,27.7c0.9,9.2,1.7,18.5,2.3,27.7c1.3,18.5,2.1,36.9,2.4,55.4c0.3,18.5-0.4,36.9-1,55.4
	c-0.3,9.2-0.6,18.5-1.2,27.7c-0.3,4.6-0.6,9.2-1,13.8l-1.2,13.8c-1.6,18.5-2.5,36.9-1.9,55.4c0.5,18.5,3.3,36.9,4.3,55.4
	c0.6,9.2,0.7,18.5,0.5,27.7c-0.1,9.2-0.5,18.5-0.9,27.7c-0.5,9.2-1.1,18.5-2.1,27.7c-0.9,9.2-2,18.5-3.7,27.7H977z"/>
<path class="st3" d="M1012.5,897.9c-1.7-9.2-2.8-18.5-3.7-27.7c-0.9-9.2-1.6-18.5-2.1-27.7s-0.8-18.5-0.9-27.7
	c-0.2-9.2-0.1-18.5,0.5-27.7c1.1-18.5,3.8-36.9,4.3-55.4c0.6-18.5-0.3-36.9-1.9-55.4l-1.2-13.8c-0.4-4.6-0.7-9.2-1-13.8
	c-0.6-9.2-0.9-18.5-1.2-27.7c-0.6-18.5-1.3-36.9-1-55.4s1.1-36.9,2.4-55.4c0.6-9.2,1.4-18.5,2.3-27.7c1-9.2,2-18.5,3.5-27.7h1.7
	c1.5,9.2,2.5,18.5,3.5,27.7c0.9,9.2,1.7,18.5,2.3,27.7c1.3,18.5,2.1,36.9,2.4,55.4c0.3,18.5-0.4,36.9-1,55.4
	c-0.3,9.2-0.6,18.5-1.2,27.7c-0.3,4.6-0.6,9.2-1,13.8l-1.2,13.8c-1.6,18.5-2.5,36.9-1.9,55.4c0.5,18.5,3.3,36.9,4.3,55.4
	c0.6,9.2,0.7,18.5,0.5,27.7c-0.1,9.2-0.5,18.5-0.9,27.7c-0.5,9.2-1.1,18.5-2.1,27.7c-0.9,9.2-2,18.5-3.7,27.7H1012.5z"/>
<path class="st3" d="M1047.9,897.9c-1.7-9.2-2.8-18.5-3.7-27.7c-0.9-9.2-1.6-18.5-2.1-27.7s-0.8-18.5-0.9-27.7
	c-0.2-9.2-0.1-18.5,0.5-27.7c1.1-18.5,3.8-36.9,4.3-55.4c0.6-18.5-0.3-36.9-1.9-55.4l-1.2-13.8c-0.4-4.6-0.7-9.2-1-13.8
	c-0.6-9.2-0.9-18.5-1.2-27.7c-0.7-18.5-1.3-36.9-1-55.4c0.3-18.5,1.1-36.9,2.4-55.4c0.6-9.2,1.4-18.5,2.3-27.7
	c1-9.2,2-18.5,3.5-27.7h1.7c1.5,9.2,2.5,18.5,3.5,27.7c0.9,9.2,1.7,18.5,2.3,27.7c1.3,18.5,2.1,36.9,2.4,55.4
	c0.3,18.5-0.4,36.9-1,55.4c-0.3,9.2-0.6,18.5-1.2,27.7c-0.3,4.6-0.6,9.2-1,13.8l-1.2,13.8c-1.6,18.5-2.5,36.9-1.9,55.4
	c0.5,18.5,3.3,36.9,4.3,55.4c0.6,9.2,0.7,18.5,0.5,27.7c-0.1,9.2-0.5,18.5-0.9,27.7c-0.5,9.2-1.1,18.5-2.1,27.7
	c-0.9,9.2-2,18.5-3.7,27.7H1047.9z"/>
<path class="st3" d="M1083.3,897.9c-1.7-9.6-2.8-19.2-3.7-28.8c-0.9-9.6-1.6-19.2-2.1-28.8c-0.5-9.6-0.8-19.2-0.9-28.8
	c-0.2-9.6-0.1-19.2,0.5-28.8c1.1-19.2,3.8-38.4,4.3-57.6c0.6-19.2-0.3-38.4-1.9-57.6l-1.2-14.4c-0.4-4.8-0.7-9.6-1-14.4
	c-0.6-9.6-0.9-19.2-1.2-28.8c-0.6-19.2-1.3-38.4-1-57.6c0.3-19.2,1.1-38.4,2.4-57.6c0.6-9.6,1.4-19.2,2.3-28.8
	c1-9.6,2-19.2,3.5-28.8h1.7c1.5,9.6,2.5,19.2,3.5,28.8c0.9,9.6,1.7,19.2,2.3,28.8c1.3,19.2,2.1,38.4,2.4,57.6
	c0.3,19.2-0.4,38.4-1,57.6c-0.3,9.6-0.6,19.2-1.2,28.8c-0.3,4.8-0.6,9.6-1,14.4l-1.2,14.4c-1.6,19.2-2.5,38.4-1.9,57.6
	c0.5,19.2,3.3,38.4,4.3,57.6c0.6,9.6,0.7,19.2,0.5,28.8c-0.1,9.6-0.5,19.2-0.9,28.8c-0.5,9.6-1.1,19.2-2.1,28.8
	c-0.9,9.6-2,19.2-3.7,28.8H1083.3z"/>
<path class="st3" d="M1118.8,897.9c-1.7-10.3-2.8-20.7-3.7-31c-0.9-10.3-1.6-20.7-2.1-31c-0.5-10.3-0.8-20.7-0.9-31
	c-0.2-10.3-0.1-20.7,0.5-31c1.1-20.7,3.8-41.3,4.3-62c0.6-20.7-0.3-41.3-1.9-62l-1.2-15.5c-0.4-5.2-0.7-10.3-1-15.5
	c-0.6-10.3-0.9-20.7-1.2-31c-0.7-20.7-1.3-41.3-1-62c0.3-20.7,1.1-41.3,2.4-62c0.6-10.3,1.4-20.7,2.3-31c1-10.3,2-20.7,3.5-31h1.7
	c1.5,10.3,2.5,20.7,3.5,31c0.9,10.3,1.7,20.7,2.3,31c1.3,20.7,2.1,41.3,2.4,62c0.3,20.7-0.4,41.3-1,62c-0.3,10.3-0.6,20.7-1.2,31
	c-0.3,5.2-0.6,10.3-1,15.5l-1.2,15.5c-1.6,20.7-2.5,41.3-1.9,62c0.5,20.7,3.3,41.3,4.3,62c0.6,10.3,0.7,20.7,0.5,31
	c-0.1,10.3-0.5,20.7-0.9,31c-0.5,10.3-1.1,20.7-2.1,31c-0.9,10.3-2,20.7-3.7,31H1118.8z"/>
<path class="st3" d="M1154.2,897.9c-1.7-10.3-2.8-20.6-3.7-31c-0.9-10.3-1.6-20.6-2.1-31c-0.5-10.3-0.8-20.6-0.9-31
	c-0.2-10.3-0.1-20.6,0.5-31c1.1-20.6,3.8-41.3,4.3-61.9c0.6-20.6-0.3-41.3-1.9-61.9l-1.2-15.5c-0.4-5.2-0.7-10.3-1-15.5
	c-0.6-10.3-0.9-20.6-1.2-31c-0.7-20.6-1.3-41.3-1-61.9c0.3-20.6,1.1-41.3,2.4-61.9c0.6-10.3,1.4-20.6,2.3-31c1-10.3,2-20.6,3.5-31
	h1.7c1.5,10.3,2.5,20.6,3.5,31c0.9,10.3,1.7,20.6,2.3,31c1.3,20.6,2.1,41.3,2.4,61.9c0.3,20.6-0.4,41.3-1,61.9
	c-0.3,10.3-0.6,20.6-1.2,31c-0.3,5.2-0.6,10.3-1,15.5l-1.2,15.5c-1.6,20.6-2.5,41.3-1.9,61.9c0.5,20.6,3.3,41.3,4.3,61.9
	c0.6,10.3,0.7,20.6,0.5,31c-0.1,10.3-0.5,20.6-0.9,31c-0.5,10.3-1.1,20.6-2.1,31c-0.9,10.3-2,20.6-3.7,31H1154.2z"/>
<path class="st3" d="M1189.6,897.9c-1.7-10.7-2.8-21.4-3.7-32.1s-1.6-21.4-2.1-32.1s-0.8-21.4-0.9-32.1c-0.2-10.7-0.1-21.4,0.5-32.1
	c1.1-21.4,3.8-42.8,4.3-64.2c0.6-21.4-0.3-42.8-1.9-64.2l-1.2-16.1c-0.4-5.4-0.7-10.7-1-16.1c-0.6-10.7-0.9-21.4-1.2-32.1
	c-0.6-21.4-1.3-42.8-1-64.2c0.3-21.4,1.1-42.8,2.4-64.2c0.6-10.7,1.4-21.4,2.3-32.1c1-10.7,2-21.4,3.5-32.1h1.7
	c1.5,10.7,2.5,21.4,3.5,32.1c0.9,10.7,1.7,21.4,2.3,32.1c1.3,21.4,2.1,42.8,2.4,64.2c0.3,21.4-0.4,42.8-1,64.2
	c-0.3,10.7-0.6,21.4-1.2,32.1c-0.3,5.4-0.6,10.7-1,16.1l-1.2,16.1c-1.6,21.4-2.5,42.8-1.9,64.2c0.5,21.4,3.3,42.8,4.3,64.2
	c0.6,10.7,0.7,21.4,0.5,32.1c-0.1,10.7-0.5,21.4-0.9,32.1c-0.5,10.7-1.1,21.4-2.1,32.1c-0.9,10.7-2,21.4-3.7,32.1H1189.6z"/>
<path class="st3" d="M1225.1,897.9c-1.7-11.4-2.8-22.9-3.7-34.3c-0.9-11.4-1.6-22.9-2.1-34.3c-0.5-11.4-0.8-22.9-0.9-34.3
	c-0.2-11.4-0.1-22.9,0.5-34.3c1.1-22.9,3.8-45.8,4.3-68.7c0.6-22.9-0.3-45.8-1.9-68.7l-1.2-17.2c-0.4-5.7-0.7-11.4-1-17.2
	c-0.6-11.4-0.9-22.9-1.2-34.3c-0.7-22.9-1.3-45.8-1-68.7c0.3-22.9,1.1-45.8,2.4-68.7c0.6-11.4,1.4-22.9,2.3-34.3
	c1-11.4,2-22.9,3.5-34.3h1.7c1.5,11.4,2.5,22.9,3.5,34.3c0.9,11.4,1.7,22.9,2.3,34.3c1.3,22.9,2.1,45.8,2.4,68.7
	c0.3,22.9-0.4,45.8-1,68.7c-0.3,11.4-0.6,22.9-1.2,34.3c-0.3,5.7-0.6,11.4-1,17.2l-1.2,17.2c-1.6,22.9-2.5,45.8-1.9,68.7
	c0.5,22.9,3.3,45.8,4.3,68.7c0.6,11.4,0.7,22.9,0.5,34.3c-0.1,11.4-0.5,22.9-0.9,34.3c-0.5,11.4-1.1,22.9-2.1,34.3
	c-0.9,11.4-2,22.9-3.7,34.3H1225.1z"/>
<path class="st3" d="M1260.5,897.9c-1.7-12.2-2.8-24.4-3.7-36.5c-0.9-12.2-1.6-24.4-2.1-36.5c-0.5-12.2-0.8-24.4-0.9-36.5
	c-0.2-12.2-0.1-24.4,0.5-36.5c1.1-24.4,3.8-48.7,4.3-73.1c0.6-24.4-0.3-48.7-1.9-73.1l-1.2-18.3l-0.6-9.1l-0.5-9.1
	c-0.6-12.2-0.9-24.4-1.2-36.5c-0.6-24.4-1.3-48.7-1-73.1c0.3-24.4,1.1-48.7,2.4-73.1c0.6-12.2,1.4-24.4,2.4-36.5
	c0.9-12.2,2-24.4,3.5-36.5h1.7c1.5,12.2,2.6,24.4,3.5,36.5c1,12.2,1.7,24.4,2.4,36.5c1.3,24.4,2.1,48.7,2.4,73.1
	c0.3,24.4-0.4,48.7-1,73.1c-0.3,12.2-0.6,24.4-1.2,36.5l-0.5,9.1l-0.6,9.1l-1.2,18.3c-1.6,24.4-2.5,48.7-1.9,73.1
	c0.5,24.4,3.3,48.7,4.3,73.1c0.6,12.2,0.7,24.4,0.5,36.5c-0.1,12.2-0.5,24.4-0.9,36.5c-0.5,12.2-1.1,24.4-2.1,36.5
	c-0.9,12.2-2,24.4-3.7,36.5H1260.5z"/>
<path class="st3" d="M1295.9,897.9c-1.7-12.9-2.8-25.8-3.7-38.8c-0.9-12.9-1.6-25.8-2.1-38.8c-0.5-12.9-0.8-25.8-0.9-38.8
	c-0.2-12.9-0.1-25.8,0.5-38.8c1.1-25.8,3.8-51.7,4.3-77.5c0.6-25.8-0.3-51.7-1.9-77.5l-1.2-19.4l-0.6-9.7l-0.5-9.7
	c-0.6-12.9-0.9-25.8-1.2-38.8c-0.7-25.8-1.3-51.7-1-77.5c0.3-25.8,1.1-51.7,2.4-77.5c0.6-12.9,1.4-25.8,2.4-38.8
	c0.9-12.9,2-25.8,3.5-38.8h1.7c1.5,12.9,2.6,25.8,3.5,38.8c1,12.9,1.7,25.8,2.4,38.8c1.3,25.8,2.1,51.7,2.4,77.5
	c0.3,25.8-0.4,51.7-1,77.5c-0.3,12.9-0.6,25.8-1.2,38.8l-0.5,9.7l-0.6,9.7l-1.2,19.4c-1.6,25.8-2.5,51.7-1.9,77.5
	c0.5,25.8,3.3,51.7,4.3,77.5c0.6,12.9,0.7,25.8,0.5,38.8c-0.1,12.9-0.5,25.8-0.9,38.8c-0.5,12.9-1.1,25.8-2.1,38.8
	c-0.9,12.9-2,25.8-3.7,38.8H1295.9z"/>
<path class="st3" d="M1331.4,897.9c-1.7-13.7-2.8-27.3-3.7-41c-0.9-13.7-1.6-27.3-2.1-41c-0.5-13.7-0.8-27.3-0.9-41
	c-0.2-13.7-0.1-27.3,0.5-41c1.1-27.3,3.8-54.6,4.3-81.9c0.3-13.7,0.2-27.3-0.1-41c-0.1-3.4-0.2-6.8-0.3-10.2l-0.4-10.2
	c-0.3-6.8-0.7-13.7-1-20.5l-1.2-20.5l-0.6-10.2l-0.5-10.2c-0.6-13.7-0.9-27.3-1.2-41c-0.6-27.3-1.3-54.6-1-81.9
	c0.3-27.3,1.1-54.6,2.4-81.9c0.3-6.8,0.7-13.7,1.1-20.5l0.6-10.2l0.7-10.2c0.9-13.7,2-27.3,3.5-41h1.7c1.5,13.7,2.6,27.3,3.5,41
	l0.7,10.2l0.6,10.2c0.4,6.8,0.8,13.7,1.1,20.5c1.3,27.3,2.1,54.6,2.4,81.9c0.3,27.3-0.4,54.6-1,81.9c-0.3,13.7-0.6,27.3-1.2,41
	l-0.5,10.2l-0.5,10.2l-1.2,20.5c-0.3,6.8-0.8,13.7-1,20.5l-0.4,10.2c-0.1,3.4-0.2,6.8-0.3,10.2c-0.3,13.7-0.4,27.3-0.1,41
	c0.5,27.3,3.3,54.6,4.3,81.9c0.6,13.7,0.7,27.3,0.5,41c-0.1,13.7-0.5,27.3-0.9,41c-0.5,13.7-1.1,27.3-2.1,41
	c-0.9,13.7-2,27.3-3.7,41H1331.4z"/>
</svg>
