<?xml version="1.0" encoding="utf-8"?>
<!-- Generator: Adobe Illustrator 27.1.1, SVG Export Plug-In . SVG Version: 6.00 Build 0)  -->
<svg version="1.1" id="Layer_1" xmlns="http://www.w3.org/2000/svg" xmlns:xlink="http://www.w3.org/1999/xlink" x="0px" y="0px"
	 viewBox="0 0 324 702" style="enable-background:new 0 0 324 702;" xml:space="preserve">
<style type="text/css">
	.st0{clip-path:url(#SVGID_00000079447748592224146340000008606060967546750896_);}
	.st1{fill:#FF4E42;}
	.st2{fill:#FFF67C;}
	.st3{fill:#A0DEE3;}
</style>
<g>
	<defs>
		<rect id="SVGID_1_" x="10.4" y="132.5" width="300" height="542"/>
	</defs>
	<clipPath id="SVGID_00000009581003324551828950000007735573378040704642_">
		<use xlink:href="#SVGID_1_"  style="overflow:visible;"/>
	</clipPath>
	<g style="clip-path:url(#SVGID_00000009581003324551828950000007735573378040704642_);">
		<path class="st1" d="M21.8,155.1c6.3,0,11.3-5.1,11.3-11.3c0-6.3-5.1-11.3-11.3-11.3c-6.3,0-11.3,5.1-11.3,11.3
			C10.4,150.1,15.5,155.1,21.8,155.1z"/>
		<path class="st1" d="M21.8,166.6c6.2,0,11.2-5,11.2-11.1s-5-11.1-11.2-11.1c-6.2,0-11.2,5-11.2,11.1S15.6,166.6,21.8,166.6z"/>
		<path class="st1" d="M21.8,178.1c6.1,0,11-4.9,11-10.9c0-6-4.9-10.9-11-10.9c-6.1,0-11,4.9-11,10.9
			C10.8,173.2,15.7,178.1,21.8,178.1z"/>
		<path class="st1" d="M21.8,189.6c5.9,0,10.8-4.8,10.8-10.8c0-5.9-4.8-10.8-10.8-10.8c-5.9,0-10.8,4.8-10.8,10.8
			C11,184.8,15.8,189.6,21.8,189.6z"/>
		<path class="st1" d="M21.8,201.1c5.8,0,10.6-4.7,10.6-10.6S27.6,180,21.8,180c-5.8,0-10.6,4.7-10.6,10.6S15.9,201.1,21.8,201.1z"
			/>
		<path class="st1" d="M21.8,212.6c5.7,0,10.4-4.6,10.4-10.4c0-5.7-4.6-10.4-10.4-10.4c-5.7,0-10.4,4.6-10.4,10.4
			C11.4,207.9,16,212.6,21.8,212.6z"/>
		<path class="st1" d="M21.8,224.1c5.6,0,10.2-4.6,10.2-10.2c0-5.6-4.6-10.2-10.2-10.2c-5.6,0-10.2,4.6-10.2,10.2
			C11.6,219.5,16.1,224.1,21.8,224.1z"/>
		<path class="st1" d="M21.8,235.5c5.5,0,10-4.5,10-10c0-5.5-4.5-10-10-10c-5.5,0-10,4.5-10,10C11.8,231.1,16.2,235.5,21.8,235.5z"
			/>
		<path class="st1" d="M21.8,247c5.4,0,9.8-4.4,9.8-9.8c0-5.4-4.4-9.8-9.8-9.8c-5.4,0-9.8,4.4-9.8,9.8C12,242.6,16.3,247,21.8,247z"
			/>
		<path class="st1" d="M21.7,258.5c5.3,0,9.6-4.3,9.6-9.6s-4.3-9.6-9.6-9.6c-5.3,0-9.6,4.3-9.6,9.6S16.4,258.5,21.7,258.5z"/>
		<path class="st1" d="M21.7,270c5.2,0,9.4-4.2,9.4-9.4c0-5.2-4.2-9.4-9.4-9.4c-5.2,0-9.4,4.2-9.4,9.4C12.4,265.8,16.6,270,21.7,270
			z"/>
		<path class="st1" d="M21.7,281.5c5.1,0,9.2-4.1,9.2-9.2c0-5.1-4.1-9.2-9.2-9.2c-5.1,0-9.2,4.1-9.2,9.2
			C12.5,277.4,16.7,281.5,21.7,281.5z"/>
		<path class="st1" d="M21.7,293c5,0,9-4,9-9c0-5-4-9-9-9c-5,0-9,4-9,9C12.7,288.9,16.8,293,21.7,293z"/>
		<path class="st1" d="M21.7,304.5c4.9,0,8.8-3.9,8.8-8.8s-3.9-8.8-8.8-8.8c-4.9,0-8.8,3.9-8.8,8.8S16.9,304.5,21.7,304.5z"/>
		<path class="st1" d="M21.7,316c4.8,0,8.6-3.9,8.6-8.6c0-4.8-3.9-8.6-8.6-8.6c-4.8,0-8.6,3.9-8.6,8.6C13.1,312.1,17,316,21.7,316z"
			/>
		<path class="st1" d="M21.7,327.4c4.7,0,8.4-3.8,8.4-8.4c0-4.7-3.8-8.4-8.4-8.4c-4.7,0-8.4,3.8-8.4,8.4
			C13.3,323.7,17.1,327.4,21.7,327.4z"/>
		<path class="st1" d="M21.7,338.9c4.5,0,8.2-3.7,8.2-8.2s-3.7-8.2-8.2-8.2c-4.5,0-8.2,3.7-8.2,8.2S17.2,338.9,21.7,338.9z"/>
		<path class="st1" d="M21.7,350.4c4.4,0,8-3.6,8-8c0-4.4-3.6-8-8-8c-4.4,0-8,3.6-8,8C13.7,346.8,17.3,350.4,21.7,350.4z"/>
		<path class="st1" d="M21.7,361.9c4.3,0,7.8-3.5,7.8-7.8c0-4.3-3.5-7.8-7.8-7.8c-4.3,0-7.8,3.5-7.8,7.8
			C13.9,358.4,17.4,361.9,21.7,361.9z"/>
		<path class="st1" d="M21.7,373.4c4.2,0,7.6-3.4,7.6-7.6s-3.4-7.6-7.6-7.6c-4.2,0-7.6,3.4-7.6,7.6S17.5,373.4,21.7,373.4z"/>
		<path class="st1" d="M21.7,384.9c4.1,0,7.5-3.3,7.5-7.4c0-4.1-3.3-7.4-7.5-7.4c-4.1,0-7.5,3.3-7.5,7.4
			C14.3,381.5,17.6,384.9,21.7,384.9z"/>
		<path class="st1" d="M21.7,396.4c4,0,7.3-3.2,7.3-7.3s-3.2-7.3-7.3-7.3c-4,0-7.3,3.2-7.3,7.3S17.7,396.4,21.7,396.4z"/>
		<path class="st1" d="M21.7,407.8c3.9,0,7.1-3.2,7.1-7.1s-3.2-7.1-7.1-7.1c-3.9,0-7.1,3.2-7.1,7.1S17.8,407.8,21.7,407.8z"/>
		<path class="st1" d="M21.7,419.3c3.8,0,6.9-3.1,6.9-6.9c0-3.8-3.1-6.9-6.9-6.9c-3.8,0-6.9,3.1-6.9,6.9
			C14.8,416.3,17.9,419.3,21.7,419.3z"/>
		<path class="st1" d="M21.7,430.8c3.7,0,6.7-3,6.7-6.7c0-3.7-3-6.7-6.7-6.7c-3.7,0-6.7,3-6.7,6.7C15,427.8,18,430.8,21.7,430.8z"/>
		<path class="st1" d="M21.7,442.3c3.6,0,6.5-2.9,6.5-6.5c0-3.6-2.9-6.5-6.5-6.5c-3.6,0-6.5,2.9-6.5,6.5
			C15.2,439.4,18.1,442.3,21.7,442.3z"/>
		<path class="st1" d="M21.7,453.8c3.5,0,6.3-2.8,6.3-6.3c0-3.5-2.8-6.3-6.3-6.3c-3.5,0-6.3,2.8-6.3,6.3
			C15.4,451,18.2,453.8,21.7,453.8z"/>
		<path class="st1" d="M21.7,465.3c3.4,0,6.1-2.7,6.1-6.1c0-3.4-2.7-6.1-6.1-6.1c-3.4,0-6.1,2.7-6.1,6.1
			C15.6,462.6,18.3,465.3,21.7,465.3z"/>
		<path class="st1" d="M21.7,476.8c3.3,0,5.9-2.6,5.9-5.9c0-3.3-2.6-5.9-5.9-5.9c-3.3,0-5.9,2.6-5.9,5.9
			C15.8,474.1,18.5,476.8,21.7,476.8z"/>
		<path class="st1" d="M21.7,488.3c3.1,0,5.7-2.5,5.7-5.7c0-3.1-2.6-5.7-5.7-5.7c-3.1,0-5.7,2.5-5.7,5.7
			C16,485.7,18.6,488.3,21.7,488.3z"/>
		<path class="st1" d="M21.7,499.7c3,0,5.5-2.5,5.5-5.5s-2.5-5.5-5.5-5.5c-3,0-5.5,2.5-5.5,5.5S18.7,499.7,21.7,499.7z"/>
		<path class="st1" d="M21.7,511.2c2.9,0,5.3-2.4,5.3-5.3c0-2.9-2.4-5.3-5.3-5.3c-2.9,0-5.3,2.4-5.3,5.3
			C16.4,508.9,18.8,511.2,21.7,511.2z"/>
		<path class="st1" d="M45.1,155.1c6.3,0,11.3-5.1,11.3-11.3c0-6.3-5.1-11.3-11.3-11.3c-6.3,0-11.3,5.1-11.3,11.3
			C33.8,150.1,38.9,155.1,45.1,155.1z"/>
		<path class="st1" d="M45.1,166.6c6.2,0,11.2-5,11.2-11.1s-5-11.1-11.2-11.1s-11.2,5-11.2,11.1S39,166.6,45.1,166.6z"/>
		<path class="st1" d="M45.1,178.1c6.1,0,11-4.9,11-10.9c0-6-4.9-10.9-11-10.9s-11,4.9-11,10.9C34.2,173.2,39.1,178.1,45.1,178.1z"
			/>
		<path class="st1" d="M45.1,189.6c5.9,0,10.8-4.8,10.8-10.8c0-5.9-4.8-10.8-10.8-10.8s-10.8,4.8-10.8,10.8
			C34.4,184.8,39.2,189.6,45.1,189.6z"/>
		<path class="st1" d="M45.1,201.1c5.8,0,10.6-4.7,10.6-10.6S51,180,45.1,180c-5.8,0-10.6,4.7-10.6,10.6S39.3,201.1,45.1,201.1z"/>
		<path class="st1" d="M45.1,212.6c5.7,0,10.4-4.6,10.4-10.4c0-5.7-4.6-10.4-10.4-10.4c-5.7,0-10.4,4.6-10.4,10.4
			C34.8,207.9,39.4,212.6,45.1,212.6z"/>
		<path class="st1" d="M45.1,224.1c5.6,0,10.2-4.6,10.2-10.2c0-5.6-4.6-10.2-10.2-10.2S35,208.3,35,213.9
			C35,219.5,39.5,224.1,45.1,224.1z"/>
		<path class="st1" d="M45.1,235.5c5.5,0,10-4.5,10-10c0-5.5-4.5-10-10-10s-10,4.5-10,10C35.1,231.1,39.6,235.5,45.1,235.5z"/>
		<path class="st1" d="M45.1,247c5.4,0,9.8-4.4,9.8-9.8c0-5.4-4.4-9.8-9.8-9.8c-5.4,0-9.8,4.4-9.8,9.8C35.3,242.6,39.7,247,45.1,247
			z"/>
		<path class="st1" d="M45.1,258.5c5.3,0,9.6-4.3,9.6-9.6s-4.3-9.6-9.6-9.6c-5.3,0-9.6,4.3-9.6,9.6S39.8,258.5,45.1,258.5z"/>
		<path class="st1" d="M45.1,270c5.2,0,9.4-4.2,9.4-9.4c0-5.2-4.2-9.4-9.4-9.4c-5.2,0-9.4,4.2-9.4,9.4C35.7,265.8,39.9,270,45.1,270
			z"/>
		<path class="st1" d="M45.1,281.5c5.1,0,9.2-4.1,9.2-9.2c0-5.1-4.1-9.2-9.2-9.2c-5.1,0-9.2,4.1-9.2,9.2
			C35.9,277.4,40,281.5,45.1,281.5z"/>
		<path class="st1" d="M45.1,293c5,0,9-4,9-9c0-5-4-9-9-9c-5,0-9,4-9,9C36.1,288.9,40.1,293,45.1,293z"/>
		<path class="st1" d="M45.1,304.5c4.9,0,8.8-3.9,8.8-8.8s-3.9-8.8-8.8-8.8s-8.8,3.9-8.8,8.8S40.3,304.5,45.1,304.5z"/>
		<path class="st1" d="M45.1,316c4.8,0,8.6-3.9,8.6-8.6c0-4.8-3.9-8.6-8.6-8.6c-4.8,0-8.6,3.9-8.6,8.6C36.5,312.1,40.4,316,45.1,316
			z"/>
		<path class="st1" d="M45.1,327.4c4.7,0,8.4-3.8,8.4-8.4c0-4.7-3.8-8.4-8.4-8.4c-4.7,0-8.4,3.8-8.4,8.4
			C36.7,323.7,40.5,327.4,45.1,327.4z"/>
		<path class="st1" d="M45.1,338.9c4.5,0,8.2-3.7,8.2-8.2s-3.7-8.2-8.2-8.2c-4.5,0-8.2,3.7-8.2,8.2S40.6,338.9,45.1,338.9z"/>
		<path class="st1" d="M45.1,350.4c4.4,0,8-3.6,8-8c0-4.4-3.6-8-8-8s-8,3.6-8,8C37.1,346.8,40.7,350.4,45.1,350.4z"/>
		<path class="st1" d="M45.1,361.9c4.3,0,7.8-3.5,7.8-7.8c0-4.3-3.5-7.8-7.8-7.8s-7.8,3.5-7.8,7.8C37.3,358.4,40.8,361.9,45.1,361.9
			z"/>
		<path class="st1" d="M45.1,373.4c4.2,0,7.6-3.4,7.6-7.6s-3.4-7.6-7.6-7.6s-7.6,3.4-7.6,7.6S40.9,373.4,45.1,373.4z"/>
		<path class="st1" d="M45.1,384.9c4.1,0,7.5-3.3,7.5-7.4c0-4.1-3.3-7.4-7.5-7.4c-4.1,0-7.5,3.3-7.5,7.4
			C37.7,381.5,41,384.9,45.1,384.9z"/>
		<path class="st1" d="M45.1,396.4c4,0,7.3-3.2,7.3-7.3s-3.2-7.3-7.3-7.3c-4,0-7.3,3.2-7.3,7.3S41.1,396.4,45.1,396.4z"/>
		<path class="st1" d="M45.1,407.8c3.9,0,7.1-3.2,7.1-7.1s-3.2-7.1-7.1-7.1s-7.1,3.2-7.1,7.1S41.2,407.8,45.1,407.8z"/>
		<path class="st1" d="M45.1,419.3c3.8,0,6.9-3.1,6.9-6.9c0-3.8-3.1-6.9-6.9-6.9c-3.8,0-6.9,3.1-6.9,6.9
			C38.2,416.3,41.3,419.3,45.1,419.3z"/>
		<path class="st1" d="M45.1,430.8c3.7,0,6.7-3,6.7-6.7c0-3.7-3-6.7-6.7-6.7c-3.7,0-6.7,3-6.7,6.7C38.4,427.8,41.4,430.8,45.1,430.8
			z"/>
		<path class="st1" d="M45.1,442.3c3.6,0,6.5-2.9,6.5-6.5c0-3.6-2.9-6.5-6.5-6.5c-3.6,0-6.5,2.9-6.5,6.5
			C38.6,439.4,41.5,442.3,45.1,442.3z"/>
		<path class="st1" d="M45.1,453.8c3.5,0,6.3-2.8,6.3-6.3c0-3.5-2.8-6.3-6.3-6.3c-3.5,0-6.3,2.8-6.3,6.3
			C38.8,451,41.6,453.8,45.1,453.8z"/>
		<path class="st1" d="M45.1,465.3c3.4,0,6.1-2.7,6.1-6.1c0-3.4-2.7-6.1-6.1-6.1c-3.4,0-6.1,2.7-6.1,6.1
			C39,462.6,41.7,465.3,45.1,465.3z"/>
		<path class="st1" d="M45.1,476.8c3.3,0,5.9-2.6,5.9-5.9c0-3.3-2.6-5.9-5.9-5.9c-3.3,0-5.9,2.6-5.9,5.9
			C39.2,474.1,41.8,476.8,45.1,476.8z"/>
		<path class="st1" d="M45.1,488.3c3.1,0,5.7-2.5,5.7-5.7c0-3.1-2.6-5.7-5.7-5.7c-3.1,0-5.7,2.5-5.7,5.7
			C39.4,485.7,41.9,488.3,45.1,488.3z"/>
		<path class="st1" d="M45.1,499.7c3,0,5.5-2.5,5.5-5.5s-2.5-5.5-5.5-5.5c-3,0-5.5,2.5-5.5,5.5S42,499.7,45.1,499.7z"/>
		<path class="st1" d="M45.1,511.2c2.9,0,5.3-2.4,5.3-5.3c0-2.9-2.4-5.3-5.3-5.3s-5.3,2.4-5.3,5.3C39.8,508.9,42.1,511.2,45.1,511.2
			z"/>
		<path class="st1" d="M45.1,522.7c2.8,0,5.1-2.3,5.1-5.1s-2.3-5.1-5.1-5.1c-2.8,0-5.1,2.3-5.1,5.1S42.2,522.7,45.1,522.7z"/>
		<path class="st1" d="M68.5,166.6c6.2,0,11.2-5,11.2-11.1s-5-11.1-11.2-11.1s-11.2,5-11.2,11.1S62.4,166.6,68.5,166.6z"/>
		<path class="st1" d="M68.5,178.1c6.1,0,11-4.9,11-10.9c0-6-4.9-10.9-11-10.9c-6.1,0-11,4.9-11,10.9
			C57.6,173.2,62.5,178.1,68.5,178.1z"/>
		<path class="st1" d="M68.5,189.6c5.9,0,10.8-4.8,10.8-10.8c0-5.9-4.8-10.8-10.8-10.8s-10.8,4.8-10.8,10.8
			C57.8,184.8,62.6,189.6,68.5,189.6z"/>
		<path class="st1" d="M68.5,201.1c5.8,0,10.6-4.7,10.6-10.6S74.4,180,68.5,180c-5.8,0-10.6,4.7-10.6,10.6S62.7,201.1,68.5,201.1z"
			/>
		<path class="st1" d="M68.5,212.6c5.7,0,10.4-4.6,10.4-10.4c0-5.7-4.6-10.4-10.4-10.4s-10.4,4.6-10.4,10.4
			C58.1,207.9,62.8,212.6,68.5,212.6z"/>
		<path class="st1" d="M68.5,224.1c5.6,0,10.2-4.6,10.2-10.2c0-5.6-4.6-10.2-10.2-10.2c-5.6,0-10.2,4.6-10.2,10.2
			C58.3,219.5,62.9,224.1,68.5,224.1z"/>
		<path class="st1" d="M68.5,235.5c5.5,0,10-4.5,10-10c0-5.5-4.5-10-10-10c-5.5,0-10,4.5-10,10C58.5,231.1,63,235.5,68.5,235.5z"/>
		<path class="st1" d="M68.5,247c5.4,0,9.8-4.4,9.8-9.8c0-5.4-4.4-9.8-9.8-9.8s-9.8,4.4-9.8,9.8C58.7,242.6,63.1,247,68.5,247z"/>
		<path class="st1" d="M68.5,258.5c5.3,0,9.6-4.3,9.6-9.6s-4.3-9.6-9.6-9.6s-9.6,4.3-9.6,9.6S63.2,258.5,68.5,258.5z"/>
		<path class="st1" d="M68.5,270c5.2,0,9.4-4.2,9.4-9.4c0-5.2-4.2-9.4-9.4-9.4c-5.2,0-9.4,4.2-9.4,9.4C59.1,265.8,63.3,270,68.5,270
			z"/>
		<path class="st1" d="M68.5,281.5c5.1,0,9.2-4.1,9.2-9.2c0-5.1-4.1-9.2-9.2-9.2c-5.1,0-9.2,4.1-9.2,9.2
			C59.3,277.4,63.4,281.5,68.5,281.5z"/>
		<path class="st1" d="M68.5,293c5,0,9-4,9-9c0-5-4-9-9-9c-5,0-9,4-9,9C59.5,288.9,63.5,293,68.5,293z"/>
		<path class="st1" d="M68.5,304.5c4.9,0,8.8-3.9,8.8-8.8s-3.9-8.8-8.8-8.8s-8.8,3.9-8.8,8.8S63.6,304.5,68.5,304.5z"/>
		<path class="st1" d="M68.5,316c4.8,0,8.6-3.9,8.6-8.6c0-4.8-3.9-8.6-8.6-8.6c-4.8,0-8.6,3.9-8.6,8.6C59.9,312.1,63.7,316,68.5,316
			z"/>
		<path class="st1" d="M68.5,327.4c4.7,0,8.4-3.8,8.4-8.4c0-4.7-3.8-8.4-8.4-8.4c-4.7,0-8.4,3.8-8.4,8.4
			C60.1,323.7,63.8,327.4,68.5,327.4z"/>
		<path class="st1" d="M68.5,338.9c4.5,0,8.2-3.7,8.2-8.2s-3.7-8.2-8.2-8.2c-4.5,0-8.2,3.7-8.2,8.2S63.9,338.9,68.5,338.9z"/>
		<path class="st1" d="M68.5,350.4c4.4,0,8-3.6,8-8c0-4.4-3.6-8-8-8c-4.4,0-8,3.6-8,8C60.5,346.8,64,350.4,68.5,350.4z"/>
		<path class="st1" d="M68.5,361.9c4.3,0,7.8-3.5,7.8-7.8c0-4.3-3.5-7.8-7.8-7.8c-4.3,0-7.8,3.5-7.8,7.8
			C60.6,358.4,64.2,361.9,68.5,361.9z"/>
		<path class="st1" d="M68.5,373.4c4.2,0,7.6-3.4,7.6-7.6s-3.4-7.6-7.6-7.6c-4.2,0-7.6,3.4-7.6,7.6S64.3,373.4,68.5,373.4z"/>
		<path class="st1" d="M68.5,384.9c4.1,0,7.5-3.3,7.5-7.4c0-4.1-3.3-7.4-7.5-7.4c-4.1,0-7.5,3.3-7.5,7.4
			C61,381.5,64.4,384.9,68.5,384.9z"/>
		<path class="st1" d="M68.5,396.4c4,0,7.3-3.2,7.3-7.3s-3.2-7.3-7.3-7.3c-4,0-7.3,3.2-7.3,7.3S64.5,396.4,68.5,396.4z"/>
		<path class="st1" d="M68.5,407.8c3.9,0,7.1-3.2,7.1-7.1s-3.2-7.1-7.1-7.1c-3.9,0-7.1,3.2-7.1,7.1S64.6,407.8,68.5,407.8z"/>
		<path class="st1" d="M68.5,419.3c3.8,0,6.9-3.1,6.9-6.9c0-3.8-3.1-6.9-6.9-6.9s-6.9,3.1-6.9,6.9C61.6,416.3,64.7,419.3,68.5,419.3
			z"/>
		<path class="st1" d="M68.5,430.8c3.7,0,6.7-3,6.7-6.7c0-3.7-3-6.7-6.7-6.7c-3.7,0-6.7,3-6.7,6.7C61.8,427.8,64.8,430.8,68.5,430.8
			z"/>
		<path class="st1" d="M68.5,442.3c3.6,0,6.5-2.9,6.5-6.5c0-3.6-2.9-6.5-6.5-6.5s-6.5,2.9-6.5,6.5C62,439.4,64.9,442.3,68.5,442.3z"
			/>
		<path class="st1" d="M68.5,453.8c3.5,0,6.3-2.8,6.3-6.3c0-3.5-2.8-6.3-6.3-6.3c-3.5,0-6.3,2.8-6.3,6.3
			C62.2,451,65,453.8,68.5,453.8z"/>
		<path class="st1" d="M68.5,465.3c3.4,0,6.1-2.7,6.1-6.1c0-3.4-2.7-6.1-6.1-6.1s-6.1,2.7-6.1,6.1C62.4,462.6,65.1,465.3,68.5,465.3
			z"/>
		<path class="st1" d="M68.5,476.8c3.3,0,5.9-2.6,5.9-5.9c0-3.3-2.6-5.9-5.9-5.9c-3.3,0-5.9,2.6-5.9,5.9
			C62.6,474.1,65.2,476.8,68.5,476.8z"/>
		<path class="st1" d="M68.5,488.3c3.1,0,5.7-2.5,5.7-5.7c0-3.1-2.6-5.7-5.7-5.7c-3.1,0-5.7,2.5-5.7,5.7
			C62.8,485.7,65.3,488.3,68.5,488.3z"/>
		<path class="st1" d="M68.5,499.7c3,0,5.5-2.5,5.5-5.5s-2.5-5.5-5.5-5.5c-3,0-5.5,2.5-5.5,5.5S65.4,499.7,68.5,499.7z"/>
		<path class="st1" d="M68.5,511.2c2.9,0,5.3-2.4,5.3-5.3c0-2.9-2.4-5.3-5.3-5.3s-5.3,2.4-5.3,5.3C63.1,508.9,65.5,511.2,68.5,511.2
			z"/>
		<path class="st1" d="M68.5,522.7c2.8,0,5.1-2.3,5.1-5.1s-2.3-5.1-5.1-5.1c-2.8,0-5.1,2.3-5.1,5.1S65.6,522.7,68.5,522.7z"/>
		<path class="st1" d="M68.5,534.2c2.7,0,4.9-2.2,4.9-4.9c0-2.7-2.2-4.9-4.9-4.9c-2.7,0-4.9,2.2-4.9,4.9
			C63.5,532,65.7,534.2,68.5,534.2z"/>
		<path class="st1" d="M91.9,189.6c5.9,0,10.8-4.8,10.8-10.8c0-5.9-4.8-10.8-10.8-10.8s-10.8,4.8-10.8,10.8
			C81.1,184.8,86,189.6,91.9,189.6z"/>
		<path class="st1" d="M91.9,201.1c5.8,0,10.6-4.7,10.6-10.6S97.7,180,91.9,180c-5.8,0-10.6,4.7-10.6,10.6S86.1,201.1,91.9,201.1z"
			/>
		<path class="st1" d="M91.9,212.6c5.7,0,10.4-4.6,10.4-10.4c0-5.7-4.6-10.4-10.4-10.4c-5.7,0-10.4,4.6-10.4,10.4
			C81.5,207.9,86.2,212.6,91.9,212.6z"/>
		<path class="st1" d="M91.9,224.1c5.6,0,10.2-4.6,10.2-10.2c0-5.6-4.6-10.2-10.2-10.2c-5.6,0-10.2,4.6-10.2,10.2
			C81.7,219.5,86.3,224.1,91.9,224.1z"/>
		<path class="st1" d="M91.9,235.5c5.5,0,10-4.5,10-10c0-5.5-4.5-10-10-10s-10,4.5-10,10C81.9,231.1,86.4,235.5,91.9,235.5z"/>
		<path class="st1" d="M91.9,247c5.4,0,9.8-4.4,9.8-9.8c0-5.4-4.4-9.8-9.8-9.8c-5.4,0-9.8,4.4-9.8,9.8C82.1,242.6,86.5,247,91.9,247
			z"/>
		<path class="st1" d="M91.9,258.5c5.3,0,9.6-4.3,9.6-9.6s-4.3-9.6-9.6-9.6c-5.3,0-9.6,4.3-9.6,9.6S86.6,258.5,91.9,258.5z"/>
		<path class="st1" d="M91.9,270c5.2,0,9.4-4.2,9.4-9.4c0-5.2-4.2-9.4-9.4-9.4c-5.2,0-9.4,4.2-9.4,9.4C82.5,265.8,86.7,270,91.9,270
			z"/>
		<path class="st1" d="M91.9,281.5c5.1,0,9.2-4.1,9.2-9.2c0-5.1-4.1-9.2-9.2-9.2s-9.2,4.1-9.2,9.2C82.7,277.4,86.8,281.5,91.9,281.5
			z"/>
		<path class="st1" d="M91.9,293c5,0,9-4,9-9c0-5-4-9-9-9c-5,0-9,4-9,9C82.9,288.9,86.9,293,91.9,293z"/>
		<path class="st1" d="M91.9,304.5c4.9,0,8.8-3.9,8.8-8.8s-3.9-8.8-8.8-8.8s-8.8,3.9-8.8,8.8S87,304.5,91.9,304.5z"/>
		<path class="st1" d="M91.9,316c4.8,0,8.6-3.9,8.6-8.6c0-4.8-3.9-8.6-8.6-8.6c-4.8,0-8.6,3.9-8.6,8.6C83.3,312.1,87.1,316,91.9,316
			z"/>
		<path class="st1" d="M91.9,327.4c4.7,0,8.4-3.8,8.4-8.4c0-4.7-3.8-8.4-8.4-8.4s-8.4,3.8-8.4,8.4C83.4,323.7,87.2,327.4,91.9,327.4
			z"/>
		<path class="st1" d="M91.9,338.9c4.5,0,8.2-3.7,8.2-8.2s-3.7-8.2-8.2-8.2c-4.5,0-8.2,3.7-8.2,8.2S87.3,338.9,91.9,338.9z"/>
		<path class="st1" d="M91.9,350.4c4.4,0,8-3.6,8-8c0-4.4-3.6-8-8-8c-4.4,0-8,3.6-8,8C83.8,346.8,87.4,350.4,91.9,350.4z"/>
		<path class="st1" d="M91.9,361.9c4.3,0,7.8-3.5,7.8-7.8c0-4.3-3.5-7.8-7.8-7.8c-4.3,0-7.8,3.5-7.8,7.8
			C84,358.4,87.5,361.9,91.9,361.9z"/>
		<path class="st1" d="M91.9,373.4c4.2,0,7.6-3.4,7.6-7.6s-3.4-7.6-7.6-7.6s-7.6,3.4-7.6,7.6S87.6,373.4,91.9,373.4z"/>
		<path class="st1" d="M91.9,384.9c4.1,0,7.5-3.3,7.5-7.4c0-4.1-3.3-7.4-7.5-7.4c-4.1,0-7.5,3.3-7.5,7.4
			C84.4,381.5,87.7,384.9,91.9,384.9z"/>
		<path class="st1" d="M91.9,396.4c4,0,7.3-3.2,7.3-7.3s-3.2-7.3-7.3-7.3s-7.3,3.2-7.3,7.3S87.8,396.4,91.9,396.4z"/>
		<path class="st1" d="M91.9,407.8c3.9,0,7.1-3.2,7.1-7.1s-3.2-7.1-7.1-7.1c-3.9,0-7.1,3.2-7.1,7.1S88,407.8,91.9,407.8z"/>
		<path class="st1" d="M91.9,419.3c3.8,0,6.9-3.1,6.9-6.9c0-3.8-3.1-6.9-6.9-6.9c-3.8,0-6.9,3.1-6.9,6.9
			C85,416.3,88.1,419.3,91.9,419.3z"/>
		<path class="st1" d="M91.8,430.8c3.7,0,6.7-3,6.7-6.7c0-3.7-3-6.7-6.7-6.7c-3.7,0-6.7,3-6.7,6.7C85.2,427.8,88.2,430.8,91.8,430.8
			z"/>
		<path class="st1" d="M91.8,442.3c3.6,0,6.5-2.9,6.5-6.5c0-3.6-2.9-6.5-6.5-6.5s-6.5,2.9-6.5,6.5C85.4,439.4,88.3,442.3,91.8,442.3
			z"/>
		<path class="st1" d="M91.8,453.8c3.5,0,6.3-2.8,6.3-6.3c0-3.5-2.8-6.3-6.3-6.3c-3.5,0-6.3,2.8-6.3,6.3
			C85.6,451,88.4,453.8,91.8,453.8z"/>
		<path class="st1" d="M91.8,465.3c3.4,0,6.1-2.7,6.1-6.1c0-3.4-2.7-6.1-6.1-6.1c-3.4,0-6.1,2.7-6.1,6.1
			C85.8,462.6,88.5,465.3,91.8,465.3z"/>
		<path class="st1" d="M91.8,476.8c3.3,0,5.9-2.6,5.9-5.9c0-3.3-2.6-5.9-5.9-5.9c-3.3,0-5.9,2.6-5.9,5.9
			C85.9,474.1,88.6,476.8,91.8,476.8z"/>
		<path class="st1" d="M91.8,488.3c3.1,0,5.7-2.5,5.7-5.7c0-3.1-2.6-5.7-5.7-5.7s-5.7,2.5-5.7,5.7C86.1,485.7,88.7,488.3,91.8,488.3
			z"/>
		<path class="st1" d="M91.8,499.7c3,0,5.5-2.5,5.5-5.5s-2.5-5.5-5.5-5.5s-5.5,2.5-5.5,5.5S88.8,499.7,91.8,499.7z"/>
		<path class="st1" d="M91.8,511.2c2.9,0,5.3-2.4,5.3-5.3c0-2.9-2.4-5.3-5.3-5.3c-2.9,0-5.3,2.4-5.3,5.3
			C86.5,508.9,88.9,511.2,91.8,511.2z"/>
		<path class="st1" d="M91.8,522.7c2.8,0,5.1-2.3,5.1-5.1s-2.3-5.1-5.1-5.1c-2.8,0-5.1,2.3-5.1,5.1S89,522.7,91.8,522.7z"/>
		<path class="st1" d="M91.8,534.2c2.7,0,4.9-2.2,4.9-4.9c0-2.7-2.2-4.9-4.9-4.9c-2.7,0-4.9,2.2-4.9,4.9
			C86.9,532,89.1,534.2,91.8,534.2z"/>
		<path class="st1" d="M91.8,545.7c2.6,0,4.7-2.1,4.7-4.7c0-2.6-2.1-4.7-4.7-4.7s-4.7,2.1-4.7,4.7C87.1,543.6,89.2,545.7,91.8,545.7
			z"/>
		<path class="st1" d="M115.3,212.6c5.7,0,10.4-4.6,10.4-10.4c0-5.7-4.6-10.4-10.4-10.4c-5.7,0-10.4,4.6-10.4,10.4
			C104.9,207.9,109.5,212.6,115.3,212.6z"/>
		<path class="st1" d="M115.3,224.1c5.6,0,10.2-4.6,10.2-10.2c0-5.6-4.6-10.2-10.2-10.2c-5.6,0-10.2,4.6-10.2,10.2
			C105.1,219.5,109.6,224.1,115.3,224.1z"/>
		<path class="st1" d="M115.3,235.5c5.5,0,10-4.5,10-10c0-5.5-4.5-10-10-10c-5.5,0-10,4.5-10,10
			C105.3,231.1,109.8,235.5,115.3,235.5z"/>
		<path class="st1" d="M115.3,247c5.4,0,9.8-4.4,9.8-9.8c0-5.4-4.4-9.8-9.8-9.8c-5.4,0-9.8,4.4-9.8,9.8
			C105.5,242.6,109.9,247,115.3,247z"/>
		<path class="st1" d="M115.3,258.5c5.3,0,9.6-4.3,9.6-9.6s-4.3-9.6-9.6-9.6c-5.3,0-9.6,4.3-9.6,9.6S110,258.5,115.3,258.5z"/>
		<path class="st1" d="M115.3,270c5.2,0,9.4-4.2,9.4-9.4c0-5.2-4.2-9.4-9.4-9.4c-5.2,0-9.4,4.2-9.4,9.4
			C105.9,265.8,110.1,270,115.3,270z"/>
		<path class="st1" d="M115.3,281.5c5.1,0,9.2-4.1,9.2-9.2c0-5.1-4.1-9.2-9.2-9.2c-5.1,0-9.2,4.1-9.2,9.2
			C106.1,277.4,110.2,281.5,115.3,281.5z"/>
		<path class="st1" d="M115.3,293c5,0,9-4,9-9c0-5-4-9-9-9c-5,0-9,4-9,9C106.2,288.9,110.3,293,115.3,293z"/>
		<path class="st1" d="M115.3,304.5c4.9,0,8.8-3.9,8.8-8.8s-3.9-8.8-8.8-8.8c-4.9,0-8.8,3.9-8.8,8.8S110.4,304.5,115.3,304.5z"/>
		<path class="st1" d="M115.2,316c4.8,0,8.6-3.9,8.6-8.6c0-4.8-3.9-8.6-8.6-8.6c-4.8,0-8.6,3.9-8.6,8.6
			C106.6,312.1,110.5,316,115.2,316z"/>
		<path class="st1" d="M115.2,327.4c4.7,0,8.4-3.8,8.4-8.4c0-4.7-3.8-8.4-8.4-8.4s-8.4,3.8-8.4,8.4
			C106.8,323.7,110.6,327.4,115.2,327.4z"/>
		<path class="st1" d="M115.2,338.9c4.5,0,8.2-3.7,8.2-8.2s-3.7-8.2-8.2-8.2c-4.5,0-8.2,3.7-8.2,8.2S110.7,338.9,115.2,338.9z"/>
		<path class="st1" d="M115.2,350.4c4.4,0,8-3.6,8-8c0-4.4-3.6-8-8-8c-4.4,0-8,3.6-8,8C107.2,346.8,110.8,350.4,115.2,350.4z"/>
		<path class="st1" d="M115.2,361.9c4.3,0,7.8-3.5,7.8-7.8c0-4.3-3.5-7.8-7.8-7.8c-4.3,0-7.8,3.5-7.8,7.8
			C107.4,358.4,110.9,361.9,115.2,361.9z"/>
		<path class="st1" d="M115.2,373.4c4.2,0,7.6-3.4,7.6-7.6s-3.4-7.6-7.6-7.6c-4.2,0-7.6,3.4-7.6,7.6S111,373.4,115.2,373.4z"/>
		<path class="st1" d="M115.2,384.9c4.1,0,7.5-3.3,7.5-7.4c0-4.1-3.3-7.4-7.5-7.4c-4.1,0-7.5,3.3-7.5,7.4
			C107.8,381.5,111.1,384.9,115.2,384.9z"/>
		<path class="st1" d="M115.2,396.4c4,0,7.3-3.2,7.3-7.3s-3.2-7.3-7.3-7.3c-4,0-7.3,3.2-7.3,7.3S111.2,396.4,115.2,396.4z"/>
		<path class="st1" d="M115.2,407.8c3.9,0,7.1-3.2,7.1-7.1s-3.2-7.1-7.1-7.1c-3.9,0-7.1,3.2-7.1,7.1S111.3,407.8,115.2,407.8z"/>
		<path class="st1" d="M115.2,419.3c3.8,0,6.9-3.1,6.9-6.9c0-3.8-3.1-6.9-6.9-6.9s-6.9,3.1-6.9,6.9
			C108.4,416.3,111.4,419.3,115.2,419.3z"/>
		<path class="st1" d="M115.2,430.8c3.7,0,6.7-3,6.7-6.7c0-3.7-3-6.7-6.7-6.7c-3.7,0-6.7,3-6.7,6.7
			C108.6,427.8,111.5,430.8,115.2,430.8z"/>
		<path class="st1" d="M115.2,442.3c3.6,0,6.5-2.9,6.5-6.5c0-3.6-2.9-6.5-6.5-6.5c-3.6,0-6.5,2.9-6.5,6.5
			C108.7,439.4,111.6,442.3,115.2,442.3z"/>
		<path class="st1" d="M115.2,453.8c3.5,0,6.3-2.8,6.3-6.3c0-3.5-2.8-6.3-6.3-6.3c-3.5,0-6.3,2.8-6.3,6.3
			C108.9,451,111.8,453.8,115.2,453.8z"/>
		<path class="st1" d="M115.2,465.3c3.4,0,6.1-2.7,6.1-6.1c0-3.4-2.7-6.1-6.1-6.1c-3.4,0-6.1,2.7-6.1,6.1
			C109.1,462.6,111.9,465.3,115.2,465.3z"/>
		<path class="st1" d="M115.2,476.8c3.3,0,5.9-2.6,5.9-5.9c0-3.3-2.6-5.9-5.9-5.9c-3.3,0-5.9,2.6-5.9,5.9
			C109.3,474.1,112,476.8,115.2,476.8z"/>
		<path class="st1" d="M115.2,488.3c3.1,0,5.7-2.5,5.7-5.7c0-3.1-2.6-5.7-5.7-5.7c-3.1,0-5.7,2.5-5.7,5.7
			C109.5,485.7,112.1,488.3,115.2,488.3z"/>
		<path class="st1" d="M115.2,499.7c3,0,5.5-2.5,5.5-5.5s-2.5-5.5-5.5-5.5s-5.5,2.5-5.5,5.5S112.2,499.7,115.2,499.7z"/>
		<path class="st1" d="M115.2,511.2c2.9,0,5.3-2.4,5.3-5.3c0-2.9-2.4-5.3-5.3-5.3c-2.9,0-5.3,2.4-5.3,5.3
			C109.9,508.9,112.3,511.2,115.2,511.2z"/>
		<path class="st1" d="M115.2,522.7c2.8,0,5.1-2.3,5.1-5.1s-2.3-5.1-5.1-5.1c-2.8,0-5.1,2.3-5.1,5.1S112.4,522.7,115.2,522.7z"/>
		<path class="st1" d="M115.2,534.2c2.7,0,4.9-2.2,4.9-4.9c0-2.7-2.2-4.9-4.9-4.9c-2.7,0-4.9,2.2-4.9,4.9
			C110.3,532,112.5,534.2,115.2,534.2z"/>
		<path class="st1" d="M115.2,545.7c2.6,0,4.7-2.1,4.7-4.7c0-2.6-2.1-4.7-4.7-4.7c-2.6,0-4.7,2.1-4.7,4.7
			C110.5,543.6,112.6,545.7,115.2,545.7z"/>
		<path class="st1" d="M115.2,557.2c2.5,0,4.5-2,4.5-4.5c0-2.5-2-4.5-4.5-4.5c-2.5,0-4.5,2-4.5,4.5
			C110.7,555.1,112.7,557.2,115.2,557.2z"/>
		<path class="st1" d="M115.2,568.7c2.4,0,4.3-1.9,4.3-4.3s-1.9-4.3-4.3-4.3c-2.4,0-4.3,1.9-4.3,4.3S112.8,568.7,115.2,568.7z"/>
		<path class="st1" d="M138.6,235.5c5.5,0,10-4.5,10-10c0-5.5-4.5-10-10-10c-5.5,0-10,4.5-10,10
			C128.7,231.1,133.1,235.5,138.6,235.5z"/>
		<path class="st1" d="M138.6,247c5.4,0,9.8-4.4,9.8-9.8c0-5.4-4.4-9.8-9.8-9.8c-5.4,0-9.8,4.4-9.8,9.8
			C128.8,242.6,133.2,247,138.6,247z"/>
		<path class="st1" d="M138.6,258.5c5.3,0,9.6-4.3,9.6-9.6s-4.3-9.6-9.6-9.6s-9.6,4.3-9.6,9.6S133.3,258.5,138.6,258.5z"/>
		<path class="st1" d="M138.6,270c5.2,0,9.4-4.2,9.4-9.4c0-5.2-4.2-9.4-9.4-9.4c-5.2,0-9.4,4.2-9.4,9.4
			C129.2,265.8,133.4,270,138.6,270z"/>
		<path class="st1" d="M138.6,281.5c5.1,0,9.2-4.1,9.2-9.2c0-5.1-4.1-9.2-9.2-9.2c-5.1,0-9.2,4.1-9.2,9.2
			C129.4,277.4,133.6,281.5,138.6,281.5z"/>
		<path class="st1" d="M138.6,293c5,0,9-4,9-9c0-5-4-9-9-9c-5,0-9,4-9,9C129.6,288.9,133.7,293,138.6,293z"/>
		<path class="st1" d="M138.6,304.5c4.9,0,8.8-3.9,8.8-8.8s-3.9-8.8-8.8-8.8c-4.9,0-8.8,3.9-8.8,8.8S133.8,304.5,138.6,304.5z"/>
		<path class="st1" d="M138.6,316c4.8,0,8.6-3.9,8.6-8.6c0-4.8-3.9-8.6-8.6-8.6c-4.8,0-8.6,3.9-8.6,8.6
			C130,312.1,133.9,316,138.6,316z"/>
		<path class="st1" d="M138.6,327.4c4.7,0,8.4-3.8,8.4-8.4c0-4.7-3.8-8.4-8.4-8.4c-4.7,0-8.4,3.8-8.4,8.4
			C130.2,323.7,134,327.4,138.6,327.4z"/>
		<path class="st1" d="M138.6,338.9c4.5,0,8.2-3.7,8.2-8.2s-3.7-8.2-8.2-8.2c-4.5,0-8.2,3.7-8.2,8.2S134.1,338.9,138.6,338.9z"/>
		<path class="st1" d="M138.6,350.4c4.4,0,8-3.6,8-8c0-4.4-3.6-8-8-8c-4.4,0-8,3.6-8,8C130.6,346.8,134.2,350.4,138.6,350.4z"/>
		<path class="st1" d="M138.6,361.9c4.3,0,7.8-3.5,7.8-7.8c0-4.3-3.5-7.8-7.8-7.8c-4.3,0-7.8,3.5-7.8,7.8
			C130.8,358.4,134.3,361.9,138.6,361.9z"/>
		<path class="st1" d="M138.6,373.4c4.2,0,7.6-3.4,7.6-7.6s-3.4-7.6-7.6-7.6c-4.2,0-7.6,3.4-7.6,7.6S134.4,373.4,138.6,373.4z"/>
		<path class="st1" d="M138.6,384.9c4.1,0,7.5-3.3,7.5-7.4c0-4.1-3.3-7.4-7.5-7.4c-4.1,0-7.5,3.3-7.5,7.4
			C131.2,381.5,134.5,384.9,138.6,384.9z"/>
		<path class="st1" d="M138.6,396.4c4,0,7.3-3.2,7.3-7.3s-3.2-7.3-7.3-7.3s-7.3,3.2-7.3,7.3S134.6,396.4,138.6,396.4z"/>
		<path class="st1" d="M138.6,407.8c3.9,0,7.1-3.2,7.1-7.1s-3.2-7.1-7.1-7.1s-7.1,3.2-7.1,7.1S134.7,407.8,138.6,407.8z"/>
		<path class="st1" d="M138.6,419.3c3.8,0,6.9-3.1,6.9-6.9c0-3.8-3.1-6.9-6.9-6.9s-6.9,3.1-6.9,6.9
			C131.7,416.3,134.8,419.3,138.6,419.3z"/>
		<path class="st1" d="M138.6,430.8c3.7,0,6.7-3,6.7-6.7c0-3.7-3-6.7-6.7-6.7c-3.7,0-6.7,3-6.7,6.7
			C131.9,427.8,134.9,430.8,138.6,430.8z"/>
		<path class="st1" d="M138.6,442.3c3.6,0,6.5-2.9,6.5-6.5c0-3.6-2.9-6.5-6.5-6.5c-3.6,0-6.5,2.9-6.5,6.5
			C132.1,439.4,135,442.3,138.6,442.3z"/>
		<path class="st1" d="M138.6,453.8c3.5,0,6.3-2.8,6.3-6.3c0-3.5-2.8-6.3-6.3-6.3c-3.5,0-6.3,2.8-6.3,6.3
			C132.3,451,135.1,453.8,138.6,453.8z"/>
		<path class="st1" d="M138.6,465.3c3.4,0,6.1-2.7,6.1-6.1c0-3.4-2.7-6.1-6.1-6.1c-3.4,0-6.1,2.7-6.1,6.1
			C132.5,462.6,135.2,465.3,138.6,465.3z"/>
		<path class="st1" d="M138.6,476.8c3.3,0,5.9-2.6,5.9-5.9c0-3.3-2.6-5.9-5.9-5.9s-5.9,2.6-5.9,5.9
			C132.7,474.1,135.3,476.8,138.6,476.8z"/>
		<path class="st1" d="M138.6,488.3c3.1,0,5.7-2.5,5.7-5.7c0-3.1-2.6-5.7-5.7-5.7c-3.1,0-5.7,2.5-5.7,5.7
			C132.9,485.7,135.4,488.3,138.6,488.3z"/>
		<path class="st1" d="M138.6,499.7c3,0,5.5-2.5,5.5-5.5s-2.5-5.5-5.5-5.5s-5.5,2.5-5.5,5.5S135.5,499.7,138.6,499.7z"/>
		<path class="st1" d="M138.6,511.2c2.9,0,5.3-2.4,5.3-5.3c0-2.9-2.4-5.3-5.3-5.3c-2.9,0-5.3,2.4-5.3,5.3
			C133.3,508.9,135.7,511.2,138.6,511.2z"/>
		<path class="st1" d="M138.6,522.7c2.8,0,5.1-2.3,5.1-5.1s-2.3-5.1-5.1-5.1c-2.8,0-5.1,2.3-5.1,5.1S135.8,522.7,138.6,522.7z"/>
		<path class="st1" d="M138.6,534.2c2.7,0,4.9-2.2,4.9-4.9c0-2.7-2.2-4.9-4.9-4.9s-4.9,2.2-4.9,4.9
			C133.7,532,135.9,534.2,138.6,534.2z"/>
		<path class="st1" d="M138.6,545.7c2.6,0,4.7-2.1,4.7-4.7c0-2.6-2.1-4.7-4.7-4.7c-2.6,0-4.7,2.1-4.7,4.7
			C133.9,543.6,136,545.7,138.6,545.7z"/>
		<path class="st1" d="M138.6,557.2c2.5,0,4.5-2,4.5-4.5c0-2.5-2-4.5-4.5-4.5s-4.5,2-4.5,4.5C134.1,555.1,136.1,557.2,138.6,557.2z"
			/>
		<path class="st1" d="M138.6,568.7c2.4,0,4.3-1.9,4.3-4.3s-1.9-4.3-4.3-4.3c-2.4,0-4.3,1.9-4.3,4.3S136.2,568.7,138.6,568.7z"/>
		<path class="st1" d="M162,258.5c5.3,0,9.6-4.3,9.6-9.6s-4.3-9.6-9.6-9.6c-5.3,0-9.6,4.3-9.6,9.6S156.7,258.5,162,258.5z"/>
		<path class="st1" d="M162,270c5.2,0,9.4-4.2,9.4-9.4c0-5.2-4.2-9.4-9.4-9.4s-9.4,4.2-9.4,9.4C152.6,265.8,156.8,270,162,270z"/>
		<path class="st1" d="M162,281.5c5.1,0,9.2-4.1,9.2-9.2c0-5.1-4.1-9.2-9.2-9.2c-5.1,0-9.2,4.1-9.2,9.2
			C152.8,277.4,156.9,281.5,162,281.5z"/>
		<path class="st1" d="M162,293c5,0,9-4,9-9c0-5-4-9-9-9s-9,4-9,9C153,288.9,157,293,162,293z"/>
		<path class="st1" d="M162,304.5c4.9,0,8.8-3.9,8.8-8.8s-3.9-8.8-8.8-8.8c-4.9,0-8.8,3.9-8.8,8.8S157.1,304.5,162,304.5z"/>
		<path class="st1" d="M162,316c4.8,0,8.6-3.9,8.6-8.6c0-4.8-3.9-8.6-8.6-8.6c-4.8,0-8.6,3.9-8.6,8.6C153.4,312.1,157.2,316,162,316
			z"/>
		<path class="st1" d="M162,327.4c4.7,0,8.4-3.8,8.4-8.4c0-4.7-3.8-8.4-8.4-8.4s-8.4,3.8-8.4,8.4C153.6,323.7,157.3,327.4,162,327.4
			z"/>
		<path class="st1" d="M162,338.9c4.5,0,8.2-3.7,8.2-8.2s-3.7-8.2-8.2-8.2s-8.2,3.7-8.2,8.2S157.5,338.9,162,338.9z"/>
		<path class="st1" d="M162,350.4c4.4,0,8-3.6,8-8c0-4.4-3.6-8-8-8s-8,3.6-8,8C154,346.8,157.6,350.4,162,350.4z"/>
		<path class="st1" d="M162,361.9c4.3,0,7.8-3.5,7.8-7.8c0-4.3-3.5-7.8-7.8-7.8c-4.3,0-7.8,3.5-7.8,7.8
			C154.2,358.4,157.7,361.9,162,361.9z"/>
		<path class="st1" d="M162,373.4c4.2,0,7.6-3.4,7.6-7.6s-3.4-7.6-7.6-7.6s-7.6,3.4-7.6,7.6S157.8,373.4,162,373.4z"/>
		<path class="st1" d="M162,384.9c4.1,0,7.5-3.3,7.5-7.4c0-4.1-3.3-7.4-7.5-7.4c-4.1,0-7.5,3.3-7.5,7.4
			C154.5,381.5,157.9,384.9,162,384.9z"/>
		<path class="st1" d="M162,396.4c4,0,7.3-3.2,7.3-7.3s-3.2-7.3-7.3-7.3c-4,0-7.3,3.2-7.3,7.3S158,396.4,162,396.4z"/>
		<path class="st1" d="M162,407.8c3.9,0,7.1-3.2,7.1-7.1s-3.2-7.1-7.1-7.1c-3.9,0-7.1,3.2-7.1,7.1S158.1,407.8,162,407.8z"/>
		<path class="st1" d="M162,419.3c3.8,0,6.9-3.1,6.9-6.9c0-3.8-3.1-6.9-6.9-6.9c-3.8,0-6.9,3.1-6.9,6.9
			C155.1,416.3,158.2,419.3,162,419.3z"/>
		<path class="st1" d="M162,430.8c3.7,0,6.7-3,6.7-6.7c0-3.7-3-6.7-6.7-6.7c-3.7,0-6.7,3-6.7,6.7C155.3,427.8,158.3,430.8,162,430.8
			z"/>
		<path class="st1" d="M162,442.3c3.6,0,6.5-2.9,6.5-6.5c0-3.6-2.9-6.5-6.5-6.5c-3.6,0-6.5,2.9-6.5,6.5
			C155.5,439.4,158.4,442.3,162,442.3z"/>
		<path class="st1" d="M162,453.8c3.5,0,6.3-2.8,6.3-6.3c0-3.5-2.8-6.3-6.3-6.3c-3.5,0-6.3,2.8-6.3,6.3
			C155.7,451,158.5,453.8,162,453.8z"/>
		<path class="st1" d="M162,465.3c3.4,0,6.1-2.7,6.1-6.1c0-3.4-2.7-6.1-6.1-6.1c-3.4,0-6.1,2.7-6.1,6.1
			C155.9,462.6,158.6,465.3,162,465.3z"/>
		<path class="st1" d="M162,476.8c3.3,0,5.9-2.6,5.9-5.9c0-3.3-2.6-5.9-5.9-5.9s-5.9,2.6-5.9,5.9C156.1,474.1,158.7,476.8,162,476.8
			z"/>
		<path class="st1" d="M162,488.3c3.1,0,5.7-2.5,5.7-5.7c0-3.1-2.6-5.7-5.7-5.7c-3.1,0-5.7,2.5-5.7,5.7
			C156.3,485.7,158.8,488.3,162,488.3z"/>
		<path class="st1" d="M162,499.7c3,0,5.5-2.5,5.5-5.5s-2.5-5.5-5.5-5.5s-5.5,2.5-5.5,5.5S158.9,499.7,162,499.7z"/>
		<path class="st1" d="M162,511.2c2.9,0,5.3-2.4,5.3-5.3c0-2.9-2.4-5.3-5.3-5.3c-2.9,0-5.3,2.4-5.3,5.3
			C156.7,508.9,159,511.2,162,511.2z"/>
		<path class="st1" d="M162,522.7c2.8,0,5.1-2.3,5.1-5.1s-2.3-5.1-5.1-5.1s-5.1,2.3-5.1,5.1S159.1,522.7,162,522.7z"/>
		<path class="st1" d="M162,534.2c2.7,0,4.9-2.2,4.9-4.9c0-2.7-2.2-4.9-4.9-4.9c-2.7,0-4.9,2.2-4.9,4.9
			C157,532,159.2,534.2,162,534.2z"/>
		<path class="st1" d="M162,545.7c2.6,0,4.7-2.1,4.7-4.7c0-2.6-2.1-4.7-4.7-4.7c-2.6,0-4.7,2.1-4.7,4.7
			C157.2,543.6,159.3,545.7,162,545.7z"/>
		<path class="st1" d="M162,557.2c2.5,0,4.5-2,4.5-4.5c0-2.5-2-4.5-4.5-4.5s-4.5,2-4.5,4.5C157.4,555.1,159.5,557.2,162,557.2z"/>
		<path class="st1" d="M162,568.7c2.4,0,4.3-1.9,4.3-4.3s-1.9-4.3-4.3-4.3c-2.4,0-4.3,1.9-4.3,4.3S159.6,568.7,162,568.7z"/>
		<path class="st1" d="M185.4,281.5c5.1,0,9.2-4.1,9.2-9.2c0-5.1-4.1-9.2-9.2-9.2c-5.1,0-9.2,4.1-9.2,9.2
			C176.2,277.4,180.3,281.5,185.4,281.5z"/>
		<path class="st1" d="M185.4,293c5,0,9-4,9-9c0-5-4-9-9-9c-5,0-9,4-9,9C176.4,288.9,180.4,293,185.4,293z"/>
		<path class="st1" d="M185.4,304.5c4.9,0,8.8-3.9,8.8-8.8s-3.9-8.8-8.8-8.8s-8.8,3.9-8.8,8.8S180.5,304.5,185.4,304.5z"/>
		<path class="st1" d="M185.4,316c4.8,0,8.6-3.9,8.6-8.6c0-4.8-3.9-8.6-8.6-8.6s-8.6,3.9-8.6,8.6C176.8,312.1,180.6,316,185.4,316z"
			/>
		<path class="st1" d="M185.4,327.4c4.7,0,8.4-3.8,8.4-8.4c0-4.7-3.8-8.4-8.4-8.4s-8.4,3.8-8.4,8.4
			C177,323.7,180.7,327.4,185.4,327.4z"/>
		<path class="st1" d="M185.4,338.9c4.5,0,8.2-3.7,8.2-8.2s-3.7-8.2-8.2-8.2c-4.5,0-8.2,3.7-8.2,8.2S180.8,338.9,185.4,338.9z"/>
		<path class="st1" d="M185.4,350.4c4.4,0,8-3.6,8-8c0-4.4-3.6-8-8-8c-4.4,0-8,3.6-8,8C177.3,346.8,180.9,350.4,185.4,350.4z"/>
		<path class="st1" d="M185.4,361.9c4.3,0,7.8-3.5,7.8-7.8c0-4.3-3.5-7.8-7.8-7.8c-4.3,0-7.8,3.5-7.8,7.8
			C177.5,358.4,181,361.9,185.4,361.9z"/>
		<path class="st1" d="M185.4,373.4c4.2,0,7.6-3.4,7.6-7.6s-3.4-7.6-7.6-7.6c-4.2,0-7.6,3.4-7.6,7.6S181.1,373.4,185.4,373.4z"/>
		<path class="st1" d="M185.4,384.9c4.1,0,7.5-3.3,7.5-7.4c0-4.1-3.3-7.4-7.5-7.4c-4.1,0-7.5,3.3-7.5,7.4
			C177.9,381.5,181.3,384.9,185.4,384.9z"/>
		<path class="st1" d="M185.4,396.4c4,0,7.3-3.2,7.3-7.3s-3.2-7.3-7.3-7.3c-4,0-7.3,3.2-7.3,7.3S181.4,396.4,185.4,396.4z"/>
		<path class="st1" d="M185.4,407.8c3.9,0,7.1-3.2,7.1-7.1s-3.2-7.1-7.1-7.1c-3.9,0-7.1,3.2-7.1,7.1S181.5,407.8,185.4,407.8z"/>
		<path class="st1" d="M185.4,419.3c3.8,0,6.9-3.1,6.9-6.9c0-3.8-3.1-6.9-6.9-6.9s-6.9,3.1-6.9,6.9
			C178.5,416.3,181.6,419.3,185.4,419.3z"/>
		<path class="st1" d="M185.4,430.8c3.7,0,6.7-3,6.7-6.7c0-3.7-3-6.7-6.7-6.7c-3.7,0-6.7,3-6.7,6.7
			C178.7,427.8,181.7,430.8,185.4,430.8z"/>
		<path class="st1" d="M185.4,442.3c3.6,0,6.5-2.9,6.5-6.5c0-3.6-2.9-6.5-6.5-6.5c-3.6,0-6.5,2.9-6.5,6.5
			C178.9,439.4,181.8,442.3,185.4,442.3z"/>
		<path class="st1" d="M185.4,453.8c3.5,0,6.3-2.8,6.3-6.3c0-3.5-2.8-6.3-6.3-6.3s-6.3,2.8-6.3,6.3
			C179.1,451,181.9,453.8,185.4,453.8z"/>
		<path class="st1" d="M185.4,465.3c3.4,0,6.1-2.7,6.1-6.1c0-3.4-2.7-6.1-6.1-6.1c-3.4,0-6.1,2.7-6.1,6.1
			C179.3,462.6,182,465.3,185.4,465.3z"/>
		<path class="st1" d="M185.4,476.8c3.3,0,5.9-2.6,5.9-5.9c0-3.3-2.6-5.9-5.9-5.9c-3.3,0-5.9,2.6-5.9,5.9
			C179.5,474.1,182.1,476.8,185.4,476.8z"/>
		<path class="st1" d="M185.3,488.3c3.1,0,5.7-2.5,5.7-5.7c0-3.1-2.6-5.7-5.7-5.7c-3.1,0-5.7,2.5-5.7,5.7
			C179.6,485.7,182.2,488.3,185.3,488.3z"/>
		<path class="st1" d="M185.3,499.7c3,0,5.5-2.5,5.5-5.5s-2.5-5.5-5.5-5.5s-5.5,2.5-5.5,5.5S182.3,499.7,185.3,499.7z"/>
		<path class="st1" d="M185.3,511.2c2.9,0,5.3-2.4,5.3-5.3c0-2.9-2.4-5.3-5.3-5.3c-2.9,0-5.3,2.4-5.3,5.3
			C180,508.9,182.4,511.2,185.3,511.2z"/>
		<path class="st1" d="M185.3,522.7c2.8,0,5.1-2.3,5.1-5.1s-2.3-5.1-5.1-5.1c-2.8,0-5.1,2.3-5.1,5.1S182.5,522.7,185.3,522.7z"/>
		<path class="st1" d="M185.3,534.2c2.7,0,4.9-2.2,4.9-4.9c0-2.7-2.2-4.9-4.9-4.9s-4.9,2.2-4.9,4.9
			C180.4,532,182.6,534.2,185.3,534.2z"/>
		<path class="st1" d="M185.3,545.7c2.6,0,4.7-2.1,4.7-4.7c0-2.6-2.1-4.7-4.7-4.7c-2.6,0-4.7,2.1-4.7,4.7
			C180.6,543.6,182.7,545.7,185.3,545.7z"/>
		<path class="st1" d="M185.3,557.2c2.5,0,4.5-2,4.5-4.5c0-2.5-2-4.5-4.5-4.5c-2.5,0-4.5,2-4.5,4.5
			C180.8,555.1,182.8,557.2,185.3,557.2z"/>
		<path class="st1" d="M185.3,568.7c2.4,0,4.3-1.9,4.3-4.3s-1.9-4.3-4.3-4.3c-2.4,0-4.3,1.9-4.3,4.3S182.9,568.7,185.3,568.7z"/>
		<path class="st1" d="M208.8,304.5c4.9,0,8.8-3.9,8.8-8.8s-3.9-8.8-8.8-8.8c-4.9,0-8.8,3.9-8.8,8.8S203.9,304.5,208.8,304.5z"/>
		<path class="st1" d="M208.8,316c4.8,0,8.6-3.9,8.6-8.6c0-4.8-3.9-8.6-8.6-8.6c-4.8,0-8.6,3.9-8.6,8.6
			C200.1,312.1,204,316,208.8,316z"/>
		<path class="st1" d="M208.8,327.4c4.7,0,8.4-3.8,8.4-8.4c0-4.7-3.8-8.4-8.4-8.4c-4.7,0-8.4,3.8-8.4,8.4
			C200.3,323.7,204.1,327.4,208.8,327.4z"/>
		<path class="st1" d="M208.8,338.9c4.5,0,8.2-3.7,8.2-8.2s-3.7-8.2-8.2-8.2c-4.5,0-8.2,3.7-8.2,8.2S204.2,338.9,208.8,338.9z"/>
		<path class="st1" d="M208.8,350.4c4.4,0,8-3.6,8-8c0-4.4-3.6-8-8-8s-8,3.6-8,8C200.7,346.8,204.3,350.4,208.8,350.4z"/>
		<path class="st1" d="M208.8,361.9c4.3,0,7.8-3.5,7.8-7.8c0-4.3-3.5-7.8-7.8-7.8c-4.3,0-7.8,3.5-7.8,7.8
			C200.9,358.4,204.4,361.9,208.8,361.9z"/>
		<path class="st1" d="M208.7,373.4c4.2,0,7.6-3.4,7.6-7.6s-3.4-7.6-7.6-7.6c-4.2,0-7.6,3.4-7.6,7.6S204.5,373.4,208.7,373.4z"/>
		<path class="st1" d="M208.7,384.9c4.1,0,7.5-3.3,7.5-7.4c0-4.1-3.3-7.4-7.5-7.4c-4.1,0-7.5,3.3-7.5,7.4
			C201.3,381.5,204.6,384.9,208.7,384.9z"/>
		<path class="st1" d="M208.7,396.4c4,0,7.3-3.2,7.3-7.3s-3.2-7.3-7.3-7.3s-7.3,3.2-7.3,7.3S204.7,396.4,208.7,396.4z"/>
		<path class="st1" d="M208.7,407.8c3.9,0,7.1-3.2,7.1-7.1s-3.2-7.1-7.1-7.1c-3.9,0-7.1,3.2-7.1,7.1S204.8,407.8,208.7,407.8z"/>
		<path class="st1" d="M208.7,419.3c3.8,0,6.9-3.1,6.9-6.9c0-3.8-3.1-6.9-6.9-6.9s-6.9,3.1-6.9,6.9
			C201.9,416.3,204.9,419.3,208.7,419.3z"/>
		<path class="st1" d="M208.7,430.8c3.7,0,6.7-3,6.7-6.7c0-3.7-3-6.7-6.7-6.7s-6.7,3-6.7,6.7C202.1,427.8,205.1,430.8,208.7,430.8z"
			/>
		<path class="st1" d="M208.7,442.3c3.6,0,6.5-2.9,6.5-6.5c0-3.6-2.9-6.5-6.5-6.5s-6.5,2.9-6.5,6.5
			C202.3,439.4,205.2,442.3,208.7,442.3z"/>
		<path class="st1" d="M208.7,453.8c3.5,0,6.3-2.8,6.3-6.3c0-3.5-2.8-6.3-6.3-6.3c-3.5,0-6.3,2.8-6.3,6.3
			C202.4,451,205.3,453.8,208.7,453.8z"/>
		<path class="st1" d="M208.7,465.3c3.4,0,6.1-2.7,6.1-6.1c0-3.4-2.7-6.1-6.1-6.1c-3.4,0-6.1,2.7-6.1,6.1
			C202.6,462.6,205.4,465.3,208.7,465.3z"/>
		<path class="st1" d="M208.7,476.8c3.3,0,5.9-2.6,5.9-5.9c0-3.3-2.6-5.9-5.9-5.9s-5.9,2.6-5.9,5.9
			C202.8,474.1,205.5,476.8,208.7,476.8z"/>
		<path class="st1" d="M208.7,488.3c3.1,0,5.7-2.5,5.7-5.7c0-3.1-2.6-5.7-5.7-5.7c-3.1,0-5.7,2.5-5.7,5.7
			C203,485.7,205.6,488.3,208.7,488.3z"/>
		<path class="st1" d="M208.7,499.7c3,0,5.5-2.5,5.5-5.5s-2.5-5.5-5.5-5.5s-5.5,2.5-5.5,5.5S205.7,499.7,208.7,499.7z"/>
		<path class="st1" d="M208.7,511.2c2.9,0,5.3-2.4,5.3-5.3c0-2.9-2.4-5.3-5.3-5.3c-2.9,0-5.3,2.4-5.3,5.3
			C203.4,508.9,205.8,511.2,208.7,511.2z"/>
		<path class="st1" d="M208.7,522.7c2.8,0,5.1-2.3,5.1-5.1s-2.3-5.1-5.1-5.1c-2.8,0-5.1,2.3-5.1,5.1S205.9,522.7,208.7,522.7z"/>
		<path class="st1" d="M208.7,534.2c2.7,0,4.9-2.2,4.9-4.9c0-2.7-2.2-4.9-4.9-4.9s-4.9,2.2-4.9,4.9C203.8,532,206,534.2,208.7,534.2
			z"/>
		<path class="st1" d="M208.7,545.7c2.6,0,4.7-2.1,4.7-4.7c0-2.6-2.1-4.7-4.7-4.7c-2.6,0-4.7,2.1-4.7,4.7
			C204,543.6,206.1,545.7,208.7,545.7z"/>
		<path class="st1" d="M208.7,557.2c2.5,0,4.5-2,4.5-4.5c0-2.5-2-4.5-4.5-4.5c-2.5,0-4.5,2-4.5,4.5
			C204.2,555.1,206.2,557.2,208.7,557.2z"/>
		<path class="st1" d="M232.1,316c4.8,0,8.6-3.9,8.6-8.6c0-4.8-3.9-8.6-8.6-8.6c-4.8,0-8.6,3.9-8.6,8.6
			C223.5,312.1,227.4,316,232.1,316z"/>
		<path class="st1" d="M232.1,327.4c4.7,0,8.4-3.8,8.4-8.4c0-4.7-3.8-8.4-8.4-8.4s-8.4,3.8-8.4,8.4
			C223.7,323.7,227.5,327.4,232.1,327.4z"/>
		<path class="st1" d="M232.1,338.9c4.5,0,8.2-3.7,8.2-8.2s-3.7-8.2-8.2-8.2c-4.5,0-8.2,3.7-8.2,8.2S227.6,338.9,232.1,338.9z"/>
		<path class="st1" d="M232.1,350.4c4.4,0,8-3.6,8-8c0-4.4-3.6-8-8-8s-8,3.6-8,8C224.1,346.8,227.7,350.4,232.1,350.4z"/>
		<path class="st1" d="M232.1,361.9c4.3,0,7.8-3.5,7.8-7.8c0-4.3-3.5-7.8-7.8-7.8s-7.8,3.5-7.8,7.8
			C224.3,358.4,227.8,361.9,232.1,361.9z"/>
		<path class="st1" d="M232.1,373.4c4.2,0,7.6-3.4,7.6-7.6s-3.4-7.6-7.6-7.6c-4.2,0-7.6,3.4-7.6,7.6S227.9,373.4,232.1,373.4z"/>
		<path class="st1" d="M232.1,384.9c4.1,0,7.5-3.3,7.5-7.4c0-4.1-3.3-7.4-7.5-7.4c-4.1,0-7.5,3.3-7.5,7.4
			C224.7,381.5,228,384.9,232.1,384.9z"/>
		<path class="st1" d="M232.1,396.4c4,0,7.3-3.2,7.3-7.3s-3.2-7.3-7.3-7.3c-4,0-7.3,3.2-7.3,7.3S228.1,396.4,232.1,396.4z"/>
		<path class="st1" d="M232.1,407.8c3.9,0,7.1-3.2,7.1-7.1s-3.2-7.1-7.1-7.1c-3.9,0-7.1,3.2-7.1,7.1S228.2,407.8,232.1,407.8z"/>
		<path class="st1" d="M232.1,419.3c3.8,0,6.9-3.1,6.9-6.9c0-3.8-3.1-6.9-6.9-6.9c-3.8,0-6.9,3.1-6.9,6.9
			C225.2,416.3,228.3,419.3,232.1,419.3z"/>
		<path class="st1" d="M232.1,430.8c3.7,0,6.7-3,6.7-6.7c0-3.7-3-6.7-6.7-6.7c-3.7,0-6.7,3-6.7,6.7
			C225.4,427.8,228.4,430.8,232.1,430.8z"/>
		<path class="st1" d="M232.1,442.3c3.6,0,6.5-2.9,6.5-6.5c0-3.6-2.9-6.5-6.5-6.5c-3.6,0-6.5,2.9-6.5,6.5
			C225.6,439.4,228.5,442.3,232.1,442.3z"/>
		<path class="st1" d="M232.1,453.8c3.5,0,6.3-2.8,6.3-6.3c0-3.5-2.8-6.3-6.3-6.3c-3.5,0-6.3,2.8-6.3,6.3
			C225.8,451,228.6,453.8,232.1,453.8z"/>
		<path class="st1" d="M232.1,465.3c3.4,0,6.1-2.7,6.1-6.1c0-3.4-2.7-6.1-6.1-6.1c-3.4,0-6.1,2.7-6.1,6.1
			C226,462.6,228.7,465.3,232.1,465.3z"/>
		<path class="st1" d="M232.1,476.8c3.3,0,5.9-2.6,5.9-5.9c0-3.3-2.6-5.9-5.9-5.9s-5.9,2.6-5.9,5.9
			C226.2,474.1,228.9,476.8,232.1,476.8z"/>
		<path class="st1" d="M232.1,488.3c3.1,0,5.7-2.5,5.7-5.7c0-3.1-2.6-5.7-5.7-5.7c-3.1,0-5.7,2.5-5.7,5.7
			C226.4,485.7,229,488.3,232.1,488.3z"/>
		<path class="st1" d="M232.1,499.7c3,0,5.5-2.5,5.5-5.5s-2.5-5.5-5.5-5.5s-5.5,2.5-5.5,5.5S229.1,499.7,232.1,499.7z"/>
		<path class="st1" d="M232.1,511.2c2.9,0,5.3-2.4,5.3-5.3c0-2.9-2.4-5.3-5.3-5.3c-2.9,0-5.3,2.4-5.3,5.3
			C226.8,508.9,229.2,511.2,232.1,511.2z"/>
		<path class="st1" d="M232.1,522.7c2.8,0,5.1-2.3,5.1-5.1s-2.3-5.1-5.1-5.1c-2.8,0-5.1,2.3-5.1,5.1S229.3,522.7,232.1,522.7z"/>
		<path class="st1" d="M232.1,534.2c2.7,0,4.9-2.2,4.9-4.9c0-2.7-2.2-4.9-4.9-4.9c-2.7,0-4.9,2.2-4.9,4.9
			C227.2,532,229.4,534.2,232.1,534.2z"/>
		<path class="st1" d="M255.5,338.9c4.5,0,8.2-3.7,8.2-8.2s-3.7-8.2-8.2-8.2c-4.5,0-8.2,3.7-8.2,8.2S251,338.9,255.5,338.9z"/>
		<path class="st1" d="M255.5,350.4c4.4,0,8-3.6,8-8c0-4.4-3.6-8-8-8c-4.4,0-8,3.6-8,8C247.5,346.8,251.1,350.4,255.5,350.4z"/>
		<path class="st1" d="M255.5,361.9c4.3,0,7.8-3.5,7.8-7.8c0-4.3-3.5-7.8-7.8-7.8c-4.3,0-7.8,3.5-7.8,7.8
			C247.7,358.4,251.2,361.9,255.5,361.9z"/>
		<path class="st1" d="M255.5,373.4c4.2,0,7.6-3.4,7.6-7.6s-3.4-7.6-7.6-7.6c-4.2,0-7.6,3.4-7.6,7.6S251.3,373.4,255.5,373.4z"/>
		<path class="st1" d="M255.5,384.9c4.1,0,7.5-3.3,7.5-7.4c0-4.1-3.3-7.4-7.5-7.4c-4.1,0-7.5,3.3-7.5,7.4
			C248,381.5,251.4,384.9,255.5,384.9z"/>
		<path class="st1" d="M255.5,396.4c4,0,7.3-3.2,7.3-7.3s-3.2-7.3-7.3-7.3c-4,0-7.3,3.2-7.3,7.3S251.5,396.4,255.5,396.4z"/>
		<path class="st1" d="M255.5,407.8c3.9,0,7.1-3.2,7.1-7.1s-3.2-7.1-7.1-7.1c-3.9,0-7.1,3.2-7.1,7.1S251.6,407.8,255.5,407.8z"/>
		<path class="st1" d="M255.5,419.3c3.8,0,6.9-3.1,6.9-6.9c0-3.8-3.1-6.9-6.9-6.9s-6.9,3.1-6.9,6.9
			C248.6,416.3,251.7,419.3,255.5,419.3z"/>
		<path class="st1" d="M255.5,430.8c3.7,0,6.7-3,6.7-6.7c0-3.7-3-6.7-6.7-6.7s-6.7,3-6.7,6.7C248.8,427.8,251.8,430.8,255.5,430.8z"
			/>
		<path class="st1" d="M255.5,442.3c3.6,0,6.5-2.9,6.5-6.5c0-3.6-2.9-6.5-6.5-6.5s-6.5,2.9-6.5,6.5
			C249,439.4,251.9,442.3,255.5,442.3z"/>
		<path class="st1" d="M255.5,453.8c3.5,0,6.3-2.8,6.3-6.3c0-3.5-2.8-6.3-6.3-6.3c-3.5,0-6.3,2.8-6.3,6.3
			C249.2,451,252,453.8,255.5,453.8z"/>
		<path class="st1" d="M255.5,465.3c3.4,0,6.1-2.7,6.1-6.1c0-3.4-2.7-6.1-6.1-6.1c-3.4,0-6.1,2.7-6.1,6.1
			C249.4,462.6,252.1,465.3,255.5,465.3z"/>
		<path class="st1" d="M255.5,476.8c3.3,0,5.9-2.6,5.9-5.9c0-3.3-2.6-5.9-5.9-5.9c-3.3,0-5.9,2.6-5.9,5.9
			C249.6,474.1,252.2,476.8,255.5,476.8z"/>
		<path class="st1" d="M255.5,488.3c3.1,0,5.7-2.5,5.7-5.7c0-3.1-2.6-5.7-5.7-5.7c-3.1,0-5.7,2.5-5.7,5.7
			C249.8,485.7,252.3,488.3,255.5,488.3z"/>
		<path class="st1" d="M255.5,499.7c3,0,5.5-2.5,5.5-5.5s-2.5-5.5-5.5-5.5c-3,0-5.5,2.5-5.5,5.5S252.4,499.7,255.5,499.7z"/>
		<path class="st1" d="M255.5,511.2c2.9,0,5.3-2.4,5.3-5.3c0-2.9-2.4-5.3-5.3-5.3c-2.9,0-5.3,2.4-5.3,5.3
			C250.2,508.9,252.5,511.2,255.5,511.2z"/>
		<path class="st1" d="M255.5,522.7c2.8,0,5.1-2.3,5.1-5.1s-2.3-5.1-5.1-5.1s-5.1,2.3-5.1,5.1S252.6,522.7,255.5,522.7z"/>
		<path class="st1" d="M278.9,350.4c4.4,0,8-3.6,8-8c0-4.4-3.6-8-8-8c-4.4,0-8,3.6-8,8C270.8,346.8,274.4,350.4,278.9,350.4z"/>
		<path class="st1" d="M278.9,361.9c4.3,0,7.8-3.5,7.8-7.8c0-4.3-3.5-7.8-7.8-7.8c-4.3,0-7.8,3.5-7.8,7.8
			C271,358.4,274.6,361.9,278.9,361.9z"/>
		<path class="st1" d="M278.9,373.4c4.2,0,7.6-3.4,7.6-7.6s-3.4-7.6-7.6-7.6s-7.6,3.4-7.6,7.6S274.7,373.4,278.9,373.4z"/>
		<path class="st1" d="M278.9,384.9c4.1,0,7.5-3.3,7.5-7.4c0-4.1-3.3-7.4-7.5-7.4s-7.5,3.3-7.5,7.4
			C271.4,381.5,274.8,384.9,278.9,384.9z"/>
		<path class="st1" d="M278.9,396.4c4,0,7.3-3.2,7.3-7.3s-3.2-7.3-7.3-7.3c-4,0-7.3,3.2-7.3,7.3S274.9,396.4,278.9,396.4z"/>
		<path class="st1" d="M278.9,407.8c3.9,0,7.1-3.2,7.1-7.1s-3.2-7.1-7.1-7.1s-7.1,3.2-7.1,7.1S275,407.8,278.9,407.8z"/>
		<path class="st1" d="M278.9,419.3c3.8,0,6.9-3.1,6.9-6.9c0-3.8-3.1-6.9-6.9-6.9s-6.9,3.1-6.9,6.9
			C272,416.3,275.1,419.3,278.9,419.3z"/>
		<path class="st1" d="M278.9,430.8c3.7,0,6.7-3,6.7-6.7c0-3.7-3-6.7-6.7-6.7s-6.7,3-6.7,6.7C272.2,427.8,275.2,430.8,278.9,430.8z"
			/>
		<path class="st1" d="M278.9,442.3c3.6,0,6.5-2.9,6.5-6.5c0-3.6-2.9-6.5-6.5-6.5s-6.5,2.9-6.5,6.5
			C272.4,439.4,275.3,442.3,278.9,442.3z"/>
		<path class="st1" d="M278.9,453.8c3.5,0,6.3-2.8,6.3-6.3c0-3.5-2.8-6.3-6.3-6.3c-3.5,0-6.3,2.8-6.3,6.3
			C272.6,451,275.4,453.8,278.9,453.8z"/>
		<path class="st1" d="M278.9,465.3c3.4,0,6.1-2.7,6.1-6.1c0-3.4-2.7-6.1-6.1-6.1c-3.4,0-6.1,2.7-6.1,6.1
			C272.8,462.6,275.5,465.3,278.9,465.3z"/>
		<path class="st1" d="M278.9,476.8c3.3,0,5.9-2.6,5.9-5.9c0-3.3-2.6-5.9-5.9-5.9c-3.3,0-5.9,2.6-5.9,5.9
			C273,474.1,275.6,476.8,278.9,476.8z"/>
		<path class="st1" d="M278.9,488.3c3.1,0,5.7-2.5,5.7-5.7c0-3.1-2.6-5.7-5.7-5.7c-3.1,0-5.7,2.5-5.7,5.7
			C273.2,485.7,275.7,488.3,278.9,488.3z"/>
		<path class="st1" d="M278.9,499.7c3,0,5.5-2.5,5.5-5.5s-2.5-5.5-5.5-5.5c-3,0-5.5,2.5-5.5,5.5S275.8,499.7,278.9,499.7z"/>
		<path class="st1" d="M278.9,511.2c2.9,0,5.3-2.4,5.3-5.3c0-2.9-2.4-5.3-5.3-5.3c-2.9,0-5.3,2.4-5.3,5.3
			C273.5,508.9,275.9,511.2,278.9,511.2z"/>
		<path class="st1" d="M21.8,522.7c2.8,0,5.1-2.3,5.1-5.1s-2.3-5.1-5.1-5.1s-5.1,2.3-5.1,5.1S19,522.7,21.8,522.7z"/>
		<path class="st1" d="M21.8,534.2c2.7,0,4.9-2.2,4.9-4.9c0-2.7-2.2-4.9-4.9-4.9c-2.7,0-4.9,2.2-4.9,4.9
			C16.9,532,19.1,534.2,21.8,534.2z"/>
		<path class="st1" d="M21.8,545.7c2.6,0,4.7-2.1,4.7-4.7c0-2.6-2.1-4.7-4.7-4.7c-2.6,0-4.7,2.1-4.7,4.7
			C17.1,543.6,19.2,545.7,21.8,545.7z"/>
		<path class="st1" d="M21.8,557.2c2.5,0,4.5-2,4.5-4.5c0-2.5-2-4.5-4.5-4.5c-2.5,0-4.5,2-4.5,4.5C17.3,555.1,19.3,557.2,21.8,557.2
			z"/>
		<path class="st1" d="M45.2,522.7c2.8,0,5.1-2.3,5.1-5.1s-2.3-5.1-5.1-5.1s-5.1,2.3-5.1,5.1S42.4,522.7,45.2,522.7z"/>
		<path class="st1" d="M45.2,534.2c2.7,0,4.9-2.2,4.9-4.9c0-2.7-2.2-4.9-4.9-4.9s-4.9,2.2-4.9,4.9C40.3,532,42.5,534.2,45.2,534.2z"
			/>
		<path class="st1" d="M45.2,545.7c2.6,0,4.7-2.1,4.7-4.7c0-2.6-2.1-4.7-4.7-4.7s-4.7,2.1-4.7,4.7C40.5,543.6,42.6,545.7,45.2,545.7
			z"/>
		<path class="st1" d="M45.2,557.2c2.5,0,4.5-2,4.5-4.5c0-2.5-2-4.5-4.5-4.5c-2.5,0-4.5,2-4.5,4.5C40.7,555.1,42.7,557.2,45.2,557.2
			z"/>
		<path class="st1" d="M45.2,568.7c2.4,0,4.3-1.9,4.3-4.3s-1.9-4.3-4.3-4.3s-4.3,1.9-4.3,4.3S42.8,568.7,45.2,568.7z"/>
		<path class="st1" d="M68.5,534.2c2.7,0,4.9-2.2,4.9-4.9c0-2.7-2.2-4.9-4.9-4.9c-2.7,0-4.9,2.2-4.9,4.9
			C63.6,532,65.8,534.2,68.5,534.2z"/>
		<path class="st1" d="M68.5,545.7c2.6,0,4.7-2.1,4.7-4.7c0-2.6-2.1-4.7-4.7-4.7c-2.6,0-4.7,2.1-4.7,4.7
			C63.8,543.6,65.9,545.7,68.5,545.7z"/>
		<path class="st1" d="M68.5,557.2c2.5,0,4.5-2,4.5-4.5c0-2.5-2-4.5-4.5-4.5c-2.5,0-4.5,2-4.5,4.5C64,555.1,66,557.2,68.5,557.2z"/>
		<path class="st1" d="M68.5,568.7c2.4,0,4.3-1.9,4.3-4.3s-1.9-4.3-4.3-4.3c-2.4,0-4.3,1.9-4.3,4.3S66.1,568.7,68.5,568.7z"/>
		<path class="st1" d="M91.9,545.7c2.6,0,4.7-2.1,4.7-4.7c0-2.6-2.1-4.7-4.7-4.7c-2.6,0-4.7,2.1-4.7,4.7
			C87.2,543.6,89.3,545.7,91.9,545.7z"/>
		<path class="st1" d="M91.9,557.2c2.5,0,4.5-2,4.5-4.5c0-2.5-2-4.5-4.5-4.5c-2.5,0-4.5,2-4.5,4.5C87.4,555.1,89.4,557.2,91.9,557.2
			z"/>
		<path class="st1" d="M91.9,568.7c2.4,0,4.3-1.9,4.3-4.3s-1.9-4.3-4.3-4.3c-2.4,0-4.3,1.9-4.3,4.3S89.5,568.7,91.9,568.7z"/>
		<path class="st1" d="M115.3,568.7c2.4,0,4.3-1.9,4.3-4.3s-1.9-4.3-4.3-4.3c-2.4,0-4.3,1.9-4.3,4.3S112.9,568.7,115.3,568.7z"/>
		<path class="st1" d="M278.9,534.2c2.7,0,4.9-2.2,4.9-4.9c0-2.7-2.2-4.9-4.9-4.9c-2.7,0-4.9,2.2-4.9,4.9
			C274,532,276.2,534.2,278.9,534.2z"/>
		<path class="st1" d="M255.5,534.2c2.7,0,4.9-2.2,4.9-4.9c0-2.7-2.2-4.9-4.9-4.9s-4.9,2.2-4.9,4.9
			C250.6,532,252.8,534.2,255.5,534.2z"/>
		<path class="st1" d="M278.9,545.7c2.6,0,4.7-2.1,4.7-4.7c0-2.6-2.1-4.7-4.7-4.7c-2.6,0-4.7,2.1-4.7,4.7
			C274.2,543.6,276.3,545.7,278.9,545.7z"/>
		<path class="st1" d="M278.9,557.2c2.5,0,4.5-2,4.5-4.5c0-2.5-2-4.5-4.5-4.5c-2.5,0-4.5,2-4.5,4.5
			C274.4,555.1,276.4,557.2,278.9,557.2z"/>
		<path class="st1" d="M278.9,568.7c2.4,0,4.3-1.9,4.3-4.3s-1.9-4.3-4.3-4.3c-2.4,0-4.3,1.9-4.3,4.3S276.5,568.7,278.9,568.7z"/>
		<path class="st1" d="M278.9,522.7c2.8,0,5.1-2.3,5.1-5.1s-2.3-5.1-5.1-5.1c-2.8,0-5.1,2.3-5.1,5.1S276,522.7,278.9,522.7z"/>
		<path class="st1" d="M302.4,350.4c4.4,0,8-3.6,8-8c0-4.4-3.6-8-8-8c-4.4,0-8,3.6-8,8C294.4,346.8,298,350.4,302.4,350.4z"/>
		<path class="st1" d="M302.4,361.9c4.3,0,7.8-3.5,7.8-7.8c0-4.3-3.5-7.8-7.8-7.8c-4.3,0-7.8,3.5-7.8,7.8
			C294.5,358.4,298.1,361.9,302.4,361.9z"/>
		<path class="st1" d="M302.4,373.4c4.2,0,7.6-3.4,7.6-7.6s-3.4-7.6-7.6-7.6c-4.2,0-7.6,3.4-7.6,7.6S298.2,373.4,302.4,373.4z"/>
		<path class="st1" d="M302.4,384.9c4.1,0,7.5-3.3,7.5-7.4c0-4.1-3.3-7.4-7.5-7.4c-4.1,0-7.5,3.3-7.5,7.4
			C294.9,381.5,298.3,384.9,302.4,384.9z"/>
		<path class="st1" d="M302.4,396.4c4,0,7.3-3.2,7.3-7.3s-3.2-7.3-7.3-7.3c-4,0-7.3,3.2-7.3,7.3S298.4,396.4,302.4,396.4z"/>
		<path class="st1" d="M302.4,407.8c3.9,0,7.1-3.2,7.1-7.1s-3.2-7.1-7.1-7.1s-7.1,3.2-7.1,7.1S298.5,407.8,302.4,407.8z"/>
		<path class="st1" d="M302.4,419.3c3.8,0,6.9-3.1,6.9-6.9c0-3.8-3.1-6.9-6.9-6.9s-6.9,3.1-6.9,6.9
			C295.5,416.3,298.6,419.3,302.4,419.3z"/>
		<path class="st1" d="M302.4,430.8c3.7,0,6.7-3,6.7-6.7c0-3.7-3-6.7-6.7-6.7s-6.7,3-6.7,6.7C295.7,427.8,298.7,430.8,302.4,430.8z"
			/>
		<path class="st1" d="M302.4,442.3c3.6,0,6.5-2.9,6.5-6.5c0-3.6-2.9-6.5-6.5-6.5c-3.6,0-6.5,2.9-6.5,6.5
			C295.9,439.4,298.8,442.3,302.4,442.3z"/>
		<path class="st1" d="M302.4,453.8c3.5,0,6.3-2.8,6.3-6.3c0-3.5-2.8-6.3-6.3-6.3s-6.3,2.8-6.3,6.3
			C296.1,451,298.9,453.8,302.4,453.8z"/>
		<path class="st1" d="M302.4,465.3c3.4,0,6.1-2.7,6.1-6.1c0-3.4-2.7-6.1-6.1-6.1s-6.1,2.7-6.1,6.1
			C296.3,462.6,299,465.3,302.4,465.3z"/>
		<path class="st1" d="M302.4,476.8c3.3,0,5.9-2.6,5.9-5.9c0-3.3-2.6-5.9-5.9-5.9s-5.9,2.6-5.9,5.9
			C296.5,474.1,299.1,476.8,302.4,476.8z"/>
		<path class="st1" d="M302.4,488.3c3.1,0,5.7-2.5,5.7-5.7c0-3.1-2.6-5.7-5.7-5.7c-3.1,0-5.7,2.5-5.7,5.7
			C296.7,485.7,299.2,488.3,302.4,488.3z"/>
		<path class="st1" d="M302.4,499.7c3,0,5.5-2.5,5.5-5.5s-2.5-5.5-5.5-5.5c-3,0-5.5,2.5-5.5,5.5S299.3,499.7,302.4,499.7z"/>
		<path class="st1" d="M302.4,511.2c2.9,0,5.3-2.4,5.3-5.3c0-2.9-2.4-5.3-5.3-5.3c-2.9,0-5.3,2.4-5.3,5.3
			C297,508.9,299.4,511.2,302.4,511.2z"/>
		<path class="st1" d="M302.4,534.2c2.7,0,4.9-2.2,4.9-4.9c0-2.7-2.2-4.9-4.9-4.9c-2.7,0-4.9,2.2-4.9,4.9
			C297.5,532,299.7,534.2,302.4,534.2z"/>
		<path class="st1" d="M302.4,545.7c2.6,0,4.7-2.1,4.7-4.7c0-2.6-2.1-4.7-4.7-4.7c-2.6,0-4.7,2.1-4.7,4.7
			C297.7,543.6,299.8,545.7,302.4,545.7z"/>
		<path class="st1" d="M302.4,557.2c2.5,0,4.5-2,4.5-4.5c0-2.5-2-4.5-4.5-4.5c-2.5,0-4.5,2-4.5,4.5
			C297.9,555.1,299.9,557.2,302.4,557.2z"/>
		<path class="st1" d="M302.4,568.7c2.4,0,4.3-1.9,4.3-4.3s-1.9-4.3-4.3-4.3c-2.4,0-4.3,1.9-4.3,4.3S300,568.7,302.4,568.7z"/>
		<path class="st1" d="M302.4,522.7c2.8,0,5.1-2.3,5.1-5.1s-2.3-5.1-5.1-5.1c-2.8,0-5.1,2.3-5.1,5.1S299.5,522.7,302.4,522.7z"/>
		<path class="st1" d="M255.5,545.7c2.6,0,4.7-2.1,4.7-4.7c0-2.6-2.1-4.7-4.7-4.7c-2.6,0-4.7,2.1-4.7,4.7
			C250.8,543.6,252.9,545.7,255.5,545.7z"/>
		<path class="st1" d="M232.1,545.7c2.6,0,4.7-2.1,4.7-4.7c0-2.6-2.1-4.7-4.7-4.7c-2.6,0-4.7,2.1-4.7,4.7
			C227.4,543.6,229.5,545.7,232.1,545.7z"/>
		<path class="st1" d="M255.5,557.2c2.5,0,4.5-2,4.5-4.5c0-2.5-2-4.5-4.5-4.5c-2.5,0-4.5,2-4.5,4.5C251,555.1,253,557.2,255.5,557.2
			z"/>
		<path class="st1" d="M255.5,568.7c2.4,0,4.3-1.9,4.3-4.3s-1.9-4.3-4.3-4.3c-2.4,0-4.3,1.9-4.3,4.3S253.1,568.7,255.5,568.7z"/>
		<path class="st1" d="M232.2,557.2c2.5,0,4.5-2,4.5-4.5c0-2.5-2-4.5-4.5-4.5s-4.5,2-4.5,4.5C227.7,555.1,229.7,557.2,232.2,557.2z"
			/>
		<path class="st1" d="M232.2,568.7c2.4,0,4.3-1.9,4.3-4.3s-1.9-4.3-4.3-4.3c-2.4,0-4.3,1.9-4.3,4.3S229.8,568.7,232.2,568.7z"/>
		<path class="st1" d="M208.7,568.7c2.4,0,4.3-1.9,4.3-4.3s-1.9-4.3-4.3-4.3c-2.4,0-4.3,1.9-4.3,4.3S206.3,568.7,208.7,568.7z"/>
		<path class="st1" d="M21.8,569.1c2.5,0,4.5-2,4.5-4.5c0-2.5-2-4.5-4.5-4.5c-2.5,0-4.5,2-4.5,4.5C17.3,567,19.3,569.1,21.8,569.1z"
			/>
		<path class="st1" d="M21.8,580.5c2.4,0,4.3-1.9,4.3-4.3s-1.9-4.3-4.3-4.3c-2.4,0-4.3,1.9-4.3,4.3S19.4,580.5,21.8,580.5z"/>
		<path class="st1" d="M21.8,592c2.3,0,4.1-1.9,4.1-4.1c0-2.3-1.9-4.1-4.1-4.1c-2.3,0-4.1,1.9-4.1,4.1C17.7,590.2,19.5,592,21.8,592
			z"/>
		<path class="st1" d="M21.8,603.5c2.2,0,3.9-1.8,3.9-3.9c0-2.2-1.8-3.9-3.9-3.9c-2.2,0-3.9,1.8-3.9,3.9
			C17.9,601.7,19.6,603.5,21.8,603.5z"/>
		<path class="st1" d="M21.8,615c2.1,0,3.8-1.7,3.8-3.7c0-2.1-1.7-3.8-3.8-3.8c-2.1,0-3.8,1.7-3.8,3.8C18.1,613.3,19.7,615,21.8,615
			z"/>
		<path class="st1" d="M21.8,626.5c2,0,3.6-1.6,3.6-3.6c0-2-1.6-3.6-3.6-3.6c-2,0-3.6,1.6-3.6,3.6C18.3,624.9,19.8,626.5,21.8,626.5
			z"/>
		<path class="st1" d="M21.8,638c1.9,0,3.4-1.5,3.4-3.4c0-1.9-1.5-3.4-3.4-3.4c-1.9,0-3.4,1.5-3.4,3.4C18.4,636.5,20,638,21.8,638z"
			/>
		<path class="st1" d="M21.8,649.5c1.7,0,3.2-1.4,3.2-3.2c0-1.7-1.4-3.2-3.2-3.2c-1.7,0-3.2,1.4-3.2,3.2
			C18.6,648,20.1,649.5,21.8,649.5z"/>
		<path class="st1" d="M21.8,661c1.6,0,3-1.3,3-3s-1.3-3-3-3c-1.6,0-3,1.3-3,3S20.2,661,21.8,661z"/>
		<path class="st1" d="M21.8,672.4c1.5,0,2.8-1.2,2.8-2.8c0-1.5-1.2-2.8-2.8-2.8s-2.8,1.2-2.8,2.8C19,671.2,20.3,672.4,21.8,672.4z"
			/>
		<path class="st1" d="M45.3,580.5c2.4,0,4.3-1.9,4.3-4.3s-1.9-4.3-4.3-4.3s-4.3,1.9-4.3,4.3S42.9,580.5,45.3,580.5z"/>
		<path class="st1" d="M45.3,592c2.3,0,4.1-1.9,4.1-4.1c0-2.3-1.9-4.1-4.1-4.1c-2.3,0-4.1,1.9-4.1,4.1C41.1,590.2,43,592,45.3,592z"
			/>
		<path class="st1" d="M45.3,603.5c2.2,0,3.9-1.8,3.9-3.9c0-2.2-1.8-3.9-3.9-3.9c-2.2,0-3.9,1.8-3.9,3.9
			C41.3,601.7,43.1,603.5,45.3,603.5z"/>
		<path class="st1" d="M45.3,615c2.1,0,3.8-1.7,3.8-3.7c0-2.1-1.7-3.8-3.8-3.8c-2.1,0-3.8,1.7-3.8,3.8C41.5,613.3,43.2,615,45.3,615
			z"/>
		<path class="st1" d="M45.3,626.5c2,0,3.6-1.6,3.6-3.6c0-2-1.6-3.6-3.6-3.6c-2,0-3.6,1.6-3.6,3.6C41.7,624.9,43.3,626.5,45.3,626.5
			z"/>
		<path class="st1" d="M45.3,638c1.9,0,3.4-1.5,3.4-3.4c0-1.9-1.5-3.4-3.4-3.4c-1.9,0-3.4,1.5-3.4,3.4C41.9,636.5,43.4,638,45.3,638
			z"/>
		<path class="st1" d="M45.3,649.5c1.7,0,3.2-1.4,3.2-3.2c0-1.7-1.4-3.2-3.2-3.2c-1.7,0-3.2,1.4-3.2,3.2
			C42.1,648,43.5,649.5,45.3,649.5z"/>
		<path class="st1" d="M45.3,661c1.6,0,3-1.3,3-3s-1.3-3-3-3c-1.6,0-3,1.3-3,3S43.6,661,45.3,661z"/>
		<path class="st1" d="M45.3,672.4c1.5,0,2.8-1.2,2.8-2.8c0-1.5-1.2-2.8-2.8-2.8s-2.8,1.2-2.8,2.8C42.5,671.2,43.7,672.4,45.3,672.4
			z"/>
		<path class="st1" d="M68.8,580.5c2.4,0,4.3-1.9,4.3-4.3s-1.9-4.3-4.3-4.3s-4.3,1.9-4.3,4.3S66.4,580.5,68.8,580.5z"/>
		<path class="st1" d="M68.7,592c2.3,0,4.1-1.9,4.1-4.1c0-2.3-1.9-4.1-4.1-4.1c-2.3,0-4.1,1.9-4.1,4.1C64.6,590.2,66.5,592,68.7,592
			z"/>
		<path class="st1" d="M68.7,603.5c2.2,0,3.9-1.8,3.9-3.9c0-2.2-1.8-3.9-3.9-3.9s-3.9,1.8-3.9,3.9C64.8,601.7,66.6,603.5,68.7,603.5
			z"/>
		<path class="st1" d="M68.7,615c2.1,0,3.8-1.7,3.8-3.7c0-2.1-1.7-3.8-3.8-3.8c-2.1,0-3.8,1.7-3.8,3.8C65,613.3,66.7,615,68.7,615z"
			/>
		<path class="st1" d="M68.7,626.5c2,0,3.6-1.6,3.6-3.6c0-2-1.6-3.6-3.6-3.6c-2,0-3.6,1.6-3.6,3.6C65.2,624.9,66.8,626.5,68.7,626.5
			z"/>
		<path class="st1" d="M68.7,638c1.9,0,3.4-1.5,3.4-3.4c0-1.9-1.5-3.4-3.4-3.4c-1.9,0-3.4,1.5-3.4,3.4C65.4,636.5,66.9,638,68.7,638
			z"/>
		<path class="st1" d="M68.7,649.5c1.7,0,3.2-1.4,3.2-3.2c0-1.7-1.4-3.2-3.2-3.2c-1.7,0-3.2,1.4-3.2,3.2
			C65.6,648,67,649.5,68.7,649.5z"/>
		<path class="st1" d="M68.7,661c1.6,0,3-1.3,3-3s-1.3-3-3-3c-1.6,0-3,1.3-3,3S67.1,661,68.7,661z"/>
		<path class="st1" d="M68.7,672.4c1.5,0,2.8-1.2,2.8-2.8c0-1.5-1.2-2.8-2.8-2.8c-1.5,0-2.8,1.2-2.8,2.8
			C66,671.2,67.2,672.4,68.7,672.4z"/>
		<path class="st1" d="M92.2,580.5c2.4,0,4.3-1.9,4.3-4.3s-1.9-4.3-4.3-4.3s-4.3,1.9-4.3,4.3S89.8,580.5,92.2,580.5z"/>
		<path class="st1" d="M92.2,592c2.3,0,4.1-1.9,4.1-4.1c0-2.3-1.9-4.1-4.1-4.1c-2.3,0-4.1,1.9-4.1,4.1C88.1,590.2,89.9,592,92.2,592
			z"/>
		<path class="st1" d="M92.2,603.5c2.2,0,3.9-1.8,3.9-3.9c0-2.2-1.8-3.9-3.9-3.9c-2.2,0-3.9,1.8-3.9,3.9
			C88.3,601.7,90,603.5,92.2,603.5z"/>
		<path class="st1" d="M92.2,615c2.1,0,3.8-1.7,3.8-3.7c0-2.1-1.7-3.8-3.8-3.8c-2.1,0-3.8,1.7-3.8,3.8C88.5,613.3,90.1,615,92.2,615
			z"/>
		<path class="st1" d="M92.2,626.5c2,0,3.6-1.6,3.6-3.6c0-2-1.6-3.6-3.6-3.6s-3.6,1.6-3.6,3.6C88.6,624.9,90.2,626.5,92.2,626.5z"/>
		<path class="st1" d="M92.2,638c1.9,0,3.4-1.5,3.4-3.4c0-1.9-1.5-3.4-3.4-3.4c-1.9,0-3.4,1.5-3.4,3.4C88.8,636.5,90.3,638,92.2,638
			z"/>
		<path class="st1" d="M92.2,649.5c1.7,0,3.2-1.4,3.2-3.2c0-1.7-1.4-3.2-3.2-3.2s-3.2,1.4-3.2,3.2C89,648,90.5,649.5,92.2,649.5z"/>
		<path class="st1" d="M92.2,661c1.6,0,3-1.3,3-3s-1.3-3-3-3c-1.6,0-3,1.3-3,3S90.6,661,92.2,661z"/>
		<path class="st1" d="M92.2,672.4c1.5,0,2.8-1.2,2.8-2.8c0-1.5-1.2-2.8-2.8-2.8c-1.5,0-2.8,1.2-2.8,2.8
			C89.4,671.2,90.7,672.4,92.2,672.4z"/>
		<path class="st1" d="M115.7,580.5c2.4,0,4.3-1.9,4.3-4.3s-1.9-4.3-4.3-4.3c-2.4,0-4.3,1.9-4.3,4.3S113.3,580.5,115.7,580.5z"/>
		<path class="st1" d="M115.7,592c2.3,0,4.1-1.9,4.1-4.1c0-2.3-1.9-4.1-4.1-4.1c-2.3,0-4.1,1.9-4.1,4.1
			C111.5,590.2,113.4,592,115.7,592z"/>
		<path class="st1" d="M115.7,603.5c2.2,0,3.9-1.8,3.9-3.9c0-2.2-1.8-3.9-3.9-3.9s-3.9,1.8-3.9,3.9
			C111.7,601.7,113.5,603.5,115.7,603.5z"/>
		<path class="st1" d="M115.7,615c2.1,0,3.8-1.7,3.8-3.7c0-2.1-1.7-3.8-3.8-3.8s-3.8,1.7-3.8,3.8C111.9,613.3,113.6,615,115.7,615z"
			/>
		<path class="st1" d="M115.7,626.5c2,0,3.6-1.6,3.6-3.6c0-2-1.6-3.6-3.6-3.6c-2,0-3.6,1.6-3.6,3.6
			C112.1,624.9,113.7,626.5,115.7,626.5z"/>
		<path class="st1" d="M115.7,638c1.9,0,3.4-1.5,3.4-3.4c0-1.9-1.5-3.4-3.4-3.4c-1.9,0-3.4,1.5-3.4,3.4
			C112.3,636.5,113.8,638,115.7,638z"/>
		<path class="st1" d="M115.7,649.5c1.8,0,3.2-1.4,3.2-3.2c0-1.7-1.4-3.2-3.2-3.2s-3.2,1.4-3.2,3.2
			C112.5,648,113.9,649.5,115.7,649.5z"/>
		<path class="st1" d="M115.7,661c1.6,0,3-1.3,3-3s-1.3-3-3-3c-1.6,0-3,1.3-3,3S114,661,115.7,661z"/>
		<path class="st1" d="M115.7,672.4c1.5,0,2.8-1.2,2.8-2.8c0-1.5-1.2-2.8-2.8-2.8c-1.5,0-2.8,1.2-2.8,2.8
			C112.9,671.2,114.1,672.4,115.7,672.4z"/>
		<path class="st1" d="M139.1,580.5c2.4,0,4.3-1.9,4.3-4.3s-1.9-4.3-4.3-4.3c-2.4,0-4.3,1.9-4.3,4.3S136.8,580.5,139.1,580.5z"/>
		<path class="st1" d="M139.1,592c2.3,0,4.1-1.9,4.1-4.1c0-2.3-1.9-4.1-4.1-4.1c-2.3,0-4.1,1.9-4.1,4.1
			C135,590.2,136.9,592,139.1,592z"/>
		<path class="st1" d="M139.1,603.5c2.2,0,3.9-1.8,3.9-3.9c0-2.2-1.8-3.9-3.9-3.9c-2.2,0-3.9,1.8-3.9,3.9
			C135.2,601.7,137,603.5,139.1,603.5z"/>
		<path class="st1" d="M139.1,615c2.1,0,3.8-1.7,3.8-3.7c0-2.1-1.7-3.8-3.8-3.8c-2.1,0-3.8,1.7-3.8,3.8
			C135.4,613.3,137.1,615,139.1,615z"/>
		<path class="st1" d="M139.1,626.5c2,0,3.6-1.6,3.6-3.6c0-2-1.6-3.6-3.6-3.6s-3.6,1.6-3.6,3.6C135.6,624.9,137.2,626.5,139.1,626.5
			z"/>
		<path class="st1" d="M139.1,638c1.9,0,3.4-1.5,3.4-3.4c0-1.9-1.5-3.4-3.4-3.4c-1.9,0-3.4,1.5-3.4,3.4
			C135.8,636.5,137.3,638,139.1,638z"/>
		<path class="st1" d="M139.1,649.5c1.8,0,3.2-1.4,3.2-3.2c0-1.7-1.4-3.2-3.2-3.2s-3.2,1.4-3.2,3.2C136,648,137.4,649.5,139.1,649.5
			z"/>
		<path class="st1" d="M139.1,661c1.6,0,3-1.3,3-3s-1.3-3-3-3c-1.6,0-3,1.3-3,3S137.5,661,139.1,661z"/>
		<path class="st1" d="M139.1,672.4c1.5,0,2.8-1.2,2.8-2.8c0-1.5-1.2-2.8-2.8-2.8c-1.5,0-2.8,1.2-2.8,2.8
			C136.3,671.2,137.6,672.4,139.1,672.4z"/>
		<path class="st1" d="M162.2,580.5c2.4,0,4.3-1.9,4.3-4.3s-1.9-4.3-4.3-4.3c-2.4,0-4.3,1.9-4.3,4.3S159.8,580.5,162.2,580.5z"/>
		<path class="st1" d="M162.2,592c2.3,0,4.1-1.9,4.1-4.1c0-2.3-1.9-4.1-4.1-4.1s-4.1,1.9-4.1,4.1C158,590.2,159.9,592,162.2,592z"/>
		<path class="st1" d="M162.2,603.5c2.2,0,3.9-1.8,3.9-3.9c0-2.2-1.8-3.9-3.9-3.9c-2.2,0-3.9,1.8-3.9,3.9
			C158.2,601.7,160,603.5,162.2,603.5z"/>
		<path class="st1" d="M162.2,615c2.1,0,3.8-1.7,3.8-3.7c0-2.1-1.7-3.8-3.8-3.8c-2.1,0-3.8,1.7-3.8,3.8
			C158.4,613.3,160.1,615,162.2,615z"/>
		<path class="st1" d="M162.2,626.5c2,0,3.6-1.6,3.6-3.6c0-2-1.6-3.6-3.6-3.6c-2,0-3.6,1.6-3.6,3.6
			C158.6,624.9,160.2,626.5,162.2,626.5z"/>
		<path class="st1" d="M162.2,638c1.9,0,3.4-1.5,3.4-3.4c0-1.9-1.5-3.4-3.4-3.4c-1.9,0-3.4,1.5-3.4,3.4
			C158.8,636.5,160.3,638,162.2,638z"/>
		<path class="st1" d="M162.2,649.5c1.8,0,3.2-1.4,3.2-3.2c0-1.7-1.4-3.2-3.2-3.2s-3.2,1.4-3.2,3.2C159,648,160.4,649.5,162.2,649.5
			z"/>
		<path class="st1" d="M162.2,661c1.6,0,3-1.3,3-3s-1.3-3-3-3c-1.6,0-3,1.3-3,3S160.5,661,162.2,661z"/>
		<path class="st1" d="M162.2,672.4c1.5,0,2.8-1.2,2.8-2.8c0-1.5-1.2-2.8-2.8-2.8c-1.5,0-2.8,1.2-2.8,2.8
			C159.4,671.2,160.6,672.4,162.2,672.4z"/>
		<path class="st1" d="M185.6,580.5c2.4,0,4.3-1.9,4.3-4.3s-1.9-4.3-4.3-4.3c-2.4,0-4.3,1.9-4.3,4.3S183.2,580.5,185.6,580.5z"/>
		<path class="st1" d="M185.6,592c2.3,0,4.1-1.9,4.1-4.1c0-2.3-1.9-4.1-4.1-4.1c-2.3,0-4.1,1.9-4.1,4.1
			C181.5,590.2,183.3,592,185.6,592z"/>
		<path class="st1" d="M185.6,603.5c2.2,0,3.9-1.8,3.9-3.9c0-2.2-1.8-3.9-3.9-3.9c-2.2,0-3.9,1.8-3.9,3.9
			C181.7,601.7,183.5,603.5,185.6,603.5z"/>
		<path class="st1" d="M185.6,615c2.1,0,3.8-1.7,3.8-3.7c0-2.1-1.7-3.8-3.8-3.8s-3.8,1.7-3.8,3.8C181.9,613.3,183.6,615,185.6,615z"
			/>
		<path class="st1" d="M185.6,626.5c2,0,3.6-1.6,3.6-3.6c0-2-1.6-3.6-3.6-3.6c-2,0-3.6,1.6-3.6,3.6
			C182.1,624.9,183.7,626.5,185.6,626.5z"/>
		<path class="st1" d="M185.6,638c1.9,0,3.4-1.5,3.4-3.4c0-1.9-1.5-3.4-3.4-3.4c-1.9,0-3.4,1.5-3.4,3.4
			C182.3,636.5,183.8,638,185.6,638z"/>
		<path class="st1" d="M185.6,649.5c1.8,0,3.2-1.4,3.2-3.2c0-1.7-1.4-3.2-3.2-3.2s-3.2,1.4-3.2,3.2
			C182.5,648,183.9,649.5,185.6,649.5z"/>
		<path class="st1" d="M185.6,661c1.6,0,3-1.3,3-3s-1.3-3-3-3c-1.6,0-3,1.3-3,3S184,661,185.6,661z"/>
		<path class="st1" d="M185.6,672.4c1.5,0,2.8-1.2,2.8-2.8c0-1.5-1.2-2.8-2.8-2.8c-1.5,0-2.8,1.2-2.8,2.8
			C182.8,671.2,184.1,672.4,185.6,672.4z"/>
		<path class="st1" d="M204.7,576.2c0-1.2,0.5-2.3,1.3-3.1s1.9-1.3,3.1-1.3c0.6,0,1.1,0.1,1.6,0.3c0.5,0.2,1,0.5,1.4,0.9
			c0.4,0.4,0.7,0.9,0.9,1.4c0.2,0.5,0.3,1.1,0.3,1.6c0,1.1-0.5,2.3-1.3,3.1c-0.8,0.8-1.9,1.3-3.1,1.3c-1.1,0-2.3-0.5-3.1-1.3
			C205.1,578.5,204.7,577.4,204.7,576.2z"/>
		<path class="st1" d="M209,592c2.3,0,4.1-1.9,4.1-4.1c0-2.3-1.9-4.1-4.1-4.1s-4.1,1.9-4.1,4.1C204.9,590.2,206.7,592,209,592z"/>
		<path class="st1" d="M209,603.5c2.2,0,3.9-1.8,3.9-3.9c0-2.2-1.8-3.9-3.9-3.9c-2.2,0-3.9,1.8-3.9,3.9
			C205.1,601.7,206.8,603.5,209,603.5z"/>
		<path class="st1" d="M209,615c2.1,0,3.8-1.7,3.8-3.7c0-2.1-1.7-3.8-3.8-3.8c-2.1,0-3.8,1.7-3.8,3.8C205.3,613.3,206.9,615,209,615
			z"/>
		<path class="st1" d="M209,626.5c2,0,3.6-1.6,3.6-3.6c0-2-1.6-3.6-3.6-3.6c-2,0-3.6,1.6-3.6,3.6C205.4,624.9,207,626.5,209,626.5z"
			/>
		<path class="st1" d="M209,638c1.9,0,3.4-1.5,3.4-3.4c0-1.9-1.5-3.4-3.4-3.4c-1.9,0-3.4,1.5-3.4,3.4C205.6,636.5,207.1,638,209,638
			z"/>
		<path class="st1" d="M209,649.5c1.8,0,3.2-1.4,3.2-3.2c0-1.7-1.4-3.2-3.2-3.2c-1.7,0-3.2,1.4-3.2,3.2
			C205.8,648,207.3,649.5,209,649.5z"/>
		<path class="st1" d="M209,661c1.6,0,3-1.3,3-3s-1.3-3-3-3c-1.6,0-3,1.3-3,3S207.4,661,209,661z"/>
		<path class="st1" d="M209,672.4c1.5,0,2.8-1.2,2.8-2.8c0-1.5-1.2-2.8-2.8-2.8c-1.5,0-2.8,1.2-2.8,2.8
			C206.2,671.2,207.5,672.4,209,672.4z"/>
		<path class="st1" d="M228.1,576.2c0-2.4,2.1-4.3,4.5-4.3c2.4,0,4.2,1.9,4.2,4.3c0,1.1-0.5,2.3-1.3,3.1c-0.8,0.8-1.9,1.3-3.1,1.3
			c-1.1,0-2.3-0.5-3.1-1.3C228.5,578.5,228.1,577.4,228.1,576.2z"/>
		<path class="st1" d="M232.4,592c2.3,0,4.1-1.9,4.1-4.1c0-2.3-1.9-4.1-4.1-4.1c-2.3,0-4.1,1.9-4.1,4.1
			C228.3,590.2,230.1,592,232.4,592z"/>
		<path class="st1" d="M232.4,603.5c2.2,0,3.9-1.8,3.9-3.9c0-2.2-1.8-3.9-3.9-3.9c-2.2,0-3.9,1.8-3.9,3.9
			C228.4,601.7,230.2,603.5,232.4,603.5z"/>
		<path class="st1" d="M232.4,615c2.1,0,3.8-1.7,3.8-3.7c0-2.1-1.7-3.8-3.8-3.8c-2.1,0-3.8,1.7-3.8,3.8
			C228.6,613.3,230.3,615,232.4,615z"/>
		<path class="st1" d="M232.4,626.5c2,0,3.6-1.6,3.6-3.6c0-2-1.6-3.6-3.6-3.6s-3.6,1.6-3.6,3.6C228.8,624.9,230.4,626.5,232.4,626.5
			z"/>
		<path class="st1" d="M232.4,638c1.9,0,3.4-1.5,3.4-3.4c0-1.9-1.5-3.4-3.4-3.4c-1.9,0-3.4,1.5-3.4,3.4
			C229,636.5,230.5,638,232.4,638z"/>
		<path class="st1" d="M232.4,649.5c1.8,0,3.2-1.4,3.2-3.2c0-1.7-1.4-3.2-3.2-3.2s-3.2,1.4-3.2,3.2
			C229.2,648,230.6,649.5,232.4,649.5z"/>
		<path class="st1" d="M232.4,661c1.6,0,3-1.3,3-3s-1.3-3-3-3s-3,1.3-3,3S230.7,661,232.4,661z"/>
		<path class="st1" d="M232.4,672.4c1.5,0,2.8-1.2,2.8-2.8c0-1.5-1.2-2.8-2.8-2.8s-2.8,1.2-2.8,2.8
			C229.6,671.2,230.8,672.4,232.4,672.4z"/>
		<path class="st1" d="M251.3,576.2c0-2.4,2.3-4.3,4.7-4.3c2.4,0,4,1.9,4,4.3c0,1.1-0.5,2.3-1.3,3.1c-0.8,0.8-1.9,1.3-3.1,1.3
			c-1.1,0-2.3-0.5-3.1-1.3C251.8,578.5,251.3,577.4,251.3,576.2z"/>
		<path class="st1" d="M255.7,592c2.3,0,4.1-1.9,4.1-4.1c0-2.3-1.9-4.1-4.1-4.1c-2.3,0-4.1,1.9-4.1,4.1
			C251.5,590.2,253.4,592,255.7,592z"/>
		<path class="st1" d="M255.7,603.5c2.2,0,3.9-1.8,3.9-3.9c0-2.2-1.8-3.9-3.9-3.9c-2.2,0-3.9,1.8-3.9,3.9
			C251.7,601.7,253.5,603.5,255.7,603.5z"/>
		<path class="st1" d="M255.7,615c2.1,0,3.8-1.7,3.8-3.7c0-2.1-1.7-3.8-3.8-3.8c-2.1,0-3.8,1.7-3.8,3.8
			C251.9,613.3,253.6,615,255.7,615z"/>
		<path class="st1" d="M255.7,626.5c2,0,3.6-1.6,3.6-3.6c0-2-1.6-3.6-3.6-3.6c-2,0-3.6,1.6-3.6,3.6
			C252.1,624.9,253.7,626.5,255.7,626.5z"/>
		<path class="st1" d="M255.7,638c1.9,0,3.4-1.5,3.4-3.4c0-1.9-1.5-3.4-3.4-3.4c-1.9,0-3.4,1.5-3.4,3.4
			C252.3,636.5,253.8,638,255.7,638z"/>
		<path class="st1" d="M255.7,649.5c1.8,0,3.2-1.4,3.2-3.2c0-1.7-1.4-3.2-3.2-3.2c-1.8,0-3.2,1.4-3.2,3.2
			C252.5,648,253.9,649.5,255.7,649.5z"/>
		<path class="st1" d="M255.7,661c1.6,0,3-1.3,3-3s-1.3-3-3-3c-1.6,0-3,1.3-3,3S254,661,255.7,661z"/>
		<path class="st1" d="M255.7,672.4c1.5,0,2.8-1.2,2.8-2.8c0-1.5-1.2-2.8-2.8-2.8s-2.8,1.2-2.8,2.8
			C252.9,671.2,254.1,672.4,255.7,672.4z"/>
		<path class="st1" d="M278.9,580.5c2.4,0,4.3-1.9,4.3-4.3s-1.9-4.3-4.3-4.3c-2.4,0-4.3,1.9-4.3,4.3S276.5,580.5,278.9,580.5z"/>
		<path class="st1" d="M278.9,592c2.3,0,4.1-1.9,4.1-4.1c0-2.3-1.9-4.1-4.1-4.1c-2.3,0-4.1,1.9-4.1,4.1
			C274.7,590.2,276.6,592,278.9,592z"/>
		<path class="st1" d="M278.9,603.5c2.2,0,3.9-1.8,3.9-3.9c0-2.2-1.8-3.9-3.9-3.9c-2.2,0-3.9,1.8-3.9,3.9
			C274.9,601.7,276.7,603.5,278.9,603.5z"/>
		<path class="st1" d="M278.9,615c2.1,0,3.8-1.7,3.8-3.7c0-2.1-1.7-3.8-3.8-3.8s-3.8,1.7-3.8,3.8C275.1,613.3,276.8,615,278.9,615z"
			/>
		<path class="st1" d="M278.9,626.5c2,0,3.6-1.6,3.6-3.6c0-2-1.6-3.6-3.6-3.6s-3.6,1.6-3.6,3.6C275.3,624.9,276.9,626.5,278.9,626.5
			z"/>
		<path class="st1" d="M278.9,638c1.9,0,3.4-1.5,3.4-3.4c0-1.9-1.5-3.4-3.4-3.4c-1.9,0-3.4,1.5-3.4,3.4
			C275.5,636.5,277,638,278.9,638z"/>
		<path class="st1" d="M278.9,649.5c1.8,0,3.2-1.4,3.2-3.2c0-1.7-1.4-3.2-3.2-3.2s-3.2,1.4-3.2,3.2
			C275.7,648,277.1,649.5,278.9,649.5z"/>
		<path class="st1" d="M278.9,661c1.6,0,3-1.3,3-3s-1.3-3-3-3c-1.6,0-3,1.3-3,3S277.2,661,278.9,661z"/>
		<path class="st1" d="M278.9,672.4c1.5,0,2.8-1.2,2.8-2.8c0-1.5-1.2-2.8-2.8-2.8s-2.8,1.2-2.8,2.8
			C276.1,671.2,277.3,672.4,278.9,672.4z"/>
		<path class="st1" d="M302.5,580.5c2.4,0,4.3-1.9,4.3-4.3s-1.9-4.3-4.3-4.3c-2.4,0-4.3,1.9-4.3,4.3S300.1,580.5,302.5,580.5z"/>
		<path class="st1" d="M302.5,592c2.3,0,4.1-1.9,4.1-4.1c0-2.3-1.9-4.1-4.1-4.1c-2.3,0-4.1,1.9-4.1,4.1
			C298.4,590.2,300.2,592,302.5,592z"/>
		<path class="st1" d="M302.5,603.5c2.2,0,3.9-1.8,3.9-3.9c0-2.2-1.8-3.9-3.9-3.9c-2.2,0-3.9,1.8-3.9,3.9
			C298.6,601.7,300.3,603.5,302.5,603.5z"/>
		<path class="st1" d="M302.5,615c2.1,0,3.8-1.7,3.8-3.7c0-2.1-1.7-3.8-3.8-3.8c-2.1,0-3.8,1.7-3.8,3.8
			C298.8,613.3,300.4,615,302.5,615z"/>
		<path class="st1" d="M302.5,626.5c2,0,3.6-1.6,3.6-3.6c0-2-1.6-3.6-3.6-3.6c-2,0-3.6,1.6-3.6,3.6
			C299,624.9,300.6,626.5,302.5,626.5z"/>
		<path class="st1" d="M302.5,638c1.9,0,3.4-1.5,3.4-3.4c0-1.9-1.5-3.4-3.4-3.4c-1.9,0-3.4,1.5-3.4,3.4
			C299.2,636.5,300.7,638,302.5,638z"/>
		<path class="st1" d="M302.5,649.5c1.8,0,3.2-1.4,3.2-3.2c0-1.7-1.4-3.2-3.2-3.2s-3.2,1.4-3.2,3.2
			C299.3,648,300.8,649.5,302.5,649.5z"/>
		<path class="st1" d="M302.5,661c1.6,0,3-1.3,3-3s-1.3-3-3-3c-1.6,0-3,1.3-3,3S300.9,661,302.5,661z"/>
		<path class="st1" d="M302.5,672.4c1.5,0,2.8-1.2,2.8-2.8c0-1.5-1.2-2.8-2.8-2.8c-1.5,0-2.8,1.2-2.8,2.8
			C299.7,671.2,301,672.4,302.5,672.4z"/>
		<path class="st2" d="M302.4,159.5l-11.7-4l11.7-4c0.6-0.2,1.3-0.3,2-0.2c0.7,0.1,1.3,0.4,1.9,0.7c0.6,0.4,1,0.9,1.3,1.5
			c0.3,0.6,0.5,1.3,0.5,1.9c0,0.7-0.2,1.3-0.5,1.9c-0.3,0.6-0.8,1.1-1.3,1.5c-0.6,0.4-1.2,0.6-1.9,0.7
			C303.7,159.8,303,159.8,302.4,159.5z"/>
		<path class="st2" d="M302.4,171.2l-23.4-4l23.4-4c1.1-0.2,2.2,0.1,3,0.7c0.9,0.6,1.5,1.6,1.7,2.6c0.2,1.1-0.1,2.2-0.7,3
			c-0.6,0.9-1.6,1.5-2.6,1.7C303.3,171.3,302.8,171.3,302.4,171.2z"/>
		<path class="st2" d="M302.4,182.9l-36-4l36-4c1.1-0.1,2.1,0.2,3,0.9c0.8,0.7,1.4,1.6,1.5,2.7c0.1,1.1-0.2,2.1-0.9,3
			s-1.6,1.4-2.7,1.5C303,182.9,302.7,182.9,302.4,182.9z"/>
		<path class="st2" d="M302.4,194.6l-46.8-4l46.8-4c0.5,0,1.1,0,1.6,0.2c0.5,0.2,1,0.4,1.4,0.8c0.4,0.3,0.7,0.8,1,1.2
			c0.2,0.5,0.4,1,0.4,1.5c0,0.5,0,1.1-0.2,1.6s-0.4,1-0.8,1.4c-0.3,0.4-0.8,0.7-1.2,1c-0.5,0.2-1,0.4-1.5,0.4
			C302.8,194.6,302.6,194.6,302.4,194.6z"/>
		<path class="st2" d="M302.4,206.3l-58.4-4l58.4-4c1.1-0.1,2.1,0.3,2.9,1c0.8,0.7,1.3,1.7,1.4,2.8c0.1,1.1-0.3,2.1-1,2.9
			c-0.7,0.8-1.7,1.3-2.8,1.4C302.8,206.3,302.6,206.3,302.4,206.3z"/>
		<path class="st2" d="M302.4,217.9l-70.1-4l70.1-4c0.5,0,1.1,0,1.6,0.2c0.5,0.2,1,0.4,1.4,0.8c0.4,0.4,0.7,0.8,0.9,1.3
			c0.2,0.5,0.4,1,0.4,1.5c0,0.5,0,1.1-0.2,1.6c-0.2,0.5-0.4,1-0.8,1.4c-0.4,0.4-0.8,0.7-1.3,0.9c-0.5,0.2-1,0.4-1.5,0.4
			C302.7,217.9,302.5,217.9,302.4,217.9z"/>
		<path class="st2" d="M302.4,229.6l-81.8-4l81.8-4c0.5,0,1.1,0.1,1.6,0.2c0.5,0.2,1,0.5,1.3,0.8c0.4,0.4,0.7,0.8,0.9,1.3
			c0.2,0.5,0.4,1,0.4,1.5c0,0.5-0.1,1.1-0.2,1.6c-0.2,0.5-0.5,1-0.8,1.3c-0.4,0.4-0.8,0.7-1.3,0.9c-0.5,0.2-1,0.4-1.5,0.4
			C302.7,229.6,302.5,229.6,302.4,229.6z"/>
		<path class="st2" d="M302.4,241.3l-92.9-4l92.9-4c1.1,0,2.1,0.3,2.9,1.1c0.8,0.7,1.3,1.7,1.3,2.8c0,1.1-0.3,2.1-1.1,2.9
			c-0.7,0.8-1.7,1.3-2.8,1.3H302.4z"/>
		<path class="st2" d="M302.4,253l-105.2-4l105.2-4c0.5,0,1.1,0.1,1.5,0.2c0.5,0.2,0.9,0.5,1.3,0.8c0.4,0.4,0.7,0.8,0.9,1.3
			c0.2,0.5,0.3,1,0.4,1.5c0,0.5-0.1,1.1-0.2,1.5c-0.2,0.5-0.5,0.9-0.8,1.3c-0.4,0.4-0.8,0.7-1.3,0.9s-1,0.3-1.5,0.4
			C302.6,253,302.5,253,302.4,253z"/>
		<path class="st2" d="M302.4,264.7l-116.9-4l116.9-4c1.1,0,2.1,0.4,2.9,1.1c0.8,0.7,1.2,1.7,1.3,2.8c0,1.1-0.4,2.1-1.1,2.9
			c-0.7,0.8-1.7,1.2-2.8,1.3H302.4z"/>
		<path class="st2" d="M302.4,276.3l-128.6-4l128.6-4c0.5,0,1.1,0.1,1.5,0.3c0.5,0.2,0.9,0.5,1.3,0.8c0.4,0.4,0.7,0.8,0.9,1.3
			c0.2,0.5,0.3,1,0.4,1.5c0,0.5-0.1,1.1-0.3,1.5c-0.2,0.5-0.5,0.9-0.8,1.3c-0.4,0.4-0.8,0.7-1.3,0.9c-0.5,0.2-1,0.3-1.5,0.4H302.4z"
			/>
		<path class="st2" d="M302.4,288l-141.5-4l141.5-4c1.1,0,2.1,0.4,2.9,1.1c0.8,0.7,1.2,1.7,1.3,2.8c0,1.1-0.4,2.1-1.1,2.9
			c-0.7,0.8-1.7,1.2-2.8,1.3H302.4z"/>
		<path class="st2" d="M302.4,299.7l-152.9-4l152.9-4c1.1,0,2.1,0.4,2.9,1.1c0.8,0.7,1.2,1.7,1.2,2.8c0,1.1-0.4,2.1-1.1,2.9
			c-0.7,0.8-1.7,1.2-2.8,1.2H302.4z"/>
		<path class="st2" d="M302.4,311.4l-163.6-4l163.6-4c1.1,0,2.1,0.4,2.9,1.1c0.8,0.7,1.2,1.7,1.2,2.8c0,1.1-0.4,2.1-1.1,2.9
			c-0.7,0.8-1.7,1.2-2.8,1.2H302.4z"/>
		<path class="st2" d="M302.4,323.1l-173.7-4l173.7-4c0.5,0,1.1,0.1,1.5,0.3c0.5,0.2,0.9,0.5,1.3,0.8c0.4,0.4,0.7,0.8,0.9,1.3
			c0.2,0.5,0.3,1,0.3,1.5c0,0.5-0.1,1.1-0.3,1.5c-0.2,0.5-0.5,0.9-0.8,1.3c-0.4,0.4-0.8,0.7-1.3,0.9c-0.5,0.2-1,0.3-1.5,0.3H302.4z"
			/>
		<path class="st2" d="M302.4,334.7l-187-4l187-4c1.1,0,2.1,0.4,2.9,1.1c0.8,0.7,1.2,1.7,1.2,2.8c0,1.1-0.4,2.1-1.1,2.9
			c-0.7,0.8-1.7,1.2-2.8,1.2H302.4z"/>
		<path class="st2" d="M302.4,346.4l-196.9-4l196.9-4c0.5,0,1.1,0.1,1.5,0.3c0.5,0.2,0.9,0.5,1.3,0.8c0.4,0.4,0.7,0.8,0.9,1.3
			c0.2,0.5,0.3,1,0.3,1.5c0,0.5-0.1,1.1-0.3,1.5c-0.2,0.5-0.5,0.9-0.8,1.3c-0.4,0.4-0.8,0.7-1.3,0.9c-0.5,0.2-1,0.3-1.5,0.3H302.4z"
			/>
		<path class="st2" d="M302.4,358.1l-211.3-4l211.3-4c0.5,0,1.1,0.1,1.5,0.3c0.5,0.2,0.9,0.5,1.3,0.8c0.4,0.4,0.7,0.8,0.9,1.3
			s0.3,1,0.3,1.5s-0.1,1.1-0.3,1.5c-0.2,0.5-0.5,0.9-0.8,1.3c-0.4,0.4-0.8,0.7-1.3,0.9c-0.5,0.2-1,0.3-1.5,0.3H302.4z"/>
		<path class="st2" d="M302.4,369.8l-221-4l221-4c0.5,0,1.1,0.1,1.5,0.3c0.5,0.2,0.9,0.5,1.3,0.8c0.4,0.4,0.7,0.8,0.9,1.3
			c0.2,0.5,0.3,1,0.3,1.5c0,0.5-0.1,1-0.3,1.5c-0.2,0.5-0.5,0.9-0.8,1.3s-0.8,0.7-1.3,0.9c-0.5,0.2-1,0.3-1.5,0.3H302.4z"/>
		<path class="st2" d="M302.4,381.5l-232.8-4l232.8-4c0.5,0,1.1,0.1,1.5,0.3c0.5,0.2,0.9,0.5,1.3,0.8c0.4,0.4,0.7,0.8,0.9,1.3
			c0.2,0.5,0.3,1,0.3,1.5c0,0.5-0.1,1.1-0.3,1.5c-0.2,0.5-0.5,0.9-0.8,1.3s-0.8,0.7-1.3,0.9c-0.5,0.2-1,0.3-1.5,0.3H302.4z"/>
		<path class="st2" d="M302.4,393.1l-222-4l222-4c0.5,0,1.1,0.1,1.5,0.3c0.5,0.2,0.9,0.5,1.3,0.8c0.4,0.4,0.7,0.8,0.9,1.3
			c0.2,0.5,0.3,1,0.3,1.5c0,0.5-0.1,1.1-0.3,1.5c-0.2,0.5-0.5,0.9-0.8,1.3c-0.4,0.4-0.8,0.7-1.3,0.9c-0.5,0.2-1,0.3-1.5,0.3H302.4z"
			/>
		<path class="st2" d="M302.4,404.8l-210.4-4l210.4-4c0.5,0,1.1,0.1,1.5,0.3c0.5,0.2,0.9,0.5,1.3,0.8c0.4,0.4,0.7,0.8,0.9,1.3
			c0.2,0.5,0.3,1,0.3,1.5c0,0.5-0.1,1.1-0.3,1.5c-0.2,0.5-0.5,0.9-0.8,1.3c-0.4,0.4-0.8,0.7-1.3,0.9c-0.5,0.2-1,0.3-1.5,0.3H302.4z"
			/>
		<path class="st2" d="M302.4,416.5l-198.7-4l198.7-4c1.1,0,2.1,0.4,2.9,1.1s1.2,1.7,1.2,2.8s-0.4,2.1-1.1,2.9
			c-0.7,0.8-1.8,1.2-2.8,1.2H302.4z"/>
		<path class="st2" d="M302.4,428.2l-187-4l187-4c1.1,0,2.1,0.4,2.9,1.1c0.8,0.7,1.2,1.7,1.2,2.8c0,1.1-0.4,2.1-1.1,2.9
			c-0.7,0.8-1.7,1.2-2.8,1.2H302.4z"/>
		<path class="st2" d="M302.4,440l-175.3-4l175.3-4c1.1,0,2.1,0.4,2.9,1.1c0.8,0.7,1.2,1.7,1.2,2.8c0,1.1-0.4,2.1-1.1,2.9
			c-0.7,0.8-1.7,1.2-2.8,1.2H302.4z"/>
		<path class="st2" d="M302.4,451.7l-163.6-4l163.6-4c1.1,0,2.1,0.4,2.9,1.1c0.8,0.7,1.2,1.7,1.2,2.8s-0.4,2.1-1.1,2.9
			c-0.7,0.8-1.7,1.2-2.8,1.2H302.4z"/>
		<path class="st2" d="M302.4,463.4l-140.3-4l140.3-4c1.1,0,2.1,0.4,2.9,1.1c0.8,0.7,1.2,1.7,1.3,2.8s-0.4,2.1-1.1,2.9
			c-0.7,0.8-1.7,1.2-2.8,1.3H302.4z"/>
		<path class="st2" d="M302.4,475.1l-130.1-4l130.1-4c0.5,0,1.1,0.1,1.5,0.3c0.5,0.2,0.9,0.5,1.3,0.8c0.4,0.4,0.7,0.8,0.9,1.3
			c0.2,0.5,0.3,1,0.4,1.5c0,0.5-0.1,1.1-0.3,1.5c-0.2,0.5-0.5,0.9-0.8,1.3c-0.4,0.4-0.8,0.7-1.3,0.9c-0.5,0.2-1,0.3-1.5,0.4H302.4z"
			/>
		<path class="st2" d="M302.4,486.8l-116.9-4l116.9-4c0.5,0,1.1,0.1,1.5,0.3c0.5,0.2,0.9,0.5,1.3,0.8c0.4,0.4,0.7,0.8,0.9,1.3
			c0.2,0.5,0.3,1,0.4,1.5c0,0.5-0.1,1.1-0.3,1.5c-0.2,0.5-0.5,0.9-0.8,1.3c-0.4,0.4-0.8,0.7-1.3,0.9c-0.5,0.2-1,0.3-1.5,0.4H302.4z"
			/>
		<path class="st2" d="M302.4,498.5l-116.9-4l116.9-4c0.5,0,1.1,0.1,1.5,0.3c0.5,0.2,0.9,0.5,1.3,0.8c0.4,0.4,0.7,0.8,0.9,1.3
			c0.2,0.5,0.3,1,0.4,1.5c0,0.5-0.1,1.1-0.3,1.5c-0.2,0.5-0.5,0.9-0.8,1.3c-0.4,0.4-0.8,0.7-1.3,0.9c-0.5,0.2-1,0.3-1.5,0.4H302.4z"
			/>
		<path class="st2" d="M302.4,510.2l-129.5-4l129.5-4c1.1,0,2.1,0.4,2.9,1.1c0.8,0.7,1.2,1.7,1.3,2.8s-0.4,2.1-1.1,2.9
			c-0.7,0.8-1.7,1.2-2.8,1.3H302.4z"/>
		<path class="st2" d="M302.4,522l-163.6-4l163.6-4c1.1,0,2.1,0.4,2.9,1.1c0.8,0.7,1.2,1.7,1.2,2.8s-0.4,2.1-1.1,2.9
			c-0.7,0.8-1.7,1.2-2.8,1.2H302.4z"/>
		<path class="st2" d="M302.4,533.7l-177-4l177-4c0.5,0,1.1,0.1,1.5,0.3c0.5,0.2,0.9,0.5,1.3,0.8c0.4,0.4,0.7,0.8,0.9,1.3
			c0.2,0.5,0.3,1,0.3,1.5c0,0.5-0.1,1.1-0.3,1.5c-0.2,0.5-0.5,0.9-0.8,1.3c-0.4,0.4-0.8,0.7-1.3,0.9c-0.5,0.2-1,0.3-1.5,0.3H302.4z"
			/>
		<path class="st2" d="M302.4,545l-187.2-4l187.2-4c0.5,0,1.1,0.1,1.5,0.3c0.5,0.2,0.9,0.5,1.3,0.8c0.4,0.4,0.7,0.8,0.9,1.3
			c0.2,0.5,0.3,1,0.3,1.5c0,0.5-0.1,1.1-0.3,1.5c-0.2,0.5-0.5,0.9-0.8,1.3c-0.4,0.4-0.8,0.7-1.3,0.9c-0.5,0.2-1,0.3-1.5,0.3H302.4z"
			/>
		<path class="st2" d="M302.4,556.7l-200.6-4l200.6-4c0.5,0,1.1,0.1,1.5,0.3c0.5,0.2,0.9,0.5,1.3,0.8c0.4,0.4,0.7,0.8,0.9,1.3
			c0.2,0.5,0.3,1,0.3,1.5c0,0.5-0.1,1.1-0.3,1.5c-0.2,0.5-0.5,0.9-0.8,1.3c-0.4,0.4-0.8,0.7-1.3,0.9s-1,0.3-1.5,0.3H302.4z"/>
		<path class="st2" d="M302.4,568.4l-213-4l213-4c0.5,0,1.1,0.1,1.5,0.3c0.5,0.2,0.9,0.5,1.3,0.8c0.4,0.4,0.7,0.8,0.9,1.3
			c0.2,0.5,0.3,1,0.3,1.5c0,0.5-0.1,1.1-0.3,1.5c-0.2,0.5-0.5,0.9-0.8,1.3c-0.4,0.4-0.8,0.7-1.3,0.9c-0.5,0.2-1,0.3-1.5,0.3H302.4z"
			/>
		<path class="st2" d="M302.4,580.2l-222.1-4l222.1-4c0.5,0,1.1,0.1,1.5,0.3c0.5,0.2,0.9,0.5,1.3,0.8c0.4,0.4,0.7,0.8,0.9,1.3
			c0.2,0.5,0.3,1,0.3,1.5c0,0.5-0.1,1.1-0.3,1.5c-0.2,0.5-0.5,0.9-0.8,1.3c-0.4,0.4-0.8,0.7-1.3,0.9c-0.5,0.2-1,0.3-1.5,0.3H302.4z"
			/>
		<path class="st2" d="M302.4,592l-233.9-4l233.9-4c1.1,0,2.1,0.4,2.9,1.1c0.8,0.7,1.2,1.8,1.2,2.8c0,1.1-0.4,2.1-1.1,2.9
			c-0.7,0.8-1.8,1.2-2.8,1.2H302.4z"/>
		<path class="st2" d="M302.4,603.8l-245.5-4l245.5-4c1.1,0,2.1,0.4,2.9,1.1c0.8,0.7,1.2,1.8,1.2,2.8c0,1.1-0.4,2.1-1.1,2.9
			c-0.7,0.8-1.8,1.2-2.8,1.2H302.4z"/>
		<path class="st2" d="M302.4,615.6l-248.1-4l248.1-4c0.5,0,1.1,0.1,1.5,0.3c0.5,0.2,0.9,0.5,1.3,0.8c0.4,0.4,0.7,0.8,0.9,1.3
			c0.2,0.5,0.3,1,0.3,1.5c0,0.5-0.1,1-0.3,1.5s-0.5,0.9-0.8,1.3c-0.4,0.4-0.8,0.7-1.3,0.9c-0.5,0.2-1,0.3-1.5,0.3H302.4z"/>
		<path class="st2" d="M302.4,627.3l-242.8-4l242.8-4c0.5,0,1.1,0.1,1.5,0.3c0.5,0.2,0.9,0.5,1.3,0.8c0.4,0.4,0.7,0.8,0.9,1.3
			c0.2,0.5,0.3,1,0.3,1.5c0,0.5-0.1,1-0.3,1.5c-0.2,0.5-0.5,0.9-0.8,1.3c-0.4,0.4-0.8,0.7-1.3,0.9c-0.5,0.2-1,0.3-1.5,0.3H302.4z"/>
		<path class="st2" d="M302.4,639.1l-233.9-4l233.9-4c1.1,0,2.1,0.4,2.9,1.1c0.8,0.7,1.2,1.8,1.2,2.8c0,1.1-0.4,2.1-1.1,2.9
			c-0.7,0.8-1.8,1.2-2.8,1.2H302.4z"/>
		<path class="st2" d="M302.4,650.9l-222.1-4l222.1-4c0.5,0,1.1,0.1,1.5,0.3c0.5,0.2,0.9,0.5,1.3,0.8c0.4,0.4,0.7,0.8,0.9,1.3
			c0.2,0.5,0.3,1,0.3,1.5c0,0.5-0.1,1.1-0.3,1.5c-0.2,0.5-0.5,0.9-0.8,1.3c-0.4,0.4-0.8,0.7-1.3,0.9c-0.5,0.2-1,0.3-1.5,0.3H302.4z"
			/>
		<path class="st2" d="M302.4,662.7l-213-4l213-4c0.5,0,1.1,0.1,1.5,0.3c0.5,0.2,0.9,0.5,1.3,0.8c0.4,0.4,0.7,0.8,0.9,1.3
			c0.2,0.5,0.3,1,0.3,1.5c0,0.5-0.1,1.1-0.3,1.5c-0.2,0.5-0.5,0.9-0.8,1.3c-0.4,0.4-0.8,0.7-1.3,0.9c-0.5,0.2-1,0.3-1.5,0.3H302.4z"
			/>
		<path class="st2" d="M302.4,674.5l-211.3-4l211.3-4c0.5,0,1.1,0.1,1.5,0.3c0.5,0.2,0.9,0.5,1.3,0.8c0.4,0.4,0.7,0.8,0.9,1.3
			c0.2,0.5,0.3,1,0.3,1.5c0,0.5-0.1,1.1-0.3,1.5c-0.2,0.5-0.5,0.9-0.8,1.3c-0.4,0.4-0.8,0.7-1.3,0.9c-0.5,0.2-1,0.3-1.5,0.3H302.4z"
			/>
		<path class="st3" d="M21.5,669.6c-0.7-10-1.1-20-1.5-30c-0.4-10-0.6-20-0.8-30c-0.2-10-0.3-20-0.4-30c-0.1-10,0-20,0.2-30
			c0.4-20,1.5-40,1.7-60c0.1-10,0.1-20,0-30c-0.1-10-0.4-20-0.7-30l-0.5-15l-0.2-7.5l-0.2-7.5c-0.3-10-0.4-20-0.5-30
			c-0.3-20-0.5-40-0.4-60c0.1-20,0.4-40,0.9-60c0.3-10,0.6-20,0.9-30c0.4-10,0.8-20,1.4-30h0.7c0.6,10,1,20,1.4,30
			c0.4,10,0.7,20,0.9,30c0.5,20,0.8,40,0.9,60c0.1,20-0.2,40-0.4,60c-0.1,10-0.2,20-0.5,30l-0.2,7.5l-0.2,7.5l-0.5,15
			c-0.3,10-0.6,20-0.7,30c-0.1,10-0.2,20,0,30c0.2,20,1.3,40,1.7,60c0.2,10,0.3,20,0.2,30c-0.1,10-0.2,20-0.4,30
			c-0.2,10-0.5,20-0.8,30c-0.4,10-0.8,20-1.5,30H21.5z"/>
		<path class="st3" d="M33.2,669.6c-0.7-9.8-1.1-19.7-1.5-29.5c-0.4-9.8-0.6-19.7-0.8-29.5c-0.2-9.8-0.3-19.7-0.4-29.5
			c-0.1-9.8,0-19.7,0.2-29.5c0.4-19.7,1.5-39.3,1.7-59c0.1-9.8,0.1-19.7,0-29.5c-0.1-9.8-0.4-19.7-0.7-29.5l-0.5-14.7l-0.2-7.4
			l-0.2-7.4c-0.3-9.8-0.4-19.7-0.5-29.5c-0.3-19.7-0.5-39.3-0.4-59s0.4-39.3,0.9-59c0.3-9.8,0.6-19.7,0.9-29.5
			c0.4-9.8,0.8-19.7,1.4-29.5h0.7c0.6,9.8,1,19.7,1.4,29.5c0.4,9.8,0.7,19.7,0.9,29.5c0.5,19.7,0.8,39.3,0.9,59
			c0.1,19.7-0.2,39.3-0.4,59c-0.1,9.8-0.2,19.7-0.5,29.5l-0.2,7.4l-0.2,7.4l-0.5,14.7c-0.3,9.8-0.6,19.7-0.7,29.5
			c-0.1,9.8-0.2,19.7,0,29.5c0.2,19.7,1.3,39.3,1.7,59c0.2,9.8,0.3,19.7,0.2,29.5c-0.1,9.8-0.2,19.7-0.4,29.5
			c-0.2,9.8-0.5,19.7-0.8,29.5c-0.4,9.8-0.8,19.7-1.5,29.5H33.2z"/>
		<path class="st3" d="M44.9,669.6c-0.7-9.5-1.1-19-1.5-28.6c-0.4-9.5-0.6-19-0.8-28.6c-0.2-9.5-0.3-19-0.4-28.6
			c-0.1-9.5,0-19,0.2-28.6c0.4-19,1.5-38.1,1.7-57.1c0.1-9.5,0.1-19,0-28.6c-0.1-9.5-0.4-19-0.7-28.6l-0.5-14.3l-0.2-7.1l-0.2-7.1
			c-0.3-9.5-0.4-19-0.5-28.6c-0.3-19-0.5-38.1-0.4-57.1c0.1-19,0.4-38.1,0.9-57.1c0.3-9.5,0.6-19,0.9-28.6c0.4-9.5,0.8-19,1.4-28.6
			h0.7c0.6,9.5,1,19,1.4,28.6c0.4,9.5,0.7,19,0.9,28.6c0.5,19,0.8,38.1,0.9,57.1c0.1,19-0.2,38.1-0.4,57.1c-0.1,9.5-0.2,19-0.5,28.6
			l-0.2,7.1l-0.2,7.1l-0.5,14.3c-0.3,9.5-0.6,19-0.7,28.6c-0.1,9.5-0.2,19,0,28.6c0.2,19,1.3,38.1,1.7,57.1c0.2,9.5,0.3,19,0.2,28.6
			c-0.1,9.5-0.2,19-0.4,28.6c-0.2,9.5-0.5,19-0.8,28.6c-0.4,9.5-0.8,19-1.5,28.6H44.9z"/>
		<path class="st3" d="M56.6,669.6c-0.7-9.3-1.1-18.6-1.5-27.8c-0.4-9.3-0.6-18.6-0.8-27.8c-0.2-9.3-0.3-18.6-0.4-27.8
			c-0.1-9.3,0-18.6,0.2-27.8c0.4-18.6,1.5-37.1,1.7-55.7c0.1-9.3,0.1-18.6,0-27.8c-0.1-9.3-0.4-18.6-0.7-27.8l-0.5-13.9l-0.2-7
			l-0.2-7c-0.3-9.3-0.4-18.6-0.5-27.8c-0.3-18.6-0.5-37.1-0.4-55.7c0.1-18.6,0.4-37.1,0.9-55.7c0.3-9.3,0.6-18.6,0.9-27.8
			c0.4-9.3,0.8-18.6,1.4-27.8h0.7c0.6,9.3,1,18.6,1.4,27.8c0.4,9.3,0.7,18.6,0.9,27.8c0.5,18.6,0.8,37.1,0.9,55.7
			c0.1,18.6-0.2,37.1-0.4,55.7c-0.1,9.3-0.2,18.6-0.5,27.8l-0.2,7l-0.2,7l-0.5,13.9c-0.3,9.3-0.6,18.6-0.7,27.8
			c-0.1,9.3-0.2,18.6,0,27.8c0.2,18.6,1.3,37.1,1.7,55.7C60,567.5,60,576.8,60,586c-0.1,9.3-0.2,18.6-0.4,27.8
			c-0.2,9.3-0.5,18.6-0.8,27.8c-0.4,9.3-0.8,18.6-1.5,27.8L56.6,669.6z"/>
		<path class="st3" d="M68.3,669.6c-0.7-9-1.1-18-1.5-27c-0.4-9-0.6-18-0.8-27s-0.3-18-0.4-27c-0.1-9,0-18,0.2-27
			c0.4-18,1.5-36,1.7-54c0.1-9,0.1-18,0-27s-0.4-18-0.7-27l-0.5-13.5l-0.2-6.8l-0.2-6.8c-0.3-9-0.4-18-0.5-27c-0.3-18-0.5-36-0.4-54
			c0.1-18,0.4-36,0.9-54c0.3-9,0.6-18,0.9-27c0.4-9,0.8-18,1.4-27H69c0.6,9,1,18,1.4,27c0.4,9,0.7,18,0.9,27c0.5,18,0.8,36,0.9,54
			c0.1,18-0.2,36-0.4,54c-0.1,9-0.2,18-0.5,27l-0.2,6.8l-0.2,6.8l-0.5,13.5c-0.3,9-0.6,18-0.7,27c-0.1,9-0.2,18,0,27
			c0.2,18,1.3,36,1.7,54c0.2,9,0.3,18,0.2,27c-0.1,9-0.2,18-0.4,27c-0.2,9-0.5,18-0.8,27c-0.4,9-0.8,18-1.5,27H68.3z"/>
		<path class="st3" d="M80,670c-0.7-8.8-1.1-17.5-1.5-26.3c-0.4-8.8-0.6-17.5-0.8-26.3c-0.2-8.8-0.3-17.5-0.4-26.3
			c-0.1-8.8,0-17.5,0.2-26.3c0.4-17.5,1.5-35.1,1.7-52.6c0.1-8.8,0.1-17.5,0-26.3c-0.1-8.8-0.4-17.5-0.7-26.3L78,446.3l-0.2-6.6
			l-0.2-6.6c-0.3-8.8-0.4-17.5-0.5-26.3c-0.3-17.5-0.5-35.1-0.4-52.6c0.1-17.5,0.4-35.1,0.9-52.6c0.3-8.8,0.6-17.5,0.9-26.3
			c0.4-8.8,0.8-17.5,1.4-26.3h0.7c0.6,8.8,1,17.5,1.4,26.3c0.4,8.8,0.7,17.5,0.9,26.3c0.5,17.5,0.8,35.1,0.9,52.6
			c0.1,17.5-0.2,35.1-0.4,52.6c-0.1,8.8-0.2,17.5-0.5,26.3l-0.2,6.6l-0.2,6.6l-0.5,13.2c-0.3,8.8-0.6,17.5-0.7,26.3
			c-0.1,8.8-0.2,17.5,0,26.3c0.2,17.5,1.3,35.1,1.7,52.6c0.2,8.8,0.3,17.5,0.2,26.3c-0.1,8.8-0.2,17.5-0.4,26.3
			c-0.2,8.8-0.5,17.5-0.8,26.3c-0.4,8.8-0.8,17.5-1.5,26.3H80z"/>
		<path class="st3" d="M91.7,669.6c-0.7-8.6-1.1-17.1-1.5-25.7c-0.4-8.6-0.6-17.1-0.8-25.7c-0.2-8.6-0.3-17.1-0.4-25.7
			c-0.1-8.6,0-17.1,0.2-25.7c0.4-17.1,1.5-34.3,1.7-51.4c0.1-8.6,0.1-17.1,0-25.7c-0.1-8.6-0.4-17.1-0.7-25.7l-0.5-12.8l-0.2-6.4
			l-0.2-6.4c-0.3-8.6-0.4-17.1-0.5-25.7c-0.3-17.1-0.5-34.3-0.4-51.4c0.1-17.1,0.4-34.3,0.9-51.4c0.3-8.6,0.6-17.1,0.9-25.7
			c0.4-8.6,0.8-17.1,1.4-25.7h0.7c0.6,8.6,1,17.1,1.4,25.7c0.4,8.6,0.7,17.1,0.9,25.7c0.5,17.1,0.8,34.3,0.9,51.4
			c0.1,17.1-0.2,34.3-0.4,51.4c-0.1,8.6-0.2,17.1-0.5,25.7l-0.2,6.4l-0.2,6.4L93.8,464c-0.3,8.6-0.6,17.1-0.7,25.7
			c-0.1,8.6-0.2,17.1,0,25.7c0.2,17.1,1.3,34.3,1.7,51.4c0.2,8.6,0.3,17.1,0.2,25.7c-0.1,8.6-0.2,17.1-0.4,25.7
			c-0.2,8.6-0.5,17.1-0.8,25.7c-0.4,8.6-0.8,17.1-1.5,25.7H91.7z"/>
		<path class="st3" d="M103.3,669.6c-0.7-8.4-1.1-16.7-1.5-25.1c-0.4-8.4-0.6-16.7-0.8-25.1c-0.2-8.4-0.3-16.7-0.4-25.1
			c-0.1-8.4,0-16.7,0.2-25.1c0.4-16.7,1.5-33.5,1.7-50.2c0.1-8.4,0.1-16.7,0-25.1c-0.1-8.4-0.4-16.7-0.7-25.1l-0.5-12.6l-0.2-6.3
			l-0.2-6.3c-0.3-8.4-0.4-16.7-0.5-25.1c-0.3-16.7-0.5-33.5-0.4-50.2c0.1-16.7,0.4-33.5,0.9-50.2c0.3-8.4,0.6-16.7,0.9-25.1
			c0.4-8.4,0.8-16.7,1.4-25.1h0.7c0.6,8.4,1,16.7,1.4,25.1c0.4,8.4,0.7,16.7,0.9,25.1c0.5,16.7,0.8,33.5,0.9,50.2
			c0.1,16.7-0.2,33.5-0.4,50.2c-0.1,8.4-0.2,16.7-0.5,25.1l-0.2,6.3l-0.2,6.3l-0.5,12.6c-0.3,8.4-0.6,16.7-0.7,25.1
			c-0.1,8.4-0.2,16.7,0,25.1c0.2,16.7,1.3,33.5,1.7,50.2c0.2,8.4,0.3,16.7,0.2,25.1c-0.1,8.4-0.2,16.7-0.4,25.1
			c-0.2,8.4-0.5,16.7-0.8,25.1s-0.8,16.7-1.5,25.1H103.3z"/>
		<path class="st3" d="M115,669.6c-0.7-8.2-1.1-16.4-1.5-24.7c-0.4-8.2-0.6-16.4-0.8-24.7c-0.2-8.2-0.3-16.4-0.4-24.7
			s0-16.4,0.2-24.7c0.4-16.4,1.5-32.9,1.7-49.3c0.1-8.2,0.1-16.4,0-24.7c-0.1-8.2-0.4-16.4-0.7-24.7l-0.5-12.3l-0.2-6.2l-0.2-6.2
			c-0.3-8.2-0.4-16.4-0.5-24.7c-0.3-16.4-0.5-32.9-0.4-49.3c0.1-16.4,0.4-32.9,0.9-49.3c0.3-8.2,0.6-16.4,0.9-24.7
			s0.8-16.4,1.4-24.6h0.7c0.6,8.2,1,16.4,1.4,24.7c0.4,8.2,0.7,16.4,0.9,24.7c0.5,16.4,0.8,32.9,0.9,49.3
			c0.1,16.4-0.2,32.9-0.4,49.3c-0.1,8.2-0.2,16.4-0.5,24.7l-0.2,6.2l-0.2,6.2l-0.5,12.3c-0.3,8.2-0.6,16.4-0.7,24.7
			c-0.1,8.2-0.2,16.4,0,24.7c0.2,16.4,1.3,32.9,1.7,49.3c0.2,8.2,0.3,16.4,0.2,24.7c-0.1,8.2-0.2,16.4-0.4,24.7
			c-0.2,8.2-0.5,16.4-0.8,24.7c-0.4,8.2-0.8,16.4-1.5,24.7L115,669.6z"/>
		<path class="st3" d="M126.7,669.6c-0.7-8.2-1.1-16.4-1.5-24.7c-0.4-8.2-0.6-16.4-0.8-24.7c-0.2-8.2-0.3-16.4-0.4-24.7
			c-0.1-8.2,0-16.4,0.2-24.7c0.4-16.4,1.5-32.9,1.7-49.3c0.1-8.2,0.1-16.4-0.1-24.7c-0.1-8.2-0.4-16.4-0.7-24.7l-0.5-12.3l-0.2-6.2
			l-0.2-6.2c-0.3-8.2-0.4-16.4-0.5-24.7c-0.3-16.4-0.5-32.9-0.4-49.3c0.1-16.4,0.4-32.9,0.9-49.3c0.3-8.2,0.6-16.4,0.9-24.7
			c0.4-8.2,0.8-16.4,1.4-24.7h0.7c0.6,8.2,1,16.4,1.4,24.7c0.4,8.2,0.7,16.4,0.9,24.7c0.5,16.4,0.8,32.9,0.9,49.3
			c0.1,16.4-0.2,32.9-0.4,49.3c-0.1,8.2-0.2,16.4-0.5,24.7l-0.2,6.2l-0.2,6.2l-0.5,12.3c-0.3,8.2-0.6,16.4-0.7,24.7
			c-0.1,8.2-0.2,16.4-0.1,24.7c0.2,16.4,1.3,32.9,1.7,49.3c0.2,8.2,0.3,16.4,0.2,24.7c-0.1,8.2-0.2,16.4-0.4,24.7
			c-0.2,8.2-0.5,16.4-0.8,24.7c-0.4,8.2-0.8,16.4-1.5,24.7H126.7z"/>
		<path class="st3" d="M138.4,669.6c-0.7-8.3-1.1-16.5-1.5-24.8c-0.4-8.3-0.6-16.6-0.8-24.8c-0.2-8.3-0.3-16.6-0.4-24.8
			c-0.1-8.3,0-16.6,0.2-24.8c0.4-16.6,1.5-33.1,1.7-49.7c0.1-8.3,0.1-16.6,0-24.8c-0.1-8.3-0.4-16.5-0.7-24.8l-0.5-12.4l-0.2-6.2
			l-0.2-6.2c-0.3-8.3-0.4-16.6-0.5-24.8c-0.3-16.6-0.5-33.1-0.4-49.7c0.1-16.6,0.4-33.1,0.9-49.7c0.3-8.3,0.6-16.5,0.9-24.8
			c0.4-8.3,0.8-16.6,1.4-24.8h0.7c0.6,8.3,1,16.6,1.4,24.8c0.4,8.3,0.7,16.5,0.9,24.8c0.5,16.6,0.8,33.1,0.9,49.7
			c0.1,16.6-0.2,33.1-0.4,49.7c-0.1,8.3-0.2,16.6-0.5,24.8l-0.2,6.2l-0.2,6.2l-0.5,12.4c-0.3,8.3-0.6,16.5-0.7,24.8
			c-0.1,8.3-0.2,16.6,0,24.8c0.2,16.6,1.3,33.1,1.7,49.7c0.2,8.3,0.3,16.6,0.2,24.8c-0.1,8.3-0.2,16.6-0.4,24.8
			c-0.2,8.3-0.5,16.6-0.8,24.8c-0.4,8.3-0.8,16.5-1.5,24.8H138.4z"/>
		<path class="st3" d="M150.1,669.6c-0.7-8.4-1.1-16.8-1.5-25.2c-0.4-8.4-0.6-16.8-0.8-25.2s-0.3-16.8-0.4-25.2
			c-0.1-8.4,0-16.8,0.2-25.2c0.4-16.8,1.5-33.6,1.7-50.4c0.1-8.4,0.1-16.8,0-25.2c-0.1-8.4-0.4-16.8-0.7-25.2l-0.5-12.6l-0.2-6.3
			l-0.2-6.3c-0.3-8.4-0.4-16.8-0.5-25.2c-0.3-16.8-0.5-33.6-0.4-50.4c0.1-16.8,0.4-33.6,0.9-50.4c0.3-8.4,0.6-16.8,0.9-25.2
			c0.4-8.4,0.8-16.8,1.4-25.2h0.7c0.6,8.4,1,16.8,1.4,25.2c0.4,8.4,0.7,16.8,0.9,25.2c0.5,16.8,0.8,33.6,0.9,50.4
			c0.1,16.8-0.2,33.6-0.4,50.4c-0.1,8.4-0.2,16.8-0.5,25.2l-0.2,6.3l-0.2,6.3l-0.5,12.6c-0.3,8.4-0.6,16.8-0.7,25.2
			c-0.1,8.4-0.2,16.8,0,25.2c0.2,16.8,1.3,33.6,1.7,50.4c0.2,8.4,0.3,16.8,0.2,25.2c-0.1,8.4-0.2,16.8-0.4,25.2
			c-0.2,8.4-0.5,16.8-0.8,25.2c-0.4,8.4-0.8,16.8-1.5,25.2H150.1z"/>
		<path class="st3" d="M161.8,669.6c-0.7-8.5-1.1-17-1.5-25.6c-0.4-8.5-0.6-17-0.8-25.6c-0.2-8.5-0.3-17-0.4-25.6
			c-0.1-8.5,0-17,0.2-25.6c0.4-17,1.5-34.1,1.7-51.1c0.1-8.5,0.1-17,0-25.6c-0.1-8.5-0.4-17-0.7-25.6l-0.5-12.8l-0.2-6.4l-0.2-6.4
			c-0.3-8.5-0.4-17-0.5-25.6c-0.3-17-0.5-34.1-0.4-51.1c0.1-17,0.4-34.1,0.9-51.1c0.3-8.5,0.6-17,0.9-25.6c0.4-8.5,0.8-17,1.4-25.6
			h0.7c0.6,8.5,1,17,1.4,25.6c0.4,8.5,0.7,17,0.9,25.6c0.5,17,0.8,34.1,0.9,51.1c0.1,17-0.2,34.1-0.4,51.1c-0.1,8.5-0.2,17-0.5,25.6
			l-0.2,6.4l-0.2,6.4l-0.5,12.8c-0.3,8.5-0.6,17-0.7,25.6c-0.1,8.5-0.2,17,0,25.6c0.2,17,1.3,34.1,1.7,51.1c0.2,8.5,0.3,17,0.2,25.6
			c-0.1,8.5-0.2,17-0.4,25.6c-0.2,8.5-0.5,17-0.8,25.6c-0.4,8.5-0.8,17-1.5,25.6H161.8z"/>
		<path class="st3" d="M173.5,669.6c-0.7-8.7-1.1-17.4-1.5-26.1c-0.4-8.7-0.6-17.4-0.8-26.1c-0.2-8.7-0.3-17.4-0.4-26.1
			c-0.1-8.7,0-17.4,0.2-26.1c0.4-17.4,1.5-34.9,1.7-52.3c0.1-8.7,0.1-17.4,0-26.1c-0.1-8.7-0.4-17.4-0.7-26.1l-0.5-13.1l-0.2-6.5
			l-0.2-6.5c-0.3-8.7-0.4-17.4-0.5-26.1c-0.3-17.4-0.5-34.9-0.4-52.3c0.1-17.4,0.4-34.9,0.9-52.3c0.3-8.7,0.6-17.4,0.9-26.1
			c0.4-8.7,0.8-17.4,1.4-26.1h0.7c0.6,8.7,1,17.4,1.4,26.1c0.4,8.7,0.7,17.4,0.9,26.1c0.5,17.4,0.8,34.9,0.9,52.3
			c0.1,17.4-0.2,34.9-0.4,52.3c-0.1,8.7-0.2,17.4-0.5,26.1l-0.2,6.5l-0.2,6.5l-0.5,13.1c-0.3,8.7-0.6,17.4-0.7,26.1
			c-0.1,8.7-0.2,17.4,0,26.1c0.2,17.4,1.3,34.9,1.7,52.3c0.2,8.7,0.3,17.4,0.2,26.1c-0.1,8.7-0.2,17.4-0.4,26.1
			c-0.2,8.7-0.5,17.4-0.8,26.1c-0.4,8.7-0.8,17.4-1.5,26.1H173.5z"/>
		<path class="st3" d="M185.2,669.6c-0.7-8.9-1.1-17.8-1.5-26.7c-0.4-8.9-0.6-17.8-0.8-26.7s-0.3-17.8-0.4-26.7
			c-0.1-8.9,0-17.8,0.2-26.7c0.4-17.8,1.5-35.6,1.7-53.4c0.1-8.9,0.1-17.8,0-26.7c-0.1-8.9-0.4-17.8-0.7-26.7l-0.5-13.4l-0.2-6.7
			l-0.2-6.7c-0.3-8.9-0.4-17.8-0.5-26.7c-0.3-17.8-0.5-35.6-0.4-53.4c0.1-17.8,0.4-35.6,0.9-53.4c0.3-8.9,0.6-17.8,0.9-26.7
			c0.4-8.9,0.8-17.8,1.4-26.7h0.7c0.6,8.9,1,17.8,1.4,26.7c0.4,8.9,0.7,17.8,0.9,26.7c0.5,17.8,0.8,35.6,0.9,53.4
			c0.1,17.8-0.2,35.6-0.4,53.4c-0.1,8.9-0.2,17.8-0.5,26.7l-0.2,6.7l-0.2,6.7l-0.5,13.4c-0.3,8.9-0.6,17.8-0.7,26.7
			c-0.1,8.9-0.2,17.8-0.1,26.7c0.2,17.8,1.3,35.6,1.7,53.4c0.2,8.9,0.3,17.8,0.2,26.7c-0.1,8.9-0.2,17.8-0.4,26.7
			c-0.2,8.9-0.5,17.8-0.8,26.7c-0.4,8.9-0.8,17.8-1.5,26.7H185.2z"/>
		<path class="st3" d="M196.8,669.6c-0.7-9.1-1.1-18.3-1.5-27.4s-0.6-18.3-0.8-27.4c-0.2-9.1-0.3-18.3-0.4-27.4
			c-0.1-9.1,0-18.3,0.2-27.4c0.4-18.3,1.5-36.5,1.7-54.8c0.1-9.1,0.1-18.3-0.1-27.4c-0.1-9.1-0.4-18.3-0.7-27.4l-0.5-13.7l-0.2-6.8
			l-0.2-6.9c-0.3-9.1-0.4-18.3-0.5-27.4c-0.3-18.3-0.5-36.5-0.4-54.8c0.1-18.3,0.4-36.5,0.9-54.8c0.3-9.1,0.6-18.3,0.9-27.4
			c0.4-9.1,0.8-18.3,1.4-27.4h0.7c0.6,9.1,1,18.3,1.4,27.4c0.4,9.1,0.7,18.3,0.9,27.4c0.5,18.3,0.8,36.5,0.9,54.8
			c0.1,18.3-0.2,36.5-0.4,54.8c-0.1,9.1-0.2,18.3-0.5,27.4l-0.2,6.9l-0.2,6.8l-0.5,13.7c-0.3,9.1-0.6,18.3-0.7,27.4
			c-0.1,9.1-0.2,18.3,0,27.4c0.2,18.3,1.3,36.5,1.7,54.8c0.2,9.1,0.3,18.3,0.2,27.4c-0.1,9.1-0.2,18.3-0.4,27.4
			c-0.2,9.1-0.5,18.3-0.8,27.4c-0.4,9.1-0.8,18.3-1.5,27.4H196.8z"/>
		<path class="st3" d="M208.5,669.6c-0.7-9.4-1.1-18.8-1.5-28.2c-0.4-9.4-0.6-18.8-0.8-28.2c-0.2-9.4-0.3-18.8-0.4-28.2
			c-0.1-9.4,0-18.8,0.2-28.2c0.4-18.8,1.5-37.6,1.7-56.5c0.1-9.4,0.1-18.8,0-28.2c-0.1-9.4-0.4-18.8-0.7-28.2l-0.5-14.1l-0.2-7.1
			l-0.2-7.1c-0.3-9.4-0.4-18.8-0.5-28.2c-0.3-18.8-0.5-37.6-0.4-56.5c0.1-18.8,0.4-37.6,0.9-56.4c0.3-9.4,0.6-18.8,0.9-28.2
			c0.4-9.4,0.8-18.8,1.4-28.2h0.7c0.6,9.4,1,18.8,1.4,28.2c0.4,9.4,0.7,18.8,0.9,28.2c0.5,18.8,0.8,37.6,0.9,56.4
			c0.1,18.8-0.2,37.6-0.4,56.5c-0.1,9.4-0.2,18.8-0.5,28.2l-0.2,7.1l-0.2,7.1l-0.5,14.1c-0.3,9.4-0.6,18.8-0.7,28.2
			c-0.1,9.4-0.2,18.8-0.1,28.2c0.2,18.8,1.3,37.6,1.7,56.5c0.2,9.4,0.3,18.8,0.2,28.2c-0.1,9.4-0.2,18.8-0.4,28.2
			c-0.2,9.4-0.5,18.8-0.8,28.2c-0.4,9.4-0.8,18.8-1.5,28.2H208.5z"/>
		<path class="st3" d="M220.2,669.6c-0.7-9.8-1.1-19.5-1.5-29.3c-0.4-9.8-0.6-19.5-0.8-29.3c-0.2-9.8-0.3-19.5-0.4-29.3
			c-0.1-9.8,0-19.5,0.2-29.3c0.4-19.5,1.5-39.1,1.7-58.6c0.1-9.8,0.1-19.5,0-29.3s-0.4-19.5-0.7-29.3l-0.5-14.6l-0.2-7.3l-0.2-7.3
			c-0.3-9.8-0.3-19.5-0.5-29.3c-0.3-19.5-0.5-39.1-0.4-58.6c0.1-19.5,0.4-39.1,0.9-58.6c0.3-9.8,0.6-19.5,0.9-29.3
			c0.4-9.8,0.8-19.5,1.4-29.3h0.7c0.6,9.8,1,19.5,1.4,29.3c0.4,9.8,0.7,19.5,0.9,29.3c0.5,19.5,0.8,39.1,0.9,58.6
			c0.1,19.5-0.2,39.1-0.4,58.6c-0.1,9.8-0.2,19.5-0.5,29.3l-0.2,7.3l-0.2,7.3l-0.5,14.6c-0.3,9.8-0.6,19.5-0.7,29.3
			c-0.1,9.8-0.2,19.5-0.1,29.3c0.2,19.5,1.3,39.1,1.7,58.6c0.2,9.8,0.3,19.5,0.2,29.3c-0.1,9.8-0.2,19.5-0.4,29.3
			c-0.2,9.8-0.5,19.5-0.8,29.3c-0.4,9.8-0.8,19.5-1.5,29.3L220.2,669.6z"/>
		<path class="st3" d="M231.9,669.6c-0.7-10.1-1.1-20.1-1.5-30.2c-0.4-10.1-0.6-20.1-0.8-30.2c-0.2-10.1-0.3-20.1-0.4-30.2
			c-0.1-10.1,0-20.1,0.2-30.2c0.4-20.1,1.5-40.2,1.7-60.4c0.1-10.1,0.1-20.1,0-30.2c-0.1-10.1-0.4-20.1-0.7-30.2l-0.5-15.1l-0.2-7.5
			l-0.2-7.5c-0.3-10.1-0.3-20.1-0.5-30.2c-0.3-20.1-0.5-40.2-0.4-60.4c0.1-20.1,0.4-40.2,0.9-60.4c0.3-10.1,0.6-20.1,0.9-30.2
			c0.4-10.1,0.8-20.1,1.4-30.2h0.7c0.6,10.1,1,20.1,1.4,30.2c0.4,10.1,0.7,20.1,0.9,30.2c0.5,20.1,0.8,40.2,0.9,60.4
			c0.1,20.1-0.2,40.2-0.4,60.4c-0.1,10.1-0.2,20.1-0.5,30.2l-0.2,7.5l-0.2,7.5l-0.5,15.1c-0.3,10.1-0.6,20.1-0.7,30.2
			c-0.1,10.1-0.2,20.1,0,30.2c0.2,20.1,1.3,40.2,1.7,60.4c0.2,10.1,0.3,20.1,0.2,30.2c-0.1,10.1-0.2,20.1-0.4,30.2
			c-0.2,10.1-0.5,20.1-0.8,30.2c-0.4,10.1-0.8,20.1-1.5,30.2H231.9z"/>
		<path class="st3" d="M243.6,669.6c-0.7-10.3-1.1-20.6-1.5-30.9c-0.4-10.3-0.6-20.6-0.8-31c-0.2-10.3-0.3-20.6-0.4-30.9
			c-0.1-10.3,0-20.6,0.2-31c0.4-20.6,1.5-41.3,1.7-61.9c0.1-10.3,0.1-20.6,0-31c-0.1-10.3-0.4-20.6-0.7-31l-0.5-15.5l-0.2-7.7
			l-0.2-7.7c-0.3-10.3-0.3-20.6-0.5-31c-0.3-20.6-0.5-41.3-0.4-61.9s0.4-41.3,0.9-61.9c0.3-10.3,0.6-20.6,0.9-31
			c0.4-10.3,0.8-20.6,1.4-31h0.7c0.6,10.3,1,20.6,1.4,31s0.7,20.6,0.9,31c0.5,20.6,0.8,41.3,0.9,61.9c0.1,20.6-0.2,41.3-0.4,61.9
			c-0.1,10.3-0.2,20.6-0.5,31l-0.2,7.7l-0.2,7.7l-0.5,15.5c-0.3,10.3-0.6,20.6-0.7,31c-0.1,10.3-0.2,20.6,0,31
			c0.2,20.6,1.3,41.3,1.7,61.9c0.2,10.3,0.3,20.6,0.2,31c-0.1,10.3-0.2,20.6-0.4,30.9c-0.2,10.3-0.5,20.6-0.8,31
			c-0.4,10.3-0.8,20.6-1.5,30.9H243.6z"/>
		<path class="st3" d="M255.3,669.6c-0.7-10.3-1.1-20.7-1.5-31.1c-0.4-10.4-0.6-20.7-0.8-31.1c-0.2-10.4-0.3-20.7-0.4-31.1
			c-0.1-10.4,0-20.7,0.2-31.1c0.4-20.7,1.5-41.4,1.7-62.1c0.1-10.4,0.1-20.7,0-31.1c-0.1-10.4-0.4-20.7-0.7-31.1l-0.5-15.5l-0.2-7.8
			l-0.2-7.8c-0.3-10.4-0.3-20.7-0.5-31.1c-0.3-20.7-0.5-41.4-0.4-62.1c0.1-20.7,0.4-41.4,0.9-62.1c0.3-10.4,0.6-20.7,0.9-31.1
			c0.4-10.4,0.8-20.7,1.4-31.1h0.7c0.6,10.4,1,20.7,1.4,31.1c0.4,10.4,0.7,20.7,0.9,31.1c0.5,20.7,0.8,41.4,0.9,62.1
			c0.1,20.7-0.2,41.4-0.4,62.1c-0.1,10.4-0.2,20.7-0.5,31.1l-0.2,7.8l-0.2,7.8l-0.5,15.5c-0.3,10.4-0.6,20.7-0.7,31.1
			c-0.1,10.4-0.2,20.7,0,31.1c0.2,20.7,1.3,41.4,1.7,62.1c0.2,10.3,0.3,20.7,0.2,31.1c-0.1,10.4-0.2,20.7-0.4,31.1
			c-0.2,10.4-0.5,20.7-0.8,31.1c-0.4,10.4-0.8,20.7-1.5,31.1H255.3z"/>
		<path class="st3" d="M267,669.6c-0.7-10.3-1.1-20.6-1.5-30.9s-0.6-20.6-0.8-31c-0.2-10.3-0.3-20.6-0.4-30.9
			c-0.1-10.3,0-20.6,0.2-31c0.4-20.6,1.5-41.3,1.7-61.9c0.1-10.3,0.1-20.6,0-31c-0.1-10.3-0.4-20.6-0.7-31l-0.5-15.5l-0.2-7.7
			l-0.2-7.7c-0.3-10.3-0.4-20.6-0.5-31c-0.3-20.6-0.5-41.3-0.4-61.9c0.1-20.6,0.4-41.3,0.9-61.9c0.3-10.3,0.6-20.6,0.9-31
			c0.4-10.3,0.8-20.6,1.4-31h0.7c0.6,10.3,1,20.6,1.4,31c0.4,10.3,0.7,20.6,0.9,31c0.5,20.6,0.8,41.3,0.9,61.9
			c0.1,20.6-0.2,41.3-0.4,61.9c-0.1,10.3-0.2,20.6-0.5,31l-0.2,7.7l-0.2,7.7l-0.5,15.5c-0.3,10.3-0.6,20.6-0.7,31
			c-0.1,10.3-0.2,20.6,0,31c0.2,20.6,1.3,41.3,1.7,61.9c0.2,10.3,0.3,20.6,0.2,31c-0.1,10.3-0.2,20.6-0.4,30.9
			c-0.2,10.3-0.5,20.6-0.8,31c-0.4,10.3-0.8,20.6-1.5,30.9H267z"/>
		<path class="st3" d="M278.7,669.6c-0.7-10.1-1.1-20.2-1.5-30.3c-0.4-10.1-0.6-20.2-0.8-30.3s-0.3-20.2-0.4-30.3
			c-0.1-10.1,0-20.2,0.2-30.3c0.4-20.2,1.5-40.4,1.7-60.6c0.1-10.1,0.1-20.2,0-30.3c-0.1-10.1-0.4-20.2-0.7-30.3l-0.5-15.1l-0.2-7.6
			l-0.2-7.6c-0.3-10.1-0.4-20.2-0.5-30.3c-0.3-20.2-0.5-40.4-0.4-60.6c0.1-20.2,0.4-40.4,0.9-60.6c0.3-10.1,0.6-20.2,0.9-30.3
			c0.4-10.1,0.8-20.2,1.4-30.3h0.7c0.6,10.1,1,20.2,1.4,30.3c0.4,10.1,0.7,20.2,0.9,30.3c0.5,20.2,0.8,40.4,0.9,60.6
			c0.1,20.2-0.2,40.4-0.4,60.6c-0.1,10.1-0.2,20.2-0.5,30.3l-0.2,7.6l-0.2,7.6l-0.5,15.1c-0.3,10.1-0.6,20.2-0.7,30.3
			c-0.1,10.1-0.2,20.2,0,30.3c0.2,20.2,1.3,40.4,1.7,60.6c0.2,10.1,0.3,20.2,0.2,30.3c-0.1,10.1-0.2,20.2-0.4,30.3
			c-0.2,10.1-0.5,20.2-0.8,30.3c-0.4,10.1-0.8,20.2-1.5,30.3H278.7z"/>
		<path class="st3" d="M290.4,669.6c-0.7-9.8-1.1-19.6-1.5-29.4c-0.4-9.8-0.6-19.6-0.8-29.4s-0.3-19.6-0.4-29.4s0-19.6,0.2-29.4
			c0.4-19.6,1.5-39.2,1.7-58.9c0.1-9.8,0.1-19.6,0-29.4s-0.4-19.6-0.7-29.4l-0.5-14.7l-0.2-7.4l-0.2-7.4c-0.3-9.8-0.4-19.6-0.5-29.4
			c-0.3-19.6-0.5-39.2-0.4-58.9s0.4-39.2,0.9-58.9c0.3-9.8,0.6-19.6,0.9-29.4c0.4-9.8,0.8-19.6,1.4-29.4h0.7
			c0.6,9.8,1,19.6,1.4,29.4c0.4,9.8,0.7,19.6,0.9,29.4c0.5,19.6,0.8,39.2,0.9,58.9c0.1,19.6-0.2,39.2-0.4,58.9
			c-0.1,9.8-0.2,19.6-0.5,29.4l-0.2,7.4l-0.2,7.4l-0.5,14.7c-0.3,9.8-0.6,19.6-0.7,29.4c-0.1,9.8-0.2,19.6,0,29.4
			c0.2,19.6,1.3,39.2,1.7,58.9c0.2,9.8,0.3,19.6,0.2,29.4c-0.1,9.8-0.2,19.6-0.4,29.4c-0.2,9.8-0.5,19.6-0.8,29.4
			c-0.4,9.8-0.8,19.6-1.5,29.4H290.4z"/>
		<path class="st3" d="M302,669.6c-0.7-9.7-1.1-19.5-1.5-29.2c-0.4-9.7-0.6-19.5-0.8-29.2c-0.2-9.7-0.3-19.5-0.4-29.2
			c-0.1-9.7,0-19.5,0.2-29.2c0.4-19.5,1.5-38.9,1.7-58.4c0.1-9.7,0.1-19.5,0-29.2s-0.4-19.5-0.7-29.2l-0.5-14.6l-0.2-7.3l-0.2-7.3
			c-0.3-9.7-0.4-19.5-0.5-29.2c-0.3-19.5-0.5-38.9-0.4-58.4c0.1-19.5,0.4-38.9,0.9-58.4c0.3-9.7,0.6-19.5,0.9-29.2
			c0.4-9.7,0.8-19.5,1.4-29.2h0.7c0.6,9.7,1,19.5,1.4,29.2c0.4,9.7,0.7,19.5,0.9,29.2c0.5,19.5,0.8,38.9,0.9,58.4
			c0.1,19.5-0.2,38.9-0.4,58.4c-0.1,9.7-0.2,19.5-0.5,29.2l-0.2,7.3l-0.2,7.3l-0.5,14.6c-0.3,9.7-0.6,19.5-0.7,29.2
			c-0.1,9.7-0.2,19.5,0,29.2c0.2,19.5,1.3,38.9,1.7,58.4c0.2,9.7,0.3,19.5,0.2,29.2c-0.1,9.7-0.2,19.5-0.4,29.2s-0.5,19.5-0.8,29.2
			c-0.4,9.7-0.8,19.5-1.5,29.2H302z"/>
	</g>
</g>
</svg>
