<?xml version="1.0" encoding="utf-8"?>
<!-- Generator: Adobe Illustrator 27.1.1, SVG Export Plug-In . SVG Version: 6.00 Build 0)  -->
<svg version="1.1" id="Layer_1" xmlns="http://www.w3.org/2000/svg" xmlns:xlink="http://www.w3.org/1999/xlink" x="0px" y="0px"
	 viewBox="0 0 1186 949" style="enable-background:new 0 0 1186 949;" xml:space="preserve">
<style type="text/css">
	.st0{opacity:0.9;}
	.st1{fill:#FF4E42;}
	.st2{fill:#FFF67C;}
	.st3{fill:#A0DEE3;}
	.st4{stroke:#000000;stroke-width:0.5;stroke-miterlimit:10;}
</style>
<g class="st0">
	<path class="st1" d="M1114.7,407.3c14.6,0,26.4-11.8,26.4-26.4c0-14.6-11.8-26.4-26.4-26.4c-14.6,0-26.4,11.8-26.4,26.4
		C1088.3,395.5,1100.1,407.3,1114.7,407.3z"/>
	<path class="st1" d="M1114.7,441.8c14.1,0,25.5-11.4,25.5-25.5c0-14.1-11.4-25.5-25.5-25.5c-14.1,0-25.5,11.4-25.5,25.5
		C1089.2,430.4,1100.6,441.8,1114.7,441.8z"/>
	<path class="st1" d="M1114.7,476.3c13.5,0,24.5-11,24.5-24.5c0-13.5-11-24.5-24.5-24.5c-13.5,0-24.5,11-24.5,24.5
		C1090.2,465.3,1101.2,476.3,1114.7,476.3z"/>
	<path class="st1" d="M1114.7,510.8c13,0,23.6-10.6,23.6-23.6s-10.6-23.6-23.6-23.6c-13,0-23.6,10.6-23.6,23.6
		S1101.7,510.8,1114.7,510.8z"/>
	<path class="st1" d="M1114.7,545.3c12.5,0,22.7-10.2,22.7-22.7s-10.2-22.7-22.7-22.7c-12.5,0-22.7,10.2-22.7,22.7
		S1102.2,545.3,1114.7,545.3z"/>
	<path class="st1" d="M1114.7,579.9c12,0,21.8-9.8,21.8-21.8s-9.8-21.8-21.8-21.8c-12,0-21.8,9.8-21.8,21.8
		S1102.7,579.9,1114.7,579.9z"/>
	<path class="st1" d="M1114.7,614.4c11.5,0,20.9-9.4,20.9-20.9c0-11.5-9.4-20.9-20.9-20.9c-11.5,0-20.9,9.4-20.9,20.9
		C1093.8,605.1,1103.2,614.4,1114.7,614.4z"/>
	<path class="st1" d="M1114.7,648.9c11,0,20-9,20-20c0-11-9-20-20-20c-11,0-20,9-20,20C1094.7,640,1103.7,648.9,1114.7,648.9z"/>
	<path class="st1" d="M1114.7,683.5c10.6,0,19.1-8.6,19.1-19.1s-8.6-19.1-19.1-19.1c-10.5,0-19.1,8.6-19.1,19.1
		S1104.2,683.5,1114.7,683.5z"/>
	<path class="st1" d="M1114.7,718c10.1,0,18.2-8.1,18.2-18.2s-8.2-18.2-18.2-18.2c-10,0-18.2,8.1-18.2,18.2S1104.7,718,1114.7,718z"
		/>
	<path class="st1" d="M1114.7,752.5c9.6,0,17.3-7.7,17.3-17.3c0-9.6-7.8-17.3-17.3-17.3c-9.6,0-17.3,7.7-17.3,17.3
		C1097.4,744.8,1105.1,752.5,1114.7,752.5z"/>
	<path class="st1" d="M1114.7,787.1c9.1,0,16.4-7.3,16.4-16.4c0-9.1-7.3-16.4-16.4-16.4c-9.1,0-16.4,7.3-16.4,16.4
		C1098.3,779.8,1105.6,787.1,1114.7,787.1z"/>
	<path class="st1" d="M1114.7,821.6c8.6,0,15.5-6.9,15.5-15.5s-6.9-15.5-15.5-15.5c-8.6,0-15.5,6.9-15.5,15.5
		S1106.1,821.6,1114.7,821.6z"/>
	<path class="st1" d="M1114.7,856.1c8.1,0,14.6-6.5,14.6-14.6c0-8.1-6.5-14.6-14.6-14.6c-8.1,0-14.6,6.5-14.6,14.6
		C1100.1,849.6,1106.6,856.1,1114.7,856.1z"/>
	<path class="st1" d="M1114.7,890.7c7.6,0,13.7-6.1,13.7-13.7c0-7.6-6.1-13.7-13.7-13.7c-7.6,0-13.7,6.1-13.7,13.7
		C1101,884.6,1107.1,890.7,1114.7,890.7z"/>
	<path class="st1" d="M1114.7,925.2c7.1,0,12.8-5.7,12.8-12.8c0-7.1-5.7-12.8-12.8-12.8c-7.1,0-12.8,5.7-12.8,12.8
		C1101.9,919.5,1107.6,925.2,1114.7,925.2z"/>
</g>
<g class="st0">
	<path class="st1" d="M1043.9,372.8c15.1,0,27.3-12.2,27.3-27.3s-12.2-27.3-27.3-27.3c-15.1,0-27.3,12.2-27.3,27.3
		S1028.8,372.8,1043.9,372.8z"/>
	<path class="st1" d="M1043.9,407.3c14.6,0,26.4-11.8,26.4-26.4c0-14.6-11.8-26.4-26.4-26.4c-14.6,0-26.4,11.8-26.4,26.4
		C1017.5,395.5,1029.3,407.3,1043.9,407.3z"/>
	<path class="st1" d="M1043.9,441.8c14.1,0,25.5-11.4,25.5-25.5c0-14.1-11.4-25.5-25.5-25.5c-14.1,0-25.5,11.4-25.5,25.5
		C1018.4,430.4,1029.8,441.8,1043.9,441.8z"/>
	<path class="st1" d="M1043.9,476.3c13.5,0,24.5-11,24.5-24.5c0-13.5-11-24.5-24.5-24.5s-24.5,11-24.5,24.5
		C1019.4,465.3,1030.4,476.3,1043.9,476.3z"/>
	<path class="st1" d="M1043.9,510.8c13,0,23.6-10.6,23.6-23.6s-10.6-23.6-23.6-23.6s-23.6,10.6-23.6,23.6S1030.9,510.8,1043.9,510.8
		z"/>
	<path class="st1" d="M1043.9,545.3c12.5,0,22.7-10.2,22.7-22.7s-10.2-22.7-22.7-22.7c-12.5,0-22.7,10.2-22.7,22.7
		S1031.4,545.3,1043.9,545.3z"/>
	<path class="st1" d="M1043.9,579.9c12,0,21.8-9.8,21.8-21.8s-9.8-21.8-21.8-21.8c-12,0-21.8,9.8-21.8,21.8
		S1031.9,579.9,1043.9,579.9z"/>
	<path class="st1" d="M1043.9,614.4c11.5,0,20.9-9.4,20.9-20.9c0-11.5-9.4-20.9-20.9-20.9c-11.5,0-20.9,9.4-20.9,20.9
		C1023,605.1,1032.4,614.4,1043.9,614.4z"/>
	<path class="st1" d="M1043.9,648.9c11,0,20-9,20-20c0-11-9-20-20-20c-11.1,0-20,9-20,20C1023.9,640,1032.8,648.9,1043.9,648.9z"/>
	<path class="st1" d="M1043.9,683.5c10.5,0,19.1-8.6,19.1-19.1s-8.6-19.1-19.1-19.1c-10.6,0-19.1,8.6-19.1,19.1
		S1033.3,683.5,1043.9,683.5z"/>
	<path class="st1" d="M1043.9,718c10,0,18.2-8.1,18.2-18.2s-8.2-18.2-18.2-18.2c-10.1,0-18.2,8.1-18.2,18.2S1033.8,718,1043.9,718z"
		/>
	<path class="st1" d="M1043.9,752.5c9.5,0,17.3-7.7,17.3-17.3c0-9.6-7.8-17.3-17.3-17.3c-9.6,0-17.3,7.7-17.3,17.3
		C1026.6,744.8,1034.3,752.5,1043.9,752.5z"/>
	<path class="st1" d="M1043.9,787.1c9.1,0,16.4-7.3,16.4-16.4c0-9.1-7.3-16.4-16.4-16.4c-9.1,0-16.4,7.3-16.4,16.4
		C1027.5,779.8,1034.8,787.1,1043.9,787.1z"/>
	<path class="st1" d="M1043.9,821.6c8.6,0,15.5-6.9,15.5-15.5s-6.9-15.5-15.5-15.5c-8.6,0-15.5,6.9-15.5,15.5
		S1035.3,821.6,1043.9,821.6z"/>
	<path class="st1" d="M1043.9,856.1c8.1,0,14.6-6.5,14.6-14.6c0-8.1-6.5-14.6-14.6-14.6c-8.1,0-14.6,6.5-14.6,14.6
		C1029.3,849.6,1035.8,856.1,1043.9,856.1z"/>
	<path class="st1" d="M1043.9,890.7c7.6,0,13.7-6.1,13.7-13.7c0-7.6-6.1-13.7-13.7-13.7c-7.6,0-13.7,6.1-13.7,13.7
		C1030.2,884.6,1036.3,890.7,1043.9,890.7z"/>
	<path class="st1" d="M1043.9,925.2c7.1,0,12.8-5.7,12.8-12.8c0-7.1-5.7-12.8-12.8-12.8c-7.1,0-12.8,5.7-12.8,12.8
		C1031.1,919.5,1036.8,925.2,1043.9,925.2z"/>
</g>
<g class="st0">
	<path class="st1" d="M973,338.2c15.6,0,28.2-12.6,28.2-28.2s-12.6-28.2-28.2-28.2c-15.6,0-28.2,12.6-28.2,28.2
		S957.4,338.2,973,338.2z"/>
	<path class="st1" d="M973,372.8c15.1,0,27.3-12.2,27.3-27.3s-12.2-27.3-27.3-27.3c-15.1,0-27.3,12.2-27.3,27.3
		S957.9,372.8,973,372.8z"/>
	<path class="st1" d="M973,407.3c14.6,0,26.4-11.8,26.4-26.4c0-14.6-11.8-26.4-26.4-26.4c-14.6,0-26.4,11.8-26.4,26.4
		C946.6,395.5,958.4,407.3,973,407.3z"/>
	<path class="st1" d="M973,441.8c14.1,0,25.5-11.4,25.5-25.5c0-14.1-11.4-25.5-25.5-25.5s-25.5,11.4-25.5,25.5
		C947.5,430.4,958.9,441.8,973,441.8z"/>
	<path class="st1" d="M973,476.3c13.5,0,24.5-11,24.5-24.5c0-13.5-11-24.5-24.5-24.5s-24.5,11-24.5,24.5
		C948.5,465.3,959.5,476.3,973,476.3z"/>
	<path class="st1" d="M973,510.8c13,0,23.6-10.6,23.6-23.6S986,463.6,973,463.6s-23.6,10.6-23.6,23.6S960,510.8,973,510.8z"/>
	<path class="st1" d="M973,545.3c12.5,0,22.7-10.2,22.7-22.7s-10.2-22.7-22.7-22.7s-22.7,10.2-22.7,22.7S960.5,545.3,973,545.3z"/>
	<path class="st1" d="M973,579.9c12,0,21.8-9.8,21.8-21.8s-9.8-21.8-21.8-21.8s-21.8,9.8-21.8,21.8S961,579.9,973,579.9z"/>
	<path class="st1" d="M973,614.4c11.5,0,20.9-9.4,20.9-20.9c0-11.5-9.4-20.9-20.9-20.9c-11.5,0-20.9,9.4-20.9,20.9
		C952.1,605.1,961.5,614.4,973,614.4z"/>
	<path class="st1" d="M973,648.9c11,0,20-9,20-20c0-11-9-20-20-20s-20,9-20,20C953,640,962,648.9,973,648.9z"/>
	<path class="st1" d="M973,683.5c10.5,0,19.1-8.6,19.1-19.1s-8.6-19.1-19.1-19.1c-10.5,0-19.1,8.6-19.1,19.1S962.5,683.5,973,683.5z
		"/>
	<path class="st1" d="M973,718c10.1,0,18.2-8.1,18.2-18.2s-8.1-18.2-18.2-18.2c-10.1,0-18.2,8.1-18.2,18.2S962.9,718,973,718z"/>
	<path class="st1" d="M973,752.5c9.6,0,17.3-7.7,17.3-17.3c0-9.6-7.7-17.3-17.3-17.3c-9.6,0-17.3,7.7-17.3,17.3
		C955.7,744.8,963.4,752.5,973,752.5z"/>
	<path class="st1" d="M973,787.1c9.1,0,16.4-7.3,16.4-16.4c0-9.1-7.3-16.4-16.4-16.4c-9.1,0-16.4,7.3-16.4,16.4
		C956.6,779.8,963.9,787.1,973,787.1z"/>
	<path class="st1" d="M973,821.6c8.6,0,15.5-6.9,15.5-15.5s-6.9-15.5-15.5-15.5s-15.5,6.9-15.5,15.5S964.4,821.6,973,821.6z"/>
	<path class="st1" d="M973,856.1c8.1,0,14.6-6.5,14.6-14.6c0-8.1-6.5-14.6-14.6-14.6c-8.1,0-14.6,6.5-14.6,14.6
		C958.4,849.6,964.9,856.1,973,856.1z"/>
	<path class="st1" d="M973,890.7c7.6,0,13.7-6.1,13.7-13.7c0-7.6-6.1-13.7-13.7-13.7s-13.7,6.1-13.7,13.7
		C959.3,884.6,965.4,890.7,973,890.7z"/>
	<path class="st1" d="M973,925.2c7.1,0,12.8-5.7,12.8-12.8c0-7.1-5.7-12.8-12.8-12.8s-12.8,5.7-12.8,12.8
		C960.2,919.5,965.9,925.2,973,925.2z"/>
</g>
<g class="st0">
	<path class="st1" d="M902.1,269.2c16.6,0,30-13.4,30-30s-13.4-30-30-30c-16.6,0-30,13.4-30,30S885.5,269.2,902.1,269.2z"/>
	<path class="st1" d="M902.1,303.7c16.1,0,29.1-13,29.1-29.1c0-16.1-13-29.1-29.1-29.1c-16.1,0-29.1,13-29.1,29.1
		C873,290.7,886,303.7,902.1,303.7z"/>
	<path class="st1" d="M902.1,338.2c15.6,0,28.2-12.6,28.2-28.2s-12.6-28.2-28.2-28.2c-15.6,0-28.2,12.6-28.2,28.2
		S886.5,338.2,902.1,338.2z"/>
	<path class="st1" d="M902.1,372.8c15.1,0,27.3-12.2,27.3-27.3s-12.2-27.3-27.3-27.3c-15.1,0-27.3,12.2-27.3,27.3
		S887,372.8,902.1,372.8z"/>
	<path class="st1" d="M902.1,407.3c14.6,0,26.4-11.8,26.4-26.4c0-14.6-11.8-26.4-26.4-26.4c-14.6,0-26.4,11.8-26.4,26.4
		C875.7,395.5,887.5,407.3,902.1,407.3z"/>
	<path class="st1" d="M902.1,441.8c14.1,0,25.5-11.4,25.5-25.5c0-14.1-11.4-25.5-25.5-25.5c-14.1,0-25.5,11.4-25.5,25.5
		C876.6,430.4,888,441.8,902.1,441.8z"/>
	<path class="st1" d="M902.1,476.3c13.5,0,24.5-11,24.5-24.5c0-13.5-11-24.5-24.5-24.5s-24.5,11-24.5,24.5
		C877.6,465.3,888.6,476.3,902.1,476.3z"/>
	<path class="st1" d="M902.1,510.8c13,0,23.6-10.6,23.6-23.6s-10.6-23.6-23.6-23.6s-23.6,10.6-23.6,23.6S889.1,510.8,902.1,510.8z"
		/>
	<path class="st1" d="M902.1,545.3c12.5,0,22.7-10.2,22.7-22.7s-10.2-22.7-22.7-22.7c-12.5,0-22.7,10.2-22.7,22.7
		S889.6,545.3,902.1,545.3z"/>
	<path class="st1" d="M902.1,579.9c12,0,21.8-9.8,21.8-21.8s-9.8-21.8-21.8-21.8c-12,0-21.8,9.8-21.8,21.8S890.1,579.9,902.1,579.9z
		"/>
	<path class="st1" d="M902.1,614.4c11.5,0,20.9-9.4,20.9-20.9c0-11.5-9.4-20.9-20.9-20.9c-11.5,0-20.9,9.4-20.9,20.9
		C881.2,605.1,890.6,614.4,902.1,614.4z"/>
	<path class="st1" d="M902.1,648.9c11,0,20-9,20-20c0-11-9-20-20-20c-11,0-20,9-20,20C882.1,640,891.1,648.9,902.1,648.9z"/>
	<path class="st1" d="M902.1,683.5c10.5,0,19.1-8.6,19.1-19.1s-8.6-19.1-19.1-19.1c-10.5,0-19.1,8.6-19.1,19.1
		S891.6,683.5,902.1,683.5z"/>
	<path class="st1" d="M902.1,718c10.1,0,18.2-8.1,18.2-18.2s-8.1-18.2-18.2-18.2c-10.1,0-18.2,8.1-18.2,18.2S892,718,902.1,718z"/>
	<path class="st1" d="M902.1,752.5c9.6,0,17.3-7.7,17.3-17.3c0-9.6-7.7-17.3-17.3-17.3c-9.6,0-17.3,7.7-17.3,17.3
		C884.8,744.8,892.5,752.5,902.1,752.5z"/>
	<path class="st1" d="M902.1,787.1c9.1,0,16.4-7.3,16.4-16.4c0-9.1-7.3-16.4-16.4-16.4c-9.1,0-16.4,7.3-16.4,16.4
		C885.7,779.8,893,787.1,902.1,787.1z"/>
	<path class="st1" d="M902.1,821.6c8.6,0,15.5-6.9,15.5-15.5s-6.9-15.5-15.5-15.5c-8.6,0-15.5,6.9-15.5,15.5
		S893.5,821.6,902.1,821.6z"/>
	<path class="st1" d="M902.1,856.1c8.1,0,14.6-6.5,14.6-14.6c0-8.1-6.5-14.6-14.6-14.6c-8.1,0-14.6,6.5-14.6,14.6
		C887.5,849.6,894,856.1,902.1,856.1z"/>
	<path class="st1" d="M902.1,890.7c7.6,0,13.7-6.1,13.7-13.7c0-7.6-6.1-13.7-13.7-13.7c-7.6,0-13.7,6.1-13.7,13.7
		C888.4,884.6,894.5,890.7,902.1,890.7z"/>
	<path class="st1" d="M902.1,925.2c7.1,0,12.8-5.7,12.8-12.8c0-7.1-5.7-12.8-12.8-12.8c-7.1,0-12.8,5.7-12.8,12.8
		C889.3,919.5,895,925.2,902.1,925.2z"/>
</g>
<g class="st0">
	<path class="st1" d="M831.3,200.1c17.6,0,31.8-14.2,31.8-31.8s-14.2-31.8-31.8-31.8s-31.8,14.2-31.8,31.8S813.7,200.1,831.3,200.1z
		"/>
	<path class="st1" d="M831.3,234.6c17.1,0,30.9-13.8,30.9-30.9c0-17.1-13.8-30.9-30.9-30.9c-17.1,0-30.9,13.8-30.9,30.9
		C800.4,220.8,814.2,234.6,831.3,234.6z"/>
	<path class="st1" d="M831.3,269.2c16.6,0,30-13.4,30-30s-13.4-30-30-30c-16.6,0-30,13.4-30,30S814.7,269.2,831.3,269.2z"/>
	<path class="st1" d="M831.3,303.7c16.1,0,29.1-13,29.1-29.1c0-16.1-13-29.1-29.1-29.1c-16.1,0-29.1,13-29.1,29.1
		C802.2,290.7,815.2,303.7,831.3,303.7z"/>
	<path class="st1" d="M831.3,338.2c15.6,0,28.2-12.6,28.2-28.2s-12.6-28.2-28.2-28.2c-15.6,0-28.2,12.6-28.2,28.2
		S815.7,338.2,831.3,338.2z"/>
	<path class="st1" d="M831.3,372.8c15.1,0,27.3-12.2,27.3-27.3s-12.2-27.3-27.3-27.3c-15.1,0-27.3,12.2-27.3,27.3
		S816.2,372.8,831.3,372.8z"/>
	<path class="st1" d="M831.3,407.3c14.6,0,26.4-11.8,26.4-26.4c0-14.6-11.8-26.4-26.4-26.4c-14.6,0-26.4,11.8-26.4,26.4
		C804.9,395.5,816.7,407.3,831.3,407.3z"/>
	<path class="st1" d="M831.3,441.8c14.1,0,25.5-11.4,25.5-25.5c0-14.1-11.4-25.5-25.5-25.5s-25.5,11.4-25.5,25.5
		C805.8,430.4,817.2,441.8,831.3,441.8z"/>
	<path class="st1" d="M831.3,476.3c13.5,0,24.5-11,24.5-24.5c0-13.5-11-24.5-24.5-24.5s-24.5,11-24.5,24.5
		C806.8,465.3,817.8,476.3,831.3,476.3z"/>
	<path class="st1" d="M831.3,510.8c13,0,23.6-10.6,23.6-23.6s-10.6-23.6-23.6-23.6s-23.6,10.6-23.6,23.6S818.3,510.8,831.3,510.8z"
		/>
	<path class="st1" d="M831.3,545.3c12.5,0,22.7-10.2,22.7-22.7s-10.2-22.7-22.7-22.7c-12.5,0-22.7,10.2-22.7,22.7
		S818.8,545.3,831.3,545.3z"/>
	<path class="st1" d="M831.3,579.9c12,0,21.8-9.8,21.8-21.8s-9.8-21.8-21.8-21.8c-12,0-21.8,9.8-21.8,21.8S819.3,579.9,831.3,579.9z
		"/>
	<path class="st1" d="M831.3,614.4c11.5,0,20.9-9.4,20.9-20.9c0-11.5-9.4-20.9-20.9-20.9c-11.5,0-20.9,9.4-20.9,20.9
		C810.4,605.1,819.8,614.4,831.3,614.4z"/>
	<path class="st1" d="M831.3,648.9c11,0,20-9,20-20c0-11-9-20-20-20c-11,0-20,9-20,20C811.3,640,820.3,648.9,831.3,648.9z"/>
	<path class="st1" d="M831.3,683.5c10.5,0,19.1-8.6,19.1-19.1s-8.6-19.1-19.1-19.1c-10.5,0-19.1,8.6-19.1,19.1
		S820.8,683.5,831.3,683.5z"/>
	<path class="st1" d="M831.3,718c10.1,0,18.2-8.1,18.2-18.2s-8.1-18.2-18.2-18.2c-10.1,0-18.2,8.1-18.2,18.2S821.2,718,831.3,718z"
		/>
	<path class="st1" d="M831.3,752.5c9.6,0,17.3-7.7,17.3-17.3c0-9.6-7.7-17.3-17.3-17.3s-17.3,7.7-17.3,17.3
		C814,744.8,821.7,752.5,831.3,752.5z"/>
	<path class="st1" d="M831.3,787.1c9.1,0,16.4-7.3,16.4-16.4c0-9.1-7.3-16.4-16.4-16.4c-9.1,0-16.4,7.3-16.4,16.4
		C814.9,779.8,822.2,787.1,831.3,787.1z"/>
	<path class="st1" d="M831.3,821.6c8.6,0,15.5-6.9,15.5-15.5s-6.9-15.5-15.5-15.5c-8.6,0-15.5,6.9-15.5,15.5
		S822.7,821.6,831.3,821.6z"/>
	<path class="st1" d="M831.3,856.1c8.1,0,14.6-6.5,14.6-14.6c0-8.1-6.5-14.6-14.6-14.6c-8.1,0-14.6,6.5-14.6,14.6
		C816.7,849.6,823.2,856.1,831.3,856.1z"/>
	<path class="st1" d="M831.3,890.7c7.6,0,13.7-6.1,13.7-13.7c0-7.6-6.1-13.7-13.7-13.7c-7.6,0-13.7,6.1-13.7,13.7
		C817.6,884.6,823.7,890.7,831.3,890.7z"/>
	<path class="st1" d="M831.3,925.2c7.1,0,12.8-5.7,12.8-12.8c0-7.1-5.7-12.8-12.8-12.8c-7.1,0-12.8,5.7-12.8,12.8
		C818.5,919.5,824.2,925.2,831.3,925.2z"/>
</g>
<g class="st0">
	<path class="st1" d="M760.4,165.6c18.1,0,32.7-14.6,32.7-32.7s-14.6-32.7-32.7-32.7s-32.7,14.6-32.7,32.7S742.3,165.6,760.4,165.6z
		"/>
	<path class="st1" d="M760.4,200.1c17.6,0,31.8-14.2,31.8-31.8s-14.2-31.8-31.8-31.8c-17.6,0-31.8,14.2-31.8,31.8
		S742.8,200.1,760.4,200.1z"/>
	<path class="st1" d="M760.4,234.6c17.1,0,30.9-13.8,30.9-30.9c0-17.1-13.8-30.9-30.9-30.9c-17.1,0-30.9,13.8-30.9,30.9
		C729.5,220.8,743.3,234.6,760.4,234.6z"/>
	<path class="st1" d="M760.4,269.2c16.6,0,30-13.4,30-30s-13.4-30-30-30c-16.6,0-30,13.4-30,30S743.8,269.2,760.4,269.2z"/>
	<path class="st1" d="M760.4,303.7c16.1,0,29.1-13,29.1-29.1c0-16.1-13-29.1-29.1-29.1c-16.1,0-29.1,13-29.1,29.1
		C731.3,290.7,744.3,303.7,760.4,303.7z"/>
	<path class="st1" d="M760.4,338.2c15.6,0,28.2-12.6,28.2-28.2s-12.6-28.2-28.2-28.2c-15.6,0-28.2,12.6-28.2,28.2
		S744.8,338.2,760.4,338.2z"/>
	<path class="st1" d="M760.4,372.8c15.1,0,27.3-12.2,27.3-27.3s-12.2-27.3-27.3-27.3c-15.1,0-27.3,12.2-27.3,27.3
		S745.3,372.8,760.4,372.8z"/>
	<path class="st1" d="M760.4,407.3c14.6,0,26.4-11.8,26.4-26.4c0-14.6-11.8-26.4-26.4-26.4c-14.6,0-26.4,11.8-26.4,26.4
		C734,395.5,745.8,407.3,760.4,407.3z"/>
	<path class="st1" d="M760.4,441.8c14.1,0,25.5-11.4,25.5-25.5c0-14.1-11.4-25.5-25.5-25.5c-14.1,0-25.5,11.4-25.5,25.5
		C734.9,430.4,746.3,441.8,760.4,441.8z"/>
	<path class="st1" d="M760.4,476.3c13.5,0,24.5-11,24.5-24.5c0-13.5-11-24.5-24.5-24.5s-24.5,11-24.5,24.5
		C735.9,465.3,746.9,476.3,760.4,476.3z"/>
	<path class="st1" d="M760.4,510.8c13,0,23.6-10.6,23.6-23.6s-10.6-23.6-23.6-23.6s-23.6,10.6-23.6,23.6S747.4,510.8,760.4,510.8z"
		/>
	<path class="st1" d="M760.4,545.3c12.5,0,22.7-10.2,22.7-22.7s-10.2-22.7-22.7-22.7c-12.5,0-22.7,10.2-22.7,22.7
		S747.9,545.3,760.4,545.3z"/>
	<path class="st1" d="M760.4,579.9c12,0,21.8-9.8,21.8-21.8s-9.8-21.8-21.8-21.8c-12,0-21.8,9.8-21.8,21.8S748.4,579.9,760.4,579.9z
		"/>
	<path class="st1" d="M760.4,614.4c11.5,0,20.9-9.4,20.9-20.9c0-11.5-9.4-20.9-20.9-20.9c-11.5,0-20.9,9.4-20.9,20.9
		C739.5,605.1,748.9,614.4,760.4,614.4z"/>
	<path class="st1" d="M760.4,648.9c11,0,20-9,20-20c0-11-9-20-20-20c-11,0-20,9-20,20C740.4,640,749.4,648.9,760.4,648.9z"/>
	<path class="st1" d="M760.4,683.5c10.5,0,19.1-8.6,19.1-19.1s-8.6-19.1-19.1-19.1c-10.5,0-19.1,8.6-19.1,19.1
		S749.9,683.5,760.4,683.5z"/>
	<path class="st1" d="M760.4,718c10.1,0,18.2-8.1,18.2-18.2s-8.1-18.2-18.2-18.2c-10.1,0-18.2,8.1-18.2,18.2S750.3,718,760.4,718z"
		/>
	<path class="st1" d="M760.4,752.5c9.6,0,17.3-7.7,17.3-17.3c0-9.6-7.7-17.3-17.3-17.3c-9.6,0-17.3,7.7-17.3,17.3
		C743.1,744.8,750.8,752.5,760.4,752.5z"/>
	<path class="st1" d="M760.4,787.1c9.1,0,16.4-7.3,16.4-16.4c0-9.1-7.3-16.4-16.4-16.4c-9.1,0-16.4,7.3-16.4,16.4
		C744,779.8,751.3,787.1,760.4,787.1z"/>
	<path class="st1" d="M760.4,821.6c8.6,0,15.5-6.9,15.5-15.5s-6.9-15.5-15.5-15.5c-8.6,0-15.5,6.9-15.5,15.5
		S751.8,821.6,760.4,821.6z"/>
	<path class="st1" d="M760.4,856.1c8.1,0,14.6-6.5,14.6-14.6c0-8.1-6.5-14.6-14.6-14.6c-8.1,0-14.6,6.5-14.6,14.6
		C745.8,849.6,752.3,856.1,760.4,856.1z"/>
	<path class="st1" d="M760.4,890.7c7.6,0,13.7-6.1,13.7-13.7c0-7.6-6.1-13.7-13.7-13.7c-7.6,0-13.7,6.1-13.7,13.7
		C746.7,884.6,752.8,890.7,760.4,890.7z"/>
	<path class="st1" d="M760.4,925.2c7.1,0,12.8-5.7,12.8-12.8c0-7.1-5.7-12.8-12.8-12.8c-7.1,0-12.8,5.7-12.8,12.8
		C747.6,919.5,753.3,925.2,760.4,925.2z"/>
</g>
<g class="st0">
	<path class="st1" d="M689.5,131c18.6,0,33.6-15,33.6-33.6s-15-33.6-33.6-33.6c-18.6,0-33.6,15-33.6,33.6S670.9,131,689.5,131z"/>
	<path class="st1" d="M689.5,165.6c18.1,0,32.7-14.6,32.7-32.7s-14.6-32.7-32.7-32.7s-32.7,14.6-32.7,32.7S671.4,165.6,689.5,165.6z
		"/>
	<path class="st1" d="M689.5,200.1c17.6,0,31.8-14.2,31.8-31.8s-14.2-31.8-31.8-31.8c-17.6,0-31.8,14.2-31.8,31.8
		S671.9,200.1,689.5,200.1z"/>
	<path class="st1" d="M689.5,234.6c17.1,0,30.9-13.8,30.9-30.9c0-17.1-13.8-30.9-30.9-30.9c-17.1,0-30.9,13.8-30.9,30.9
		C658.6,220.8,672.4,234.6,689.5,234.6z"/>
	<path class="st1" d="M689.5,269.2c16.6,0,30-13.4,30-30s-13.4-30-30-30c-16.6,0-30,13.4-30,30S672.9,269.2,689.5,269.2z"/>
	<path class="st1" d="M689.5,303.7c16.1,0,29.1-13,29.1-29.1c0-16.1-13-29.1-29.1-29.1c-16.1,0-29.1,13-29.1,29.1
		C660.4,290.7,673.4,303.7,689.5,303.7z"/>
	<path class="st1" d="M689.5,338.2c15.6,0,28.2-12.6,28.2-28.2s-12.6-28.2-28.2-28.2c-15.6,0-28.2,12.6-28.2,28.2
		S673.9,338.2,689.5,338.2z"/>
	<path class="st1" d="M689.5,372.8c15.1,0,27.3-12.2,27.3-27.3s-12.2-27.3-27.3-27.3c-15.1,0-27.3,12.2-27.3,27.3
		S674.4,372.8,689.5,372.8z"/>
	<path class="st1" d="M689.5,407.3c14.6,0,26.4-11.8,26.4-26.4c0-14.6-11.8-26.4-26.4-26.4c-14.6,0-26.4,11.8-26.4,26.4
		C663.1,395.5,674.9,407.3,689.5,407.3z"/>
	<path class="st1" d="M689.5,441.8c14.1,0,25.5-11.4,25.5-25.5c0-14.1-11.4-25.5-25.5-25.5c-14.1,0-25.5,11.4-25.5,25.5
		C664,430.4,675.4,441.8,689.5,441.8z"/>
	<path class="st1" d="M689.5,476.3c13.5,0,24.5-11,24.5-24.5c0-13.5-11-24.5-24.5-24.5s-24.5,11-24.5,24.5
		C665,465.3,676,476.3,689.5,476.3z"/>
	<path class="st1" d="M689.5,510.8c13,0,23.6-10.6,23.6-23.6s-10.6-23.6-23.6-23.6s-23.6,10.6-23.6,23.6S676.5,510.8,689.5,510.8z"
		/>
	<path class="st1" d="M689.5,545.3c12.5,0,22.7-10.2,22.7-22.7s-10.2-22.7-22.7-22.7s-22.7,10.2-22.7,22.7S677,545.3,689.5,545.3z"
		/>
	<path class="st1" d="M689.5,579.9c12,0,21.8-9.8,21.8-21.8s-9.8-21.8-21.8-21.8c-12,0-21.8,9.8-21.8,21.8S677.5,579.9,689.5,579.9z
		"/>
	<path class="st1" d="M689.5,614.4c11.5,0,20.9-9.4,20.9-20.9c0-11.5-9.4-20.9-20.9-20.9c-11.5,0-20.9,9.4-20.9,20.9
		C668.6,605.1,678,614.4,689.5,614.4z"/>
	<path class="st1" d="M689.5,648.9c11,0,20-9,20-20c0-11-9-20-20-20c-11,0-20,9-20,20C669.5,640,678.5,648.9,689.5,648.9z"/>
	<path class="st1" d="M689.5,683.5c10.5,0,19.1-8.6,19.1-19.1s-8.6-19.1-19.1-19.1c-10.5,0-19.1,8.6-19.1,19.1
		S679,683.5,689.5,683.5z"/>
	<path class="st1" d="M689.5,718c10.1,0,18.2-8.1,18.2-18.2s-8.1-18.2-18.2-18.2c-10.1,0-18.2,8.1-18.2,18.2S679.4,718,689.5,718z"
		/>
	<path class="st1" d="M689.5,752.5c9.6,0,17.3-7.7,17.3-17.3c0-9.6-7.7-17.3-17.3-17.3c-9.6,0-17.3,7.7-17.3,17.3
		C672.2,744.8,679.9,752.5,689.5,752.5z"/>
	<path class="st1" d="M689.5,787.1c9.1,0,16.4-7.3,16.4-16.4c0-9.1-7.3-16.4-16.4-16.4c-9.1,0-16.4,7.3-16.4,16.4
		C673.1,779.8,680.4,787.1,689.5,787.1z"/>
	<path class="st1" d="M689.5,821.6c8.6,0,15.5-6.9,15.5-15.5s-6.9-15.5-15.5-15.5s-15.5,6.9-15.5,15.5S680.9,821.6,689.5,821.6z"/>
	<path class="st1" d="M689.5,856.1c8.1,0,14.6-6.5,14.6-14.6c0-8.1-6.5-14.6-14.6-14.6c-8.1,0-14.6,6.5-14.6,14.6
		C674.9,849.6,681.4,856.1,689.5,856.1z"/>
	<path class="st1" d="M689.5,890.7c7.6,0,13.7-6.1,13.7-13.7c0-7.6-6.1-13.7-13.7-13.7s-13.7,6.1-13.7,13.7
		C675.8,884.6,681.9,890.7,689.5,890.7z"/>
	<path class="st1" d="M689.5,925.2c7.1,0,12.8-5.7,12.8-12.8c0-7.1-5.7-12.8-12.8-12.8c-7.1,0-12.8,5.7-12.8,12.8
		C676.7,919.5,682.4,925.2,689.5,925.2z"/>
</g>
<g class="st0">
	<path class="st1" d="M618.7,96.5c19.1,0,34.5-15.4,34.5-34.5c0-19.1-15.4-34.5-34.5-34.5S584.2,43,584.2,62
		C584.2,81.1,599.6,96.5,618.7,96.5z"/>
	<path class="st1" d="M618.7,131c18.6,0,33.6-15,33.6-33.6s-15-33.6-33.6-33.6c-18.6,0-33.6,15-33.6,33.6S600.1,131,618.7,131z"/>
	<path class="st1" d="M618.7,165.6c18.1,0,32.7-14.6,32.7-32.7s-14.6-32.7-32.7-32.7S586,114.9,586,132.9S600.6,165.6,618.7,165.6z"
		/>
	<path class="st1" d="M618.7,200.1c17.6,0,31.8-14.2,31.8-31.8s-14.2-31.8-31.8-31.8c-17.6,0-31.8,14.2-31.8,31.8
		S601.1,200.1,618.7,200.1z"/>
	<path class="st1" d="M618.7,234.6c17.1,0,30.9-13.8,30.9-30.9c0-17.1-13.8-30.9-30.9-30.9c-17.1,0-30.9,13.8-30.9,30.9
		C587.8,220.8,601.6,234.6,618.7,234.6z"/>
	<path class="st1" d="M618.7,269.2c16.6,0,30-13.4,30-30s-13.4-30-30-30c-16.6,0-30,13.4-30,30S602.1,269.2,618.7,269.2z"/>
	<path class="st1" d="M618.7,303.7c16.1,0,29.1-13,29.1-29.1c0-16.1-13-29.1-29.1-29.1c-16.1,0-29.1,13-29.1,29.1
		C589.6,290.7,602.6,303.7,618.7,303.7z"/>
	<path class="st1" d="M618.7,338.2c15.6,0,28.2-12.6,28.2-28.2s-12.6-28.2-28.2-28.2c-15.6,0-28.2,12.6-28.2,28.2
		S603.1,338.2,618.7,338.2z"/>
	<path class="st1" d="M618.7,372.8c15.1,0,27.3-12.2,27.3-27.3s-12.2-27.3-27.3-27.3c-15.1,0-27.3,12.2-27.3,27.3
		S603.6,372.8,618.7,372.8z"/>
	<path class="st1" d="M618.7,407.3c14.6,0,26.4-11.8,26.4-26.4c0-14.6-11.8-26.4-26.4-26.4s-26.4,11.8-26.4,26.4
		C592.3,395.5,604.1,407.3,618.7,407.3z"/>
	<path class="st1" d="M618.7,441.8c14.1,0,25.5-11.4,25.5-25.5c0-14.1-11.4-25.5-25.5-25.5s-25.5,11.4-25.5,25.5
		C593.2,430.4,604.6,441.8,618.7,441.8z"/>
	<path class="st1" d="M618.7,476.3c13.5,0,24.5-11,24.5-24.5c0-13.5-11-24.5-24.5-24.5s-24.5,11-24.5,24.5
		C594.2,465.3,605.2,476.3,618.7,476.3z"/>
	<path class="st1" d="M618.7,510.8c13,0,23.6-10.6,23.6-23.6s-10.6-23.6-23.6-23.6s-23.6,10.6-23.6,23.6S605.7,510.8,618.7,510.8z"
		/>
	<path class="st1" d="M618.7,545.3c12.5,0,22.7-10.2,22.7-22.7s-10.2-22.7-22.7-22.7S596,510.1,596,522.6S606.2,545.3,618.7,545.3z"
		/>
	<path class="st1" d="M618.7,579.9c12,0,21.8-9.8,21.8-21.8s-9.8-21.8-21.8-21.8c-12,0-21.8,9.8-21.8,21.8S606.7,579.9,618.7,579.9z
		"/>
	<path class="st1" d="M618.7,614.4c11.5,0,20.9-9.4,20.9-20.9c0-11.5-9.4-20.9-20.9-20.9c-11.5,0-20.9,9.4-20.9,20.9
		C597.8,605.1,607.2,614.4,618.7,614.4z"/>
	<path class="st1" d="M618.7,648.9c11,0,20-9,20-20c0-11-9-20-20-20c-11,0-20,9-20,20C598.7,640,607.7,648.9,618.7,648.9z"/>
	<path class="st1" d="M618.7,683.5c10.5,0,19.1-8.6,19.1-19.1s-8.6-19.1-19.1-19.1c-10.5,0-19.1,8.6-19.1,19.1
		S608.2,683.5,618.7,683.5z"/>
	<path class="st1" d="M618.7,718c10.1,0,18.2-8.1,18.2-18.2s-8.1-18.2-18.2-18.2s-18.2,8.1-18.2,18.2S608.6,718,618.7,718z"/>
	<path class="st1" d="M618.7,752.5c9.6,0,17.3-7.7,17.3-17.3c0-9.6-7.7-17.3-17.3-17.3c-9.6,0-17.3,7.7-17.3,17.3
		C601.4,744.8,609.1,752.5,618.7,752.5z"/>
	<path class="st1" d="M618.7,787.1c9.1,0,16.4-7.3,16.4-16.4c0-9.1-7.3-16.4-16.4-16.4c-9.1,0-16.4,7.3-16.4,16.4
		C602.3,779.8,609.6,787.1,618.7,787.1z"/>
	<path class="st1" d="M618.7,821.6c8.6,0,15.5-6.9,15.5-15.5s-6.9-15.5-15.5-15.5c-8.6,0-15.5,6.9-15.5,15.5
		S610.1,821.6,618.7,821.6z"/>
	<path class="st1" d="M618.7,856.1c8.1,0,14.6-6.5,14.6-14.6c0-8.1-6.5-14.6-14.6-14.6c-8.1,0-14.6,6.5-14.6,14.6
		C604.1,849.6,610.6,856.1,618.7,856.1z"/>
	<path class="st1" d="M618.7,890.7c7.6,0,13.7-6.1,13.7-13.7c0-7.6-6.1-13.7-13.7-13.7c-7.6,0-13.7,6.1-13.7,13.7
		C605,884.6,611.1,890.7,618.7,890.7z"/>
	<path class="st1" d="M618.7,925.2c7.1,0,12.8-5.7,12.8-12.8c0-7.1-5.7-12.8-12.8-12.8c-7.1,0-12.8,5.7-12.8,12.8
		C605.9,919.5,611.6,925.2,618.7,925.2z"/>
</g>
<g class="st0">
	<path class="st1" d="M547.8,96.5c19.1,0,34.5-15.4,34.5-34.5c0-19.1-15.4-34.5-34.5-34.5S513.3,43,513.3,62
		C513.3,81.1,528.7,96.5,547.8,96.5z"/>
	<path class="st1" d="M547.8,131c18.6,0,33.6-15,33.6-33.6s-15-33.6-33.6-33.6s-33.6,15-33.6,33.6S529.2,131,547.8,131z"/>
	<path class="st1" d="M547.8,165.6c18.1,0,32.7-14.6,32.7-32.7s-14.6-32.7-32.7-32.7c-18.1,0-32.7,14.6-32.7,32.7
		S529.7,165.6,547.8,165.6z"/>
	<path class="st1" d="M547.8,200.1c17.6,0,31.8-14.2,31.8-31.8s-14.2-31.8-31.8-31.8S516,150.7,516,168.3S530.2,200.1,547.8,200.1z"
		/>
	<path class="st1" d="M547.8,234.6c17.1,0,30.9-13.8,30.9-30.9c0-17.1-13.8-30.9-30.9-30.9c-17.1,0-30.9,13.8-30.9,30.9
		C516.9,220.8,530.7,234.6,547.8,234.6z"/>
	<path class="st1" d="M547.8,269.2c16.6,0,30-13.4,30-30s-13.4-30-30-30c-16.6,0-30,13.4-30,30S531.2,269.2,547.8,269.2z"/>
	<path class="st1" d="M547.8,303.7c16.1,0,29.1-13,29.1-29.1c0-16.1-13-29.1-29.1-29.1c-16.1,0-29.1,13-29.1,29.1
		C518.7,290.7,531.7,303.7,547.8,303.7z"/>
	<path class="st1" d="M547.8,338.2c15.6,0,28.2-12.6,28.2-28.2s-12.6-28.2-28.2-28.2c-15.6,0-28.2,12.6-28.2,28.2
		S532.2,338.2,547.8,338.2z"/>
	<path class="st1" d="M547.8,372.8c15.1,0,27.3-12.2,27.3-27.3s-12.2-27.3-27.3-27.3c-15.1,0-27.3,12.2-27.3,27.3
		S532.7,372.8,547.8,372.8z"/>
	<path class="st1" d="M547.8,407.3c14.6,0,26.4-11.8,26.4-26.4c0-14.6-11.8-26.4-26.4-26.4c-14.6,0-26.4,11.8-26.4,26.4
		C521.4,395.5,533.2,407.3,547.8,407.3z"/>
	<path class="st1" d="M547.8,441.8c14.1,0,25.5-11.4,25.5-25.5c0-14.1-11.4-25.5-25.5-25.5s-25.5,11.4-25.5,25.5
		C522.3,430.4,533.7,441.8,547.8,441.8z"/>
	<path class="st1" d="M547.8,476.3c13.5,0,24.5-11,24.5-24.5c0-13.5-11-24.5-24.5-24.5s-24.5,11-24.5,24.5
		C523.3,465.3,534.3,476.3,547.8,476.3z"/>
	<path class="st1" d="M547.8,510.8c13,0,23.6-10.6,23.6-23.6s-10.6-23.6-23.6-23.6s-23.6,10.6-23.6,23.6S534.8,510.8,547.8,510.8z"
		/>
	<path class="st1" d="M547.8,545.3c12.5,0,22.7-10.2,22.7-22.7s-10.2-22.7-22.7-22.7c-12.5,0-22.7,10.2-22.7,22.7
		S535.3,545.3,547.8,545.3z"/>
	<path class="st1" d="M547.8,579.9c12,0,21.8-9.8,21.8-21.8s-9.8-21.8-21.8-21.8c-12,0-21.8,9.8-21.8,21.8S535.8,579.9,547.8,579.9z
		"/>
	<path class="st1" d="M547.8,614.4c11.5,0,20.9-9.4,20.9-20.9c0-11.5-9.4-20.9-20.9-20.9c-11.5,0-20.9,9.4-20.9,20.9
		C526.9,605.1,536.3,614.4,547.8,614.4z"/>
	<path class="st1" d="M547.8,648.9c11,0,20-9,20-20c0-11-9-20-20-20c-11,0-20,9-20,20C527.8,640,536.8,648.9,547.8,648.9z"/>
	<path class="st1" d="M547.8,683.5c10.5,0,19.1-8.6,19.1-19.1s-8.6-19.1-19.1-19.1c-10.5,0-19.1,8.6-19.1,19.1
		S537.3,683.5,547.8,683.5z"/>
	<path class="st1" d="M547.8,718c10.1,0,18.2-8.1,18.2-18.2s-8.1-18.2-18.2-18.2c-10.1,0-18.2,8.1-18.2,18.2S537.7,718,547.8,718z"
		/>
	<path class="st1" d="M547.8,752.5c9.6,0,17.3-7.7,17.3-17.3c0-9.6-7.7-17.3-17.3-17.3s-17.3,7.7-17.3,17.3
		C530.5,744.8,538.2,752.5,547.8,752.5z"/>
	<path class="st1" d="M547.8,787.1c9.1,0,16.4-7.3,16.4-16.4c0-9.1-7.3-16.4-16.4-16.4c-9.1,0-16.4,7.3-16.4,16.4
		C531.4,779.8,538.7,787.1,547.8,787.1z"/>
	<path class="st1" d="M547.8,821.6c8.6,0,15.5-6.9,15.5-15.5s-6.9-15.5-15.5-15.5c-8.6,0-15.5,6.9-15.5,15.5
		S539.2,821.6,547.8,821.6z"/>
	<path class="st1" d="M547.8,856.1c8.1,0,14.6-6.5,14.6-14.6c0-8.1-6.5-14.6-14.6-14.6c-8.1,0-14.6,6.5-14.6,14.6
		C533.2,849.6,539.7,856.1,547.8,856.1z"/>
	<path class="st1" d="M547.8,890.7c7.6,0,13.7-6.1,13.7-13.7c0-7.6-6.1-13.7-13.7-13.7c-7.6,0-13.7,6.1-13.7,13.7
		C534.1,884.6,540.2,890.7,547.8,890.7z"/>
	<path class="st1" d="M547.8,925.2c7.1,0,12.8-5.7,12.8-12.8c0-7.1-5.7-12.8-12.8-12.8c-7.1,0-12.8,5.7-12.8,12.8
		C535,919.5,540.7,925.2,547.8,925.2z"/>
	<path class="st1" d="M477,821.6c8.6,0,15.5-6.9,15.5-15.5s-6.9-15.5-15.5-15.5s-15.5,6.9-15.5,15.5S468.4,821.6,477,821.6z"/>
	<path class="st1" d="M477,856.1c8.1,0,14.6-6.5,14.6-14.6c0-8.1-6.5-14.6-14.6-14.6c-8.1,0-14.6,6.5-14.6,14.6
		C462.4,849.6,468.9,856.1,477,856.1z"/>
	<path class="st1" d="M477,890.7c7.6,0,13.7-6.1,13.7-13.7c0-7.6-6.1-13.7-13.7-13.7s-13.7,6.1-13.7,13.7
		C463.3,884.6,469.4,890.7,477,890.7z"/>
	<path class="st1" d="M477,925.2c7.1,0,12.8-5.7,12.8-12.8c0-7.1-5.7-12.8-12.8-12.8s-12.8,5.7-12.8,12.8
		C464.2,919.5,469.9,925.2,477,925.2z"/>
	<path class="st1" d="M406.2,821.6c8.6,0,15.5-6.9,15.5-15.5s-6.9-15.5-15.5-15.5c-8.6,0-15.5,6.9-15.5,15.5
		S397.6,821.6,406.2,821.6z"/>
	<path class="st1" d="M406.2,856.1c8.1,0,14.6-6.5,14.6-14.6c0-8.1-6.5-14.6-14.6-14.6c-8.1,0-14.6,6.5-14.6,14.6
		C391.6,849.6,398.1,856.1,406.2,856.1z"/>
	<path class="st1" d="M406.2,890.7c7.6,0,13.7-6.1,13.7-13.7c0-7.6-6.1-13.7-13.7-13.7c-7.6,0-13.7,6.1-13.7,13.7
		C392.5,884.6,398.6,890.7,406.2,890.7z"/>
	<path class="st1" d="M406.2,925.2c7.1,0,12.8-5.7,12.8-12.8c0-7.1-5.7-12.8-12.8-12.8c-7.1,0-12.8,5.7-12.8,12.8
		C393.4,919.5,399.1,925.2,406.2,925.2z"/>
	<path class="st1" d="M335.4,821.6c8.6,0,15.5-6.9,15.5-15.5s-6.9-15.5-15.5-15.5c-8.6,0-15.5,6.9-15.5,15.5
		S326.8,821.6,335.4,821.6z"/>
	<path class="st1" d="M335.4,856.1c8.1,0,14.6-6.5,14.6-14.6c0-8.1-6.5-14.6-14.6-14.6c-8.1,0-14.6,6.5-14.6,14.6
		C320.8,849.6,327.3,856.1,335.4,856.1z"/>
	<path class="st1" d="M264.6,821.6c8.6,0,15.5-6.9,15.5-15.5s-6.9-15.5-15.5-15.5c-8.6,0-15.5,6.9-15.5,15.5S256,821.6,264.6,821.6z
		"/>
	<path class="st1" d="M264.6,856.1c8.1,0,14.6-6.5,14.6-14.6c0-8.1-6.5-14.6-14.6-14.6c-8.1,0-14.6,6.5-14.6,14.6
		C250,849.6,256.5,856.1,264.6,856.1z"/>
	<path class="st1" d="M193.8,821.6c8.6,0,15.5-6.9,15.5-15.5s-6.9-15.5-15.5-15.5c-8.6,0-15.5,6.9-15.5,15.5
		S185.2,821.6,193.8,821.6z"/>
	<path class="st1" d="M193.8,856.1c8.1,0,14.6-6.5,14.6-14.6c0-8.1-6.5-14.6-14.6-14.6c-8.1,0-14.6,6.5-14.6,14.6
		C179.2,849.6,185.7,856.1,193.8,856.1z"/>
	<path class="st1" d="M123,821.6c8.6,0,15.5-6.9,15.5-15.5s-6.9-15.5-15.5-15.5s-15.5,6.9-15.5,15.5S114.4,821.6,123,821.6z"/>
	<path class="st1" d="M123,856.1c8.1,0,14.6-6.5,14.6-14.6c0-8.1-6.5-14.6-14.6-14.6c-8.1,0-14.6,6.5-14.6,14.6
		C108.4,849.6,114.9,856.1,123,856.1z"/>
	<path class="st1" d="M52.2,821.6c8.6,0,15.5-6.9,15.5-15.5s-6.9-15.5-15.5-15.5s-15.5,6.9-15.5,15.5S43.6,821.6,52.2,821.6z"/>
	<path class="st1" d="M52.2,856.1c8.1,0,14.6-6.5,14.6-14.6c0-8.1-6.5-14.6-14.6-14.6c-8.1,0-14.6,6.5-14.6,14.6
		C37.6,849.6,44.1,856.1,52.2,856.1z"/>
</g>
<g class="st0">
	<path class="st1" d="M476.9,96.5c19.1,0,34.5-15.4,34.5-34.5c0-19.1-15.4-34.5-34.5-34.5c-19.1,0-34.5,15.4-34.5,34.5
		C442.4,81.1,457.8,96.5,476.9,96.5z"/>
	<path class="st1" d="M476.9,131c18.6,0,33.6-15,33.6-33.6s-15-33.6-33.6-33.6s-33.6,15-33.6,33.6S458.3,131,476.9,131z"/>
	<path class="st1" d="M476.9,165.6c18.1,0,32.7-14.6,32.7-32.7s-14.6-32.7-32.7-32.7c-18.1,0-32.7,14.6-32.7,32.7
		S458.8,165.6,476.9,165.6z"/>
	<path class="st1" d="M476.9,200.1c17.6,0,31.8-14.2,31.8-31.8s-14.2-31.8-31.8-31.8c-17.6,0-31.8,14.2-31.8,31.8
		S459.3,200.1,476.9,200.1z"/>
	<path class="st1" d="M476.9,234.6c17.1,0,30.9-13.8,30.9-30.9c0-17.1-13.8-30.9-30.9-30.9c-17.1,0-30.9,13.8-30.9,30.9
		C446,220.8,459.8,234.6,476.9,234.6z"/>
	<path class="st1" d="M476.9,269.2c16.6,0,30-13.4,30-30s-13.4-30-30-30c-16.6,0-30,13.4-30,30S460.3,269.2,476.9,269.2z"/>
	<path class="st1" d="M476.9,303.7c16.1,0,29.1-13,29.1-29.1c0-16.1-13-29.1-29.1-29.1c-16.1,0-29.1,13-29.1,29.1
		C447.8,290.7,460.8,303.7,476.9,303.7z"/>
	<path class="st1" d="M476.9,338.2c15.6,0,28.2-12.6,28.2-28.2s-12.6-28.2-28.2-28.2c-15.6,0-28.2,12.6-28.2,28.2
		S461.3,338.2,476.9,338.2z"/>
	<path class="st1" d="M476.9,372.8c15.1,0,27.3-12.2,27.3-27.3s-12.2-27.3-27.3-27.3c-15.1,0-27.3,12.2-27.3,27.3
		S461.8,372.8,476.9,372.8z"/>
	<path class="st1" d="M476.9,407.3c14.6,0,26.4-11.8,26.4-26.4c0-14.6-11.8-26.4-26.4-26.4c-14.6,0-26.4,11.8-26.4,26.4
		C450.5,395.5,462.3,407.3,476.9,407.3z"/>
	<path class="st1" d="M476.9,441.8c14.1,0,25.5-11.4,25.5-25.5c0-14.1-11.4-25.5-25.5-25.5c-14.1,0-25.5,11.4-25.5,25.5
		C451.4,430.4,462.8,441.8,476.9,441.8z"/>
	<path class="st1" d="M476.9,476.3c13.5,0,24.5-11,24.5-24.5c0-13.5-11-24.5-24.5-24.5c-13.5,0-24.5,11-24.5,24.5
		C452.4,465.3,463.4,476.3,476.9,476.3z"/>
	<path class="st1" d="M476.9,510.8c13,0,23.6-10.6,23.6-23.6s-10.6-23.6-23.6-23.6s-23.6,10.6-23.6,23.6S463.9,510.8,476.9,510.8z"
		/>
	<path class="st1" d="M476.9,545.3c12.5,0,22.7-10.2,22.7-22.7s-10.2-22.7-22.7-22.7c-12.5,0-22.7,10.2-22.7,22.7
		S464.4,545.3,476.9,545.3z"/>
	<path class="st1" d="M476.9,579.9c12,0,21.8-9.8,21.8-21.8s-9.8-21.8-21.8-21.8c-12,0-21.8,9.8-21.8,21.8S464.9,579.9,476.9,579.9z
		"/>
	<path class="st1" d="M476.9,614.4c11.5,0,20.9-9.4,20.9-20.9c0-11.5-9.4-20.9-20.9-20.9S456,582,456,593.5
		C456,605.1,465.4,614.4,476.9,614.4z"/>
	<path class="st1" d="M476.9,648.9c11,0,20-9,20-20c0-11-9-20-20-20c-11,0-20,9-20,20C456.9,640,465.9,648.9,476.9,648.9z"/>
	<path class="st1" d="M476.9,683.5c10.5,0,19.1-8.6,19.1-19.1s-8.6-19.1-19.1-19.1c-10.5,0-19.1,8.6-19.1,19.1
		S466.4,683.5,476.9,683.5z"/>
	<path class="st1" d="M476.9,718c10.1,0,18.2-8.1,18.2-18.2s-8.1-18.2-18.2-18.2c-10.1,0-18.2,8.1-18.2,18.2S466.8,718,476.9,718z"
		/>
	<path class="st1" d="M476.9,752.5c9.6,0,17.3-7.7,17.3-17.3c0-9.6-7.7-17.3-17.3-17.3c-9.6,0-17.3,7.7-17.3,17.3
		C459.6,744.8,467.3,752.5,476.9,752.5z"/>
	<path class="st1" d="M476.9,787.1c9.1,0,16.4-7.3,16.4-16.4c0-9.1-7.3-16.4-16.4-16.4c-9.1,0-16.4,7.3-16.4,16.4
		C460.5,779.8,467.8,787.1,476.9,787.1z"/>
</g>
<g class="st0">
	<path class="st1" d="M406.1,131c18.6,0,33.6-15,33.6-33.6s-15-33.6-33.6-33.6s-33.6,15-33.6,33.6S387.5,131,406.1,131z"/>
	<path class="st1" d="M406.1,165.6c18.1,0,32.7-14.6,32.7-32.7s-14.6-32.7-32.7-32.7c-18.1,0-32.7,14.6-32.7,32.7
		S388,165.6,406.1,165.6z"/>
	<path class="st1" d="M406.1,200.1c17.6,0,31.8-14.2,31.8-31.8s-14.2-31.8-31.8-31.8c-17.6,0-31.8,14.2-31.8,31.8
		S388.5,200.1,406.1,200.1z"/>
	<path class="st1" d="M406.1,234.6c17.1,0,30.9-13.8,30.9-30.9c0-17.1-13.8-30.9-30.9-30.9c-17.1,0-30.9,13.8-30.9,30.9
		C375.2,220.8,389,234.6,406.1,234.6z"/>
	<path class="st1" d="M406.1,269.2c16.6,0,30-13.4,30-30s-13.4-30-30-30c-16.6,0-30,13.4-30,30S389.5,269.2,406.1,269.2z"/>
	<path class="st1" d="M406.1,303.7c16.1,0,29.1-13,29.1-29.1c0-16.1-13-29.1-29.1-29.1c-16.1,0-29.1,13-29.1,29.1
		C377,290.7,390,303.7,406.1,303.7z"/>
	<path class="st1" d="M406.1,338.2c15.6,0,28.2-12.6,28.2-28.2s-12.6-28.2-28.2-28.2c-15.6,0-28.2,12.6-28.2,28.2
		S390.5,338.2,406.1,338.2z"/>
	<path class="st1" d="M406.1,372.8c15.1,0,27.3-12.2,27.3-27.3s-12.2-27.3-27.3-27.3c-15.1,0-27.3,12.2-27.3,27.3
		S391,372.8,406.1,372.8z"/>
	<path class="st1" d="M406.1,407.3c14.6,0,26.4-11.8,26.4-26.4c0-14.6-11.8-26.4-26.4-26.4c-14.6,0-26.4,11.8-26.4,26.4
		C379.7,395.5,391.5,407.3,406.1,407.3z"/>
	<path class="st1" d="M406.1,441.8c14.1,0,25.5-11.4,25.5-25.5c0-14.1-11.4-25.5-25.5-25.5c-14.1,0-25.5,11.4-25.5,25.5
		C380.6,430.4,392,441.8,406.1,441.8z"/>
	<path class="st1" d="M406.1,476.3c13.5,0,24.5-11,24.5-24.5c0-13.5-11-24.5-24.5-24.5s-24.5,11-24.5,24.5
		C381.6,465.3,392.6,476.3,406.1,476.3z"/>
	<path class="st1" d="M406.1,510.8c13,0,23.6-10.6,23.6-23.6s-10.6-23.6-23.6-23.6s-23.6,10.6-23.6,23.6S393.1,510.8,406.1,510.8z"
		/>
	<path class="st1" d="M406.1,545.3c12.5,0,22.7-10.2,22.7-22.7s-10.2-22.7-22.7-22.7c-12.5,0-22.7,10.2-22.7,22.7
		S393.6,545.3,406.1,545.3z"/>
	<path class="st1" d="M406.1,579.9c12,0,21.8-9.8,21.8-21.8s-9.8-21.8-21.8-21.8s-21.8,9.8-21.8,21.8S394.1,579.9,406.1,579.9z"/>
	<path class="st1" d="M406.1,614.4c11.5,0,20.9-9.4,20.9-20.9c0-11.5-9.4-20.9-20.9-20.9s-20.9,9.4-20.9,20.9
		C385.2,605.1,394.6,614.4,406.1,614.4z"/>
	<path class="st1" d="M406.1,648.9c11,0,20-9,20-20c0-11-9-20-20-20c-11,0-20,9-20,20C386.1,640,395.1,648.9,406.1,648.9z"/>
	<path class="st1" d="M406.1,683.5c10.5,0,19.1-8.6,19.1-19.1s-8.6-19.1-19.1-19.1c-10.5,0-19.1,8.6-19.1,19.1
		S395.6,683.5,406.1,683.5z"/>
	<path class="st1" d="M406.1,718c10.1,0,18.2-8.1,18.2-18.2s-8.1-18.2-18.2-18.2c-10.1,0-18.2,8.1-18.2,18.2S396,718,406.1,718z"/>
	<path class="st1" d="M406.1,752.5c9.6,0,17.3-7.7,17.3-17.3c0-9.6-7.7-17.3-17.3-17.3c-9.6,0-17.3,7.7-17.3,17.3
		C388.8,744.8,396.5,752.5,406.1,752.5z"/>
	<path class="st1" d="M406.1,787.1c9.1,0,16.4-7.3,16.4-16.4c0-9.1-7.3-16.4-16.4-16.4c-9.1,0-16.4,7.3-16.4,16.4
		C389.7,779.8,397,787.1,406.1,787.1z"/>
</g>
<g class="st0">
	<path class="st1" d="M335.2,165.6c18.1,0,32.7-14.6,32.7-32.7s-14.6-32.7-32.7-32.7s-32.7,14.6-32.7,32.7S317.1,165.6,335.2,165.6z
		"/>
	<path class="st1" d="M335.2,200.1c17.6,0,31.8-14.2,31.8-31.8s-14.2-31.8-31.8-31.8c-17.6,0-31.8,14.2-31.8,31.8
		S317.6,200.1,335.2,200.1z"/>
	<path class="st1" d="M335.2,234.6c17.1,0,30.9-13.8,30.9-30.9c0-17.1-13.8-30.9-30.9-30.9c-17.1,0-30.9,13.8-30.9,30.9
		C304.3,220.8,318.1,234.6,335.2,234.6z"/>
	<path class="st1" d="M335.2,269.2c16.6,0,30-13.4,30-30s-13.4-30-30-30c-16.6,0-30,13.4-30,30S318.6,269.2,335.2,269.2z"/>
	<path class="st1" d="M335.2,303.7c16.1,0,29.1-13,29.1-29.1c0-16.1-13-29.1-29.1-29.1c-16.1,0-29.1,13-29.1,29.1
		C306.1,290.7,319.1,303.7,335.2,303.7z"/>
	<path class="st1" d="M335.2,338.2c15.6,0,28.2-12.6,28.2-28.2s-12.6-28.2-28.2-28.2c-15.6,0-28.2,12.6-28.2,28.2
		S319.6,338.2,335.2,338.2z"/>
	<path class="st1" d="M335.2,372.8c15.1,0,27.3-12.2,27.3-27.3s-12.2-27.3-27.3-27.3c-15.1,0-27.3,12.2-27.3,27.3
		S320.1,372.8,335.2,372.8z"/>
	<path class="st1" d="M335.2,407.3c14.6,0,26.4-11.8,26.4-26.4c0-14.6-11.8-26.4-26.4-26.4c-14.6,0-26.4,11.8-26.4,26.4
		C308.8,395.5,320.6,407.3,335.2,407.3z"/>
	<path class="st1" d="M335.2,441.8c14.1,0,25.5-11.4,25.5-25.5c0-14.1-11.4-25.5-25.5-25.5c-14.1,0-25.5,11.4-25.5,25.5
		C309.7,430.4,321.1,441.8,335.2,441.8z"/>
	<path class="st1" d="M335.2,476.3c13.5,0,24.5-11,24.5-24.5c0-13.5-11-24.5-24.5-24.5c-13.5,0-24.5,11-24.5,24.5
		C310.7,465.3,321.7,476.3,335.2,476.3z"/>
	<path class="st1" d="M335.2,510.8c13,0,23.6-10.6,23.6-23.6s-10.6-23.6-23.6-23.6c-13,0-23.6,10.6-23.6,23.6
		S322.2,510.8,335.2,510.8z"/>
	<path class="st1" d="M335.2,545.3c12.5,0,22.7-10.2,22.7-22.7s-10.2-22.7-22.7-22.7c-12.5,0-22.7,10.2-22.7,22.7
		S322.7,545.3,335.2,545.3z"/>
	<path class="st1" d="M335.2,579.9c12,0,21.8-9.8,21.8-21.8s-9.8-21.8-21.8-21.8c-12,0-21.8,9.8-21.8,21.8S323.2,579.9,335.2,579.9z
		"/>
	<path class="st1" d="M335.2,614.4c11.5,0,20.9-9.4,20.9-20.9c0-11.5-9.4-20.9-20.9-20.9s-20.9,9.4-20.9,20.9
		C314.3,605.1,323.7,614.4,335.2,614.4z"/>
	<path class="st1" d="M335.2,648.9c11,0,20-9,20-20c0-11-9-20-20-20c-11,0-20,9-20,20C315.2,640,324.2,648.9,335.2,648.9z"/>
	<path class="st1" d="M335.2,683.5c10.5,0,19.1-8.6,19.1-19.1s-8.6-19.1-19.1-19.1c-10.5,0-19.1,8.6-19.1,19.1
		S324.7,683.5,335.2,683.5z"/>
	<path class="st1" d="M335.2,718c10.1,0,18.2-8.1,18.2-18.2s-8.1-18.2-18.2-18.2s-18.2,8.1-18.2,18.2S325.1,718,335.2,718z"/>
	<path class="st1" d="M335.2,752.5c9.6,0,17.3-7.7,17.3-17.3c0-9.6-7.7-17.3-17.3-17.3c-9.6,0-17.3,7.7-17.3,17.3
		C317.9,744.8,325.6,752.5,335.2,752.5z"/>
	<path class="st1" d="M335.2,787.1c9.1,0,16.4-7.3,16.4-16.4c0-9.1-7.3-16.4-16.4-16.4c-9.1,0-16.4,7.3-16.4,16.4
		C318.8,779.8,326.1,787.1,335.2,787.1z"/>
</g>
<g class="st0">
	<path class="st1" d="M264.3,200.1c17.6,0,31.8-14.2,31.8-31.8s-14.2-31.8-31.8-31.8c-17.6,0-31.8,14.2-31.8,31.8
		S246.7,200.1,264.3,200.1z"/>
	<path class="st1" d="M264.3,234.6c17.1,0,30.9-13.8,30.9-30.9c0-17.1-13.8-30.9-30.9-30.9c-17.1,0-30.9,13.8-30.9,30.9
		C233.4,220.8,247.2,234.6,264.3,234.6z"/>
	<path class="st1" d="M264.3,269.2c16.6,0,30-13.4,30-30s-13.4-30-30-30c-16.6,0-30,13.4-30,30S247.7,269.2,264.3,269.2z"/>
	<path class="st1" d="M264.3,303.7c16.1,0,29.1-13,29.1-29.1c0-16.1-13-29.1-29.1-29.1c-16.1,0-29.1,13-29.1,29.1
		C235.2,290.7,248.2,303.7,264.3,303.7z"/>
	<path class="st1" d="M264.3,338.2c15.6,0,28.2-12.6,28.2-28.2s-12.6-28.2-28.2-28.2c-15.6,0-28.2,12.6-28.2,28.2
		S248.7,338.2,264.3,338.2z"/>
	<path class="st1" d="M264.3,372.8c15.1,0,27.3-12.2,27.3-27.3s-12.2-27.3-27.3-27.3c-15.1,0-27.3,12.2-27.3,27.3
		S249.2,372.8,264.3,372.8z"/>
	<path class="st1" d="M264.3,407.3c14.6,0,26.4-11.8,26.4-26.4c0-14.6-11.8-26.4-26.4-26.4c-14.6,0-26.4,11.8-26.4,26.4
		C237.9,395.5,249.7,407.3,264.3,407.3z"/>
	<path class="st1" d="M264.3,441.8c14.1,0,25.5-11.4,25.5-25.5c0-14.1-11.4-25.5-25.5-25.5c-14.1,0-25.5,11.4-25.5,25.5
		C238.8,430.4,250.2,441.8,264.3,441.8z"/>
	<path class="st1" d="M264.3,476.3c13.5,0,24.5-11,24.5-24.5c0-13.5-11-24.5-24.5-24.5c-13.5,0-24.5,11-24.5,24.5
		C239.8,465.3,250.8,476.3,264.3,476.3z"/>
	<path class="st1" d="M264.3,510.8c13,0,23.6-10.6,23.6-23.6s-10.6-23.6-23.6-23.6c-13,0-23.6,10.6-23.6,23.6
		S251.3,510.8,264.3,510.8z"/>
	<path class="st1" d="M264.3,545.3c12.5,0,22.7-10.2,22.7-22.7s-10.2-22.7-22.7-22.7c-12.5,0-22.7,10.2-22.7,22.7
		S251.8,545.3,264.3,545.3z"/>
	<path class="st1" d="M264.3,579.9c12,0,21.8-9.8,21.8-21.8s-9.8-21.8-21.8-21.8c-12,0-21.8,9.8-21.8,21.8S252.3,579.9,264.3,579.9z
		"/>
	<path class="st1" d="M264.3,614.4c11.5,0,20.9-9.4,20.9-20.9c0-11.5-9.4-20.9-20.9-20.9c-11.5,0-20.9,9.4-20.9,20.9
		C243.4,605.1,252.8,614.4,264.3,614.4z"/>
	<path class="st1" d="M264.3,648.9c11,0,20-9,20-20c0-11-9-20-20-20c-11,0-20,9-20,20C244.3,640,253.3,648.9,264.3,648.9z"/>
	<path class="st1" d="M264.3,683.5c10.5,0,19.1-8.6,19.1-19.1s-8.6-19.1-19.1-19.1c-10.5,0-19.1,8.6-19.1,19.1
		S253.8,683.5,264.3,683.5z"/>
	<path class="st1" d="M264.3,718c10.1,0,18.2-8.1,18.2-18.2s-8.1-18.2-18.2-18.2c-10.1,0-18.2,8.1-18.2,18.2S254.2,718,264.3,718z"
		/>
	<path class="st1" d="M264.3,752.5c9.6,0,17.3-7.7,17.3-17.3c0-9.6-7.7-17.3-17.3-17.3c-9.6,0-17.3,7.7-17.3,17.3
		C247,744.8,254.7,752.5,264.3,752.5z"/>
	<path class="st1" d="M264.3,787.1c9.1,0,16.4-7.3,16.4-16.4c0-9.1-7.3-16.4-16.4-16.4c-9.1,0-16.4,7.3-16.4,16.4
		C247.9,779.8,255.2,787.1,264.3,787.1z"/>
</g>
<g class="st0">
	<path class="st1" d="M193.5,269.2c16.6,0,30-13.4,30-30s-13.4-30-30-30s-30,13.4-30,30S176.9,269.2,193.5,269.2z"/>
	<path class="st1" d="M193.5,303.7c16.1,0,29.1-13,29.1-29.1c0-16.1-13-29.1-29.1-29.1c-16.1,0-29.1,13-29.1,29.1
		C164.4,290.7,177.4,303.7,193.5,303.7z"/>
	<path class="st1" d="M193.5,338.2c15.6,0,28.2-12.6,28.2-28.2s-12.6-28.2-28.2-28.2c-15.6,0-28.2,12.6-28.2,28.2
		S177.9,338.2,193.5,338.2z"/>
	<path class="st1" d="M193.5,372.8c15.1,0,27.3-12.2,27.3-27.3s-12.2-27.3-27.3-27.3c-15.1,0-27.3,12.2-27.3,27.3
		S178.4,372.8,193.5,372.8z"/>
	<path class="st1" d="M193.5,407.3c14.6,0,26.4-11.8,26.4-26.4c0-14.6-11.8-26.4-26.4-26.4c-14.6,0-26.4,11.8-26.4,26.4
		C167.1,395.5,178.9,407.3,193.5,407.3z"/>
	<path class="st1" d="M193.5,441.8c14.1,0,25.5-11.4,25.5-25.5c0-14.1-11.4-25.5-25.5-25.5S168,402.2,168,416.3
		C168,430.4,179.4,441.8,193.5,441.8z"/>
	<path class="st1" d="M193.5,476.3c13.5,0,24.5-11,24.5-24.5c0-13.5-11-24.5-24.5-24.5s-24.5,11-24.5,24.5
		C169,465.3,180,476.3,193.5,476.3z"/>
	<path class="st1" d="M193.5,510.8c13,0,23.6-10.6,23.6-23.6s-10.6-23.6-23.6-23.6s-23.6,10.6-23.6,23.6S180.5,510.8,193.5,510.8z"
		/>
	<path class="st1" d="M193.5,545.3c12.5,0,22.7-10.2,22.7-22.7s-10.2-22.7-22.7-22.7s-22.7,10.2-22.7,22.7S181,545.3,193.5,545.3z"
		/>
	<path class="st1" d="M193.5,579.9c12,0,21.8-9.8,21.8-21.8s-9.8-21.8-21.8-21.8s-21.8,9.8-21.8,21.8S181.5,579.9,193.5,579.9z"/>
	<path class="st1" d="M193.5,614.4c11.5,0,20.9-9.4,20.9-20.9c0-11.5-9.4-20.9-20.9-20.9c-11.5,0-20.9,9.4-20.9,20.9
		C172.6,605.1,182,614.4,193.5,614.4z"/>
	<path class="st1" d="M193.5,648.9c11,0,20-9,20-20c0-11-9-20-20-20s-20,9-20,20C173.5,640,182.5,648.9,193.5,648.9z"/>
	<path class="st1" d="M193.5,683.5c10.5,0,19.1-8.6,19.1-19.1s-8.6-19.1-19.1-19.1c-10.5,0-19.1,8.6-19.1,19.1
		S183,683.5,193.5,683.5z"/>
	<path class="st1" d="M193.5,718c10.1,0,18.2-8.1,18.2-18.2s-8.1-18.2-18.2-18.2c-10.1,0-18.2,8.1-18.2,18.2S183.4,718,193.5,718z"
		/>
	<path class="st1" d="M193.5,752.5c9.6,0,17.3-7.7,17.3-17.3c0-9.6-7.7-17.3-17.3-17.3c-9.6,0-17.3,7.7-17.3,17.3
		C176.2,744.8,183.9,752.5,193.5,752.5z"/>
	<path class="st1" d="M193.5,787.1c9.1,0,16.4-7.3,16.4-16.4c0-9.1-7.3-16.4-16.4-16.4c-9.1,0-16.4,7.3-16.4,16.4
		C177.1,779.8,184.4,787.1,193.5,787.1z"/>
</g>
<g class="st0">
	<path class="st1" d="M122.6,338.2c15.6,0,28.2-12.6,28.2-28.2s-12.6-28.2-28.2-28.2c-15.6,0-28.2,12.6-28.2,28.2
		S107,338.2,122.6,338.2z"/>
	<path class="st1" d="M122.6,372.8c15.1,0,27.3-12.2,27.3-27.3s-12.2-27.3-27.3-27.3c-15.1,0-27.3,12.2-27.3,27.3
		S107.5,372.8,122.6,372.8z"/>
	<path class="st1" d="M122.6,407.3c14.6,0,26.4-11.8,26.4-26.4c0-14.6-11.8-26.4-26.4-26.4c-14.6,0-26.4,11.8-26.4,26.4
		C96.2,395.5,108,407.3,122.6,407.3z"/>
	<path class="st1" d="M122.6,441.8c14.1,0,25.5-11.4,25.5-25.5c0-14.1-11.4-25.5-25.5-25.5c-14.1,0-25.5,11.4-25.5,25.5
		C97.1,430.4,108.5,441.8,122.6,441.8z"/>
	<path class="st1" d="M122.6,476.3c13.5,0,24.5-11,24.5-24.5c0-13.5-11-24.5-24.5-24.5s-24.5,11-24.5,24.5
		C98.1,465.3,109.1,476.3,122.6,476.3z"/>
	<path class="st1" d="M122.6,510.8c13,0,23.6-10.6,23.6-23.6s-10.6-23.6-23.6-23.6S99,474.2,99,487.2S109.6,510.8,122.6,510.8z"/>
	<path class="st1" d="M122.6,545.3c12.5,0,22.7-10.2,22.7-22.7s-10.2-22.7-22.7-22.7c-12.5,0-22.7,10.2-22.7,22.7
		S110.1,545.3,122.6,545.3z"/>
	<path class="st1" d="M122.6,579.9c12,0,21.8-9.8,21.8-21.8s-9.8-21.8-21.8-21.8s-21.8,9.8-21.8,21.8S110.6,579.9,122.6,579.9z"/>
	<path class="st1" d="M122.6,614.4c11.5,0,20.9-9.4,20.9-20.9c0-11.5-9.4-20.9-20.9-20.9s-20.9,9.4-20.9,20.9
		C101.7,605.1,111.1,614.4,122.6,614.4z"/>
	<path class="st1" d="M122.6,648.9c11,0,20-9,20-20c0-11-9-20-20-20c-11,0-20,9-20,20C102.6,640,111.6,648.9,122.6,648.9z"/>
	<path class="st1" d="M122.6,683.5c10.5,0,19.1-8.6,19.1-19.1s-8.6-19.1-19.1-19.1s-19.1,8.6-19.1,19.1S112.1,683.5,122.6,683.5z"/>
	<path class="st1" d="M122.6,718c10.1,0,18.2-8.1,18.2-18.2s-8.1-18.2-18.2-18.2c-10.1,0-18.2,8.1-18.2,18.2S112.5,718,122.6,718z"
		/>
	<path class="st1" d="M122.6,752.5c9.6,0,17.3-7.7,17.3-17.3c0-9.6-7.7-17.3-17.3-17.3c-9.6,0-17.3,7.7-17.3,17.3
		C105.3,744.8,113,752.5,122.6,752.5z"/>
	<path class="st1" d="M122.6,787.1c9.1,0,16.4-7.3,16.4-16.4c0-9.1-7.3-16.4-16.4-16.4c-9.1,0-16.4,7.3-16.4,16.4
		C106.2,779.8,113.5,787.1,122.6,787.1z"/>
</g>
<g class="st0">
	<path class="st1" d="M51.7,407.3c14.6,0,26.4-11.8,26.4-26.4c0-14.6-11.8-26.4-26.4-26.4s-26.4,11.8-26.4,26.4
		C25.3,395.5,37.1,407.3,51.7,407.3z"/>
	<path class="st1" d="M51.7,441.8c14.1,0,25.5-11.4,25.5-25.5c0-14.1-11.4-25.5-25.5-25.5s-25.5,11.4-25.5,25.5
		C26.2,430.4,37.6,441.8,51.7,441.8z"/>
	<path class="st1" d="M51.7,476.3c13.5,0,24.5-11,24.5-24.5c0-13.5-11-24.5-24.5-24.5s-24.5,11-24.5,24.5
		C27.2,465.3,38.2,476.3,51.7,476.3z"/>
	<path class="st1" d="M51.7,510.8c13,0,23.6-10.6,23.6-23.6s-10.6-23.6-23.6-23.6s-23.6,10.6-23.6,23.6S38.7,510.8,51.7,510.8z"/>
	<path class="st1" d="M51.7,545.3c12.5,0,22.7-10.2,22.7-22.7s-10.2-22.7-22.7-22.7S29,510.1,29,522.6S39.2,545.3,51.7,545.3z"/>
	<path class="st1" d="M51.7,579.9c12,0,21.8-9.8,21.8-21.8s-9.8-21.8-21.8-21.8s-21.8,9.8-21.8,21.8S39.7,579.9,51.7,579.9z"/>
	<path class="st1" d="M51.7,614.4c11.5,0,20.9-9.4,20.9-20.9c0-11.5-9.4-20.9-20.9-20.9c-11.5,0-20.9,9.4-20.9,20.9
		C30.8,605.1,40.2,614.4,51.7,614.4z"/>
	<path class="st1" d="M51.7,648.9c11,0,20-9,20-20c0-11-9-20-20-20s-20,9-20,20C31.7,640,40.7,648.9,51.7,648.9z"/>
	<path class="st1" d="M51.7,683.5c10.5,0,19.1-8.6,19.1-19.1s-8.6-19.1-19.1-19.1s-19.1,8.6-19.1,19.1S41.2,683.5,51.7,683.5z"/>
	<path class="st1" d="M51.7,718c10.1,0,18.2-8.1,18.2-18.2s-8.1-18.2-18.2-18.2s-18.2,8.1-18.2,18.2S41.6,718,51.7,718z"/>
	<path class="st1" d="M51.7,752.5c9.6,0,17.3-7.7,17.3-17.3c0-9.6-7.7-17.3-17.3-17.3s-17.3,7.7-17.3,17.3
		C34.4,744.8,42.1,752.5,51.7,752.5z"/>
	<path class="st1" d="M51.7,787.1c9.1,0,16.4-7.3,16.4-16.4c0-9.1-7.3-16.4-16.4-16.4s-16.4,7.3-16.4,16.4
		C35.3,779.8,42.6,787.1,51.7,787.1z"/>
</g>
<path class="st2" d="M1119,926l-754-12l754-12c5.2-0.1,9.5,5.2,9.6,11.9c0.1,6.7-4.1,12.1-9.4,12.2C1119.2,926,1119.1,926,1119,926z
	"/>
<path class="st2" d="M1119,890.5l-726.1-12l726.1-12c5.2-0.1,9.5,5.2,9.6,11.9c0.1,6.7-4.1,12.1-9.4,12.2
	C1119.2,890.5,1119.1,890.5,1119,890.5z"/>
<path class="st2" d="M1119,855.1l-698.2-12l698.2-12c5.2-0.1,9.5,5.2,9.6,11.8c0.1,6.6-4.1,12.1-9.3,12.2
	C1119.2,855.1,1119.1,855.1,1119,855.1z"/>
<path class="st2" d="M1119,819.7l-585.1-12l585.1-12c5.2-0.1,9.5,5.2,9.6,11.8c0.1,6.6-4.1,12.1-9.3,12.2
	C1119.2,819.7,1119.1,819.7,1119,819.7z"/>
<path class="st2" d="M1119,784.2l-529.4-12l529.4-12c5.2-0.1,9.5,5.2,9.6,11.8c0.1,6.6-4.1,12.1-9.3,12.2
	C1119.2,784.3,1119.1,784.2,1119,784.2z"/>
<path class="st2" d="M1119,748.8l-474-12l474-12c5.2-0.1,9.5,5.1,9.6,11.8c0.1,6.7-4,12.1-9.3,12.2
	C1119.3,748.8,1119.1,748.8,1119,748.8z"/>
<path class="st2" d="M1119,713.4l-446-12l446-12c5.2-0.1,9.5,5.1,9.7,11.8c0.1,6.6-4,12.1-9.3,12.3
	C1119.3,713.4,1119.1,713.4,1119,713.4z"/>
<path class="st2" d="M1119,677.9l-418.2-12l418.2-12c5.2-0.1,9.5,5.1,9.7,11.7c0.2,6.6-4,12.1-9.2,12.3
	C1119.3,678,1119.1,678,1119,677.9z"/>
<path class="st2" d="M1119,642.5l-390.3-12l390.3-12c5.2-0.2,9.5,5.1,9.7,11.7c0.2,6.6-4,12.1-9.2,12.3
	C1119.3,642.5,1119.1,642.5,1119,642.5z"/>
<path class="st2" d="M1119,607.1l-362.4-12l362.4-12c5.2-0.2,9.5,5.1,9.7,11.7c0.2,6.6-4,12.1-9.2,12.3
	C1119.4,607.1,1119.1,607.1,1119,607.1z"/>
<path class="st2" d="M1119,571.6l-334.5-12l334.5-12c5.2-0.2,9.6,5,9.7,11.7c0.1,6.7-3.9,12.2-9.2,12.3
	C1119.4,571.7,1119.2,571.7,1119,571.6z"/>
<path class="st2" d="M1119,536.2l-250.9-12l250.9-12c5.2-0.2,9.6,4.9,9.8,11.6c0.2,6.6-3.9,12.2-9.1,12.5
	C1119.4,536.2,1119.2,536.2,1119,536.2z"/>
<path class="st2" d="M1119,500.8l-195.1-12l195.1-12c5.2-0.3,9.7,4.8,9.9,11.4c0.2,6.6-3.8,12.3-9,12.6
	C1119.6,500.8,1119.3,500.8,1119,500.8z"/>
<path class="st2" d="M1119,465.4l-153.3-12l153.3-12c5.2-0.4,9.7,4.6,10,11.3c0.3,6.6-3.6,12.3-8.9,12.7
	C1119.8,465.4,1119.4,465.4,1119,465.4z"/>
<path class="st2" d="M1119,429.9l-125.4-12l125.4-12c5.2-0.5,9.8,4.5,10.2,11.1s-3.5,12.4-8.7,12.9C1120,430,1119.4,430,1119,429.9z
	"/>
<path class="st2" d="M1119,394.5l-97.6-12l97.6-12c5.2-0.6,9.8,4.2,10.4,10.8c0.5,6.6-3.3,12.5-8.5,13.2
	C1120.2,394.6,1119.6,394.6,1119,394.5z"/>
<path class="st2" d="M1119,359.1l-69.7-12l69.7-12c5.2-0.9,10,3.7,10.7,10.4c0.7,6.7-2.9,12.7-8.2,13.6
	C1120.7,359.2,1119.8,359.2,1119,359.1z"/>
<path class="st2" d="M1119,323.6l-55.8-12l55.8-12c5.2-1.1,10.2,3.3,11,10c0.9,6.7-2.6,12.9-7.9,14
	C1121.1,323.9,1120,323.8,1119,323.6z"/>
<path class="st2" d="M1119,288.2l-41.8-12l41.8-12c5.2-1.5,10.4,2.7,11.6,9.3c1.2,6.6-2.1,13.2-7.3,14.7
	C1121.8,288.6,1120.4,288.6,1119,288.2z"/>
<path class="st2" d="M1119,252.8l-27.8-12l27.8-12c5.2-2.2,10.9,1.3,12.7,7.9c1.8,6.6-1,13.8-6.2,16.1
	C1123.2,253.7,1121,253.6,1119,252.8z"/>
<path class="st3" d="M51.2,867.2c-1.7-6.4-2.8-12.8-3.7-19.2c-0.9-6.4-1.6-12.8-2.1-19.2c-0.5-6.4-0.8-12.8-0.9-19.2
	c-0.2-6.4-0.1-12.8,0.5-19.2c1.1-12.8,3.8-25.6,4.4-38.4c0.3-6.4,0.2-12.8-0.1-19.2c-0.3-6.4-1-12.8-1.8-19.2
	c-0.4-3.2-0.8-6.4-1.2-9.6c-0.4-3.2-0.7-6.4-1-9.6c-0.6-6.4-0.9-12.8-1.2-19.2c-0.7-12.8-1.3-25.6-1-38.4c0.1-6.4,0.4-12.8,0.8-19.2
	s0.9-12.8,1.5-19.2c0.6-6.4,1.4-12.8,2.3-19.2c1-6.4,2-12.8,3.5-19.2h1.7c1.5,6.4,2.6,12.8,3.5,19.2c0.9,6.4,1.7,12.8,2.3,19.2
	c0.6,6.4,1.2,12.8,1.5,19.2c0.4,6.4,0.7,12.8,0.8,19.2c0.3,12.8-0.4,25.6-1.1,38.4c-0.3,6.4-0.6,12.8-1.2,19.2
	c-0.3,3.2-0.6,6.4-1,9.6c-0.4,3.2-0.8,6.4-1.2,9.6c-0.8,6.4-1.5,12.8-1.8,19.2c-0.3,6.4-0.4,12.8-0.1,19.2
	c0.5,12.8,3.3,25.6,4.4,38.4c0.6,6.4,0.7,12.8,0.5,19.2c-0.1,6.4-0.5,12.8-0.9,19.2c-0.5,6.4-1.1,12.8-2.1,19.2
	c-0.9,6.4-2,12.8-3.7,19.2H51.2z"/>
<path class="st3" d="M86.7,867.2c-1.7-6.4-2.8-12.8-3.7-19.2c-0.9-6.4-1.6-12.8-2.1-19.2c-0.5-6.4-0.8-12.8-0.9-19.2
	c-0.2-6.4-0.1-12.8,0.5-19.2c1.1-12.8,3.8-25.6,4.4-38.4c0.3-6.4,0.2-12.8-0.1-19.2c-0.3-6.4-1-12.8-1.8-19.2
	c-0.4-3.2-0.8-6.4-1.2-9.6c-0.4-3.2-0.7-6.4-1-9.6c-0.6-6.4-0.9-12.8-1.2-19.2c-0.7-12.8-1.3-25.6-1.1-38.4
	c0.1-6.4,0.4-12.8,0.8-19.2c0.4-6.4,0.9-12.8,1.5-19.2c0.6-6.4,1.4-12.8,2.3-19.2c1-6.4,2-12.8,3.5-19.2h1.7
	c1.5,6.4,2.6,12.8,3.5,19.2c0.9,6.4,1.7,12.8,2.3,19.2c0.6,6.4,1.2,12.8,1.5,19.2c0.4,6.4,0.7,12.8,0.8,19.2
	c0.3,12.8-0.4,25.6-1.1,38.4c-0.3,6.4-0.6,12.8-1.2,19.2c-0.3,3.2-0.6,6.4-1,9.6c-0.4,3.2-0.8,6.4-1.2,9.6
	c-0.8,6.4-1.5,12.8-1.8,19.2c-0.3,6.4-0.4,12.8-0.1,19.2c0.5,12.8,3.3,25.6,4.4,38.4c0.6,6.4,0.7,12.8,0.5,19.2
	c-0.1,6.4-0.5,12.8-0.9,19.2c-0.5,6.4-1.1,12.8-2.1,19.2c-0.9,6.4-2,12.8-3.7,19.2H86.7z"/>
<path class="st3" d="M122.1,867.2c-1.7-6.4-2.8-12.8-3.7-19.2c-0.9-6.4-1.6-12.8-2.1-19.2c-0.5-6.4-0.8-12.8-0.9-19.2
	c-0.2-6.4-0.1-12.8,0.5-19.2c1.1-12.8,3.8-25.6,4.4-38.4c0.3-6.4,0.2-12.8-0.1-19.2c-0.3-6.4-1-12.8-1.8-19.2
	c-0.4-3.2-0.8-6.4-1.2-9.6c-0.4-3.2-0.7-6.4-1-9.6c-0.6-6.4-0.9-12.8-1.2-19.2c-0.7-12.8-1.3-25.6-1.1-38.4
	c0.1-6.4,0.4-12.8,0.8-19.2c0.4-6.4,0.9-12.8,1.5-19.2c0.6-6.4,1.4-12.8,2.3-19.2c1-6.4,2-12.8,3.5-19.2h1.7
	c1.5,6.4,2.6,12.8,3.5,19.2c0.9,6.4,1.7,12.8,2.3,19.2c0.6,6.4,1.2,12.8,1.5,19.2c0.4,6.4,0.7,12.8,0.8,19.2
	c0.3,12.8-0.4,25.6-1.1,38.4c-0.3,6.4-0.6,12.8-1.2,19.2c-0.3,3.2-0.6,6.4-1,9.6c-0.4,3.2-0.8,6.4-1.2,9.6
	c-0.8,6.4-1.5,12.8-1.8,19.2c-0.3,6.4-0.4,12.8-0.1,19.2c0.5,12.8,3.3,25.6,4.4,38.4c0.6,6.4,0.7,12.8,0.5,19.2
	c-0.1,6.4-0.5,12.8-0.9,19.2c-0.5,6.4-1.1,12.8-2.1,19.2c-0.9,6.4-2,12.8-3.7,19.2H122.1z"/>
<path class="st3" d="M157.5,867.2c-1.7-7.1-2.8-14.3-3.7-21.4c-0.9-7.1-1.6-14.3-2.1-21.4c-0.5-7.1-0.8-14.3-0.9-21.4
	c-0.2-7.1-0.1-14.3,0.5-21.4c1.1-14.3,3.8-28.6,4.4-42.9c0.3-7.1,0.2-14.3-0.1-21.4c-0.3-7.1-1-14.3-1.8-21.4l-1.2-10.7
	c-0.4-3.6-0.7-7.1-1-10.7c-0.6-7.1-0.9-14.3-1.2-21.4c-0.7-14.3-1.3-28.6-1.1-42.9c0.1-7.1,0.4-14.3,0.8-21.4
	c0.4-7.1,0.9-14.3,1.5-21.4c0.6-7.1,1.4-14.3,2.3-21.4c1-7.1,2-14.3,3.5-21.4h1.7c1.5,7.1,2.6,14.3,3.5,21.4
	c0.9,7.1,1.7,14.3,2.3,21.4c0.6,7.1,1.2,14.3,1.5,21.4c0.4,7.1,0.7,14.3,0.8,21.4c0.3,14.3-0.4,28.6-1,42.9
	c-0.3,7.1-0.6,14.3-1.2,21.4c-0.3,3.6-0.6,7.1-1,10.7l-1.2,10.7c-0.8,7.1-1.5,14.3-1.8,21.4c-0.3,7.1-0.4,14.3-0.1,21.4
	c0.5,14.3,3.3,28.6,4.4,42.9c0.6,7.1,0.7,14.3,0.5,21.4c-0.1,7.1-0.5,14.3-0.9,21.4c-0.5,7.1-1.1,14.3-2.1,21.4
	c-0.9,7.1-2,14.3-3.7,21.4H157.5z"/>
<path class="st3" d="M193,867.2c-1.7-8.3-2.8-16.5-3.7-24.8c-0.9-8.3-1.6-16.5-2.1-24.8s-0.8-16.5-0.9-24.8
	c-0.2-8.3-0.1-16.5,0.5-24.8c1.1-16.5,3.8-33,4.3-49.5c0.6-16.5-0.3-33-1.9-49.5l-1.2-12.4c-0.4-4.1-0.7-8.3-1-12.4
	c-0.6-8.3-0.9-16.5-1.2-24.8c-0.6-16.5-1.3-33-1-49.5s1.1-33,2.4-49.5c0.6-8.3,1.4-16.5,2.3-24.8c1-8.3,2-16.5,3.5-24.8h1.7
	c1.5,8.3,2.5,16.5,3.5,24.8c0.9,8.3,1.7,16.5,2.3,24.8c1.3,16.5,2.1,33,2.4,49.5s-0.4,33-1,49.5c-0.3,8.3-0.6,16.5-1.2,24.8
	c-0.3,4.1-0.6,8.3-1,12.4l-1.2,12.4c-1.6,16.5-2.5,33-1.9,49.5c0.5,16.5,3.3,33,4.3,49.5c0.6,8.3,0.7,16.5,0.5,24.8
	c-0.1,8.3-0.5,16.5-0.9,24.8c-0.5,8.3-1.1,16.5-2.1,24.8c-0.9,8.3-2,16.5-3.7,24.8H193z"/>
<path class="st3" d="M228.4,867.2c-1.7-9.7-2.8-19.5-3.7-29.2c-0.9-9.7-1.6-19.5-2.1-29.2s-0.8-19.5-0.9-29.2
	c-0.2-9.7-0.1-19.5,0.5-29.2c1.1-19.5,3.8-38.9,4.3-58.4c0.6-19.5-0.3-38.9-1.9-58.4l-1.2-14.6c-0.4-4.9-0.7-9.7-1-14.6
	c-0.6-9.7-0.9-19.5-1.2-29.2c-0.6-19.5-1.3-38.9-1-58.4s1.1-38.9,2.4-58.4c0.6-9.7,1.4-19.5,2.3-29.2c1-9.7,2-19.5,3.5-29.2h1.7
	c1.5,9.7,2.5,19.5,3.5,29.2c0.9,9.7,1.7,19.5,2.3,29.2c1.3,19.5,2.1,38.9,2.4,58.4s-0.4,38.9-1,58.4c-0.3,9.7-0.6,19.5-1.2,29.2
	c-0.3,4.9-0.6,9.7-1,14.6l-1.2,14.6c-1.6,19.5-2.5,38.9-1.9,58.4c0.5,19.5,3.3,38.9,4.3,58.4c0.6,9.7,0.7,19.5,0.5,29.2
	c-0.1,9.7-0.5,19.5-0.9,29.2c-0.5,9.7-1.1,19.5-2.1,29.2c-0.9,9.7-2,19.5-3.7,29.2H228.4z"/>
<path class="st3" d="M263.8,867.2c-1.7-11.2-2.8-22.4-3.7-33.6s-1.6-22.4-2.1-33.6c-0.5-11.2-0.8-22.4-0.9-33.6
	c-0.2-11.2-0.1-22.4,0.5-33.6c1.1-22.4,3.8-44.8,4.3-67.2c0.6-22.4-0.3-44.8-1.9-67.2l-1.2-16.8c-0.4-5.6-0.7-11.2-1-16.8
	c-0.6-11.2-0.9-22.4-1.2-33.6c-0.6-22.4-1.3-44.8-1-67.2c0.3-22.4,1.1-44.8,2.4-67.2c0.6-11.2,1.4-22.4,2.3-33.6
	c1-11.2,2-22.4,3.5-33.6h1.7c1.5,11.2,2.5,22.4,3.5,33.6c0.9,11.2,1.7,22.4,2.3,33.6c1.3,22.4,2.1,44.8,2.4,67.2
	c0.3,22.4-0.4,44.8-1,67.2c-0.3,11.2-0.6,22.4-1.2,33.6c-0.3,5.6-0.6,11.2-1,16.8l-1.2,16.8c-1.6,22.4-2.5,44.8-1.9,67.2
	c0.5,22.4,3.3,44.8,4.3,67.2c0.6,11.2,0.7,22.4,0.5,33.6c-0.1,11.2-0.5,22.4-0.9,33.6c-0.5,11.2-1.1,22.4-2.1,33.6
	c-0.9,11.2-2,22.4-3.7,33.6H263.8z"/>
<path class="st3" d="M299.3,867.2c-1.7-12.3-2.8-24.6-3.7-36.9s-1.6-24.6-2.1-36.9s-0.8-24.6-0.9-36.9c-0.2-12.3-0.1-24.6,0.5-36.9
	c1.1-24.6,3.8-49.3,4.3-73.9c0.6-24.6-0.3-49.3-1.9-73.9l-1.2-18.5l-0.6-9.2l-0.5-9.2c-0.6-12.3-0.9-24.6-1.2-36.9
	c-0.7-24.6-1.3-49.3-1-73.9s1.1-49.3,2.4-73.9c0.6-12.3,1.4-24.6,2.4-36.9c0.9-12.3,2-24.6,3.5-36.9h1.7c1.5,12.3,2.6,24.6,3.5,36.9
	c1,12.3,1.7,24.6,2.4,36.9c1.3,24.6,2.1,49.3,2.4,73.9c0.3,24.6-0.4,49.3-1,73.9c-0.3,12.3-0.6,24.6-1.2,36.9l-0.5,9.2l-0.6,9.2
	l-1.2,18.5c-1.6,24.6-2.5,49.3-1.9,73.9c0.5,24.6,3.3,49.3,4.3,73.9c0.6,12.3,0.7,24.6,0.5,36.9c-0.1,12.3-0.5,24.6-0.9,36.9
	c-0.5,12.3-1.1,24.6-2.1,36.9c-0.9,12.3-2,24.6-3.7,36.9H299.3z"/>
<path class="st3" d="M334.7,867.2c-1.7-15.3-2.8-30.5-3.7-45.8s-1.6-30.5-2.1-45.8s-0.8-30.5-0.9-45.8c-0.2-15.3-0.1-30.5,0.5-45.8
	c1.1-30.5,3.8-61.1,4.3-91.6c0.3-15.3,0.2-30.5-0.1-45.8c-0.1-3.8-0.2-7.6-0.3-11.4l-0.4-11.4c-0.3-7.6-0.7-15.3-1-22.9l-1.2-22.9
	l-0.6-11.4l-0.5-11.4c-0.6-15.3-0.9-30.5-1.2-45.8c-0.6-30.5-1.3-61.1-1-91.6s1.1-61.1,2.4-91.6c0.3-7.6,0.7-15.3,1.1-22.9l0.6-11.4
	l0.7-11.4c0.9-15.3,2-30.5,3.5-45.8h1.7c1.5,15.3,2.6,30.5,3.5,45.8l0.7,11.4l0.6,11.4c0.4,7.6,0.8,15.3,1.1,22.9
	c1.3,30.5,2.1,61.1,2.4,91.6c0.3,30.5-0.4,61.1-1,91.6c-0.3,15.3-0.6,30.5-1.2,45.8l-0.5,11.4l-0.6,11.4l-1.2,22.9
	c-0.3,7.6-0.8,15.3-1,22.9l-0.4,11.4c-0.1,3.8-0.2,7.6-0.3,11.4c-0.3,15.3-0.4,30.5-0.1,45.8c0.5,30.5,3.3,61.1,4.3,91.6
	c0.6,15.3,0.7,30.5,0.5,45.8c-0.1,15.3-0.5,30.5-0.9,45.8c-0.5,15.3-1.1,30.5-2.1,45.8c-0.9,15.3-2,30.5-3.7,45.8H334.7z"/>
<path class="st3" d="M370.1,914c-1.7-17.3-2.8-34.7-3.7-52c-0.9-17.3-1.6-34.7-2.1-52c-0.5-17.3-0.8-34.7-0.9-52
	c-0.2-17.3-0.1-34.7,0.5-52c1.1-34.7,3.8-69.4,4.3-104.1c0.3-17.3,0.2-34.7-0.1-52c-0.1-4.3-0.2-8.7-0.3-13l-0.4-13
	c-0.3-8.7-0.7-17.3-1-26l-1.2-26l-0.6-13l-0.5-13c-0.6-17.3-0.9-34.7-1.2-52c-0.6-34.7-1.3-69.4-1-104.1
	c0.3-34.7,1.1-69.4,2.4-104.1c0.3-8.7,0.7-17.3,1.1-26l0.6-13l0.7-13c0.9-17.3,2-34.7,3.5-52h1.7c1.5,17.3,2.6,34.7,3.5,52l0.7,13
	l0.6,13c0.4,8.7,0.8,17.3,1.1,26c1.3,34.7,2.1,69.4,2.4,104.1c0.3,34.7-0.4,69.4-1,104.1c-0.3,17.3-0.6,34.7-1.2,52l-0.5,13l-0.6,13
	l-1.2,26c-0.3,8.7-0.8,17.3-1,26l-0.4,13c-0.1,4.3-0.2,8.7-0.3,13c-0.3,17.3-0.4,34.7-0.1,52c0.5,34.7,3.2,69.4,4.3,104.1
	c0.6,17.3,0.7,34.7,0.5,52c-0.1,17.3-0.5,34.7-0.9,52c-0.5,17.3-1.1,34.7-2.1,52c-0.9,17.3-2,34.7-3.7,52H370.1z"/>
<path class="st3" d="M405.6,914c-1.7-17.7-2.7-35.4-3.7-53.1c-0.9-17.7-1.6-35.4-2.1-53.1s-0.8-35.4-0.9-53.1
	c-0.2-17.7-0.1-35.4,0.5-53.1c1.1-35.4,3.8-70.9,4.3-106.3c0.3-17.7,0.2-35.4-0.1-53.1c-0.1-4.4-0.2-8.9-0.3-13.3l-0.4-13.3
	c-0.3-8.9-0.7-17.7-1-26.6l-1.1-26.6l-0.6-13.3l-0.5-13.3c-0.6-17.7-0.9-35.4-1.2-53.1l-0.5-26.6l-0.4-26.6
	c-0.3-17.7-0.3-35.4-0.2-53.1c0.1-17.7,0.4-35.4,0.8-53.1l0.7-26.6l0.9-26.6c0.3-8.9,0.7-17.7,1.1-26.6l0.6-13.3l0.7-13.3
	c0.9-17.7,2-35.4,3.5-53.1h1.7c1.5,17.7,2.6,35.4,3.5,53.1l0.7,13.3l0.6,13.3c0.4,8.9,0.8,17.7,1.1,26.6l0.9,26.6l0.7,26.6
	c0.4,17.7,0.7,35.4,0.8,53.1c0.1,17.7,0.1,35.4-0.2,53.1l-0.4,26.6l-0.5,26.6c-0.3,17.7-0.6,35.4-1.2,53.1l-0.5,13.3l-0.6,13.3
	l-1.1,26.6c-0.3,8.9-0.8,17.7-1,26.6l-0.4,13.3c-0.1,4.4-0.2,8.9-0.3,13.3c-0.3,17.7-0.4,35.4-0.1,53.1c0.5,35.4,3.2,70.9,4.3,106.3
	c0.6,17.7,0.7,35.4,0.5,53.1c-0.1,17.7-0.5,35.4-0.9,53.1c-0.5,17.7-1.1,35.4-2.1,53.1s-2,35.4-3.7,53.1H405.6z"/>
<path class="st3" d="M441,914c-1.7-18.1-2.7-36.2-3.7-54.3c-0.9-18.1-1.6-36.2-2.1-54.3c-0.5-18.1-0.8-36.2-0.9-54.3
	c-0.2-18.1-0.1-36.2,0.5-54.3c1.1-36.2,3.8-72.3,4.3-108.5c0.3-18.1,0.2-36.2-0.1-54.3c-0.1-4.5-0.2-9-0.3-13.6l-0.4-13.6
	c-0.3-9-0.7-18.1-1-27.1l-1.1-27.1l-0.6-13.6l-0.5-13.6c-0.6-18.1-0.9-36.2-1.2-54.3l-0.5-27.1l-0.4-26.9
	c-0.3-18.1-0.3-36.2-0.2-54.3c0.1-18.1,0.4-36.2,0.8-54.3l0.7-27.1l0.9-27.1c0.3-9,0.7-18.1,1.1-27.1l0.6-13.6l0.7-13.6
	c0.9-18.1,2-36.2,3.5-54.3h1.7c1.5,18.1,2.6,36.2,3.5,54.3l0.7,13.6l0.6,13.6c0.4,9,0.8,18.1,1.1,27.1l0.9,27.1l0.7,27.1
	c0.4,18.1,0.7,36.2,0.8,54.3c0.1,18.1,0.1,36.2-0.2,54.3l-0.4,27.1l-0.5,27.1c-0.3,18.1-0.6,36.2-1.2,54.3l-0.5,13.6l-0.6,13.6
	l-1.1,27.1c-0.3,9-0.8,18.1-1,27.1l-0.4,13.6c-0.1,4.5-0.2,9-0.3,13.6c-0.3,18.1-0.4,36.2-0.1,54.3c0.5,36.2,3.2,72.3,4.3,108.5
	c0.6,18.1,0.7,36.2,0.5,54.3c-0.1,18.1-0.5,36.2-0.9,54.3c-0.5,18.1-1.1,36.2-2.1,54.3c-1,18.1-2,36.2-3.7,54.3H441V914z"/>
<path class="st3" d="M476.4,914c-1.7-18.5-2.7-36.9-3.7-55.4c-0.9-18.5-1.6-36.9-2.1-55.4s-0.8-36.9-0.9-55.4
	c-0.2-18.5-0.1-36.9,0.5-55.4c1.1-36.9,3.8-73.8,4.3-110.7c0.3-18.5,0.2-36.9-0.1-55.4c-0.1-4.6-0.2-9.2-0.3-13.8l-0.4-13.8
	c-0.3-9.2-0.7-18.5-1-27.7l-1.1-27.7l-0.6-13.8l-0.5-13.8c-0.6-18.5-0.9-36.9-1.2-55.4l-0.5-27.7l-0.4-27.7
	c-0.3-18.5-0.3-36.9-0.2-55.4s0.4-36.9,0.8-55.4l0.7-27.7l0.9-27.7c0.3-9.2,0.7-18.5,1.1-27.7l0.6-13.8l0.7-13.8
	c0.9-18.5,2-36.9,3.5-55.4h1.7c1.5,18.5,2.6,36.9,3.5,55.4l0.7,13.8L483,111c0.4,9.2,0.8,18.5,1.1,27.7l0.9,27.7l0.7,27.7
	c0.4,18.5,0.7,36.9,0.8,55.4s0.1,36.9-0.2,55.4l-0.4,27.7l-0.5,27.7c-0.3,18.5-0.6,36.9-1.2,55.4l-0.5,13.8l-0.6,13.8L482,471
	c-0.3,9.2-0.8,18.5-1,27.7l-0.4,13.8c-0.1,4.6-0.2,9.2-0.3,13.8c-0.3,18.5-0.4,36.9-0.1,55.4c0.5,36.9,3.2,73.8,4.3,110.7
	c0.6,18.5,0.7,36.9,0.5,55.4c-0.1,18.5-0.5,36.9-0.9,55.4c-0.5,18.5-1.1,36.9-2.1,55.4s-2,36.9-3.7,55.4H476.4z"/>
<path class="st3" d="M511.8,914c-1.7-18.5-2.7-36.9-3.7-55.4c-0.9-18.5-1.6-36.9-2.1-55.4s-0.8-36.9-0.9-55.4
	c-0.2-18.5-0.1-36.9,0.5-55.4c1.1-36.9,3.8-73.8,4.3-110.7c0.3-18.5,0.2-36.9-0.1-55.4c-0.1-4.6-0.2-9.2-0.3-13.8l-0.4-13.8
	c-0.3-9.2-0.7-18.5-1-27.7l-1.1-27.7l-0.6-13.8l-0.5-13.8c-0.6-18.5-0.9-36.9-1.2-55.4l-0.5-27.7l-0.4-27.7
	c-0.3-18.5-0.3-36.9-0.2-55.4s0.4-36.9,0.8-55.4l0.7-27.7l0.9-27.7c0.3-9.2,0.7-18.5,1.1-27.7l0.6-13.8l0.7-13.8
	c0.9-18.5,2-36.9,3.5-55.4h1.7c1.5,18.5,2.6,36.9,3.5,55.4l0.7,13.8l0.6,13.8c0.4,9.2,0.8,18.5,1.1,27.7l0.9,27.7l0.7,27.7
	c0.4,18.5,0.7,36.9,0.8,55.4c0.1,18.5,0.1,36.9-0.2,55.4l-0.4,27.7l-0.5,27.7c-0.3,18.5-0.6,36.9-1.2,55.4l-0.5,13.8l-0.6,13.8
	l-1.1,27.7c-0.4,9.2-0.8,18.5-1,27.7l-0.4,13.8c-0.1,4.6-0.2,9.2-0.3,13.8c-0.3,18.5-0.4,36.9-0.1,55.4c0.5,36.9,3.2,73.8,4.3,110.7
	c0.6,18.5,0.7,36.9,0.5,55.4c-0.1,18.5-0.5,36.9-0.9,55.4c-0.5,18.5-1.1,36.9-2.1,55.4s-2,36.9-3.7,55.4H511.8z"/>
<path class="st3" d="M547.3,914c-1.7-18.5-2.7-36.9-3.7-55.4c-0.9-18.5-1.6-36.9-2.1-55.4s-0.8-36.9-0.9-55.4
	c-0.2-18.5-0.1-36.9,0.5-55.4c1.1-36.9,3.8-73.8,4.3-110.7c0.3-18.5,0.2-36.9-0.1-55.4c-0.1-4.6-0.2-9.2-0.3-13.8l-0.4-13.8
	c-0.3-9.2-0.7-18.5-1-27.7l-1.1-27.7l-0.6-13.8l-0.5-13.8c-0.6-18.5-0.9-36.9-1.2-55.4l-0.5-27.7l-0.4-27.7
	c-0.3-18.5-0.3-36.9-0.2-55.4c0.1-18.5,0.4-36.9,0.8-55.4l0.7-27.7l0.9-27.7c0.3-9.2,0.7-18.5,1.1-27.7l0.6-13.8l0.7-13.8
	c0.9-18.5,2-36.9,3.5-55.4h1.7c1.5,18.5,2.6,36.9,3.5,55.4l0.7,13.8l0.6,13.8c0.4,9.2,0.8,18.5,1.1,27.7l0.9,27.7l0.7,27.7
	c0.4,18.5,0.7,36.9,0.8,55.4c0.1,18.5,0.1,36.9-0.2,55.4l-0.4,27.7l-0.5,27.7c-0.3,18.5-0.6,36.9-1.2,55.4l-0.5,13.8l-0.6,13.8
	l-1.1,27.7c-0.3,9.2-0.8,18.5-1,27.7l-0.4,13.8c-0.1,4.6-0.2,9.2-0.3,13.8c-0.3,18.5-0.4,36.9-0.1,55.4c0.5,36.9,3.2,73.8,4.3,110.7
	c0.6,18.5,0.7,36.9,0.5,55.4c-0.1,18.5-0.5,36.9-0.9,55.4c-0.5,18.5-1.1,36.9-2.1,55.4s-2,36.9-3.7,55.4H547.3z"/>
<path class="st3" d="M582.7,914c-1.7-18.1-2.7-36.2-3.7-54.3c-0.9-18.1-1.6-36.2-2.1-54.3c-0.5-18.1-0.8-36.2-0.9-54.3
	c-0.2-18.1-0.1-36.2,0.5-54.3c1.1-36.2,3.8-72.3,4.3-108.5c0.3-18.1,0.2-36.2-0.1-54.3c-0.1-4.5-0.2-9-0.3-13.6l-0.4-13.6
	c-0.3-9-0.7-18.1-1-27.1l-1.1-27.1l-0.6-13.6l-0.5-13.6c-0.6-18.1-0.9-36.2-1.2-54.3l-0.5-27.1l-0.4-27.1
	c-0.3-18.1-0.3-36.2-0.2-54.3c0.1-18.1,0.4-36.2,0.8-54.3l0.7-27.1l0.9-27.1c0.3-9,0.7-18.1,1.1-27.1l0.6-13.6l0.7-13.6
	c0.9-18.1,2-36.2,3.5-54.3h1.7c1.5,18.1,2.6,36.2,3.5,54.3l0.7,13.6l0.6,13.6c0.4,9,0.8,18.1,1.1,27.1l0.9,27.1l0.7,27.1
	c0.4,18.1,0.7,36.2,0.8,54.3c0.1,18.1,0.1,36.2-0.2,54.3l-0.4,27.1l-0.5,27.1c-0.3,18.1-0.6,36.2-1.2,54.3L590,439l-0.6,13.6
	l-1.1,27.1c-0.4,9-0.8,18.1-1,27.1l-0.4,13.6c-0.1,4.5-0.2,9-0.3,13.6c-0.3,18.1-0.4,36.2-0.1,54.3c0.5,36.2,3.2,72.3,4.3,108.5
	c0.6,18.1,0.7,36.2,0.5,54.3c-0.1,18.1-0.5,36.2-0.9,54.3c-0.5,18.1-1.1,36.2-2.1,54.3c-1,18.1-2,36.2-3.7,54.3H582.7z"/>
<path class="st3" d="M618.1,914c-1.7-18.1-2.7-36.2-3.7-54.3c-0.9-18.1-1.6-36.2-2.1-54.3c-0.5-18.1-0.8-36.2-0.9-54.3
	c-0.2-18.1-0.1-36.2,0.5-54.3c1.1-36.2,3.8-72.3,4.3-108.5c0.3-18.1,0.2-36.2-0.1-54.3c-0.1-4.5-0.2-9-0.3-13.6l-0.4-13.6
	c-0.3-9-0.7-18.1-1-27.1l-1.1-27.1l-0.6-13.6l-0.5-13.6c-0.6-18.1-0.9-36.2-1.2-54.3l-0.5-27.1l-0.4-27.1
	c-0.3-18.1-0.3-36.2-0.2-54.3c0.1-18.1,0.4-36.2,0.8-54.3l0.7-27.1l0.9-27.1c0.3-9,0.7-18.1,1.1-27.1l0.6-13.6l0.7-13.6
	c0.9-18.1,2-36.2,3.5-54.3h1.7c1.5,18.1,2.6,36.2,3.5,54.3l0.7,13.6l0.6,13.6c0.4,9,0.8,18.1,1.1,27.1l0.9,27.1l0.7,27.1
	c0.4,18.1,0.7,36.2,0.8,54.3c0.1,18.1,0.1,36.2-0.2,54.3l-0.4,27.1l-0.5,27.1c-0.3,18.1-0.6,36.2-1.2,54.3l-0.5,13.6l-0.6,13.6
	l-1.1,27.1c-0.3,9-0.8,18.1-1,27.1l-0.4,13.6c-0.1,4.5-0.2,9-0.3,13.6c-0.3,18.1-0.4,36.2-0.1,54.3c0.5,36.2,3.2,72.3,4.3,108.5
	c0.6,18.1,0.7,36.2,0.5,54.3c-0.1,18.1-0.5,36.2-0.9,54.3c-0.5,18.1-1.1,36.2-2.1,54.3c-1,18.1-2,36.2-3.7,54.3H618.1z"/>
<path class="st3" d="M653.6,914c-1.7-17.7-2.7-35.4-3.7-53.1c-0.9-17.7-1.6-35.4-2.1-53.1s-0.8-35.4-0.9-53.1
	c-0.2-17.7-0.1-35.4,0.5-53.1c1.1-35.4,3.8-70.9,4.3-106.3c0.3-17.7,0.2-35.4-0.1-53.1c-0.1-4.4-0.2-8.9-0.3-13.3l-0.4-13.3
	c-0.3-8.9-0.7-17.7-1-26.6l-1.1-26.6l-0.6-13.3l-0.5-13.3c-0.6-17.7-0.9-35.4-1.2-53.1l-0.5-26.6l-0.4-26.6
	c-0.3-17.7-0.3-35.4-0.2-53.1c0.1-17.7,0.4-35.4,0.8-53.1l0.7-26.6l0.9-26.6c0.3-8.9,0.7-17.7,1.1-26.6l0.6-13.3l0.7-13.3
	c0.9-17.7,2-35.4,3.5-53.1h1.7c1.5,17.7,2.6,35.4,3.5,53.1l0.7,13.3l0.6,13.3c0.4,8.9,0.8,17.7,1.1,26.6l0.9,26.6l0.7,26.6
	c0.4,17.7,0.7,35.4,0.8,53.1c0.1,17.7,0.1,35.4-0.2,53.1l-0.4,26.6l-0.5,26.6c-0.3,17.7-0.6,35.4-1.2,53.1l-0.5,13.3l-0.6,13.3
	l-1.1,26.6c-0.3,8.9-0.8,17.7-1,26.6l-0.4,13.3c-0.1,4.4-0.2,8.9-0.3,13.3c-0.3,17.7-0.4,35.4-0.1,53.1c0.5,35.4,3.2,70.9,4.3,106.3
	c0.6,17.7,0.7,35.4,0.5,53.1c-0.1,17.7-0.5,35.4-0.9,53.1c-0.5,17.7-1.1,35.4-2.1,53.1s-2,35.4-3.7,53.1H653.6z"/>
<path class="st3" d="M689,914c-1.7-17-2.8-34-3.7-50.9c-0.9-17-1.6-34-2.1-50.9c-0.5-17-0.8-34-0.9-50.9c-0.2-17-0.1-34,0.5-50.9
	c1.1-34,3.8-67.9,4.3-101.9c0.3-17,0.2-34-0.1-50.9c-0.1-4.2-0.2-8.5-0.3-12.7l-0.4-12.7c-0.3-8.5-0.7-17-1-25.5l-1.2-25.5
	l-0.6-12.7l-0.5-12.7c-0.6-17-0.9-34-1.2-50.9c-0.6-34-1.3-67.9-1-101.9s1.1-67.9,2.4-101.9c0.3-8.5,0.7-17,1.1-25.5l0.6-12.7
	l0.7-12.7c0.9-17,2-34,3.5-50.9h1.7c1.5,17,2.6,34,3.5,50.9l0.7,12.7l0.6,12.7c0.4,8.5,0.8,17,1.1,25.5c1.3,34,2.1,67.9,2.4,101.9
	s-0.4,67.9-1,101.9c-0.3,17-0.6,34-1.2,50.9l-0.5,12.7l-0.6,12.7l-1.2,25.5c-0.3,8.5-0.8,17-1,25.5l-0.4,12.7
	c-0.1,4.2-0.2,8.5-0.3,12.7c-0.3,17-0.4,34-0.1,50.9c0.5,34,3.2,67.9,4.3,101.9c0.6,17,0.7,34,0.5,50.9c-0.1,17-0.5,34-0.9,50.9
	c-0.5,17-1.1,34-2.1,50.9c-0.9,17-2,34-3.7,50.9H689z"/>
<path class="st3" d="M724.4,914c-1.7-15.9-2.8-31.7-3.7-47.6c-0.9-15.9-1.6-31.7-2.1-47.6c-0.5-15.9-0.8-31.7-0.9-47.6
	c-0.2-15.9-0.1-31.7,0.5-47.6c1.1-31.7,3.8-63.5,4.3-95.2c0.3-15.9,0.2-31.7-0.1-47.6c-0.1-4-0.2-7.9-0.3-11.9l-0.4-11.9
	c-0.3-7.9-0.7-15.9-1-23.8l-1.2-23.8l-0.6-11.9l-0.5-11.9c-0.6-15.9-0.9-31.7-1.2-47.6c-0.7-31.7-1.3-63.5-1-95.2
	c0.3-31.7,1.1-63.5,2.4-95.2c0.3-7.9,0.7-15.9,1.1-23.8l0.6-11.9L721,200c0.9-15.9,2-31.7,3.5-47.6h1.7c1.5,15.9,2.6,31.7,3.5,47.6
	l0.7,11.9l0.6,11.9c0.4,7.9,0.8,15.9,1.1,23.8c1.3,31.7,2.1,63.5,2.4,95.2c0.3,31.7-0.4,63.5-1,95.2c-0.3,15.9-0.6,31.7-1.2,47.6
	l-0.5,11.9l-0.6,11.9l-1.2,23.7c-0.3,7.9-0.8,15.9-1,23.8l-0.4,11.9c-0.1,4-0.2,7.9-0.3,11.9c-0.3,15.9-0.4,31.7-0.1,47.6
	c0.5,31.7,3.2,63.5,4.3,95.2c0.6,15.9,0.7,31.7,0.5,47.6c-0.1,15.9-0.5,31.7-0.9,47.6c-0.5,15.9-1.1,31.7-2.1,47.6
	c-0.9,15.9-2,31.7-3.7,47.6h-1.9V914z"/>
<path class="st3" d="M759.9,914c-1.7-14.4-2.8-28.8-3.7-43.2c-0.9-14.4-1.6-28.8-2.1-43.2s-0.8-28.8-0.9-43.2
	c-0.2-14.4-0.1-28.8,0.5-43.2c1.1-28.8,3.8-57.6,4.3-86.4c0.3-14.4,0.2-28.8-0.1-43.2c-0.1-3.6-0.2-7.2-0.3-10.8l-0.4-10.8
	c-0.3-7.2-0.7-14.4-1-21.6l-1.2-21.6l-0.6-10.8l-0.5-10.8c-0.6-14.4-0.9-28.8-1.2-43.2c-0.6-28.8-1.3-57.6-1-86.4s1.1-57.6,2.4-86.4
	c0.3-7.2,0.7-14.4,1.1-21.6l0.6-10.8l0.7-10.8c0.9-14.4,2-28.8,3.5-43.2h1.7c1.5,14.4,2.6,28.8,3.5,43.2l0.7,10.8l0.6,10.8
	c0.4,7.2,0.8,14.4,1.1,21.6c1.3,28.8,2.1,57.6,2.4,86.4s-0.4,57.6-1,86.4c-0.3,14.4-0.6,28.8-1.2,43.2l-0.5,10.8l-0.5,10.8
	l-1.2,21.6c-0.3,7.2-0.8,14.4-1,21.6l-0.4,10.8c-0.1,3.6-0.2,7.2-0.3,10.8c-0.3,14.4-0.4,28.8-0.1,43.2c0.5,28.8,3.3,57.6,4.3,86.4
	c0.6,14.4,0.7,28.8,0.5,43.2c-0.1,14.4-0.5,28.8-0.9,43.2c-0.5,14.4-1.1,28.8-2.1,43.2c-0.9,14.4-2,28.8-3.7,43.2H759.9z"/>
<path class="st3" d="M795.3,914c-1.7-13.3-2.8-26.6-3.7-39.9c-0.9-13.3-1.6-26.6-2.1-39.9c-0.5-13.3-0.8-26.6-0.9-39.9
	c-0.2-13.3-0.1-26.6,0.5-39.9c1.1-26.6,3.8-53.1,4.3-79.7c0.6-26.6-0.3-53.1-1.9-79.7l-1.2-19.9l-0.6-10l-0.5-10
	c-0.6-13.3-0.9-26.6-1.2-39.9c-0.7-26.6-1.3-53.1-1-79.7s1.1-53.1,2.4-79.7c0.6-13.3,1.4-26.6,2.4-39.9c0.9-13.3,2-26.6,3.5-39.9
	h1.7c1.5,13.3,2.6,26.6,3.5,39.9c1,13.3,1.7,26.6,2.4,39.9c1.3,26.6,2.1,53.1,2.4,79.7s-0.4,53.1-1,79.7
	c-0.3,13.3-0.6,26.6-1.2,39.9l-0.5,10l-0.6,10l-1.2,19.9c-1.6,26.6-2.5,53.1-1.9,79.7c0.5,26.6,3.3,53.1,4.3,79.7
	c0.6,13.3,0.7,26.6,0.5,39.9c-0.1,13.3-0.5,26.6-0.9,39.9c-0.5,13.3-1.1,26.6-2.1,39.9c-0.9,13.3-2,26.6-3.7,39.9H795.3z"/>
<path class="st3" d="M830.7,914c-1.7-11.8-2.8-23.6-3.7-35.4s-1.6-23.6-2.1-35.4c-0.5-11.8-0.8-23.6-0.9-35.4
	c-0.2-11.8-0.1-23.6,0.5-35.4c1.1-23.6,3.8-47.2,4.3-70.9c0.6-23.6-0.3-47.2-1.9-70.9l-1.2-17.7l-0.6-8.9l-0.5-8.9
	c-0.6-11.8-0.9-23.6-1.2-35.4c-0.6-23.6-1.3-47.2-1-70.9c0.3-23.6,1.1-47.2,2.4-70.9c0.6-11.8,1.4-23.6,2.4-35.4
	c0.9-11.8,2-23.6,3.5-35.4h1.7c1.5,11.8,2.6,23.6,3.5,35.4c1,11.8,1.7,23.6,2.4,35.4c1.3,23.6,2.1,47.2,2.4,70.9
	c0.3,23.6-0.4,47.2-1,70.9c-0.3,11.8-0.6,23.6-1.2,35.4L838,604l-0.6,8.9l-1.2,17.7c-1.6,23.6-2.5,47.2-1.9,70.9
	c0.5,23.6,3.3,47.2,4.3,70.9c0.6,11.8,0.7,23.6,0.5,35.4c-0.1,11.8-0.5,23.6-0.9,35.4c-0.5,11.8-1.1,23.6-2.1,35.4
	c-0.9,11.8-2,23.6-3.7,35.4H830.7z"/>
<path class="st3" d="M866.2,914c-1.7-10.7-2.8-21.4-3.7-32.1s-1.6-21.4-2.1-32.1s-0.8-21.4-0.9-32.1c-0.2-10.7-0.1-21.4,0.5-32.1
	c1.1-21.4,3.8-42.8,4.3-64.2c0.6-21.4-0.3-42.8-1.9-64.2l-1.2-16.1c-0.4-5.4-0.7-10.7-1-16.1c-0.6-10.7-0.9-21.4-1.2-32.1
	c-0.7-21.4-1.3-42.8-1-64.2c0.3-21.4,1.1-42.8,2.4-64.2c0.6-10.7,1.4-21.4,2.3-32.1c1-10.7,2-21.4,3.5-32.1h1.7
	c1.5,10.7,2.5,21.4,3.5,32.1c0.9,10.7,1.7,21.4,2.3,32.1c1.3,21.4,2.1,42.8,2.4,64.2c0.3,21.4-0.4,42.8-1,64.2
	c-0.3,10.7-0.6,21.4-1.2,32.1c-0.3,5.4-0.6,10.7-1,16.1l-1.2,16.1c-1.6,21.4-2.5,42.8-1.9,64.2c0.5,21.4,3.3,42.8,4.3,64.2
	c0.6,10.7,0.7,21.4,0.5,32.1c-0.1,10.7-0.5,21.4-0.9,32.1c-0.5,10.7-1.1,21.4-2.1,32.1c-0.9,10.7-2,21.4-3.7,32.1H866.2z"/>
<path class="st3" d="M901.6,914c-1.7-9.6-2.8-19.2-3.7-28.8c-0.9-9.6-1.6-19.2-2.1-28.8c-0.5-9.6-0.8-19.2-0.9-28.8
	c-0.2-9.6-0.1-19.2,0.5-28.8c1.1-19.2,3.8-38.4,4.3-57.6c0.6-19.2-0.3-38.4-1.9-57.6l-1.2-14.4c-0.4-4.8-0.7-9.6-1-14.4
	c-0.6-9.6-0.9-19.2-1.2-28.8c-0.6-19.2-1.3-38.4-1-57.6c0.3-19.2,1.1-38.4,2.4-57.6c0.6-9.6,1.4-19.2,2.3-28.8
	c1-9.6,2-19.2,3.5-28.8h1.7c1.5,9.6,2.5,19.2,3.5,28.8c0.9,9.6,1.7,19.2,2.3,28.8c1.3,19.2,2.1,38.4,2.4,57.6s-0.4,38.4-1,57.6
	c-0.3,9.6-0.6,19.2-1.2,28.8c-0.3,4.8-0.6,9.6-1,14.4l-1.2,14.4c-1.6,19.2-2.5,38.4-1.9,57.6c0.5,19.2,3.3,38.4,4.3,57.6
	c0.6,9.6,0.7,19.2,0.5,28.8c-0.1,9.6-0.5,19.2-0.9,28.8c-0.5,9.6-1.1,19.2-2.1,28.8c-0.9,9.6-2,19.2-3.7,28.8H901.6z"/>
<path class="st3" d="M937,914c-1.7-9.2-2.8-18.5-3.7-27.7c-0.9-9.2-1.6-18.5-2.1-27.7s-0.8-18.5-0.9-27.7
	c-0.2-9.2-0.1-18.5,0.5-27.7c1.1-18.5,3.8-36.9,4.3-55.4c0.6-18.5-0.3-36.9-1.9-55.4l-1.2-13.8c-0.4-4.6-0.7-9.2-1-13.8
	c-0.6-9.2-0.9-18.5-1.2-27.7c-0.7-18.5-1.3-36.9-1-55.4s1.1-36.9,2.4-55.4c0.6-9.2,1.4-18.5,2.3-27.7c1-9.2,2-18.5,3.5-27.7h1.7
	c1.5,9.2,2.5,18.5,3.5,27.7c0.9,9.2,1.7,18.5,2.3,27.7c1.3,18.5,2.1,36.9,2.4,55.4c0.3,18.5-0.4,36.9-1,55.4
	c-0.3,9.2-0.6,18.5-1.2,27.7c-0.3,4.6-0.6,9.2-1,13.8l-1.2,13.8c-1.6,18.5-2.5,36.9-1.9,55.4c0.5,18.5,3.3,36.9,4.3,55.4
	c0.6,9.2,0.7,18.5,0.5,27.7c-0.1,9.2-0.5,18.5-0.9,27.7c-0.5,9.2-1.1,18.5-2.1,27.7c-0.9,9.2-2,18.5-3.7,27.7H937z"/>
<path class="st3" d="M972.5,914c-1.7-9.2-2.8-18.5-3.7-27.7c-0.9-9.2-1.6-18.5-2.1-27.7s-0.8-18.5-0.9-27.7
	c-0.2-9.2-0.1-18.5,0.5-27.7c1.1-18.5,3.8-36.9,4.3-55.4c0.6-18.5-0.3-36.9-1.9-55.4l-1.2-13.8c-0.4-4.6-0.7-9.2-1-13.8
	c-0.6-9.2-0.9-18.5-1.2-27.7c-0.6-18.5-1.3-36.9-1-55.4s1.1-36.9,2.4-55.4c0.6-9.2,1.4-18.5,2.3-27.7c1-9.2,2-18.5,3.5-27.7h1.7
	c1.5,9.2,2.5,18.5,3.5,27.7c0.9,9.2,1.7,18.5,2.3,27.7c1.3,18.5,2.1,36.9,2.4,55.4s-0.4,36.9-1,55.4c-0.3,9.2-0.6,18.5-1.2,27.7
	c-0.3,4.6-0.6,9.2-1,13.8l-1.2,13.8c-1.6,18.5-2.5,36.9-1.9,55.4c0.5,18.5,3.3,36.9,4.3,55.4c0.6,9.2,0.7,18.5,0.5,27.7
	c-0.1,9.2-0.5,18.5-0.9,27.7c-0.5,9.2-1.1,18.5-2.1,27.7c-0.9,9.2-2,18.5-3.7,27.7H972.5z"/>
<path class="st3" d="M1007.9,914c-1.7-9.2-2.8-18.5-3.7-27.7c-0.9-9.2-1.6-18.5-2.1-27.7s-0.8-18.5-0.9-27.7
	c-0.2-9.2-0.1-18.5,0.5-27.7c1.1-18.5,3.8-36.9,4.3-55.4c0.6-18.5-0.3-36.9-1.9-55.4l-1.2-13.8c-0.4-4.6-0.7-9.2-1-13.8
	c-0.6-9.2-0.9-18.5-1.2-27.7c-0.7-18.5-1.3-36.9-1-55.4c0.3-18.5,1.1-36.9,2.4-55.4c0.6-9.2,1.4-18.5,2.3-27.7
	c1-9.2,2-18.5,3.5-27.7h1.7c1.5,9.2,2.5,18.5,3.5,27.7c0.9,9.2,1.7,18.5,2.3,27.7c1.3,18.5,2.1,36.9,2.4,55.4s-0.4,36.9-1,55.4
	c-0.3,9.2-0.6,18.5-1.2,27.7c-0.3,4.6-0.6,9.2-1,13.8l-1.2,13.8c-1.6,18.5-2.5,36.9-1.9,55.4c0.5,18.5,3.3,36.9,4.3,55.4
	c0.6,9.2,0.7,18.5,0.5,27.7c-0.1,9.2-0.5,18.5-0.9,27.7c-0.5,9.2-1.1,18.5-2.1,27.7c-0.9,9.2-2,18.5-3.7,27.7H1007.9z"/>
<path class="st3" d="M1043.3,914c-1.7-9.6-2.8-19.2-3.7-28.8c-0.9-9.6-1.6-19.2-2.1-28.8c-0.5-9.6-0.8-19.2-0.9-28.8
	c-0.2-9.6-0.1-19.2,0.5-28.8c1.1-19.2,3.8-38.4,4.3-57.6c0.6-19.2-0.3-38.4-1.9-57.6l-1.2-14.4c-0.4-4.8-0.7-9.6-1-14.4
	c-0.6-9.6-0.9-19.2-1.2-28.8c-0.6-19.2-1.3-38.4-1-57.6c0.3-19.2,1.1-38.4,2.4-57.6c0.6-9.6,1.4-19.2,2.3-28.8
	c1-9.6,2-19.2,3.5-28.8h1.7c1.5,9.6,2.5,19.2,3.5,28.8c0.9,9.6,1.7,19.2,2.3,28.8c1.3,19.2,2.1,38.4,2.4,57.6
	c0.3,19.2-0.4,38.4-1,57.6c-0.3,9.6-0.6,19.2-1.2,28.8c-0.3,4.8-0.6,9.6-1,14.4l-1.2,14.4c-1.6,19.2-2.5,38.4-1.9,57.6
	c0.5,19.2,3.3,38.4,4.3,57.6c0.6,9.6,0.7,19.2,0.5,28.8c-0.1,9.6-0.5,19.2-0.9,28.8c-0.5,9.6-1.1,19.2-2.1,28.8
	c-0.9,9.6-2,19.2-3.7,28.8H1043.3z"/>
<path class="st3" d="M1078.8,914c-1.7-10.3-2.8-20.7-3.7-31c-0.9-10.3-1.6-20.7-2.1-31c-0.5-10.3-0.8-20.7-0.9-31
	c-0.2-10.3-0.1-20.7,0.5-31c1.1-20.7,3.8-41.3,4.3-62c0.6-20.7-0.3-41.3-1.9-62l-1.2-15.5c-0.4-5.2-0.7-10.3-1-15.5
	c-0.6-10.3-0.9-20.7-1.2-31c-0.7-20.7-1.3-41.3-1-62c0.3-20.7,1.1-41.3,2.4-62c0.6-10.3,1.4-20.7,2.3-31c1-10.3,2-20.7,3.5-31h1.7
	c1.5,10.3,2.5,20.7,3.5,31c0.9,10.3,1.7,20.7,2.3,31c1.3,20.7,2.1,41.3,2.4,62c0.3,20.7-0.4,41.3-1,62c-0.3,10.3-0.6,20.7-1.2,31
	c-0.3,5.2-0.6,10.3-1,15.5l-1.2,15.5c-1.6,20.7-2.5,41.3-1.9,62c0.5,20.7,3.3,41.3,4.3,62c0.6,10.3,0.7,20.7,0.5,31
	c-0.1,10.3-0.5,20.7-0.9,31c-0.5,10.3-1.1,20.7-2.1,31c-0.9,10.3-2,20.7-3.7,31H1078.8z"/>
<path class="st3" d="M1114.2,914c-1.7-10.3-2.8-20.6-3.7-31c-0.9-10.3-1.6-20.6-2.1-31c-0.5-10.3-0.8-20.6-0.9-31
	c-0.2-10.3-0.1-20.6,0.5-31c1.1-20.6,3.8-41.3,4.3-61.9c0.6-20.6-0.3-41.3-1.9-61.9l-1.2-15.5c-0.4-5.2-0.7-10.3-1-15.5
	c-0.6-10.3-0.9-20.6-1.2-31c-0.7-20.6-1.3-41.3-1-61.9c0.3-20.6,1.1-41.3,2.4-61.9c0.6-10.3,1.4-20.6,2.3-31c1-10.3,2-20.6,3.5-31
	h1.7c1.5,10.3,2.5,20.6,3.5,31c0.9,10.3,1.7,20.6,2.3,31c1.3,20.6,2.1,41.3,2.4,61.9c0.3,20.6-0.4,41.3-1,61.9
	c-0.3,10.3-0.6,20.6-1.2,31c-0.3,5.2-0.6,10.3-1,15.5l-1.2,15.5c-1.6,20.6-2.5,41.3-1.9,61.9c0.5,20.6,3.3,41.3,4.3,61.9
	c0.6,10.3,0.7,20.6,0.5,31c-0.1,10.3-0.5,20.6-0.9,31c-0.5,10.3-1.1,20.6-2.1,31c-0.9,10.3-2,20.6-3.7,31H1114.2z"/>
<path class="st3" d="M1149.6,914c-1.7-10.7-2.8-21.4-3.7-32.1s-1.6-21.4-2.1-32.1s-0.8-21.4-0.9-32.1c-0.2-10.7-0.1-21.4,0.5-32.1
	c1.1-21.4,3.8-42.8,4.3-64.2c0.6-21.4-0.3-42.8-1.9-64.2l-1.2-16.1c-0.4-5.4-0.7-10.7-1-16.1c-0.6-10.7-0.9-21.4-1.2-32.1
	c-0.6-21.4-1.3-42.8-1-64.2c0.3-21.4,1.1-42.8,2.4-64.2c0.6-10.7,1.4-21.4,2.3-32.1c1-10.7,2-21.4,3.5-32.1h1.7
	c1.5,10.7,2.5,21.4,3.5,32.1c0.9,10.7,1.7,21.4,2.3,32.1c1.3,21.4,2.1,42.8,2.4,64.2c0.3,21.4-0.4,42.8-1,64.2
	c-0.3,10.7-0.6,21.4-1.2,32.1c-0.3,5.4-0.6,10.7-1,16.1l-1.2,16.1c-1.6,21.4-2.5,42.8-1.9,64.2c0.5,21.4,3.3,42.8,4.3,64.2
	c0.6,10.7,0.7,21.4,0.5,32.1c-0.1,10.7-0.5,21.4-0.9,32.1c-0.5,10.7-1.1,21.4-2.1,32.1c-0.9,10.7-2,21.4-3.7,32.1H1149.6z"/>
<path d="M97.7,885.2L97.7,885.2H51.3h-0.1c-0.7,0-1.3,0.6-1.3,1.3v2.6c0,6.8,5.5,12.2,12.2,12.2s12.2-5.5,12.2-12.2
	c0,6.8,5.5,12.2,12.2,12.2s12.2-5.5,12.2-12.2v-2.6C98.9,885.8,98.4,885.2,97.7,885.2z"/>
<path d="M64.8,902.4h-2.5c-6.8,0-12.2,5.5-12.2,12.2c0,6.8,5.5,12.3,12.2,12.3h2.5c0.8,0,1.4-0.6,1.4-1.4v-0.1v-21.6v-0.1
	C66.2,903,65.5,902.4,64.8,902.4z"/>
<path d="M81.2,902.4h-2.5c-6.8,0-12.2,5.5-12.2,12.2c0,6.8,5.5,12.2,12.2,12.2h2.5c0.8,0,1.4-0.6,1.4-1.4v0v-21.6v-0.1
	C82.6,903,81.9,902.4,81.2,902.4z"/>
<path d="M95.8,910.5h1H97c1.1,0,1.9-0.8,1.9-1.9v-0.5v-4.4v-0.1c0-0.8-0.6-1.4-1.4-1.4h-2.9c-6.6,0.2-11.9,5.6-11.9,12.2
	c0,6.6,5.3,12.1,11.9,12.2H95h2.5c0.8,0,1.4-0.6,1.4-1.4v0v-4.4v-0.5c0-1.1-0.8-1.9-1.9-1.9h-0.2h-1c1.7-0.1,3.2-1.6,3.2-3.3v-0.7
	v-0.7C99,912.1,97.6,910.6,95.8,910.5z"/>
<path class="st4" d="M112.7,901.4V898h-6.6c-0.2,0-0.4-0.1-0.4-0.4v-1.3c0-0.1,0-0.2,0.1-0.4l6.8-10.5c0.1-0.2,0.2-0.2,0.4-0.2h1.5
	c0.2,0,0.3,0.1,0.3,0.4v10.6h1.7c0.2,0,0.3,0.1,0.3,0.4v1.1c0,0.2-0.1,0.3-0.3,0.3h-1.7v3.4c0,0.2-0.1,0.3-0.3,0.3h-1.5
	C112.9,901.8,112.7,901.6,112.7,901.4z M112.7,896.2v-7.7l-4.9,7.7H112.7z"/>
<path class="st4" d="M119.5,892.4v-4.2h-0.9c-0.1,0-0.2-0.1-0.2-0.2v-0.6c0-0.1,0.1-0.2,0.2-0.2h0.9v-1.6c0-0.1,0.1-0.2,0.2-0.2h0.9
	c0.1,0,0.2,0.1,0.2,0.2v1.6h1.1c0.1,0,0.2,0.1,0.2,0.2v0.6c0,0.1-0.1,0.2-0.2,0.2h-1.1v4c0,0.5,0.2,0.7,0.6,0.7c0.1,0,0.3,0,0.4,0
	c0.2,0,0.3,0.1,0.3,0.2v0.6c0,0.3-0.5,0.3-0.9,0.3C120.1,894,119.5,893.5,119.5,892.4z"/>
<path class="st4" d="M123.5,893.7v-9.4c0-0.1,0.1-0.2,0.2-0.2h0.9c0.1,0,0.2,0.1,0.2,0.2v4c0.4-0.7,1.1-1.2,2.2-1.2
	c1.5,0,2.4,1,2.4,2.8v4c0,0.1-0.1,0.2-0.2,0.2h-0.9c-0.1,0-0.2-0.1-0.2-0.2V890c0-1.1-0.6-1.8-1.6-1.8c-1,0-1.8,0.7-1.8,1.8v3.8
	c0,0.1-0.1,0.2-0.2,0.2h-0.9C123.6,893.9,123.5,893.9,123.5,893.7z"/>
<path class="st4" d="M137.8,901.5l-4.9-15.8c-0.1-0.2,0-0.4,0.3-0.4h1.6c0.2,0,0.4,0.1,0.4,0.3l3.9,13.2l4.2-13.2
	c0.1-0.2,0.2-0.3,0.4-0.3h1.6c0.2,0,0.3,0.1,0.4,0.3l4.2,13.2l3.9-13.2c0.1-0.2,0.2-0.3,0.4-0.3h1.6c0.3,0,0.4,0.2,0.3,0.4
	l-4.8,15.8c-0.1,0.2-0.2,0.3-0.4,0.3h-1.7c-0.2,0-0.4-0.1-0.4-0.3l-4.2-13.4l-4.2,13.4c-0.1,0.2-0.2,0.3-0.4,0.3h-1.7
	C138,901.8,137.9,901.7,137.8,901.5z"/>
<path class="st4" d="M156.3,896c0-3.4,2.6-6.1,6-6.1c3.4,0,5.9,2.6,5.9,6.1s-2.5,6.1-5.9,6.1C158.8,902,156.3,899.4,156.3,896z
	 M162.2,900.1c2.2,0,3.9-1.6,3.9-4.1s-1.7-4.1-3.9-4.1c-2.2,0-3.9,1.7-3.9,4.1S160,900.1,162.2,900.1z"/>
<path class="st4" d="M170.9,901.4v-10.9c0-0.2,0.1-0.3,0.3-0.3h1.4c0.2,0,0.3,0.1,0.3,0.4l0.1,1.4c0.4-1.1,1.2-2,2.6-2
	c0.5,0,0.8,0.1,1.1,0.2c0.1,0.1,0.2,0.2,0.2,0.4v1.2c0,0.3-0.2,0.3-0.4,0.2c-0.3-0.1-0.6-0.1-0.8-0.1c-1.9,0-2.6,1.6-2.6,3v6.5
	c0,0.2-0.1,0.3-0.3,0.3h-1.5C171,901.8,170.9,901.6,170.9,901.4z"/>
<path class="st4" d="M179.4,901.4v-16.2c0-0.2,0.1-0.3,0.3-0.3h1.5c0.2,0,0.3,0.1,0.3,0.3v16.2c0,0.2-0.1,0.3-0.3,0.3h-1.5
	C179.5,901.8,179.4,901.6,179.4,901.4z"/>
<path class="st4" d="M184.3,896c0-3.4,2.3-6.1,5.6-6.1c1.9,0,3.3,0.8,4.2,2.3v-6.9c0-0.2,0.1-0.3,0.3-0.3h1.5c0.2,0,0.3,0.1,0.3,0.3
	v16.2c0,0.2-0.1,0.3-0.3,0.3h-1.4c-0.2,0-0.3-0.1-0.3-0.3l0-1.7c-0.8,1.5-2.3,2.3-4.2,2.3C186.6,902,184.3,899.5,184.3,896z
	 M190.3,900.1c2.3,0,3.8-1.6,3.8-4.1s-1.6-4.1-3.8-4.1c-2.3,0-3.9,1.7-3.9,4.1S188,900.1,190.3,900.1z"/>
<path class="st4" d="M204.1,893.6c0-4.8,3.6-8.5,8.4-8.5c2.3,0,4.2,0.8,5.6,2.2c0.2,0.2,0.2,0.3,0,0.5l-0.9,1
	c-0.1,0.2-0.3,0.2-0.5,0c-1.2-1-2.5-1.6-4.2-1.6c-3.5,0-6.2,2.7-6.2,6.4s2.6,6.3,6.2,6.3c1.7,0,3-0.6,4.2-1.6c0.2-0.2,0.4-0.2,0.5,0
	l0.9,1.1c0.2,0.2,0.1,0.4,0,0.5c-1.5,1.4-3.3,2.2-5.6,2.2C207.6,902.1,204.1,898.4,204.1,893.6z"/>
<path class="st4" d="M219.7,896c0-3.4,2.6-6.1,6-6.1c3.4,0,5.9,2.6,5.9,6.1s-2.5,6.1-5.9,6.1C222.3,902.1,219.7,899.4,219.7,896z
	 M225.6,900.1c2.2,0,3.9-1.6,3.9-4.1s-1.7-4.1-3.9-4.1c-2.2,0-3.9,1.7-3.9,4.1S223.4,900.1,225.6,900.1z"/>
<path class="st4" d="M233.4,901.4v-10.9c0-0.2,0.1-0.3,0.3-0.3h1.4c0.2,0,0.3,0.1,0.3,0.4l0.1,1.5c0.7-1.2,1.9-2.1,3.7-2.1
	c2.5,0,4.2,1.7,4.2,4.7v6.8c0,0.2-0.1,0.3-0.3,0.3h-1.5c-0.2,0-0.3-0.1-0.3-0.3V895c0-1.9-1-3.1-2.8-3.1c-1.8,0-3,1.2-3,3.1v6.5
	c0,0.2-0.1,0.3-0.3,0.3h-1.5C233.5,901.8,233.4,901.6,233.4,901.4z"/>
<path class="st4" d="M246.8,901.4V892h-1.4c-0.2,0-0.4-0.1-0.4-0.4v-1c0-0.2,0.1-0.3,0.4-0.3h1.4v-2.4c0-2.2,1.2-3.3,3.3-3.3
	c0.5,0,0.9,0,1.3,0.2c0.1,0.1,0.2,0.1,0.2,0.3v1.3c0,0.2-0.1,0.2-0.3,0.2c-0.3,0-0.6-0.1-0.8-0.1c-1.3,0-1.5,0.8-1.5,1.7v2h2.3
	c0.2,0,0.4,0.1,0.4,0.3v1.1c0,0.2-0.1,0.4-0.4,0.4H249v9.5c0,0.2-0.1,0.3-0.3,0.3h-1.5C247,901.8,246.8,901.6,246.8,901.4z"/>
<path class="st4" d="M252.7,895.9c0-3.4,2.4-6,5.8-6c3.4,0,5.4,2.6,5.4,5.4c0,0.9-0.2,1.4-1,1.4h-8.2c0.3,2.1,1.7,3.5,4.3,3.5
	c1.3,0,2.2-0.4,3.1-1c0.1-0.1,0.3-0.1,0.4,0l0.5,0.7c0.2,0.2,0.1,0.3-0.1,0.5c-1,1-2.5,1.5-4.1,1.5
	C255.1,902,252.7,899.4,252.7,895.9z M262.1,895.2c-0.1-2.1-1.5-3.4-3.6-3.4s-3.5,1.3-3.8,3.4H262.1z"/>
<path class="st4" d="M265.8,901.4v-10.9c0-0.2,0.1-0.3,0.3-0.3h1.4c0.2,0,0.3,0.1,0.3,0.4l0.1,1.4c0.4-1.1,1.2-2,2.6-2
	c0.5,0,0.8,0.1,1.1,0.2c0.1,0.1,0.2,0.2,0.2,0.4v1.2c0,0.3-0.2,0.3-0.4,0.2c-0.3-0.1-0.6-0.1-0.8-0.1c-1.9,0-2.6,1.6-2.6,3v6.5
	c0,0.2-0.1,0.3-0.3,0.3h-1.5C265.9,901.8,265.8,901.6,265.8,901.4z"/>
<path class="st4" d="M272.8,895.9c0-3.4,2.4-6,5.8-6c3.4,0,5.4,2.6,5.4,5.4c0,0.9-0.2,1.4-1,1.4h-8.2c0.3,2.1,1.7,3.5,4.3,3.5
	c1.3,0,2.3-0.4,3.1-1c0.1-0.1,0.3-0.1,0.4,0l0.5,0.7c0.2,0.2,0.1,0.3-0.1,0.5c-1,1-2.5,1.5-4.1,1.5
	C275.2,902,272.8,899.4,272.8,895.9z M282.2,895.2c-0.1-2.1-1.5-3.4-3.6-3.4s-3.5,1.3-3.8,3.4H282.2z"/>
<path class="st4" d="M285.9,901.4v-10.9c0-0.2,0.1-0.3,0.3-0.3h1.4c0.2,0,0.3,0.1,0.3,0.4l0.1,1.5c0.7-1.2,1.9-2.1,3.7-2.1
	c2.5,0,4.2,1.7,4.2,4.7v6.8c0,0.2-0.1,0.3-0.3,0.3h-1.5c-0.2,0-0.3-0.1-0.3-0.3V895c0-1.9-1-3.1-2.8-3.1c-1.8,0-3,1.2-3,3.1v6.5
	c0,0.2-0.1,0.3-0.3,0.3h-1.5C286,901.8,285.9,901.6,285.9,901.4z"/>
<path class="st4" d="M297.7,896c0-3.4,2.6-6,6-6c1.9,0,3.4,0.8,4.4,2c0.1,0.2,0.1,0.4,0,0.5l-0.8,0.8c-0.2,0.2-0.4,0.1-0.5,0
	c-0.7-0.8-1.6-1.3-2.9-1.3c-2.3,0-4,1.7-4,4.1c0,2.4,1.7,4.1,4.1,4.1c1.3,0,2.2-0.5,2.9-1.2c0.2-0.2,0.4-0.2,0.6,0l0.8,0.8
	c0.1,0.1,0.1,0.3,0,0.5c-1,1.2-2.5,2-4.4,2C300.3,902,297.7,899.4,297.7,896z"/>
<path class="st4" d="M309.5,895.9c0-3.4,2.4-6,5.8-6c3.4,0,5.4,2.6,5.4,5.4c0,0.9-0.2,1.4-1,1.4h-8.2c0.3,2.1,1.7,3.5,4.3,3.5
	c1.3,0,2.3-0.4,3.1-1c0.1-0.1,0.3-0.1,0.4,0l0.5,0.7c0.2,0.2,0.1,0.3-0.1,0.5c-1,1-2.5,1.5-4.1,1.5
	C311.9,902,309.5,899.4,309.5,895.9z M318.9,895.2c-0.1-2.1-1.5-3.4-3.6-3.4s-3.5,1.3-3.8,3.4H318.9z"/>
<path class="st4" d="M105.8,921.1c0-3.4,2.6-6.1,6-6.1c3.4,0,5.9,2.6,5.9,6.1c0,3.4-2.5,6.1-5.9,6.1
	C108.4,927.1,105.8,924.5,105.8,921.1z M111.7,925.2c2.2,0,3.9-1.6,3.9-4.1c0-2.4-1.7-4.1-3.9-4.1c-2.3,0-3.9,1.7-3.9,4.1
	C107.9,923.5,109.5,925.2,111.7,925.2z"/>
<path class="st4" d="M120.4,926.5v-10.9c0-0.2,0.1-0.3,0.3-0.3h1.4c0.2,0,0.3,0.1,0.3,0.4l0.1,1.5c0.7-1.2,1.9-2.1,3.7-2.1
	c2.5,0,4.2,1.7,4.2,4.7v6.8c0,0.2-0.1,0.3-0.3,0.3h-1.5c-0.2,0-0.3-0.1-0.3-0.3v-6.4c0-1.9-1-3.1-2.8-3.1c-1.8,0-3,1.2-3,3.1v6.4
	c0,0.2-0.1,0.3-0.3,0.3h-1.5C120.5,926.9,120.4,926.7,120.4,926.5z"/>
<path class="st4" d="M138.2,918.7c0-4.8,3.6-8.5,8.4-8.5c2.3,0,4.2,0.8,5.6,2.2c0.2,0.2,0.2,0.3,0,0.5l-0.9,1
	c-0.1,0.2-0.3,0.2-0.5,0c-1.2-1-2.5-1.6-4.2-1.6c-3.5,0-6.2,2.7-6.2,6.4c0,3.6,2.7,6.3,6.2,6.3c1.7,0,3-0.6,4.2-1.6
	c0.2-0.2,0.4-0.2,0.5,0l0.9,1.1c0.2,0.2,0.1,0.4,0,0.5c-1.5,1.4-3.3,2.2-5.6,2.2C141.8,927.2,138.2,923.5,138.2,918.7z"/>
<path class="st4" d="M154.7,926.5v-10.9c0-0.2,0.1-0.3,0.3-0.3h1.4c0.2,0,0.3,0.1,0.3,0.4l0.1,1.4c0.4-1.1,1.2-2,2.6-2
	c0.5,0,0.8,0.1,1.1,0.2c0.1,0.1,0.2,0.2,0.2,0.4v1.2c0,0.3-0.2,0.3-0.4,0.2c-0.3-0.1-0.6-0.1-0.8-0.1c-1.9,0-2.6,1.6-2.6,3v6.5
	c0,0.2-0.1,0.3-0.3,0.3H155C154.8,926.9,154.7,926.7,154.7,926.5z"/>
<path class="st4" d="M161.9,921c0-3.4,2.4-6,5.8-6c3.4,0,5.4,2.6,5.4,5.4c0,0.9-0.2,1.4-1,1.4H164c0.3,2.1,1.7,3.5,4.3,3.5
	c1.3,0,2.2-0.4,3.1-1c0.1-0.1,0.3-0.1,0.4,0l0.5,0.7c0.2,0.2,0.1,0.3-0.1,0.5c-1,1-2.5,1.5-4.1,1.5
	C164.4,927.1,161.9,924.4,161.9,921z M171.3,920.3c-0.1-2.1-1.5-3.4-3.6-3.4s-3.5,1.3-3.8,3.4H171.3z"/>
<path class="st4" d="M174.7,921.1c0-3.4,2.3-6.1,5.6-6.1c2,0,3.4,0.9,4.2,2.4l0-1.8c0-0.2,0.1-0.3,0.3-0.3h1.4
	c0.2,0,0.3,0.1,0.3,0.3v10.9c0,0.2-0.1,0.3-0.3,0.3h-1.4c-0.2,0-0.3-0.1-0.3-0.3l0-1.7c-0.8,1.5-2.3,2.3-4.2,2.3
	C177,927.1,174.7,924.5,174.7,921.1z M180.7,925.2c2.2,0,3.8-1.6,3.8-4.1c0-2.4-1.6-4.1-3.8-4.1s-3.9,1.7-3.9,4.1
	C176.8,923.5,178.4,925.2,180.7,925.2z"/>
<path class="st4" d="M190.4,924.3V917h-1.5c-0.2,0-0.4-0.1-0.4-0.4v-1.1c0-0.2,0.1-0.3,0.4-0.3h1.5v-2.7c0-0.2,0.1-0.3,0.3-0.3h1.5
	c0.2,0,0.3,0.1,0.3,0.3v2.7h1.9c0.2,0,0.3,0.1,0.3,0.3v1.1c0,0.2-0.1,0.4-0.3,0.4h-1.9v6.9c0,0.8,0.4,1.2,1.1,1.2c0.2,0,0.5,0,0.7,0
	c0.3,0,0.4,0.1,0.4,0.3v1c0,0.4-1,0.6-1.6,0.6C191.5,927,190.4,926.2,190.4,924.3z"/>
<path class="st4" d="M196.5,911.3c0-0.7,0.6-1.3,1.3-1.3c0.7,0,1.2,0.6,1.2,1.3s-0.5,1.3-1.2,1.3C197.1,912.6,196.5,912,196.5,911.3
	z M196.7,915.7c0-0.2,0.1-0.3,0.3-0.3h1.5c0.2,0,0.3,0.1,0.3,0.3v10.9c0,0.2-0.1,0.3-0.3,0.3H197c-0.2,0-0.3-0.1-0.3-0.3V915.7z"/>
<path class="st4" d="M205.1,926.6l-4.3-10.9c-0.1-0.3,0-0.4,0.3-0.4h1.5c0.2,0,0.3,0.1,0.4,0.3l3.3,8.9l3.3-8.9
	c0.1-0.2,0.2-0.3,0.4-0.3h1.5c0.3,0,0.4,0.1,0.3,0.4l-4.3,10.9c-0.1,0.2-0.2,0.3-0.4,0.3h-1.5C205.3,926.9,205.2,926.8,205.1,926.6z
	"/>
<path class="st4" d="M213.1,921c0-3.4,2.4-6,5.8-6c3.4,0,5.4,2.6,5.4,5.4c0,0.9-0.2,1.4-1,1.4h-8.2c0.3,2.1,1.7,3.5,4.3,3.5
	c1.3,0,2.3-0.4,3.1-1c0.1-0.1,0.3-0.1,0.4,0l0.5,0.7c0.2,0.2,0.1,0.3-0.1,0.5c-1,1-2.5,1.5-4.1,1.5
	C215.6,927.1,213.1,924.4,213.1,921z M222.5,920.3c-0.1-2.1-1.5-3.4-3.6-3.4s-3.5,1.3-3.8,3.4H222.5z"/>
<path class="st4" d="M231.4,926.5v-15.8c0-0.2,0.1-0.3,0.4-0.3h8c0.2,0,0.4,0.1,0.4,0.3v1.3c0,0.2-0.1,0.3-0.4,0.3h-6.1v5.1h5.8
	c0.2,0,0.3,0.1,0.3,0.3v1.3c0,0.2-0.1,0.3-0.3,0.3h-5.8v5.5h6.2c0.2,0,0.3,0.1,0.3,0.4v1.3c0,0.2-0.1,0.3-0.3,0.3h-8
	C231.5,926.9,231.4,926.7,231.4,926.5z"/>
<path class="st4" d="M242.5,921.1c0-3.4,2.6-6,6-6c1.9,0,3.4,0.8,4.4,2c0.1,0.2,0.1,0.4,0,0.5l-0.8,0.8c-0.2,0.2-0.4,0.1-0.5,0
	c-0.7-0.8-1.6-1.3-2.9-1.3c-2.3,0-4,1.7-4,4.1c0,2.4,1.7,4.1,4.1,4.1c1.3,0,2.2-0.5,2.9-1.2c0.2-0.2,0.4-0.2,0.6,0l0.8,0.8
	c0.1,0.1,0.1,0.3,0,0.5c-1,1.2-2.5,2-4.4,2C245.1,927.1,242.5,924.5,242.5,921.1z"/>
<path class="st4" d="M254.8,921.1c0-3.4,2.6-6.1,6-6.1c3.4,0,5.9,2.6,5.9,6.1c0,3.4-2.5,6.1-5.9,6.1
	C257.4,927.1,254.8,924.5,254.8,921.1z M260.8,925.2c2.2,0,3.9-1.6,3.9-4.1c0-2.4-1.7-4.1-3.9-4.1c-2.3,0-3.9,1.7-3.9,4.1
	C256.9,923.5,258.5,925.2,260.8,925.2z"/>
<path class="st4" d="M269.1,926.5v-10.9c0-0.2,0.1-0.3,0.3-0.3h1.4c0.2,0,0.3,0.1,0.3,0.4l0.1,1.5c0.7-1.2,1.9-2.1,3.7-2.1
	c2.5,0,4.2,1.7,4.2,4.7v6.8c0,0.2-0.1,0.3-0.3,0.3h-1.5c-0.2,0-0.3-0.1-0.3-0.3v-6.4c0-1.9-1-3.1-2.8-3.1c-1.8,0-3,1.2-3,3.1v6.4
	c0,0.2-0.1,0.3-0.3,0.3h-1.5C269.2,926.9,269.1,926.7,269.1,926.5z"/>
<path class="st4" d="M281.5,921.1c0-3.4,2.6-6.1,6-6.1c3.4,0,5.9,2.6,5.9,6.1c0,3.4-2.5,6.1-5.9,6.1
	C284.1,927.1,281.5,924.5,281.5,921.1z M287.5,925.2c2.2,0,3.9-1.6,3.9-4.1c0-2.4-1.7-4.1-3.9-4.1c-2.3,0-3.9,1.7-3.9,4.1
	C283.6,923.5,285.3,925.2,287.5,925.2z"/>
<path class="st4" d="M295.8,926.5v-10.9c0-0.2,0.1-0.3,0.3-0.3h1.4c0.2,0,0.3,0.1,0.3,0.4l0,1.3c0.6-1.1,1.6-1.9,3.3-1.9
	c1.6,0,2.8,0.7,3.4,2.2c0.6-1.2,1.7-2.2,3.6-2.2c2.4,0,3.8,1.6,3.8,4.6v6.8c0,0.2-0.1,0.3-0.3,0.3h-1.5c-0.2,0-0.3-0.1-0.3-0.3V920
	c0-1.9-0.8-3-2.3-3s-2.6,1.1-2.6,3v6.5c0,0.2-0.1,0.3-0.3,0.3h-1.5c-0.2,0-0.3-0.1-0.3-0.3V920c0-1.9-0.8-3-2.4-3s-2.5,1.1-2.5,3
	v6.5c0,0.2-0.1,0.3-0.3,0.3h-1.5C295.9,926.9,295.8,926.7,295.8,926.5z"/>
<path class="st4" d="M317.1,930.9l1.6-4l-4.4-11.2c-0.1-0.3,0-0.4,0.3-0.4h1.5c0.2,0,0.3,0.1,0.4,0.3l3.3,8.9l3.3-8.9
	c0.1-0.2,0.2-0.3,0.4-0.3h1.5c0.3,0,0.4,0.1,0.3,0.4l-6.1,15.3c-0.1,0.2-0.2,0.3-0.4,0.3h-1.5C317.1,931.3,317,931.2,317.1,930.9z"
	/>
</svg>
