<?xml version="1.0" encoding="utf-8"?>
<!-- Generator: Adobe Illustrator 27.1.1, SVG Export Plug-In . SVG Version: 6.00 Build 0)  -->
<svg version="1.1" id="Layer_1" xmlns="http://www.w3.org/2000/svg" xmlns:xlink="http://www.w3.org/1999/xlink" x="0px" y="0px"
	 viewBox="0 0 895.72 151.57" style="enable-background:new 0 0 895.72 151.57;" xml:space="preserve">
<style type="text/css">
	.st0{stroke:#000000;stroke-width:0.5;stroke-miterlimit:10;}
</style>
<g>
	<g>
		<path d="M140.48,16.01h-0.14H12.82h-0.14c-1.93,0-3.52,1.58-3.52,3.51v7.28c0,18.62,15.09,33.71,33.71,33.71
			c18.62,0,33.71-15.09,33.71-33.71c0,18.62,15.09,33.71,33.71,33.71c18.62,0,33.71-15.09,33.71-33.71v-7.28
			C143.99,17.59,142.41,16.01,140.48,16.01"/>
		<path d="M49.87,63.29h-7c-18.63,0-33.73,15.1-33.73,33.73c0,18.63,15.1,33.73,33.73,33.73h7c2.09,0,3.8-1.72,3.8-3.81v-0.16V67.25
			V67.1C53.67,65.01,51.96,63.29,49.87,63.29"/>
		<path d="M95.07,63.29h-7c-18.63,0-33.73,15.1-33.73,33.73c0,18.63,15.11,33.73,33.73,33.73h7c2.09,0,3.8-1.72,3.8-3.81v-0.16
			V67.25V67.1C98.88,65.01,97.17,63.29,95.07,63.29"/>
		<path d="M135.42,85.81v-0.03h2.7h0.65c2.86,0,5.2-2.34,5.2-5.2v-1.33V67.26V67.1c0-2.09-1.72-3.8-3.81-3.8h-7.89v0.03
			c-18.15,0.54-32.71,15.41-32.71,33.71c0,18.29,14.56,33.16,32.71,33.7v0.03h1.02h6.87c2.09,0,3.81-1.71,3.81-3.81v-0.16V114.8
			v-1.33c0-2.86-2.34-5.2-5.2-5.2h-0.65h-2.7v-0.03c4.82-0.31,8.67-4.35,8.67-9.24v-1.97v-1.97
			C144.09,90.16,140.24,86.13,135.42,85.81"/>
	</g>
	<g>
		<path class="st0" d="M165.12,60.74V17.19c0-0.58,0.39-0.91,0.97-0.91h4.21c0.58,0,0.91,0.32,0.91,0.91v43.55
			c0,0.58-0.32,0.91-0.91,0.91h-4.21C165.51,61.65,165.12,61.32,165.12,60.74z"/>
		<path class="st0" d="M193.83,60.87l-15.55-43.48c-0.26-0.65,0-1.1,0.71-1.1h4.41c0.58,0,0.91,0.19,1.1,0.78l12.9,37.2l12.9-37.2
			c0.19-0.58,0.52-0.78,1.04-0.78h4.41c0.71,0,1.04,0.45,0.78,1.1l-15.55,43.48c-0.2,0.52-0.71,0.78-1.23,0.78H195
			C194.48,61.65,194.02,61.39,193.83,60.87z"/>
		<path class="st0" d="M235.17,60.74V17.19c0-0.58,0.39-0.91,0.97-0.91h13.67c8.94,0,12.38,5.51,12.38,11.08
			c0,4.34-2.27,8.17-6.42,9.72c5.57,1.3,9.2,5.77,9.2,11.86c0,7.45-5.05,12.7-15.42,12.7h-13.42
			C235.56,61.65,235.17,61.32,235.17,60.74z M248.97,35.08c4.54,0,7.45-2.46,7.45-7c0-4.6-2.92-6.42-7.45-6.42h-7.78v13.41H248.97z
			 M249.17,56.27c6.29,0,9.66-2.79,9.66-8.1c0-5.25-3.37-8.23-9.66-8.23h-7.97v16.33H249.17z"/>
		<path class="st0" d="M271.26,49.4V30.8c0-0.58,0.32-0.91,0.91-0.91h4.08c0.58,0,0.84,0.32,0.84,0.91v17.76
			c0,5.31,2.72,8.42,7.58,8.42c4.86,0,8.42-3.11,8.42-8.42V30.8c0-0.58,0.26-0.91,0.84-0.91h4.08c0.58,0,0.91,0.32,0.91,0.91v29.94
			c0,0.58-0.32,0.91-0.91,0.91h-3.82c-0.65,0-0.84-0.26-0.91-0.97l-0.19-4.02c-1.81,3.24-5.18,5.77-10.3,5.77
			C275.99,62.42,271.26,57.82,271.26,49.4z"/>
		<path class="st0" d="M309.94,54.52v-19.9h-4.08c-0.58,0-0.97-0.39-0.97-0.97V30.8c0-0.58,0.39-0.91,0.97-0.91h4.08v-7.52
			c0-0.58,0.32-0.91,0.91-0.91h4.08c0.58,0,0.84,0.32,0.84,0.91v7.52h5.31c0.58,0,0.91,0.32,0.91,0.91v2.85
			c0,0.58-0.32,0.97-0.91,0.97h-5.31v19.12c0,2.33,1.04,3.24,2.92,3.24c0.52,0,1.36-0.06,2.01-0.13c0.91-0.07,1.23,0.26,1.23,0.91
			v2.72c0,1.23-2.66,1.55-4.47,1.55C312.92,62.04,309.94,59.77,309.94,54.52z"/>
		<path class="st0" d="M327.96,49.4V30.8c0-0.58,0.32-0.91,0.91-0.91h4.08c0.58,0,0.84,0.32,0.84,0.91v17.76
			c0,5.31,2.72,8.42,7.58,8.42c4.86,0,8.42-3.11,8.42-8.42V30.8c0-0.58,0.26-0.91,0.84-0.91h4.08c0.58,0,0.91,0.32,0.91,0.91v29.94
			c0,0.58-0.32,0.91-0.91,0.91h-3.82c-0.65,0-0.84-0.26-0.91-0.97l-0.19-4.02c-1.81,3.24-5.18,5.77-10.3,5.77
			C332.69,62.42,327.96,57.82,327.96,49.4z"/>
		<path class="st0" d="M363.53,60.74V30.8c0-0.58,0.32-0.91,0.91-0.91h3.82c0.65,0,0.91,0.26,0.91,0.97l0.19,4.02
			c1.81-3.24,5.18-5.77,10.3-5.77c6.8,0,11.54,4.6,11.54,12.96v18.66c0,0.58-0.32,0.91-0.91,0.91h-4.08c-0.58,0-0.84-0.32-0.84-0.91
			V42.98c0-5.31-2.72-8.49-7.58-8.49s-8.42,3.17-8.42,8.49v17.76c0,0.58-0.26,0.91-0.84,0.91h-4.08
			C363.85,61.65,363.53,61.32,363.53,60.74z"/>
		<path class="st0" d="M392.43,69.55c0-0.45,0.39-0.52,0.78-0.45c0.91,0.13,1.69,0.19,2.33,0.19c3.5,0,4.21-2.07,4.21-4.86V30.8
			c0-0.58,0.32-0.91,0.91-0.91h4.08c0.58,0,0.84,0.32,0.84,0.91v34.74c0,6.03-3.11,9.07-9.01,9.07c-1.3,0-2.46-0.13-3.56-0.65
			c-0.45-0.19-0.58-0.45-0.58-0.84V69.55z M399.23,18.88c0-1.94,1.49-3.5,3.5-3.5c1.94,0,3.43,1.55,3.43,3.5s-1.49,3.5-3.43,3.5
			C400.72,22.38,399.23,20.82,399.23,18.88z"/>
		<path class="st0" d="M411.93,45.77c0-9.46,6.35-16.65,15.49-16.65c5.44,0,9.46,2.53,11.73,6.54l0.13-4.86
			c0-0.58,0.26-0.91,0.84-0.91h3.76c0.58,0,0.91,0.32,0.91,0.91v29.94c0,0.58-0.32,0.91-0.91,0.91h-3.76
			c-0.58,0-0.84-0.32-0.84-0.91l-0.13-4.73c-2.33,3.95-6.29,6.42-11.73,6.42C418.28,62.42,411.93,55.3,411.93,45.77z M428.46,57.05
			c6.22,0,10.56-4.47,10.56-11.21c0-6.74-4.34-11.34-10.56-11.34c-6.29,0-10.82,4.6-10.82,11.28
			C417.64,52.51,422.17,57.05,428.46,57.05z"/>
		<path class="st0" d="M452.69,60.74V16.22c0-0.58,0.32-0.91,0.91-0.91h4.08c0.58,0,0.84,0.32,0.84,0.91v18.66
			c1.81-3.24,5.18-5.77,10.3-5.77c6.8,0,11.54,4.6,11.54,12.96v18.66c0,0.58-0.32,0.91-0.91,0.91h-4.08c-0.58,0-0.84-0.32-0.84-0.91
			V42.98c0-5.31-2.72-8.49-7.58-8.49c-4.86,0-8.42,3.17-8.42,8.49v17.76c0,0.58-0.26,0.91-0.84,0.91h-4.08
			C453.01,61.65,452.69,61.32,452.69,60.74z"/>
		<path class="st0" d="M486.64,45.77c0-9.46,7.06-16.65,16.39-16.65c9.33,0,16.33,7.19,16.33,16.65c0,9.46-7,16.66-16.33,16.66
			C493.71,62.42,486.64,55.23,486.64,45.77z M503.04,56.98c6.09,0,10.69-4.54,10.69-11.21s-4.6-11.28-10.69-11.28
			c-6.16,0-10.69,4.6-10.69,11.28S496.88,56.98,503.04,56.98z"/>
		<path class="st0" d="M525.65,60.74V30.8c0-0.58,0.32-0.91,0.91-0.91h3.82c0.65,0,0.91,0.26,0.91,0.97l0.19,4.02
			c1.81-3.24,5.18-5.77,10.3-5.77c6.8,0,11.54,4.6,11.54,12.96v18.66c0,0.58-0.32,0.91-0.91,0.91h-4.08c-0.58,0-0.84-0.32-0.84-0.91
			V42.98c0-5.31-2.72-8.49-7.58-8.49s-8.42,3.17-8.42,8.49v17.76c0,0.58-0.26,0.91-0.84,0.91h-4.08
			C525.98,61.65,525.65,61.32,525.65,60.74z"/>
		<path class="st0" d="M572.82,60.74V16.22c0-0.58,0.32-0.91,0.91-0.91h4.08c0.58,0,0.91,0.32,0.91,0.91v29.42l13.67-15.23
			c0.32-0.39,0.65-0.52,1.1-0.52h4.92c0.71,0,0.84,0.52,0.39,1.04l-11.47,12.44l13.16,17.17c0.45,0.58,0.19,1.1-0.58,1.1h-4.34
			c-0.52,0-0.84-0.13-1.17-0.58l-10.63-13.67l-5.05,5.51v7.84c0,0.58-0.32,0.91-0.91,0.91h-4.08
			C573.15,61.65,572.82,61.32,572.82,60.74z"/>
		<path class="st0" d="M606.39,60.74V30.8c0-0.58,0.32-0.91,0.91-0.91h3.82c0.65,0,0.91,0.26,0.91,0.97l0.19,3.76
			c1.17-3.11,3.3-5.51,7.19-5.51c1.36,0,2.33,0.26,2.92,0.65c0.39,0.32,0.52,0.58,0.52,1.17v3.24c0,0.71-0.45,0.84-1.17,0.65
			c-0.84-0.19-1.62-0.32-2.33-0.32c-5.31,0-7.13,4.47-7.13,8.29v17.95c0,0.58-0.26,0.91-0.84,0.91h-4.08
			C606.71,61.65,606.39,61.32,606.39,60.74z"/>
		<path class="st0" d="M626.99,45.64c0-9.33,6.54-16.52,16.07-16.52c9.46,0,14.97,7.19,14.97,15.03c0,2.59-0.52,3.76-2.66,3.76
			H632.7c0.71,5.7,4.8,9.72,11.79,9.72c3.5,0,6.16-0.97,8.62-2.72c0.39-0.26,0.78-0.26,1.04,0.06l1.43,2.01
			c0.45,0.52,0.26,0.91-0.26,1.36c-2.79,2.72-6.87,4.08-11.34,4.08C633.6,62.42,626.99,54.97,626.99,45.64z M652.85,43.57
			c-0.32-5.7-4.08-9.46-9.79-9.46c-5.7,0-9.72,3.56-10.37,9.46H652.85z"/>
		<path class="st0" d="M662.7,45.77c0-9.46,6.35-16.65,15.49-16.65c5.44,0,9.46,2.53,11.73,6.54l0.13-4.86
			c0-0.58,0.26-0.91,0.84-0.91h3.76c0.58,0,0.91,0.32,0.91,0.91v29.94c0,0.58-0.32,0.91-0.91,0.91h-3.76
			c-0.58,0-0.84-0.32-0.84-0.91l-0.13-4.73c-2.33,3.95-6.29,6.42-11.73,6.42C669.05,62.42,662.7,55.3,662.7,45.77z M679.22,57.05
			c6.22,0,10.56-4.47,10.56-11.21c0-6.74-4.34-11.34-10.56-11.34c-6.29,0-10.82,4.6-10.82,11.28
			C668.4,52.51,672.94,57.05,679.22,57.05z"/>
		<path class="st0" d="M706.57,54.52v-19.9h-4.08c-0.58,0-0.97-0.39-0.97-0.97V30.8c0-0.58,0.39-0.91,0.97-0.91h4.08v-7.52
			c0-0.58,0.32-0.91,0.91-0.91h4.08c0.58,0,0.84,0.32,0.84,0.91v7.52h5.31c0.58,0,0.91,0.32,0.91,0.91v2.85
			c0,0.58-0.32,0.97-0.91,0.97h-5.31v19.12c0,2.33,1.04,3.24,2.92,3.24c0.52,0,1.36-0.06,2.01-0.13c0.91-0.07,1.23,0.26,1.23,0.91
			v2.72c0,1.23-2.66,1.55-4.47,1.55C709.55,62.04,706.57,59.77,706.57,54.52z"/>
		<path class="st0" d="M724.06,18.88c0-1.94,1.55-3.5,3.5-3.5s3.43,1.55,3.43,3.5s-1.49,3.5-3.43,3.5S724.06,20.82,724.06,18.88z
			 M724.64,30.8c0-0.58,0.26-0.91,0.84-0.91h4.08c0.58,0,0.91,0.32,0.91,0.91v29.94c0,0.58-0.32,0.91-0.91,0.91h-4.08
			c-0.58,0-0.84-0.32-0.84-0.91V30.8z"/>
		<path class="st0" d="M748.42,60.87l-11.86-29.88c-0.26-0.71,0-1.1,0.71-1.1h4.15c0.52,0,0.84,0.26,1.04,0.78l9.2,24.37l9.2-24.37
			c0.19-0.52,0.52-0.78,1.04-0.78h4.15c0.71,0,0.97,0.39,0.71,1.1l-11.86,29.88c-0.19,0.52-0.65,0.78-1.17,0.78h-4.15
			C749.07,61.65,748.62,61.39,748.42,60.87z"/>
	</g>
	<g>
		<path class="st0" d="M163.96,87.99c0-1.94,1.56-3.5,3.5-3.5c1.94,0,3.43,1.56,3.43,3.5s-1.49,3.5-3.43,3.5
			C165.51,91.49,163.96,89.93,163.96,87.99z M164.54,99.91c0-0.58,0.26-0.91,0.84-0.91h4.08c0.58,0,0.91,0.32,0.91,0.91v29.94
			c0,0.58-0.32,0.91-0.91,0.91h-4.08c-0.58,0-0.84-0.32-0.84-0.91V99.91z"/>
		<path class="st0" d="M203.61,142.16v-16.72c-2.27,3.76-6.22,6.09-11.47,6.09c-9.14,0-15.49-7.13-15.49-16.65
			c0-9.46,6.35-16.65,15.49-16.65c5.44,0,9.46,2.53,11.73,6.54l0.13-4.86c0-0.58,0.26-0.91,0.84-0.91h3.76
			c0.58,0,0.91,0.32,0.91,0.91v42.25c0,0.58-0.32,0.91-0.91,0.91h-4.08C203.94,143.07,203.61,142.75,203.61,142.16z M193.18,126.16
			c6.22,0,10.56-4.47,10.56-11.21c0-6.74-4.34-11.34-10.56-11.34c-6.29,0-10.82,4.6-10.82,11.28
			C182.36,121.62,186.9,126.16,193.18,126.16z"/>
		<path class="st0" d="M220.52,123.63v-19.89h-4.08c-0.58,0-0.97-0.39-0.97-0.97v-2.85c0-0.58,0.39-0.91,0.97-0.91h4.08v-7.52
			c0-0.58,0.32-0.91,0.91-0.91h4.08c0.58,0,0.84,0.32,0.84,0.91V99h5.31c0.58,0,0.91,0.32,0.91,0.91v2.85
			c0,0.58-0.32,0.97-0.91,0.97h-5.31v19.12c0,2.33,1.04,3.24,2.92,3.24c0.52,0,1.36-0.06,2.01-0.13c0.91-0.06,1.23,0.26,1.23,0.91
			v2.72c0,1.23-2.66,1.55-4.47,1.55C223.5,131.15,220.52,128.88,220.52,123.63z"/>
		<path class="st0" d="M238.02,87.99c0-1.94,1.56-3.5,3.5-3.5c1.94,0,3.43,1.56,3.43,3.5s-1.49,3.5-3.43,3.5
			C239.57,91.49,238.02,89.93,238.02,87.99z M238.6,99.91c0-0.58,0.26-0.91,0.84-0.91h4.08c0.58,0,0.91,0.32,0.91,0.91v29.94
			c0,0.58-0.32,0.91-0.91,0.91h-4.08c-0.58,0-0.84-0.32-0.84-0.91V99.91z"/>
		<path class="st0" d="M251.37,126.61c-0.45-0.52-0.39-1.04,0-1.68l1.3-1.81c0.45-0.58,1.04-0.58,1.55-0.07
			c2.14,2.07,4.47,3.43,7.65,3.43c3.3,0,5.57-1.43,5.57-4.34c0-2.59-1.68-3.76-4.54-4.92l-3.82-1.62c-3.89-1.62-7.06-4.08-7.06-8.55
			c0-5.51,4.67-8.81,10.11-8.81c3.76,0,7.26,1.55,9.66,4.54c0.39,0.45,0.26,0.97-0.07,1.36l-1.56,1.81c-0.52,0.65-0.97,0.58-1.55,0
			c-2.01-2.01-4.02-2.92-6.22-2.92c-2.66,0-4.8,1.36-4.8,3.89c0,2.66,1.95,3.69,4.8,4.79l3.5,1.43c4.08,1.69,7.39,4.21,7.32,9.14
			c0,6.03-5.18,9.27-11.08,9.27C256.94,131.54,253.38,129.07,251.37,126.61z"/>
		<path class="st0" d="M278.26,114.88c0-9.46,7.06-16.65,16.4-16.65c9.33,0,16.33,7.19,16.33,16.65c0,9.46-7,16.65-16.33,16.65
			C285.32,131.54,278.26,124.34,278.26,114.88z M294.65,126.09c6.09,0,10.69-4.54,10.69-11.21s-4.6-11.28-10.69-11.28
			c-6.16,0-10.69,4.6-10.69,11.28S288.5,126.09,294.65,126.09z"/>
		<path class="st0" d="M315.64,114.88c0-9.46,6.35-16.65,15.49-16.65c5.25,0,9.2,2.33,11.47,6.16V85.33c0-0.58,0.32-0.91,0.91-0.91
			h4.08c0.58,0,0.91,0.32,0.91,0.91v44.52c0,0.58-0.32,0.91-0.91,0.91h-3.76c-0.58,0-0.84-0.32-0.84-0.91l-0.13-4.73
			c-2.33,3.95-6.29,6.42-11.73,6.42C322,131.54,315.64,124.41,315.64,114.88z M332.17,126.16c6.22,0,10.56-4.47,10.56-11.21
			c0-6.74-4.34-11.34-10.56-11.34c-6.29,0-10.82,4.6-10.82,11.28C321.35,121.62,325.88,126.16,332.17,126.16z"/>
		<path class="st0" d="M355.88,87.99c0-1.94,1.56-3.5,3.5-3.5c1.94,0,3.43,1.56,3.43,3.5s-1.49,3.5-3.43,3.5
			C357.44,91.49,355.88,89.93,355.88,87.99z M356.47,99.91c0-0.58,0.26-0.91,0.84-0.91h4.08c0.58,0,0.91,0.32,0.91,0.91v29.94
			c0,0.58-0.32,0.91-0.91,0.91h-4.08c-0.58,0-0.84-0.32-0.84-0.91V99.91z"/>
		<path class="st0" d="M376.1,142.03l4.47-11.15l-12.18-30.78c-0.26-0.71,0-1.1,0.71-1.1h4.15c0.52,0,0.84,0.26,1.04,0.78l9.2,24.37
			l9.2-24.37c0.2-0.52,0.58-0.78,1.1-0.78h4.08c0.71,0,1.04,0.39,0.78,1.1l-16.79,42.19c-0.19,0.52-0.58,0.78-1.1,0.78h-4.02
			C376.1,143.07,375.84,142.68,376.1,142.03z"/>
		<path class="st0" d="M403.12,114.88c0-9.46,7.06-16.65,16.4-16.65c9.33,0,16.33,7.19,16.33,16.65c0,9.46-7,16.65-16.33,16.65
			C410.18,131.54,403.12,124.34,403.12,114.88z M419.52,126.09c6.09,0,10.69-4.54,10.69-11.21s-4.6-11.28-10.69-11.28
			c-6.16,0-10.69,4.6-10.69,11.28S413.36,126.09,419.52,126.09z"/>
		<path class="st0" d="M445.24,123.63v-19.89h-4.08c-0.58,0-0.97-0.39-0.97-0.97v-2.85c0-0.58,0.39-0.91,0.97-0.91h4.08v-7.52
			c0-0.58,0.32-0.91,0.91-0.91h4.08c0.58,0,0.84,0.32,0.84,0.91V99h5.31c0.58,0,0.91,0.32,0.91,0.91v2.85
			c0,0.58-0.32,0.97-0.91,0.97h-5.31v19.12c0,2.33,1.04,3.24,2.92,3.24c0.52,0,1.36-0.06,2.01-0.13c0.91-0.06,1.23,0.26,1.23,0.91
			v2.72c0,1.23-2.66,1.55-4.47,1.55C448.22,131.15,445.24,128.88,445.24,123.63z"/>
		<path class="st0" d="M474.85,129.85V85.33c0-0.58,0.32-0.91,0.91-0.91h4.08c0.58,0,0.91,0.32,0.91,0.91v29.42l13.67-15.23
			c0.32-0.39,0.65-0.52,1.1-0.52h4.92c0.71,0,0.84,0.52,0.39,1.04l-11.47,12.44l13.16,17.17c0.45,0.58,0.19,1.1-0.58,1.1h-4.34
			c-0.52,0-0.84-0.13-1.17-0.58L485.8,116.5l-5.05,5.51v7.84c0,0.58-0.32,0.91-0.91,0.91h-4.08
			C475.17,130.76,474.85,130.43,474.85,129.85z"/>
		<path class="st0" d="M506.8,114.88c0-9.46,7.06-16.65,16.39-16.65c9.33,0,16.33,7.19,16.33,16.65c0,9.46-7,16.65-16.33,16.65
			C513.86,131.54,506.8,124.34,506.8,114.88z M523.19,126.09c6.09,0,10.69-4.54,10.69-11.21s-4.6-11.28-10.69-11.28
			c-6.16,0-10.69,4.6-10.69,11.28S517.03,126.09,523.19,126.09z"/>
		<path class="st0" d="M545.8,129.85V99.91c0-0.58,0.32-0.91,0.91-0.91h3.82c0.65,0,0.91,0.26,0.91,0.97l0.19,4.02
			c1.81-3.24,5.18-5.77,10.3-5.77c6.8,0,11.54,4.6,11.54,12.96v18.66c0,0.58-0.32,0.91-0.91,0.91h-4.08c-0.58,0-0.84-0.32-0.84-0.91
			v-17.76c0-5.31-2.72-8.49-7.58-8.49s-8.42,3.18-8.42,8.49v17.76c0,0.58-0.26,0.91-0.84,0.91h-4.08
			C546.13,130.76,545.8,130.43,545.8,129.85z"/>
		<path class="st0" d="M584.16,129.85v-26.12h-3.76c-0.58,0-0.97-0.39-0.97-0.97v-2.85c0-0.58,0.39-0.91,0.97-0.91h3.76v-6.54
			c0-6.03,3.18-9.07,9.01-9.07c1.36,0,2.53,0.13,3.63,0.65c0.39,0.19,0.58,0.39,0.58,0.84v3.56c0,0.45-0.39,0.52-0.84,0.45
			c-0.84-0.13-1.62-0.19-2.27-0.19c-3.5,0-4.21,2.07-4.21,4.79V99h6.35c0.58,0,0.97,0.32,0.97,0.91v2.85c0,0.58-0.39,0.97-0.97,0.97
			h-6.35v26.12c0,0.58-0.32,0.91-0.91,0.91h-4.08C584.49,130.76,584.16,130.43,584.16,129.85z"/>
		<path class="st0" d="M601.72,114.75c0-9.33,6.54-16.52,16.07-16.52c9.46,0,14.97,7.19,14.97,15.03c0,2.59-0.52,3.76-2.66,3.76
			h-22.68c0.71,5.7,4.8,9.72,11.79,9.72c3.5,0,6.16-0.97,8.62-2.72c0.39-0.26,0.78-0.26,1.04,0.06l1.43,2.01
			c0.45,0.52,0.26,0.91-0.26,1.36c-2.79,2.72-6.87,4.08-11.34,4.08C608.33,131.54,601.72,124.08,601.72,114.75z M627.58,112.68
			c-0.32-5.7-4.08-9.46-9.79-9.46c-5.7,0-9.72,3.56-10.37,9.46H627.58z"/>
		<path class="st0" d="M639.05,129.85V99.91c0-0.58,0.32-0.91,0.91-0.91h3.82c0.65,0,0.91,0.26,0.91,0.97l0.19,3.76
			c1.17-3.11,3.3-5.51,7.19-5.51c1.36,0,2.33,0.26,2.92,0.65c0.39,0.32,0.52,0.58,0.52,1.17v3.24c0,0.71-0.45,0.84-1.17,0.65
			c-0.84-0.19-1.62-0.32-2.33-0.32c-5.31,0-7.13,4.47-7.13,8.29v17.95c0,0.58-0.26,0.91-0.84,0.91h-4.08
			C639.37,130.76,639.05,130.43,639.05,129.85z"/>
		<path class="st0" d="M659.65,114.75c0-9.33,6.54-16.52,16.07-16.52c9.46,0,14.97,7.19,14.97,15.03c0,2.59-0.52,3.76-2.66,3.76
			h-22.68c0.71,5.7,4.8,9.72,11.79,9.72c3.5,0,6.16-0.97,8.62-2.72c0.39-0.26,0.78-0.26,1.04,0.06l1.43,2.01
			c0.45,0.52,0.26,0.91-0.26,1.36c-2.79,2.72-6.87,4.08-11.34,4.08C666.26,131.54,659.65,124.08,659.65,114.75z M685.51,112.68
			c-0.32-5.7-4.08-9.46-9.79-9.46c-5.7,0-9.72,3.56-10.37,9.46H685.51z"/>
		<path class="st0" d="M696.98,129.85V99.91c0-0.58,0.32-0.91,0.91-0.91h3.82c0.65,0,0.91,0.26,0.91,0.97l0.19,4.02
			c1.81-3.24,5.18-5.77,10.3-5.77c6.8,0,11.54,4.6,11.54,12.96v18.66c0,0.58-0.32,0.91-0.91,0.91h-4.08c-0.58,0-0.84-0.32-0.84-0.91
			v-17.76c0-5.31-2.72-8.49-7.58-8.49s-8.42,3.18-8.42,8.49v17.76c0,0.58-0.26,0.91-0.84,0.91h-4.08
			C697.3,130.76,696.98,130.43,696.98,129.85z"/>
		<path class="st0" d="M731.58,126.61c-0.45-0.52-0.39-1.04,0-1.68l1.3-1.81c0.45-0.58,1.04-0.58,1.56-0.07
			c2.14,2.07,4.47,3.43,7.65,3.43c3.31,0,5.57-1.43,5.57-4.34c0-2.59-1.68-3.76-4.54-4.92l-3.82-1.62
			c-3.89-1.62-7.06-4.08-7.06-8.55c0-5.51,4.67-8.81,10.11-8.81c3.76,0,7.26,1.55,9.66,4.54c0.39,0.45,0.26,0.97-0.06,1.36
			l-1.56,1.81c-0.52,0.65-0.97,0.58-1.55,0c-2.01-2.01-4.02-2.92-6.22-2.92c-2.66,0-4.79,1.36-4.79,3.89c0,2.66,1.94,3.69,4.79,4.79
			l3.5,1.43c4.08,1.69,7.39,4.21,7.32,9.14c0,6.03-5.18,9.27-11.08,9.27C737.15,131.54,733.59,129.07,731.58,126.61z"/>
		<path class="st0" d="M759.57,87.99c0-1.94,1.55-3.5,3.5-3.5s3.43,1.56,3.43,3.5s-1.49,3.5-3.43,3.5S759.57,89.93,759.57,87.99z
			 M760.15,99.91c0-0.58,0.26-0.91,0.84-0.91h4.08c0.58,0,0.91,0.32,0.91,0.91v29.94c0,0.58-0.32,0.91-0.91,0.91H761
			c-0.58,0-0.84-0.32-0.84-0.91V99.91z"/>
		<path class="st0" d="M779.79,142.03l4.47-11.15l-12.18-30.78c-0.26-0.71,0-1.1,0.71-1.1h4.15c0.52,0,0.84,0.26,1.04,0.78
			l9.2,24.37l9.2-24.37c0.19-0.52,0.58-0.78,1.1-0.78h4.08c0.71,0,1.04,0.39,0.78,1.1l-16.78,42.19c-0.19,0.52-0.58,0.78-1.1,0.78
			h-4.02C779.79,143.07,779.53,142.68,779.79,142.03z"/>
		<path class="st0" d="M806.81,114.88c0-9.46,6.35-16.65,15.49-16.65c5.44,0,9.46,2.53,11.73,6.54l0.13-4.86
			c0-0.58,0.26-0.91,0.84-0.91h3.76c0.58,0,0.91,0.32,0.91,0.91v29.94c0,0.58-0.32,0.91-0.91,0.91H835c-0.58,0-0.84-0.32-0.84-0.91
			l-0.13-4.73c-2.33,3.95-6.29,6.42-11.73,6.42C813.16,131.54,806.81,124.41,806.81,114.88z M823.33,126.16
			c6.22,0,10.56-4.47,10.56-11.21c0-6.74-4.34-11.34-10.56-11.34c-6.29,0-10.82,4.6-10.82,11.28
			C812.51,121.62,817.04,126.16,823.33,126.16z"/>
		<path class="st0" d="M846.59,126.61c-0.45-0.52-0.39-1.04,0-1.68l1.3-1.81c0.45-0.58,1.04-0.58,1.56-0.07
			c2.14,2.07,4.47,3.43,7.65,3.43c3.31,0,5.57-1.43,5.57-4.34c0-2.59-1.68-3.76-4.54-4.92l-3.82-1.62
			c-3.89-1.62-7.06-4.08-7.06-8.55c0-5.51,4.67-8.81,10.11-8.81c3.76,0,7.26,1.55,9.66,4.54c0.39,0.45,0.26,0.97-0.06,1.36
			l-1.56,1.81c-0.52,0.65-0.97,0.58-1.55,0c-2.01-2.01-4.02-2.92-6.22-2.92c-2.66,0-4.79,1.36-4.79,3.89c0,2.66,1.94,3.69,4.79,4.79
			l3.5,1.43c4.08,1.69,7.39,4.21,7.32,9.14c0,6.03-5.18,9.27-11.08,9.27C852.16,131.54,848.6,129.07,846.59,126.61z"/>
		<path class="st0" d="M874.58,87.99c0-1.94,1.55-3.5,3.5-3.5s3.43,1.56,3.43,3.5s-1.49,3.5-3.43,3.5S874.58,89.93,874.58,87.99z
			 M875.17,99.91c0-0.58,0.26-0.91,0.84-0.91h4.08c0.58,0,0.91,0.32,0.91,0.91v29.94c0,0.58-0.32,0.91-0.91,0.91h-4.08
			c-0.58,0-0.84-0.32-0.84-0.91V99.91z"/>
	</g>
</g>
</svg>
