<?xml version="1.0" encoding="utf-8"?>
<!-- Generator: Adobe Illustrator 27.1.1, SVG Export Plug-In . SVG Version: 6.00 Build 0)  -->
<svg version="1.1" id="Layer_1" xmlns="http://www.w3.org/2000/svg" xmlns:xlink="http://www.w3.org/1999/xlink" x="0px" y="0px"
	 viewBox="0 0 997.36 152.29" style="enable-background:new 0 0 997.36 152.29;" xml:space="preserve">
<style type="text/css">
	.st0{stroke:#000000;stroke-width:0.5;stroke-miterlimit:10;}
</style>
<g>
	<g>
		<path d="M141.23,15.01h-0.14H13.58h-0.14c-1.93,0-3.52,1.58-3.52,3.51v7.28c0,18.62,15.09,33.71,33.71,33.71
			c18.62,0,33.71-15.09,33.71-33.71c0,18.62,15.09,33.71,33.71,33.71s33.71-15.09,33.71-33.71v-7.28
			C144.75,16.59,143.16,15.01,141.23,15.01"/>
		<path d="M50.62,62.29h-7C25,62.29,9.9,77.4,9.9,96.02c0,18.63,15.1,33.73,33.73,33.73h7c2.09,0,3.8-1.72,3.8-3.81v-0.16V66.25
			V66.1C54.43,64.01,52.72,62.29,50.62,62.29"/>
		<path d="M95.83,62.29h-7c-18.63,0-33.73,15.1-33.73,33.73c0,18.63,15.11,33.73,33.73,33.73h7c2.09,0,3.8-1.72,3.8-3.81v-0.16
			V66.25V66.1C99.63,64.01,97.92,62.29,95.83,62.29"/>
		<path d="M136.17,84.81v-0.03h2.7h0.65c2.86,0,5.2-2.34,5.2-5.2v-1.33V66.26V66.1c0-2.09-1.72-3.8-3.81-3.8h-7.89v0.03
			c-18.15,0.54-32.71,15.41-32.71,33.71c0,18.29,14.56,33.16,32.71,33.7v0.03h1.02h6.87c2.09,0,3.81-1.71,3.81-3.81v-0.16V113.8
			v-1.33c0-2.86-2.34-5.2-5.2-5.2h-0.65h-2.7v-0.03c4.82-0.31,8.67-4.35,8.67-9.24v-1.97v-1.97
			C144.84,89.16,140.99,85.13,136.17,84.81"/>
	</g>
	<g>
		<path class="st0" d="M165.88,59.74V16.19c0-0.58,0.39-0.91,0.97-0.91h4.21c0.58,0,0.91,0.32,0.91,0.91v43.55
			c0,0.58-0.32,0.91-0.91,0.91h-4.21C166.27,60.65,165.88,60.32,165.88,59.74z"/>
		<path class="st0" d="M193.94,59.87l-15.55-43.48c-0.26-0.65,0-1.1,0.71-1.1h4.41c0.58,0,0.91,0.19,1.1,0.78l12.9,37.2l12.9-37.2
			c0.19-0.58,0.52-0.78,1.04-0.78h4.41c0.71,0,1.04,0.45,0.78,1.1l-15.55,43.48c-0.19,0.52-0.71,0.78-1.23,0.78h-4.73
			C194.58,60.65,194.13,60.39,193.94,59.87z"/>
		<path class="st0" d="M233.98,59.74V16.19c0-0.58,0.39-0.91,0.97-0.91h13.67c8.94,0,12.38,5.51,12.38,11.08
			c0,4.34-2.27,8.17-6.42,9.72c5.57,1.3,9.2,5.77,9.2,11.86c0,7.45-5.05,12.7-15.42,12.7h-13.41
			C234.37,60.65,233.98,60.32,233.98,59.74z M247.78,34.08c4.54,0,7.45-2.46,7.45-7c0-4.6-2.92-6.42-7.45-6.42h-7.78v13.41H247.78z
			 M247.98,55.27c6.29,0,9.66-2.79,9.66-8.1c0-5.25-3.37-8.23-9.66-8.23h-7.97v16.33H247.98z"/>
		<path class="st0" d="M267.8,44.71c0-9.46,7.13-16.59,16.59-16.59c5.05,0,9.27,2.07,11.99,5.38c0.39,0.52,0.39,0.97,0,1.36
			l-2.27,2.14c-0.52,0.58-1.1,0.39-1.49,0c-1.94-2.07-4.28-3.5-8.04-3.5c-6.42,0-11.08,4.67-11.08,11.21s4.67,11.28,11.21,11.28
			c3.69,0,6.03-1.36,7.91-3.37c0.45-0.45,1.04-0.65,1.56-0.13l2.27,2.2c0.39,0.39,0.39,0.84,0,1.3c-2.72,3.37-6.93,5.44-12.05,5.44
			C274.93,61.42,267.8,54.23,267.8,44.71z"/>
		<path class="st0" d="M300.78,44.64c0-9.33,6.54-16.52,16.07-16.52c9.46,0,14.97,7.19,14.97,15.03c0,2.59-0.52,3.76-2.66,3.76
			h-22.68c0.71,5.7,4.8,9.72,11.79,9.72c3.5,0,6.16-0.97,8.62-2.72c0.39-0.26,0.78-0.26,1.04,0.06l1.43,2.01
			c0.45,0.52,0.26,0.91-0.26,1.36c-2.79,2.72-6.87,4.08-11.34,4.08C307.39,61.42,300.78,53.97,300.78,44.64z M326.64,42.57
			c-0.32-5.7-4.08-9.46-9.79-9.46c-5.7,0-9.72,3.56-10.37,9.46H326.64z"/>
		<path class="st0" d="M353.4,59.93l-10.04-21.13v20.93c0,0.58-0.26,0.91-0.84,0.91h-4.15c-0.58,0-0.84-0.32-0.84-0.91V29.8
			c0-0.58,0.26-0.91,0.84-0.91h5.18c0.52,0,0.91,0.26,1.1,0.71l12.05,25.01l12.05-25.01c0.26-0.45,0.58-0.71,1.1-0.71h5.25
			c0.58,0,0.84,0.32,0.84,0.91v29.94c0,0.58-0.26,0.91-0.84,0.91h-4.15c-0.58,0-0.84-0.32-0.84-0.91V38.81l-10.11,21.13
			c-0.2,0.45-0.58,0.71-1.1,0.71h-4.41C353.98,60.65,353.6,60.39,353.4,59.93z"/>
		<path class="st0" d="M406.08,28.89h5.12c0.58,0,0.84,0.32,0.84,0.91v29.94c0,0.58-0.26,0.91-0.84,0.91h-4.08
			c-0.58,0-0.91-0.32-0.91-0.91V36.22L390.72,60c-0.26,0.39-0.71,0.65-1.23,0.65h-5.31c-0.58,0-0.91-0.32-0.91-0.91V29.8
			c0-0.58,0.32-0.91,0.91-0.91h4.08c0.58,0,0.91,0.32,0.91,0.91v23.78l15.68-24.04C405.11,29.15,405.56,28.89,406.08,28.89z"/>
		<path class="st0" d="M419.36,72.05V29.8c0-0.58,0.32-0.91,0.91-0.91h3.76c0.58,0,0.84,0.32,0.84,0.91l0.13,4.86
			c2.27-4.02,6.29-6.54,11.73-6.54c9.14,0,15.49,7.19,15.49,16.65c0,9.53-6.35,16.66-15.49,16.66c-5.25,0-9.2-2.33-11.47-6.09v16.72
			c0,0.58-0.32,0.91-0.91,0.91h-4.08C419.69,72.96,419.36,72.64,419.36,72.05z M435.69,56.05c6.29,0,10.82-4.54,10.82-11.28
			c0-6.67-4.54-11.28-10.82-11.28c-6.22,0-10.56,4.6-10.56,11.34C425.13,51.57,429.47,56.05,435.69,56.05z"/>
		<path class="st0" d="M457.85,59.74V29.8c0-0.58,0.32-0.91,0.91-0.91h4.08c0.58,0,0.91,0.32,0.91,0.91v13.16h17.17V29.8
			c0-0.58,0.32-0.91,0.91-0.91h4.08c0.58,0,0.91,0.32,0.91,0.91v29.94c0,0.58-0.32,0.91-0.91,0.91h-4.08
			c-0.58,0-0.91-0.32-0.91-0.91V47.95h-17.17v11.79c0,0.58-0.32,0.91-0.91,0.91h-4.08C458.18,60.65,457.85,60.32,457.85,59.74z"/>
		<path class="st0" d="M492.46,44.77c0-9.46,6.35-16.65,15.49-16.65c5.44,0,9.46,2.53,11.73,6.54l0.13-4.86
			c0-0.58,0.26-0.91,0.84-0.91h3.76c0.58,0,0.91,0.32,0.91,0.91v29.94c0,0.58-0.32,0.91-0.91,0.91h-3.76
			c-0.58,0-0.84-0.32-0.84-0.91l-0.13-4.73c-2.33,3.95-6.29,6.42-11.73,6.42C498.81,61.42,492.46,54.3,492.46,44.77z M508.98,56.05
			c6.22,0,10.56-4.47,10.56-11.21c0-6.74-4.34-11.34-10.56-11.34c-6.29,0-10.82,4.6-10.82,11.28
			C498.16,51.51,502.69,56.05,508.98,56.05z"/>
		<path class="st0" d="M552.07,59.74v-9.72h-5.7l-8.75,10.11c-0.32,0.39-0.65,0.52-1.1,0.52h-4.34c-0.84,0-1.04-0.52-0.45-1.17
			l8.55-9.59c-6.09-0.84-9.27-4.86-9.27-10.37c0-6.29,4.02-10.63,11.67-10.63h14.39c0.58,0,0.91,0.32,0.91,0.91v29.94
			c0,0.58-0.32,0.91-0.91,0.91h-4.08C552.39,60.65,552.07,60.32,552.07,59.74z M543.26,45.35h8.81V33.69h-8.81
			c-4.41,0-6.61,2.27-6.61,5.83S538.85,45.35,543.26,45.35z"/>
		<path class="st0" d="M597.43,60.13l-11.34-12.9l-4.02,4.15v8.36c0,0.58-0.32,0.91-0.91,0.91h-4.08c-0.58,0-0.91-0.32-0.91-0.91
			V29.8c0-0.58,0.32-0.91,0.91-0.91h4.08c0.58,0,0.91,0.32,0.91,0.91v14.45l13.48-14.84c0.39-0.39,0.78-0.52,1.23-0.52h4.79
			c0.84,0,1.1,0.52,0.52,1.17l-12.31,13.28l14.13,16.14c0.52,0.58,0.26,1.17-0.58,1.17h-4.73
			C598.14,60.65,597.75,60.52,597.43,60.13z"/>
		<path class="st0" d="M607.54,44.77c0-9.46,7.06-16.65,16.39-16.65c9.33,0,16.33,7.19,16.33,16.65c0,9.46-7,16.66-16.33,16.66
			C614.6,61.42,607.54,54.23,607.54,44.77z M623.93,55.98c6.09,0,10.69-4.54,10.69-11.21s-4.6-11.28-10.69-11.28
			c-6.16,0-10.69,4.6-10.69,11.28S617.77,55.98,623.93,55.98z"/>
		<path class="st0" d="M645.89,59.74V29.8c0-0.58,0.32-0.91,0.91-0.91h4.08c0.58,0,0.91,0.32,0.91,0.91v13.16h17.17V29.8
			c0-0.58,0.32-0.91,0.91-0.91h4.08c0.58,0,0.91,0.32,0.91,0.91v29.94c0,0.58-0.32,0.91-0.91,0.91h-4.08
			c-0.58,0-0.91-0.32-0.91-0.91V47.95h-17.17v11.79c0,0.58-0.32,0.91-0.91,0.91h-4.08C646.22,60.65,645.89,60.32,645.89,59.74z"/>
		<path class="st0" d="M705.83,72.05V55.92c-2.33,3.3-5.9,5.51-10.56,5.51c-8.55,0-14.77-7.39-14.77-16.66
			c0-9.27,6.22-16.59,14.77-16.59c4.67,0,8.23,2.2,10.56,5.51V17.62c0-0.58,0.32-0.97,0.91-0.97h4.02c0.58,0,0.91,0.39,0.91,0.97
			v16.07c2.33-3.31,5.9-5.51,10.56-5.51c8.55,0,14.71,7.32,14.71,16.59c0,9.27-6.16,16.66-14.71,16.66c-4.67,0-8.23-2.2-10.56-5.51
			v16.14c0,0.58-0.32,0.91-0.91,0.91h-4.02C706.16,72.96,705.83,72.64,705.83,72.05z M695.98,56.11c5.83,0,9.85-5.12,9.85-11.28
			c0-6.16-4.02-11.34-9.85-11.34c-5.7,0-9.85,4.86-9.85,11.34S690.28,56.11,695.98,56.11z M721.52,56.11
			c5.64,0,9.85-4.79,9.85-11.28s-4.21-11.34-9.85-11.34c-5.83,0-9.85,5.18-9.85,11.34C711.67,50.99,715.68,56.11,721.52,56.11z"/>
		<path class="st0" d="M741.02,44.64c0-9.33,6.54-16.52,16.07-16.52c9.46,0,14.97,7.19,14.97,15.03c0,2.59-0.52,3.76-2.66,3.76
			h-22.68c0.71,5.7,4.8,9.72,11.79,9.72c3.5,0,6.16-0.97,8.62-2.72c0.39-0.26,0.78-0.26,1.04,0.06l1.43,2.01
			c0.45,0.52,0.26,0.91-0.26,1.36c-2.79,2.72-6.87,4.08-11.34,4.08C747.63,61.42,741.02,53.97,741.02,44.64z M766.87,42.57
			c-0.32-5.7-4.08-9.46-9.79-9.46c-5.7,0-9.72,3.56-10.37,9.46H766.87z"/>
		<path class="st0" d="M777.69,72.05V29.8c0-0.58,0.32-0.91,0.91-0.91h3.76c0.58,0,0.84,0.32,0.84,0.91l0.13,4.86
			c2.27-4.02,6.29-6.54,11.73-6.54c9.14,0,15.49,7.19,15.49,16.65c0,9.53-6.35,16.66-15.49,16.66c-5.25,0-9.2-2.33-11.47-6.09v16.72
			c0,0.58-0.32,0.91-0.91,0.91h-4.08C778.02,72.96,777.69,72.64,777.69,72.05z M794.02,56.05c6.29,0,10.82-4.54,10.82-11.28
			c0-6.67-4.54-11.28-10.82-11.28c-6.22,0-10.56,4.6-10.56,11.34C783.46,51.57,787.8,56.05,794.02,56.05z"/>
		<path class="st0" d="M814.56,44.64c0-9.33,6.54-16.52,16.07-16.52c9.46,0,14.97,7.19,14.97,15.03c0,2.59-0.52,3.76-2.66,3.76
			h-22.68c0.71,5.7,4.8,9.72,11.79,9.72c3.5,0,6.16-0.97,8.62-2.72c0.39-0.26,0.78-0.26,1.04,0.06l1.43,2.01
			c0.45,0.52,0.26,0.91-0.26,1.36c-2.79,2.72-6.87,4.08-11.34,4.08C821.17,61.42,814.56,53.97,814.56,44.64z M840.42,42.57
			c-0.32-5.7-4.08-9.46-9.79-9.46c-5.7,0-9.72,3.56-10.37,9.46H840.42z"/>
		<path class="st0" d="M851.24,59.74V29.8c0-0.58,0.32-0.91,0.91-0.91h4.08c0.58,0,0.91,0.32,0.91,0.91v13.16h17.17V29.8
			c0-0.58,0.32-0.91,0.91-0.91h4.08c0.58,0,0.91,0.32,0.91,0.91v29.94c0,0.58-0.32,0.91-0.91,0.91h-4.08
			c-0.58,0-0.91-0.32-0.91-0.91V47.95h-17.17v11.79c0,0.58-0.32,0.91-0.91,0.91h-4.08C851.56,60.65,851.24,60.32,851.24,59.74z"/>
		<path class="st0" d="M887.46,59.74V29.8c0-0.58,0.32-0.91,0.91-0.91h4.08c0.58,0,0.91,0.32,0.91,0.91v25.86h17.76V29.8
			c0-0.58,0.32-0.91,0.91-0.91h4.08c0.58,0,0.84,0.32,0.84,0.91v25.92h2.33c0.58,0,0.91,0.39,0.91,0.97v7.32
			c0,0.58-0.32,0.91-0.91,0.91h-3.76c-0.58,0-0.97-0.32-0.97-0.91v-3.37h-26.18C887.78,60.65,887.46,60.32,887.46,59.74z"/>
		<path class="st0" d="M947.46,28.89h5.12c0.58,0,0.84,0.32,0.84,0.91v29.94c0,0.58-0.26,0.91-0.84,0.91h-4.08
			c-0.58,0-0.91-0.32-0.91-0.91V36.22L932.11,60c-0.26,0.39-0.71,0.65-1.23,0.65h-5.31c-0.58,0-0.91-0.32-0.91-0.91V29.8
			c0-0.58,0.32-0.91,0.91-0.91h4.08c0.58,0,0.91,0.32,0.91,0.91v23.78l15.68-24.04C946.49,29.15,946.95,28.89,947.46,28.89z"/>
		<path class="st0" d="M980.25,59.74v-9.72h-5.7l-8.75,10.11c-0.32,0.39-0.65,0.52-1.1,0.52h-4.34c-0.84,0-1.04-0.52-0.45-1.17
			l8.55-9.59c-6.09-0.84-9.27-4.86-9.27-10.37c0-6.29,4.02-10.63,11.67-10.63h14.39c0.58,0,0.91,0.32,0.91,0.91v29.94
			c0,0.58-0.32,0.91-0.91,0.91h-4.08C980.57,60.65,980.25,60.32,980.25,59.74z M971.44,45.35h8.81V33.69h-8.81
			c-4.41,0-6.61,2.27-6.61,5.83S967.03,45.35,971.44,45.35z"/>
	</g>
	<g>
		<path class="st0" d="M165.23,128.85V98.91c0-0.58,0.32-0.91,0.91-0.91h27.74c0.58,0,0.84,0.32,0.84,0.91v29.94
			c0,0.58-0.26,0.91-0.84,0.91h-4.08c-0.58,0-0.91-0.32-0.91-0.91v-25.86h-17.76v25.86c0,0.58-0.32,0.91-0.91,0.91h-4.08
			C165.55,129.76,165.23,129.43,165.23,128.85z"/>
		<path class="st0" d="M200.41,113.88c0-9.46,7.06-16.65,16.39-16.65c9.33,0,16.33,7.19,16.33,16.65c0,9.46-7,16.65-16.33,16.65
			C207.48,130.54,200.41,123.34,200.41,113.88z M216.81,125.09c6.09,0,10.69-4.54,10.69-11.21s-4.6-11.28-10.69-11.28
			c-6.16,0-10.69,4.6-10.69,11.28S210.65,125.09,216.81,125.09z"/>
		<path class="st0" d="M270.98,129.24l-11.34-12.9l-4.02,4.15v8.36c0,0.58-0.32,0.91-0.91,0.91h-4.08c-0.58,0-0.91-0.32-0.91-0.91
			V98.91c0-0.58,0.32-0.91,0.91-0.91h4.08c0.58,0,0.91,0.32,0.91,0.91v14.45l13.48-14.84c0.39-0.39,0.78-0.52,1.23-0.52h4.79
			c0.84,0,1.1,0.52,0.52,1.17l-12.31,13.29l14.13,16.14c0.52,0.58,0.26,1.17-0.58,1.17h-4.73
			C271.69,129.76,271.3,129.63,270.98,129.24z"/>
		<path class="st0" d="M282.71,141.16V98.91c0-0.58,0.32-0.91,0.91-0.91h3.76c0.58,0,0.84,0.32,0.84,0.91l0.13,4.86
			c2.27-4.02,6.29-6.54,11.73-6.54c9.14,0,15.49,7.19,15.49,16.65c0,9.53-6.35,16.65-15.49,16.65c-5.25,0-9.2-2.33-11.47-6.09v16.72
			c0,0.58-0.32,0.91-0.91,0.91h-4.08C283.03,142.07,282.71,141.75,282.71,141.16z M299.04,125.16c6.29,0,10.82-4.54,10.82-11.28
			c0-6.67-4.54-11.28-10.82-11.28c-6.22,0-10.56,4.6-10.56,11.34C288.47,120.69,292.82,125.16,299.04,125.16z"/>
		<path class="st0" d="M319.58,113.75c0-9.33,6.54-16.52,16.07-16.52c9.46,0,14.97,7.19,14.97,15.03c0,2.59-0.52,3.76-2.66,3.76
			h-22.68c0.71,5.7,4.8,9.72,11.79,9.72c3.5,0,6.16-0.97,8.62-2.72c0.39-0.26,0.78-0.26,1.04,0.06l1.43,2.01
			c0.45,0.52,0.26,0.91-0.26,1.36c-2.79,2.72-6.87,4.08-11.34,4.08C326.18,130.54,319.58,123.08,319.58,113.75z M345.43,111.68
			c-0.32-5.7-4.08-9.46-9.79-9.46c-5.7,0-9.72,3.56-10.37,9.46H345.43z"/>
		<path class="st0" d="M354.63,113.88c0-9.46,6.35-16.65,15.49-16.65c5.44,0,9.46,2.53,11.73,6.54l0.13-4.86
			c0-0.58,0.26-0.91,0.84-0.91h3.76c0.58,0,0.91,0.32,0.91,0.91v29.94c0,0.58-0.32,0.91-0.91,0.91h-3.76
			c-0.58,0-0.84-0.32-0.84-0.91l-0.13-4.73c-2.33,3.95-6.29,6.42-11.73,6.42C360.98,130.54,354.63,123.41,354.63,113.88z
			 M371.16,125.16c6.22,0,10.56-4.47,10.56-11.21c0-6.74-4.34-11.34-10.56-11.34c-6.29,0-10.82,4.6-10.82,11.28
			C360.33,120.62,364.87,125.16,371.16,125.16z"/>
		<path class="st0" d="M402.06,128.79v-25.79h-8.1c-0.58,0-0.97-0.39-0.97-0.97v-3.05c0-0.58,0.39-0.97,0.97-0.97H416
			c0.58,0,0.97,0.39,0.97,0.97v3.05c0,0.58-0.39,0.97-0.97,0.97h-8.1v25.79c0,0.58-0.39,0.97-0.97,0.97h-3.89
			C402.45,129.76,402.06,129.37,402.06,128.79z"/>
		<path class="st0" d="M445.28,98h5.12c0.58,0,0.84,0.32,0.84,0.91v29.94c0,0.58-0.26,0.91-0.84,0.91h-4.08
			c-0.58,0-0.91-0.32-0.91-0.91v-23.52l-15.49,23.78c-0.26,0.39-0.71,0.65-1.23,0.65h-5.31c-0.58,0-0.91-0.32-0.91-0.91V98.91
			c0-0.58,0.32-0.91,0.91-0.91h4.08c0.58,0,0.91,0.32,0.91,0.91v23.78l15.68-24.04C444.31,98.26,444.77,98,445.28,98z"/>
		<path class="st0" d="M458.57,128.85V98.91c0-0.58,0.32-0.91,0.91-0.91h13.74c5.96,0,9.66,3.18,9.66,7.91
			c0,3.37-1.88,5.83-4.41,6.67c4.15,0.97,6.61,3.89,6.61,8.04c0,5.25-3.95,9.14-12.18,9.14h-13.41
			C458.89,129.76,458.57,129.43,458.57,128.85z M472.89,110.9c3.37,0,4.67-1.88,4.67-4.15c0-2.2-1.3-3.89-4.67-3.89h-8.42v8.04
			H472.89z M472.82,124.83c5.12,0,6.74-2.07,6.74-4.8c0-2.79-1.68-5.05-7.26-5.05h-7.84v9.85H472.82z"/>
		<path class="st0" d="M490.71,128.85V98.91c0-0.58,0.32-0.91,0.91-0.91h4.08c0.58,0,0.91,0.32,0.91,0.91v13.16h17.17V98.91
			c0-0.58,0.32-0.91,0.91-0.91h4.08c0.58,0,0.91,0.32,0.91,0.91v29.94c0,0.58-0.32,0.91-0.91,0.91h-4.08
			c-0.58,0-0.91-0.32-0.91-0.91v-11.79H496.6v11.79c0,0.58-0.32,0.91-0.91,0.91h-4.08C491.03,129.76,490.71,129.43,490.71,128.85z"
			/>
		<path class="st0" d="M525.31,113.88c0-9.46,7.06-16.65,16.39-16.65c9.33,0,16.33,7.19,16.33,16.65c0,9.46-7,16.65-16.33,16.65
			C532.37,130.54,525.31,123.34,525.31,113.88z M541.7,125.09c6.09,0,10.69-4.54,10.69-11.21s-4.6-11.28-10.69-11.28
			c-6.16,0-10.69,4.6-10.69,11.28S535.55,125.09,541.7,125.09z"/>
		<path class="st0" d="M586.48,98h5.12c0.58,0,0.84,0.32,0.84,0.91v29.94c0,0.58-0.26,0.91-0.84,0.91h-4.08
			c-0.58,0-0.91-0.32-0.91-0.91v-23.52l-15.49,23.78c-0.26,0.39-0.71,0.65-1.23,0.65h-5.31c-0.58,0-0.91-0.32-0.91-0.91V98.91
			c0-0.58,0.32-0.91,0.91-0.91h4.08c0.58,0,0.91,0.32,0.91,0.91v23.78l15.68-24.04C585.51,98.26,585.96,98,586.48,98z M570.15,84.39
			h2.14c0.58,0,0.97,0.32,1.04,0.91c0.32,2.4,2.07,4.15,5.12,4.15c3.05,0,4.8-1.75,5.12-4.15c0.06-0.58,0.45-0.91,1.04-0.91h2.14
			c0.65,0,0.97,0.32,0.91,0.97c-0.26,4.47-3.69,7.78-9.2,7.78c-5.51,0-8.94-3.3-9.2-7.78C569.17,84.72,569.5,84.39,570.15,84.39z"/>
		<path class="st0" d="M609.41,125.09c-0.39-0.45-0.39-0.91,0-1.3l2.27-2.2c0.52-0.52,1.1-0.32,1.56,0.13
			c1.88,2.01,4.21,3.37,7.91,3.37c5.77,0,10.04-3.63,11.02-8.94h-11.53c-0.58,0-0.91-0.32-0.91-0.91v-2.59
			c0-0.58,0.32-0.91,0.91-0.91h11.53c-0.84-5.44-5.18-9.14-10.89-9.14c-3.76,0-6.09,1.43-8.04,3.5c-0.39,0.39-0.97,0.58-1.49,0
			l-2.27-2.14c-0.39-0.39-0.39-0.84,0-1.36c2.72-3.3,6.93-5.38,11.99-5.38c9.46,0,16.59,7.13,16.59,16.59
			c0,9.53-7.13,16.72-16.59,16.72C616.35,130.54,612.13,128.46,609.41,125.09z"/>
		<path class="st0" d="M664.94,129.24l-11.34-12.9l-4.02,4.15v8.36c0,0.58-0.32,0.91-0.91,0.91h-4.08c-0.58,0-0.91-0.32-0.91-0.91
			V98.91c0-0.58,0.32-0.91,0.91-0.91h4.08c0.58,0,0.91,0.32,0.91,0.91v14.45l13.48-14.84c0.39-0.39,0.78-0.52,1.23-0.52h4.79
			c0.84,0,1.1,0.52,0.52,1.17l-12.31,13.29l14.13,16.14c0.52,0.58,0.26,1.17-0.58,1.17h-4.73
			C665.66,129.76,665.27,129.63,664.94,129.24z"/>
		<path class="st0" d="M675.05,113.88c0-9.46,7.06-16.65,16.39-16.65c9.33,0,16.33,7.19,16.33,16.65c0,9.46-7,16.65-16.33,16.65
			C682.11,130.54,675.05,123.34,675.05,113.88z M691.45,125.09c6.09,0,10.69-4.54,10.69-11.21s-4.6-11.28-10.69-11.28
			c-6.16,0-10.69,4.6-10.69,11.28S685.29,125.09,691.45,125.09z"/>
		<path class="st0" d="M713.41,128.85V98.91c0-0.58,0.32-0.91,0.91-0.91h4.08c0.58,0,0.91,0.32,0.91,0.91v13.16h17.17V98.91
			c0-0.58,0.32-0.91,0.91-0.91h4.08c0.58,0,0.91,0.32,0.91,0.91v29.94c0,0.58-0.32,0.91-0.91,0.91h-4.08
			c-0.58,0-0.91-0.32-0.91-0.91v-11.79h-17.17v11.79c0,0.58-0.32,0.91-0.91,0.91h-4.08C713.73,129.76,713.41,129.43,713.41,128.85z"
			/>
		<path class="st0" d="M748.01,113.88c0-9.46,7.06-16.65,16.39-16.65c9.33,0,16.33,7.19,16.33,16.65c0,9.46-7,16.65-16.33,16.65
			C755.08,130.54,748.01,123.34,748.01,113.88z M764.41,125.09c6.09,0,10.69-4.54,10.69-11.21s-4.6-11.28-10.69-11.28
			c-6.16,0-10.69,4.6-10.69,11.28S758.25,125.09,764.41,125.09z"/>
		<path class="st0" d="M802.31,129.04l-10.04-21.13v20.93c0,0.58-0.26,0.91-0.84,0.91h-4.15c-0.58,0-0.84-0.32-0.84-0.91V98.91
			c0-0.58,0.26-0.91,0.84-0.91h5.18c0.52,0,0.91,0.26,1.1,0.71l12.05,25.01l12.05-25.01c0.26-0.45,0.58-0.71,1.1-0.71h5.25
			c0.58,0,0.84,0.32,0.84,0.91v29.94c0,0.58-0.26,0.91-0.84,0.91h-4.15c-0.58,0-0.84-0.32-0.84-0.91v-20.93l-10.11,21.13
			c-0.2,0.45-0.58,0.71-1.1,0.71h-4.41C802.9,129.76,802.51,129.5,802.31,129.04z"/>
		<path class="st0" d="M854.99,98h5.12c0.58,0,0.84,0.32,0.84,0.91v29.94c0,0.58-0.26,0.91-0.84,0.91h-4.08
			c-0.58,0-0.91-0.32-0.91-0.91v-23.52l-15.49,23.78c-0.26,0.39-0.71,0.65-1.23,0.65h-5.31c-0.58,0-0.91-0.32-0.91-0.91V98.91
			c0-0.58,0.32-0.91,0.91-0.91h4.08c0.58,0,0.91,0.32,0.91,0.91v23.78l15.68-24.04C854.02,98.26,854.48,98,854.99,98z"/>
		<path class="st0" d="M889.53,129.24l-11.34-12.9l-4.02,4.15v8.36c0,0.58-0.32,0.91-0.91,0.91h-4.08c-0.58,0-0.91-0.32-0.91-0.91
			V98.91c0-0.58,0.32-0.91,0.91-0.91h4.08c0.58,0,0.91,0.32,0.91,0.91v14.45l13.48-14.84c0.39-0.39,0.78-0.52,1.23-0.52h4.79
			c0.84,0,1.1,0.52,0.52,1.17l-12.31,13.29l14.13,16.14c0.52,0.58,0.26,1.17-0.58,1.17h-4.73
			C890.24,129.76,889.86,129.63,889.53,129.24z"/>
		<path class="st0" d="M899.64,113.75c0-9.33,6.54-16.52,16.07-16.52c9.46,0,14.97,7.19,14.97,15.03c0,2.59-0.52,3.76-2.66,3.76
			h-22.68c0.71,5.7,4.8,9.72,11.79,9.72c3.5,0,6.16-0.97,8.62-2.72c0.39-0.26,0.78-0.26,1.04,0.06l1.43,2.01
			c0.45,0.52,0.26,0.91-0.26,1.36c-2.79,2.72-6.87,4.08-11.34,4.08C906.25,130.54,899.64,123.08,899.64,113.75z M925.49,111.68
			c-0.32-5.7-4.08-9.46-9.79-9.46c-5.7,0-9.72,3.56-10.37,9.46H925.49z"/>
	</g>
</g>
</svg>
