<svg width="276" height="47" viewBox="0 0 276 47" fill="none" xmlns="http://www.w3.org/2000/svg">
<g clip-path="url(#clip0_8_9)">
<path d="M48.34 0.260003H1.33997C1.17187 0.258685 1.00517 0.29049 0.849365 0.353601C0.693564 0.416712 0.551795 0.509893 0.432007 0.627824C0.312218 0.745756 0.216783 0.886121 0.151245 1.04092C0.0857076 1.19571 0.0513569 1.36191 0.0500488 1.53V4.15C0.141738 7.37904 1.48879 10.4451 3.80518 12.6966C6.12156 14.9482 9.22462 16.2078 12.455 16.2078C15.6853 16.2078 18.7883 14.9482 21.1047 12.6966C23.4211 10.4451 24.7683 7.37904 24.86 4.15C24.9517 7.37904 26.2988 10.4451 28.6152 12.6966C30.9316 14.9482 34.0347 16.2078 37.265 16.2078C40.4954 16.2078 43.5984 14.9482 45.9148 12.6966C48.2312 10.4451 49.5784 7.37904 49.67 4.15V1.53C49.6687 1.36191 49.6343 1.19571 49.5687 1.04092C49.5032 0.886121 49.4079 0.745756 49.2881 0.627824C49.1683 0.509893 49.0264 0.416712 48.8706 0.353601C48.7148 0.29049 48.5481 0.258685 48.38 0.260003" fill="#020200"/>
<path d="M14.99 17.29H12.42C10.7958 17.2434 9.17867 17.523 7.66443 18.1124C6.15019 18.7018 4.76959 19.5889 3.60425 20.7213C2.43891 21.8537 1.51258 23.2083 0.880005 24.705C0.247433 26.2017 -0.0784912 27.8101 -0.0784912 29.435C-0.0784912 31.0599 0.247433 32.6683 0.880005 34.165C1.51258 35.6617 2.43891 37.0163 3.60425 38.1487C4.76959 39.2811 6.15019 40.1682 7.66443 40.7576C9.17867 41.347 10.7958 41.6266 12.42 41.58H14.99C15.3569 41.5827 15.71 41.4402 15.9723 41.1835C16.2346 40.9269 16.3847 40.5769 16.39 40.21V18.71C16.3847 18.3431 16.2346 17.9931 15.9723 17.7365C15.71 17.4799 15.3569 17.3373 14.99 17.34" fill="#020200"/>
<path d="M31.63 17.29H29.0599C27.4357 17.2434 25.8187 17.523 24.3044 18.1124C22.7902 18.7018 21.4096 19.5889 20.2443 20.7213C19.0789 21.8537 18.1526 23.2083 17.52 24.705C16.8874 26.2017 16.5615 27.8101 16.5615 29.435C16.5615 31.0599 16.8874 32.6683 17.52 34.165C18.1526 35.6617 19.0789 37.0163 20.2443 38.1487C21.4096 39.2811 22.7902 40.1682 24.3044 40.7576C25.8187 41.347 27.4357 41.6266 29.0599 41.58H31.63C31.9969 41.5827 32.35 41.4402 32.6123 41.1835C32.8746 40.9269 33.0248 40.5769 33.03 40.21V18.71C33.0248 18.3431 32.8746 17.9931 32.6123 17.7365C32.35 17.4799 31.9969 17.3373 31.63 17.34" fill="#020200"/>
<path d="M46.48 25.39H47.71C48.2122 25.3953 48.6961 25.2016 49.0559 24.8512C49.4157 24.5008 49.6221 24.0222 49.63 23.52V18.71C49.6274 18.5274 49.5889 18.3472 49.5166 18.1796C49.4443 18.0119 49.3397 17.8601 49.2087 17.7329C49.0778 17.6057 48.9231 17.5055 48.7534 17.4381C48.5838 17.3707 48.4025 17.3373 48.22 17.34H45.3199C42.1002 17.34 39.0124 18.619 36.7357 20.8957C34.459 23.1724 33.1801 26.2603 33.1801 29.48C33.1801 32.6997 34.459 35.7876 36.7357 38.0643C39.0124 40.341 42.1002 41.62 45.3199 41.62H48.22C48.4025 41.6226 48.5838 41.5893 48.7534 41.5219C48.9231 41.4545 49.0778 41.3543 49.2087 41.2271C49.3397 41.0998 49.4443 40.9481 49.5166 40.7804C49.5889 40.6128 49.6274 40.4325 49.63 40.25V35.4C49.6221 34.8969 49.416 34.4173 49.0565 34.0652C48.697 33.7132 48.2131 33.5173 47.71 33.52H46.48C47.3345 33.472 48.139 33.1015 48.7311 32.4835C49.3231 31.8654 49.6587 31.0458 49.67 30.19V28.71C49.6564 27.8549 49.32 27.0366 48.7284 26.419C48.1368 25.8015 47.3337 25.4303 46.48 25.38" fill="#020200"/>
<path d="M79.77 1.24L74.5799 17C74.5497 17.0859 74.4925 17.1596 74.4167 17.2101C74.341 17.2606 74.2509 17.2852 74.16 17.28H72.16C72.0698 17.2882 71.9795 17.2648 71.9046 17.2137C71.8298 17.1626 71.7752 17.087 71.75 17L67.53 4.71001L63.24 17.04C63.2048 17.1266 63.1435 17.2001 63.0647 17.2502C62.9858 17.3004 62.8934 17.3248 62.8 17.32H60.88C60.7847 17.3286 60.6893 17.3059 60.6081 17.2554C60.5269 17.2048 60.4644 17.1292 60.43 17.04L55.3199 1.28001C55.2199 1.05001 55.3199 0.890006 55.5999 0.890006H57.5999C57.6902 0.88179 57.7805 0.905242 57.8553 0.956336C57.9301 1.00743 57.9848 1.08298 58.01 1.17L61.92 14.03L66.29 1.17C66.2982 1.11698 66.3199 1.06698 66.3532 1.02492C66.3865 0.982848 66.4302 0.950148 66.48 0.930007C66.5427 0.91761 66.6073 0.91761 66.67 0.930007H68.4699C68.5392 0.915725 68.6108 0.915725 68.68 0.930007C68.762 0.988708 68.8218 1.07322 68.8499 1.17L73.12 13.99L77.12 1.13C77.1414 1.04081 77.1953 0.962764 77.2711 0.911025C77.3469 0.859285 77.4391 0.83754 77.53 0.850005H79.4699C79.7399 0.850005 79.83 1.01 79.76 1.24" fill="#020200"/>
<path d="M88.8399 11.55C88.8086 10.8456 88.5712 10.166 88.1571 9.59539C87.7429 9.0248 87.1703 8.58836 86.5103 8.34025C85.8504 8.09215 85.1321 8.04329 84.4447 8.19974C83.7572 8.35619 83.1307 8.71107 82.6432 9.22033C82.1556 9.72959 81.8283 10.3708 81.7019 11.0644C81.5754 11.7581 81.6554 12.4735 81.932 13.1221C82.2085 13.7706 82.6695 14.3237 83.2575 14.7126C83.8456 15.1016 84.5349 15.3093 85.24 15.31C85.7265 15.3105 86.2081 15.2123 86.6556 15.0215C87.1031 14.8306 87.5074 14.5511 87.8438 14.1996C88.1803 13.8482 88.442 13.4322 88.6132 12.9768C88.7845 12.5214 88.8616 12.036 88.8399 11.55ZM79.2199 11.55C79.2199 10.3633 79.5719 9.20326 80.2312 8.21656C80.8905 7.22987 81.8276 6.46084 82.9239 6.00671C84.0203 5.55258 85.2266 5.43377 86.3905 5.66528C87.5544 5.89679 88.6235 6.46823 89.4626 7.30735C90.3017 8.14646 90.8732 9.21556 91.1047 10.3794C91.3362 11.5433 91.2174 12.7497 90.7633 13.8461C90.3091 14.9424 89.5401 15.8795 88.5534 16.5388C87.5667 17.1981 86.4066 17.55 85.2199 17.55C84.4302 17.5566 83.6469 17.406 82.916 17.1068C82.185 16.8077 81.521 16.366 80.9625 15.8075C80.404 15.249 79.9622 14.5849 79.6631 13.854C79.3639 13.123 79.2133 12.3398 79.2199 11.55Z" fill="#020200"/>
<path d="M100.46 6.41001L99.9 7.70001C99.81 7.93001 99.66 7.96001 99.42 7.91001C99.097 7.80718 98.7588 7.75984 98.42 7.77001C98.0869 7.75894 97.7551 7.81623 97.445 7.93832C97.1349 8.06041 96.8531 8.24473 96.617 8.47991C96.3809 8.71508 96.1954 8.99613 96.0721 9.30573C95.9488 9.61532 95.8902 9.9469 95.9 10.28V16.93C95.9031 16.9776 95.8957 17.0254 95.8786 17.0699C95.8615 17.1145 95.835 17.1548 95.8007 17.1881C95.7665 17.2213 95.7254 17.2468 95.6804 17.2627C95.6354 17.2785 95.5875 17.2845 95.54 17.28H93.7499C93.702 17.2843 93.6537 17.2783 93.6082 17.2625C93.5627 17.2467 93.5211 17.2214 93.4862 17.1884C93.4512 17.1553 93.4235 17.1151 93.4052 17.0706C93.3869 17.0261 93.3783 16.9781 93.38 16.93V6.13001C93.3783 6.08189 93.3869 6.03398 93.4052 5.98944C93.4235 5.94491 93.4512 5.90476 93.4862 5.87167C93.5211 5.83859 93.5627 5.8133 93.6082 5.7975C93.6537 5.7817 93.702 5.77574 93.7499 5.78002H95.43C95.5238 5.77998 95.6137 5.81653 95.681 5.8819C95.7482 5.94726 95.7874 6.03628 95.79 6.13001L95.88 7.26002C96.1753 6.72532 96.6106 6.28097 97.139 5.97449C97.6674 5.66801 98.2692 5.51091 98.88 5.52001C99.4102 5.50879 99.9308 5.66254 100.37 5.96002C100.407 5.98243 100.439 6.01203 100.464 6.04704C100.489 6.08204 100.506 6.12174 100.516 6.16375C100.525 6.20576 100.526 6.24922 100.518 6.29154C100.51 6.33385 100.494 6.37415 100.47 6.41001" fill="#020200"/>
<path d="M101.87 0.139996H103.66C103.708 0.135556 103.755 0.141477 103.8 0.157353C103.845 0.17323 103.887 0.19868 103.921 0.231953C103.955 0.265226 103.981 0.30553 103.999 0.350079C104.016 0.394628 104.023 0.442364 104.02 0.489995V16.93C104.023 16.9776 104.016 17.0254 103.999 17.0699C103.981 17.1145 103.955 17.1548 103.921 17.188C103.887 17.2213 103.845 17.2468 103.8 17.2626C103.755 17.2785 103.708 17.2844 103.66 17.28H101.87C101.822 17.2844 101.774 17.2785 101.729 17.2626C101.684 17.2468 101.643 17.2213 101.609 17.188C101.575 17.1548 101.548 17.1145 101.531 17.0699C101.514 17.0254 101.507 16.9776 101.51 16.93V0.489995C101.507 0.442364 101.514 0.394628 101.531 0.350079C101.548 0.30553 101.575 0.265226 101.609 0.231953C101.643 0.19868 101.684 0.17323 101.729 0.157353C101.774 0.141477 101.822 0.135556 101.87 0.139996Z" fill="#020200"/>
<path d="M115.82 11.53C115.84 11.0485 115.763 10.5678 115.595 10.1163C115.426 9.66483 115.169 9.25169 114.838 8.90125C114.507 8.55081 114.11 8.27018 113.668 8.07589C113.227 7.8816 112.752 7.77759 112.27 7.76999C111.315 7.83951 110.422 8.26794 109.77 8.96917C109.118 9.6704 108.755 10.5925 108.755 11.55C108.755 12.5075 109.118 13.4296 109.77 14.1308C110.422 14.8321 111.315 15.2605 112.27 15.33C112.754 15.3185 113.231 15.2105 113.673 15.0123C114.115 14.8142 114.513 14.5298 114.843 14.1759C115.174 13.822 115.431 13.4057 115.598 12.9514C115.766 12.497 115.841 12.0138 115.82 11.53ZM118.29 0.529996V16.97C118.293 17.0176 118.286 17.0654 118.269 17.1099C118.252 17.1545 118.225 17.1948 118.191 17.228C118.156 17.2613 118.115 17.2868 118.07 17.3026C118.025 17.3185 117.978 17.3244 117.93 17.32H116.3C116.206 17.32 116.116 17.2835 116.049 17.2181C115.982 17.1527 115.943 17.0637 115.94 16.97L115.85 15.79C115.391 16.3669 114.806 16.8322 114.141 17.1509C113.476 17.4696 112.748 17.6334 112.01 17.63C110.409 17.63 108.874 16.9942 107.743 15.8624C106.611 14.7306 105.975 13.1956 105.975 11.595C105.975 9.99442 106.611 8.45938 107.743 7.3276C108.874 6.19582 110.409 5.55999 112.01 5.55999C112.729 5.55991 113.44 5.71954 114.09 6.02736C114.74 6.33517 115.314 6.7835 115.77 7.33999V0.489995C115.769 0.442777 115.777 0.395769 115.795 0.351971C115.812 0.308174 115.839 0.268546 115.873 0.235615C115.907 0.202685 115.947 0.177182 115.991 0.160718C116.036 0.144254 116.083 0.137194 116.13 0.139996H117.93C117.978 0.135556 118.025 0.141477 118.07 0.157353C118.115 0.17323 118.156 0.19868 118.191 0.231953C118.225 0.265226 118.252 0.30553 118.269 0.350079C118.286 0.394628 118.293 0.442364 118.29 0.489995" fill="#020200"/>
<path d="M140.6 14.79C140.637 14.82 140.668 14.858 140.689 14.9013C140.709 14.9446 140.72 14.992 140.72 15.04C140.72 15.088 140.709 15.1354 140.689 15.1787C140.668 15.222 140.637 15.26 140.6 15.29C139.033 16.7461 136.979 17.5631 134.84 17.58C133.458 17.5863 132.095 17.254 130.871 16.6119C129.648 15.9699 128.6 15.0378 127.819 13.8972C127.039 12.7565 126.55 11.4421 126.395 10.0687C126.24 8.69532 126.424 7.30489 126.93 6.01901C127.437 4.73313 128.251 3.59095 129.301 2.69235C130.351 1.79375 131.605 1.16609 132.954 0.86428C134.303 0.562465 135.705 0.595683 137.038 0.961021C138.371 1.32636 139.594 2.01269 140.6 2.96001C140.637 2.98898 140.668 3.02612 140.688 3.06859C140.709 3.11105 140.72 3.15772 140.72 3.20501C140.72 3.2523 140.709 3.29896 140.688 3.34142C140.668 3.38389 140.637 3.42103 140.6 3.45L139.4 4.67001C139.26 4.84001 139.07 4.81001 138.9 4.67001C137.756 3.68785 136.298 3.14854 134.79 3.15001C133.328 3.31964 131.98 4.02052 131.001 5.11939C130.022 6.21826 129.482 7.63848 129.482 9.11001C129.482 10.5815 130.022 12.0018 131.001 13.1006C131.98 14.1995 133.328 14.9004 134.79 15.07C136.3 15.0861 137.764 14.5449 138.9 13.55C138.931 13.514 138.969 13.4852 139.012 13.4654C139.056 13.4456 139.103 13.4354 139.15 13.4354C139.197 13.4354 139.244 13.4456 139.287 13.4654C139.331 13.4852 139.369 13.514 139.4 13.55L140.6 14.79Z" fill="#020200"/>
<path d="M150.79 11.55C150.759 10.8461 150.521 10.1668 150.108 9.59641C149.694 9.02601 149.122 8.58956 148.463 8.34115C147.803 8.09274 147.085 8.0433 146.398 8.19894C145.711 8.35459 145.085 8.70848 144.597 9.21676C144.109 9.72503 143.781 10.3653 143.653 11.0583C143.525 11.7513 143.604 12.4665 143.879 13.1152C144.154 13.7639 144.614 14.3177 145.2 14.7078C145.787 15.098 146.475 15.3073 147.18 15.31C147.667 15.3104 148.149 15.2123 148.597 15.0216C149.045 14.8309 149.45 14.5514 149.787 14.2002C150.124 13.8489 150.387 13.433 150.559 12.9776C150.732 12.5221 150.81 12.0365 150.79 11.55ZM141.16 11.55C141.16 10.3633 141.512 9.20326 142.171 8.21656C142.83 7.22987 143.768 6.46084 144.864 6.00671C145.96 5.55258 147.167 5.43377 148.331 5.66528C149.494 5.89679 150.563 6.46823 151.403 7.30735C152.242 8.14646 152.813 9.21556 153.045 10.3794C153.276 11.5433 153.157 12.7497 152.703 13.8461C152.249 14.9424 151.48 15.8795 150.493 16.5388C149.507 17.1981 148.347 17.55 147.16 17.55C146.37 17.5566 145.587 17.406 144.856 17.1068C144.125 16.8077 143.461 16.366 142.902 15.8075C142.344 15.249 141.902 14.5849 141.603 13.854C141.304 13.123 141.153 12.3398 141.16 11.55Z" fill="#020200"/>
<path d="M165.37 10.24V16.93C165.371 16.9772 165.363 17.0242 165.345 17.068C165.328 17.1118 165.301 17.1514 165.267 17.1844C165.233 17.2173 165.193 17.2428 165.149 17.2593C165.104 17.2757 165.057 17.2828 165.01 17.28H163.2C163.153 17.2829 163.106 17.2759 163.063 17.2593C163.019 17.2428 162.979 17.2171 162.946 17.184C162.913 17.1509 162.887 17.1111 162.871 17.0673C162.854 17.0235 162.847 16.9767 162.85 16.93V10.59C162.85 8.58999 161.85 7.76999 160.42 7.76999C159.71 7.79358 159.026 8.04718 158.473 8.49263C157.919 8.93808 157.525 9.55129 157.35 10.24V16.93C157.353 16.9776 157.346 17.0254 157.329 17.0699C157.312 17.1145 157.285 17.1548 157.251 17.188C157.216 17.2213 157.175 17.2468 157.13 17.2626C157.085 17.2785 157.037 17.2844 156.99 17.28H155.19C155.142 17.2844 155.095 17.2785 155.05 17.2626C155.005 17.2468 154.964 17.2213 154.929 17.188C154.895 17.1548 154.868 17.1145 154.851 17.0699C154.834 17.0254 154.827 16.9776 154.83 16.93V6.12999C154.827 6.08236 154.834 6.03462 154.851 5.99007C154.868 5.94553 154.895 5.90523 154.929 5.87196C154.964 5.83868 155.005 5.81322 155.05 5.79735C155.095 5.78147 155.142 5.77555 155.19 5.77999H156.89C156.937 5.77719 156.984 5.78425 157.029 5.80071C157.073 5.81718 157.113 5.84269 157.147 5.87562C157.181 5.90855 157.208 5.94817 157.225 5.99197C157.243 6.03576 157.251 6.08277 157.25 6.12999L157.35 7.67999C157.754 7.02358 158.319 6.48086 158.99 6.10297C159.662 5.72507 160.419 5.52444 161.19 5.51999C163.62 5.51999 165.37 7.15999 165.37 10.24Z" fill="#020200"/>
<path d="M175.54 1.88L174.61 2.79C174.588 2.81238 174.561 2.83013 174.532 2.84224C174.503 2.85435 174.471 2.86059 174.44 2.86059C174.408 2.86059 174.377 2.85435 174.348 2.84224C174.319 2.83013 174.292 2.81238 174.27 2.79C173.748 2.41204 173.132 2.18383 172.49 2.13C171.27 2.13 171 2.74 171 3.68V5.68H173.35C173.398 5.67573 173.446 5.68169 173.492 5.69749C173.537 5.71329 173.579 5.73857 173.614 5.77166C173.649 5.80475 173.676 5.84489 173.695 5.88943C173.713 5.93396 173.722 5.98188 173.72 6.03V7.37C173.722 7.41813 173.713 7.46604 173.695 7.51057C173.676 7.55511 173.649 7.59525 173.614 7.62834C173.579 7.66143 173.537 7.68671 173.492 7.70252C173.446 7.71832 173.398 7.72428 173.35 7.72H171V16.83C171.003 16.8776 170.996 16.9254 170.979 16.9699C170.961 17.0145 170.935 17.0548 170.901 17.088C170.867 17.1213 170.825 17.1468 170.78 17.1626C170.735 17.1785 170.688 17.1844 170.64 17.18H168.84C168.793 17.1829 168.746 17.1759 168.703 17.1593C168.659 17.1428 168.619 17.1171 168.586 17.084C168.553 17.0509 168.527 17.0111 168.511 16.9673C168.494 16.9235 168.487 16.8767 168.49 16.83V7.82H167.12C167.073 7.8228 167.026 7.81574 166.981 7.79928C166.937 7.78281 166.897 7.7573 166.863 7.72437C166.829 7.69144 166.802 7.65181 166.785 7.60802C166.767 7.56422 166.759 7.51722 166.76 7.47V6.13C166.757 6.08237 166.764 6.03463 166.781 5.99008C166.798 5.94553 166.825 5.90524 166.859 5.87196C166.893 5.83869 166.934 5.81323 166.979 5.79736C167.024 5.78148 167.072 5.77556 167.12 5.78H168.52V3.5C168.52 1.17 169.86 5.81418e-07 172.28 5.81418e-07C172.914 -0.00242753 173.54 0.137359 174.113 0.409066C174.686 0.680773 175.191 1.07748 175.59 1.57C175.613 1.58876 175.632 1.6124 175.644 1.63921C175.657 1.66602 175.664 1.69532 175.664 1.725C175.664 1.75468 175.657 1.78398 175.644 1.81079C175.632 1.8376 175.613 1.86124 175.59 1.88" fill="#020200"/>
<path d="M177.12 10.78H183.84C183.816 9.92414 183.455 9.1124 182.835 8.52216C182.215 7.93193 181.386 7.61117 180.53 7.63C179.667 7.62034 178.833 7.94128 178.199 8.52699C177.565 9.11271 177.179 9.91881 177.12 10.78ZM186.12 11.2C186.12 12.07 186 12.49 185.35 12.49H177.12C177.263 13.3824 177.739 14.1877 178.451 14.7442C179.163 15.3006 180.059 15.567 180.96 15.49C182 15.494 183.009 15.141 183.82 14.49C184.01 14.35 184.15 14.3 184.32 14.49L185.09 15.21C185.133 15.2415 185.169 15.2829 185.193 15.3307C185.217 15.3785 185.23 15.4314 185.23 15.485C185.23 15.5386 185.217 15.5915 185.193 15.6393C185.169 15.6871 185.133 15.7285 185.09 15.76C184.514 16.3275 183.831 16.7753 183.081 17.0773C182.331 17.3794 181.529 17.5299 180.72 17.52C179.922 17.546 179.127 17.4091 178.383 17.1177C177.64 16.8262 176.963 16.3864 176.395 15.8249C175.827 15.2635 175.38 14.5922 175.08 13.8521C174.779 13.112 174.633 12.3185 174.65 11.52C174.623 10.7391 174.754 9.96088 175.035 9.23194C175.317 8.503 175.742 7.8384 176.287 7.27804C176.831 6.71768 177.483 6.2731 178.204 5.97099C178.925 5.66889 179.699 5.51549 180.48 5.52C181.224 5.50727 181.963 5.64633 182.652 5.9287C183.341 6.21106 183.965 6.63081 184.486 7.16232C185.008 7.69384 185.415 8.32598 185.684 9.02018C185.953 9.71437 186.077 10.4561 186.05 11.2" fill="#020200"/>
<path d="M194.7 6.41L194.12 7.71001C194.03 7.94001 193.88 7.97001 193.64 7.92001C193.317 7.819 192.979 7.77171 192.64 7.78001C192.307 7.76746 191.974 7.82372 191.663 7.94529C191.353 8.06686 191.07 8.25112 190.834 8.4866C190.597 8.72209 190.412 9.00374 190.289 9.31401C190.166 9.62428 190.109 9.95651 190.12 10.29V16.94C190.123 16.9876 190.116 17.0354 190.099 17.0799C190.081 17.1245 190.055 17.1648 190.021 17.198C189.986 17.2313 189.945 17.2568 189.9 17.2726C189.855 17.2885 189.807 17.2944 189.76 17.29H187.96C187.912 17.2944 187.865 17.2885 187.82 17.2726C187.775 17.2568 187.733 17.2313 187.699 17.198C187.665 17.1648 187.638 17.1245 187.621 17.0799C187.604 17.0354 187.597 16.9876 187.6 16.94V6.13001C187.597 6.08237 187.604 6.03464 187.621 5.99009C187.638 5.94554 187.665 5.90524 187.699 5.87197C187.733 5.8387 187.775 5.81324 187.82 5.79736C187.865 5.78149 187.912 5.77557 187.96 5.78001H189.64C189.687 5.77867 189.733 5.78674 189.777 5.80373C189.821 5.82072 189.86 5.84628 189.894 5.87891C189.927 5.91155 189.954 5.95059 189.972 5.99371C189.991 6.03684 190 6.08319 190 6.13001L190.1 7.26001C190.394 6.72459 190.83 6.27964 191.358 5.97304C191.887 5.66644 192.489 5.50981 193.1 5.52001C193.627 5.50684 194.145 5.66086 194.58 5.96001C194.618 5.98137 194.651 6.01046 194.677 6.04539C194.702 6.08031 194.721 6.12029 194.73 6.16273C194.74 6.20516 194.74 6.24911 194.731 6.29171C194.723 6.33431 194.705 6.37461 194.68 6.41" fill="#020200"/>
<path d="M197.51 10.78H204.23C204.204 9.92324 203.84 9.11152 203.219 8.52155C202.597 7.93157 201.767 7.61114 200.91 7.63C200.048 7.62049 199.215 7.94175 198.583 8.52769C197.95 9.11363 197.566 9.91968 197.51 10.78ZM206.46 11.2C206.46 12.07 206.33 12.49 205.69 12.49H197.53C197.671 13.3835 198.146 14.1902 198.859 14.747C199.571 15.3039 200.469 15.5695 201.37 15.49C202.41 15.494 203.419 15.141 204.23 14.49C204.42 14.35 204.56 14.3 204.73 14.49L205.5 15.21C205.543 15.2415 205.579 15.2829 205.603 15.3307C205.627 15.3785 205.64 15.4314 205.64 15.485C205.64 15.5386 205.627 15.5915 205.603 15.6393C205.579 15.6871 205.543 15.7285 205.5 15.76C204.923 16.3266 204.24 16.7738 203.491 17.0758C202.741 17.3778 201.938 17.5288 201.13 17.52C200.332 17.546 199.537 17.4091 198.793 17.1177C198.05 16.8262 197.373 16.3864 196.805 15.8249C196.237 15.2635 195.789 14.5922 195.489 13.8521C195.189 13.112 195.043 12.3185 195.06 11.52C195.033 10.7391 195.164 9.96088 195.445 9.23194C195.727 8.503 196.152 7.8384 196.697 7.27804C197.241 6.71768 197.893 6.2731 198.614 5.97099C199.335 5.66889 200.109 5.51549 200.89 5.52C201.634 5.50727 202.373 5.64633 203.062 5.9287C203.751 6.21106 204.375 6.63081 204.896 7.16232C205.418 7.69384 205.825 8.32598 206.094 9.02018C206.363 9.71437 206.487 10.4561 206.46 11.2Z" fill="#020200"/>
<path d="M218.33 10.24V16.93C218.333 16.9776 218.326 17.0254 218.309 17.0699C218.292 17.1145 218.265 17.1548 218.231 17.188C218.197 17.2213 218.156 17.2468 218.111 17.2626C218.066 17.2785 218.018 17.2844 217.97 17.28H216.17C216.123 17.2844 216.075 17.2785 216.03 17.2626C215.985 17.2468 215.944 17.2213 215.909 17.188C215.875 17.1548 215.848 17.1145 215.831 17.0699C215.814 17.0254 215.807 16.9776 215.81 16.93V10.59C215.81 8.58999 214.81 7.76999 213.39 7.76999C212.679 7.79306 211.994 8.04628 211.438 8.49165C210.883 8.93701 210.487 9.55049 210.31 10.24V16.93C210.313 16.9776 210.306 17.0254 210.289 17.0699C210.272 17.1145 210.245 17.1548 210.211 17.188C210.177 17.2213 210.136 17.2468 210.09 17.2626C210.045 17.2785 209.998 17.2844 209.95 17.28H208.12C208.073 17.2828 208.026 17.2757 207.981 17.2593C207.937 17.2428 207.897 17.2173 207.863 17.1844C207.829 17.1514 207.802 17.1118 207.785 17.068C207.767 17.0242 207.759 16.9772 207.76 16.93V6.12999C207.759 6.08277 207.767 6.03576 207.785 5.99197C207.802 5.94817 207.829 5.90855 207.863 5.87562C207.897 5.84269 207.937 5.81718 207.981 5.80071C208.026 5.78425 208.073 5.77719 208.12 5.77999H209.83C209.877 5.77865 209.923 5.78672 209.967 5.80371C210.011 5.8207 210.05 5.84626 210.084 5.8789C210.118 5.91153 210.144 5.95057 210.163 5.9937C210.181 6.03683 210.19 6.08317 210.19 6.12999L210.28 7.67999C210.684 7.02358 211.249 6.48086 211.92 6.10297C212.592 5.72507 213.349 5.52444 214.12 5.51999C216.55 5.51999 218.3 7.15999 218.3 10.24" fill="#020200"/>
<path d="M228.52 14.06C228.552 14.0221 228.592 13.9917 228.637 13.9708C228.682 13.9499 228.731 13.9391 228.78 13.9391C228.83 13.9391 228.878 13.9499 228.923 13.9708C228.968 13.9917 229.008 14.0221 229.04 14.06L230.1 15.06C230.133 15.0917 230.159 15.1298 230.177 15.1719C230.195 15.214 230.204 15.2592 230.204 15.305C230.204 15.3507 230.195 15.396 230.177 15.4381C230.159 15.4802 230.133 15.5183 230.1 15.55C229.522 16.1911 228.813 16.7013 228.021 17.0462C227.23 17.3911 226.373 17.5629 225.51 17.55C223.911 17.55 222.377 16.9147 221.246 15.7838C220.115 14.653 219.48 13.1192 219.48 11.52C219.48 9.92073 220.115 8.38698 221.246 7.25613C222.377 6.12529 223.911 5.48999 225.51 5.48999C226.361 5.48463 227.203 5.66018 227.98 6.00499C228.758 6.3498 229.453 6.85599 230.02 7.48999C230.053 7.52171 230.079 7.55976 230.097 7.60186C230.115 7.64395 230.124 7.68924 230.124 7.73499C230.124 7.78074 230.115 7.82602 230.097 7.86811C230.079 7.91021 230.053 7.94826 230.02 7.97998L228.96 8.97998C228.79 9.13998 228.63 9.11998 228.43 8.97998C228.06 8.58937 227.615 8.27735 227.122 8.06257C226.629 7.8478 226.098 7.73468 225.56 7.72998C224.608 7.7994 223.717 8.22674 223.066 8.92611C222.416 9.62547 222.055 10.545 222.055 11.5C222.055 12.4549 222.416 13.3745 223.066 14.0739C223.717 14.7732 224.608 15.2006 225.56 15.27C226.12 15.2896 226.679 15.1881 227.196 14.9724C227.714 14.7567 228.179 14.4318 228.56 14.02" fill="#020200"/>
<path d="M234.63 10.78H241.35C241.326 9.92414 240.965 9.1124 240.345 8.52216C239.725 7.93193 238.896 7.61117 238.04 7.63C237.177 7.62034 236.343 7.94128 235.709 8.52699C235.075 9.11271 234.689 9.91881 234.63 10.78ZM243.63 11.2C243.63 12.07 243.51 12.49 242.86 12.49H234.7C234.843 13.3824 235.319 14.1877 236.031 14.7442C236.743 15.3006 237.64 15.567 238.54 15.49C239.58 15.4956 240.59 15.1424 241.4 14.49C241.59 14.35 241.74 14.3 241.9 14.49L242.67 15.21C242.713 15.2415 242.749 15.2829 242.773 15.3307C242.797 15.3785 242.81 15.4314 242.81 15.485C242.81 15.5386 242.797 15.5915 242.773 15.6393C242.749 15.6871 242.713 15.7285 242.67 15.76C242.094 16.3275 241.411 16.7753 240.661 17.0773C239.911 17.3794 239.109 17.5299 238.3 17.52C237.502 17.546 236.707 17.4091 235.963 17.1177C235.219 16.8262 234.543 16.3864 233.975 15.8249C233.407 15.2635 232.959 14.5922 232.659 13.8521C232.359 13.112 232.213 12.3185 232.23 11.52C232.203 10.7391 232.334 9.96088 232.615 9.23194C232.897 8.503 233.322 7.8384 233.867 7.27804C234.411 6.71768 235.063 6.2731 235.784 5.97099C236.505 5.66889 237.279 5.51549 238.06 5.52C238.804 5.50727 239.544 5.64633 240.232 5.9287C240.921 6.21106 241.545 6.63081 242.066 7.16232C242.588 7.69384 242.995 8.32598 243.264 9.02018C243.533 9.71437 243.657 10.4561 243.63 11.2Z" fill="#020200"/>
<path d="M65.42 35.94C65.3887 35.2352 65.1509 34.5552 64.7363 33.9844C64.3217 33.4136 63.7485 32.9772 63.088 32.7294C62.4275 32.4816 61.7087 32.4333 61.021 32.5906C60.3332 32.7479 59.7069 33.1037 59.2197 33.614C58.7325 34.1242 58.406 34.7663 58.2807 35.4606C58.1554 36.1549 58.2369 36.8706 58.515 37.519C58.7931 38.1674 59.2555 38.7197 59.8448 39.1075C60.4342 39.4952 61.1245 39.7013 61.8299 39.7C62.3156 39.6991 62.7962 39.6 63.2425 39.4086C63.6889 39.2171 64.0919 38.9373 64.4273 38.586C64.7627 38.2348 65.0236 37.8193 65.1942 37.3645C65.3648 36.9098 65.4416 36.4252 65.42 35.94ZM55.8 35.94C55.8 34.7533 56.1518 33.5933 56.8111 32.6066C57.4704 31.6199 58.4075 30.8509 59.5039 30.3967C60.6002 29.9426 61.8067 29.8238 62.9705 30.0553C64.1344 30.2868 65.2035 30.8582 66.0426 31.6974C66.8817 32.5365 67.4531 33.6056 67.6847 34.7695C67.9162 35.9333 67.7974 37.1397 67.3432 38.2361C66.8891 39.3325 66.1201 40.2695 65.1334 40.9288C64.1467 41.5881 62.9867 41.94 61.8 41.94C61.0102 41.9467 60.2269 41.796 59.4959 41.4969C58.765 41.1977 58.1009 40.756 57.5424 40.1975C56.984 39.639 56.5423 38.9749 56.2431 38.244C55.944 37.513 55.7934 36.7298 55.8 35.94Z" fill="#020200"/>
<path d="M80.1899 34.63V41.32C80.193 41.3676 80.1858 41.4154 80.1687 41.4599C80.1515 41.5045 80.1249 41.5448 80.0907 41.578C80.0564 41.6113 80.0154 41.6368 79.9704 41.6526C79.9254 41.6685 79.8774 41.6744 79.8299 41.67H78.03C77.9828 41.6728 77.9356 41.6658 77.8913 41.6493C77.847 41.6328 77.8067 41.6073 77.7728 41.5744C77.7389 41.5415 77.7123 41.5018 77.6945 41.458C77.6768 41.4142 77.6685 41.3672 77.67 41.32V34.98C77.67 32.98 76.67 32.16 75.25 32.16C74.5393 32.182 73.8551 32.435 73.3011 32.8807C72.7471 33.3264 72.3536 33.9405 72.18 34.63V41.32C72.1831 41.3676 72.1758 41.4154 72.1587 41.4599C72.1415 41.5045 72.1149 41.5448 72.0807 41.578C72.0464 41.6113 72.0054 41.6368 71.9604 41.6526C71.9154 41.6685 71.8674 41.6744 71.8199 41.67H70.02C69.9725 41.6744 69.9245 41.6685 69.8795 41.6526C69.8345 41.6368 69.7935 41.6113 69.7592 41.578C69.725 41.5448 69.6984 41.5045 69.6812 41.4599C69.6641 41.4154 69.6569 41.3676 69.66 41.32V30.52C69.6569 30.4724 69.6641 30.4246 69.6812 30.3801C69.6984 30.3355 69.725 30.2952 69.7592 30.262C69.7935 30.2287 69.8345 30.2032 69.8795 30.1874C69.9245 30.1715 69.9725 30.1656 70.02 30.17H71.7199C71.7671 30.1672 71.8143 30.1743 71.8586 30.1907C71.9029 30.2072 71.9433 30.2327 71.9771 30.2656C72.011 30.2986 72.0377 30.3382 72.0554 30.382C72.0731 30.4258 72.0814 30.4728 72.0799 30.52L72.18 32.07C72.5834 31.4129 73.1477 30.8697 73.8197 30.4917C74.4916 30.1137 75.249 29.9135 76.02 29.91C78.44 29.91 80.1899 31.55 80.1899 34.63Z" fill="#020200"/>
<path d="M102.93 39.18C102.966 39.211 102.995 39.2493 103.015 39.2925C103.034 39.3356 103.045 39.3825 103.045 39.43C103.045 39.4775 103.034 39.5244 103.015 39.5675C102.995 39.6106 102.966 39.649 102.93 39.68C101.366 41.1406 99.3103 41.9613 97.1701 41.98C95.7853 41.9887 94.4196 41.6577 93.1924 41.0161C91.9653 40.3745 90.9141 39.4418 90.131 38.2997C89.348 37.1576 88.8569 35.8409 88.7008 34.4649C88.5447 33.089 88.7283 31.6958 89.2356 30.4073C89.7429 29.1188 90.5584 27.9743 91.6106 27.0741C92.6629 26.1739 93.9199 25.5454 95.2714 25.2437C96.6229 24.9419 98.0278 24.9762 99.363 25.3434C100.698 25.7106 101.923 26.3996 102.93 27.35C102.966 27.38 102.994 27.4175 103.014 27.4599C103.034 27.5022 103.044 27.5483 103.044 27.595C103.044 27.6417 103.034 27.6878 103.014 27.7301C102.994 27.7725 102.966 27.81 102.93 27.84L101.73 29.06C101.698 29.0962 101.659 29.1251 101.615 29.145C101.571 29.1648 101.523 29.1751 101.475 29.1751C101.427 29.1751 101.379 29.1648 101.335 29.145C101.291 29.1251 101.252 29.0962 101.22 29.06C100.08 28.0777 98.6248 27.5383 97.12 27.54C95.6583 27.7096 94.3099 28.4105 93.3312 29.5094C92.3525 30.6082 91.8117 32.0285 91.8117 33.5C91.8117 34.9715 92.3525 36.3917 93.3312 37.4906C94.3099 38.5895 95.6583 39.2904 97.12 39.46C98.6272 39.4755 100.087 38.9343 101.22 37.94C101.253 37.9052 101.292 37.8774 101.336 37.8585C101.38 37.8395 101.427 37.8297 101.475 37.8297C101.523 37.8297 101.57 37.8395 101.614 37.8585C101.658 37.8774 101.697 37.9052 101.73 37.94L102.93 39.18Z" fill="#020200"/>
<path d="M112.24 30.8L111.69 32.09C111.59 32.33 111.45 32.35 111.21 32.3C110.887 32.1972 110.549 32.1498 110.21 32.16C109.876 32.1474 109.544 32.2037 109.233 32.3253C108.922 32.4468 108.64 32.6311 108.404 32.8666C108.167 33.1021 107.982 33.3837 107.859 33.694C107.736 34.0043 107.679 34.3365 107.69 34.67V41.32C107.693 41.3676 107.686 41.4154 107.669 41.4599C107.652 41.5045 107.625 41.5448 107.591 41.578C107.556 41.6113 107.515 41.6368 107.47 41.6526C107.425 41.6685 107.377 41.6744 107.33 41.67H105.53C105.482 41.6744 105.435 41.6685 105.389 41.6526C105.344 41.6368 105.303 41.6113 105.269 41.578C105.235 41.5448 105.208 41.5045 105.191 41.4599C105.174 41.4154 105.167 41.3676 105.17 41.32V30.52C105.167 30.4724 105.174 30.4246 105.191 30.3801C105.208 30.3355 105.235 30.2952 105.269 30.262C105.303 30.2287 105.344 30.2032 105.389 30.1874C105.435 30.1715 105.482 30.1656 105.53 30.17H107.21C107.257 30.1672 107.304 30.1743 107.349 30.1907C107.393 30.2072 107.433 30.2327 107.467 30.2656C107.501 30.2986 107.528 30.3382 107.545 30.382C107.563 30.4258 107.571 30.4728 107.57 30.52L107.67 31.64C107.966 31.1064 108.401 30.6635 108.93 30.3587C109.458 30.0539 110.06 29.8988 110.67 29.91C111.2 29.8988 111.721 30.0525 112.16 30.35C112.197 30.3722 112.229 30.4019 112.254 30.4373C112.279 30.4726 112.296 30.5127 112.305 30.5551C112.313 30.5975 112.313 30.6411 112.303 30.6833C112.294 30.7255 112.276 30.7652 112.25 30.8" fill="#020200"/>
<path d="M114.75 35.17H121.47C121.441 34.3141 121.077 33.5039 120.456 32.9145C119.834 32.325 119.006 32.0037 118.15 32.02C117.288 32.0105 116.455 32.3317 115.823 32.9177C115.19 33.5036 114.806 34.3097 114.75 35.17ZM123.7 35.59C123.7 36.46 123.58 36.88 122.93 36.88H114.77C114.911 37.7735 115.386 38.5802 116.099 39.137C116.811 39.6939 117.709 39.9594 118.61 39.88C119.65 39.884 120.659 39.531 121.47 38.88C121.66 38.74 121.8 38.69 121.97 38.88L122.74 39.6C122.783 39.6315 122.819 39.6729 122.843 39.7207C122.867 39.7685 122.88 39.8213 122.88 39.875C122.88 39.9286 122.867 39.9815 122.843 40.0293C122.819 40.0771 122.783 40.1184 122.74 40.15C122.164 40.7175 121.481 41.1652 120.731 41.4673C119.981 41.7694 119.179 41.9199 118.37 41.91C117.572 41.936 116.777 41.7991 116.033 41.5076C115.29 41.2162 114.613 40.7764 114.045 40.2149C113.477 39.6535 113.029 38.9822 112.729 38.2421C112.429 37.5019 112.283 36.7084 112.3 35.91C112.273 35.1291 112.404 34.3509 112.685 33.6219C112.967 32.893 113.392 32.2284 113.937 31.668C114.481 31.1077 115.133 30.6631 115.854 30.361C116.575 30.0589 117.349 29.9055 118.13 29.91C118.874 29.8973 119.613 30.0363 120.302 30.3187C120.991 30.601 121.615 31.0208 122.136 31.5523C122.658 32.0838 123.065 32.716 123.334 33.4102C123.603 34.1044 123.727 34.846 123.7 35.59Z" fill="#020200"/>
<path d="M134.54 35.92C134.559 35.438 134.481 34.9571 134.311 34.5055C134.141 34.054 133.883 33.641 133.551 33.2907C133.22 32.9404 132.821 32.6599 132.38 32.4657C131.938 32.2716 131.462 32.1676 130.98 32.16C130.025 32.2295 129.132 32.6579 128.48 33.3592C127.828 34.0604 127.465 34.9824 127.465 35.94C127.465 36.8975 127.828 37.8196 128.48 38.5208C129.132 39.222 130.025 39.6505 130.98 39.72C131.465 39.7098 131.943 39.6028 132.386 39.4052C132.829 39.2076 133.228 38.9234 133.56 38.5694C133.892 38.2154 134.149 37.7986 134.318 37.3436C134.486 36.8887 134.561 36.4046 134.54 35.92ZM137.01 30.52V41.32C137.011 41.3672 137.003 41.4142 136.985 41.458C136.968 41.5018 136.941 41.5414 136.907 41.5744C136.873 41.6073 136.833 41.6328 136.789 41.6493C136.744 41.6657 136.697 41.6728 136.65 41.67H135.02C134.973 41.6728 134.926 41.6657 134.881 41.6493C134.837 41.6328 134.797 41.6073 134.763 41.5744C134.729 41.5414 134.702 41.5018 134.685 41.458C134.667 41.4142 134.659 41.3672 134.66 41.32L134.56 40.14C134.102 40.718 133.517 41.1841 132.852 41.5029C132.187 41.8217 131.458 41.9849 130.72 41.98C129.119 41.98 127.584 41.3442 126.453 40.2124C125.321 39.0806 124.685 37.5456 124.685 35.945C124.685 34.3444 125.321 32.8094 126.453 31.6776C127.584 30.5458 129.119 29.91 130.72 29.91C131.463 29.9086 132.197 30.0762 132.865 30.4002C133.534 30.7242 134.12 31.196 134.58 31.78L134.66 30.52C134.659 30.4723 134.667 30.4249 134.685 30.3806C134.702 30.3363 134.729 30.2961 134.762 30.2624C134.796 30.2286 134.836 30.2022 134.881 30.1846C134.925 30.167 134.972 30.1586 135.02 30.16H136.65C136.698 30.1586 136.745 30.167 136.789 30.1846C136.834 30.2022 136.874 30.2286 136.908 30.2624C136.941 30.2961 136.968 30.3363 136.985 30.3806C137.003 30.4249 137.011 30.4723 137.01 30.52Z" fill="#020200"/>
<path d="M145.12 30.52V31.86C145.121 31.9072 145.113 31.9542 145.095 31.998C145.078 32.0418 145.051 32.0814 145.017 32.1144C144.983 32.1473 144.943 32.1728 144.899 32.1893C144.854 32.2057 144.807 32.2128 144.76 32.21H143.12V41.32C143.123 41.3667 143.116 41.4135 143.099 41.4573C143.083 41.5011 143.057 41.5409 143.024 41.574C142.991 41.6071 142.951 41.6328 142.907 41.6493C142.864 41.6659 142.817 41.6729 142.77 41.67H140.97C140.922 41.6743 140.874 41.6683 140.828 41.6525C140.783 41.6367 140.741 41.6114 140.706 41.5783C140.671 41.5452 140.644 41.5051 140.625 41.4606C140.607 41.416 140.598 41.3681 140.6 41.32V32.21H138.92C138.873 32.2129 138.827 32.2059 138.783 32.1893C138.739 32.1728 138.699 32.1471 138.666 32.114C138.633 32.0809 138.607 32.0411 138.591 31.9973C138.574 31.9535 138.567 31.9067 138.57 31.86V30.52C138.567 30.4733 138.574 30.4264 138.591 30.3827C138.607 30.3389 138.633 30.2991 138.666 30.266C138.699 30.2329 138.739 30.2072 138.783 30.1907C138.827 30.1741 138.873 30.1671 138.92 30.17H140.6V27C140.599 26.9515 140.607 26.9031 140.625 26.8581C140.644 26.8131 140.671 26.7724 140.706 26.7385C140.741 26.7047 140.782 26.6784 140.828 26.6615C140.873 26.6445 140.922 26.6372 140.97 26.64H142.77C142.817 26.6385 142.864 26.6469 142.908 26.6646C142.952 26.6823 142.992 26.7089 143.024 26.7428C143.057 26.7767 143.083 26.817 143.099 26.8613C143.116 26.9056 143.123 26.9528 143.12 27V30.17H144.81C144.857 30.1672 144.904 30.1742 144.949 30.1907C144.993 30.2072 145.033 30.2327 145.067 30.2656C145.101 30.2985 145.128 30.3382 145.145 30.382C145.163 30.4258 145.172 30.4728 145.17 30.52" fill="#020200"/>
<path d="M147.12 30.17H148.92C148.967 30.1672 149.014 30.1743 149.059 30.1907C149.103 30.2072 149.143 30.2327 149.177 30.2656C149.211 30.2986 149.238 30.3382 149.255 30.382C149.273 30.4258 149.282 30.4728 149.28 30.52V41.32C149.282 41.3672 149.273 41.4142 149.255 41.458C149.238 41.5018 149.211 41.5415 149.177 41.5744C149.143 41.6073 149.103 41.6328 149.059 41.6493C149.014 41.6658 148.967 41.6728 148.92 41.67H147.12C147.073 41.6744 147.025 41.6685 146.98 41.6527C146.935 41.6368 146.894 41.6113 146.859 41.5781C146.825 41.5448 146.798 41.5045 146.781 41.4599C146.764 41.4154 146.757 41.3676 146.76 41.32V30.52C146.757 30.4724 146.764 30.4246 146.781 30.3801C146.798 30.3355 146.825 30.2952 146.859 30.262C146.894 30.2287 146.935 30.2032 146.98 30.1874C147.025 30.1715 147.073 30.1656 147.12 30.17ZM146.54 26.27C146.532 25.9777 146.612 25.6897 146.768 25.4427C146.925 25.1958 147.151 25.0011 147.419 24.8837C147.687 24.7663 147.984 24.7314 148.272 24.7836C148.559 24.8357 148.825 24.9724 149.034 25.1763C149.244 25.3802 149.388 25.642 149.448 25.9282C149.508 26.2144 149.482 26.512 149.372 26.7829C149.262 27.0539 149.073 27.2859 148.831 27.4492C148.588 27.6126 148.302 27.6999 148.01 27.7C147.819 27.704 147.63 27.67 147.452 27.6001C147.275 27.5301 147.113 27.4256 146.976 27.2925C146.839 27.1595 146.73 27.0005 146.655 26.825C146.581 26.6495 146.541 26.4608 146.54 26.27Z" fill="#020200"/>
<path d="M160.25 30.17H162.12C162.39 30.17 162.51 30.31 162.41 30.57L158 41.39C157.966 41.4775 157.905 41.5519 157.826 41.6022C157.747 41.6526 157.654 41.6764 157.56 41.67H155.72C155.626 41.6764 155.533 41.6526 155.454 41.6022C155.375 41.5519 155.314 41.4775 155.28 41.39L150.89 30.57C150.8 30.31 150.89 30.17 151.18 30.17H153C153.094 30.1637 153.187 30.1874 153.266 30.2378C153.345 30.2882 153.406 30.3625 153.44 30.45L156.65 38.8L159.87 30.45C159.902 30.3633 159.961 30.2893 160.039 30.2388C160.116 30.1884 160.208 30.1643 160.3 30.17" fill="#020200"/>
<path d="M165.37 35.17H172.12C172.091 34.3141 171.727 33.5039 171.106 32.9145C170.485 32.325 169.656 32.0037 168.8 32.02C167.937 32.008 167.103 32.3285 166.47 32.9149C165.837 33.5013 165.454 34.3088 165.4 35.17M174.4 35.59C174.4 36.46 174.27 36.88 173.63 36.88H165.47C165.611 37.7735 166.086 38.5802 166.799 39.137C167.511 39.6939 168.409 39.9594 169.31 39.88C170.35 39.884 171.359 39.531 172.17 38.88C172.36 38.74 172.5 38.69 172.67 38.88L173.44 39.6C173.483 39.6315 173.519 39.6729 173.543 39.7207C173.567 39.7685 173.58 39.8213 173.58 39.875C173.58 39.9286 173.567 39.9815 173.543 40.0293C173.519 40.0771 173.483 40.1184 173.44 40.15C172.864 40.7175 172.181 41.1652 171.431 41.4673C170.681 41.7694 169.879 41.9199 169.07 41.91C168.272 41.936 167.477 41.7991 166.733 41.5076C165.989 41.2162 165.313 40.7764 164.745 40.2149C164.177 39.6535 163.73 38.9822 163.429 38.2421C163.129 37.5019 162.983 36.7084 163 35.91C162.973 35.1291 163.104 34.3509 163.385 33.6219C163.667 32.893 164.092 32.2284 164.637 31.668C165.181 31.1077 165.833 30.6631 166.554 30.361C167.275 30.0589 168.049 29.9055 168.83 29.91C169.574 29.8973 170.313 30.0363 171.002 30.3187C171.691 30.601 172.315 31.0208 172.836 31.5523C173.358 32.0838 173.765 32.716 174.034 33.4102C174.303 34.1044 174.427 34.846 174.4 35.59Z" fill="#020200"/>
<path d="M191.54 39.71V41.31C191.543 41.3576 191.536 41.4054 191.519 41.4499C191.502 41.4945 191.475 41.5348 191.441 41.5681C191.406 41.6013 191.365 41.6268 191.32 41.6427C191.275 41.6585 191.228 41.6644 191.18 41.66H182.61C182.563 41.6628 182.516 41.6558 182.471 41.6393C182.427 41.6228 182.387 41.5973 182.353 41.5644C182.319 41.5315 182.292 41.4918 182.275 41.448C182.257 41.4042 182.249 41.3572 182.25 41.31V25.59C182.249 25.5428 182.257 25.4958 182.275 25.452C182.292 25.4082 182.319 25.3686 182.353 25.3356C182.387 25.3027 182.427 25.2772 182.471 25.2607C182.516 25.2443 182.563 25.2372 182.61 25.24H191.12C191.167 25.2372 191.214 25.2443 191.259 25.2607C191.303 25.2772 191.343 25.3027 191.377 25.3356C191.411 25.3686 191.438 25.4082 191.455 25.452C191.473 25.4958 191.481 25.5428 191.48 25.59V27.19C191.481 27.2372 191.473 27.2842 191.455 27.328C191.438 27.3718 191.411 27.4115 191.377 27.4444C191.343 27.4773 191.303 27.5028 191.259 27.5193C191.214 27.5358 191.167 27.5428 191.12 27.54H184.83V31.93H190.73C190.778 31.9256 190.826 31.9315 190.871 31.9474C190.916 31.9632 190.957 31.9887 190.991 32.022C191.025 32.0552 191.052 32.0955 191.069 32.1401C191.086 32.1846 191.093 32.2324 191.09 32.28V33.88C191.093 33.9276 191.086 33.9754 191.069 34.0199C191.052 34.0645 191.025 34.1048 190.991 34.138C190.957 34.1713 190.916 34.1968 190.871 34.2126C190.826 34.2285 190.778 34.2344 190.73 34.23H184.83V39.37H191.14C191.188 39.3656 191.235 39.3715 191.28 39.3874C191.325 39.4032 191.367 39.4287 191.401 39.462C191.435 39.4952 191.462 39.5355 191.479 39.5801C191.496 39.6246 191.503 39.6724 191.5 39.72" fill="#020200"/>
<path d="M202.12 38.45C202.153 38.4119 202.194 38.3814 202.239 38.3604C202.285 38.3395 202.335 38.3286 202.385 38.3286C202.435 38.3286 202.485 38.3395 202.531 38.3604C202.577 38.3814 202.617 38.4119 202.65 38.45L203.65 39.45C203.684 39.4809 203.712 39.5187 203.73 39.5609C203.749 39.6031 203.759 39.6488 203.759 39.695C203.759 39.7412 203.749 39.7869 203.73 39.8291C203.712 39.8713 203.684 39.9091 203.65 39.94C203.072 40.5812 202.363 41.0913 201.571 41.4362C200.78 41.7811 199.923 41.9529 199.06 41.94C198.061 41.9337 197.079 41.6779 196.204 41.1959C195.328 40.7139 194.587 40.0209 194.048 39.1799C193.508 38.3389 193.187 37.3764 193.114 36.3799C193.041 35.3833 193.218 34.3843 193.629 33.4734C194.039 32.5625 194.671 31.7687 195.467 31.1639C196.262 30.5591 197.196 30.1626 198.183 30.0102C199.171 29.8579 200.181 29.9547 201.121 30.2917C202.062 30.6287 202.904 31.1953 203.57 31.94C203.606 31.97 203.634 32.0075 203.654 32.0499C203.674 32.0922 203.684 32.1383 203.684 32.185C203.684 32.2317 203.674 32.2778 203.654 32.3202C203.634 32.3625 203.606 32.4 203.57 32.43L202.57 33.43C202.537 33.4681 202.496 33.4986 202.451 33.5196C202.405 33.5405 202.355 33.5514 202.305 33.5514C202.255 33.5514 202.205 33.5405 202.159 33.5196C202.114 33.4986 202.073 33.4681 202.04 33.43C201.669 33.0382 201.223 32.7255 200.728 32.5106C200.233 32.2958 199.7 32.1834 199.16 32.18C198.208 32.2494 197.317 32.6768 196.667 33.3761C196.016 34.0755 195.655 34.9951 195.655 35.95C195.655 36.905 196.016 37.8245 196.667 38.5239C197.317 39.2233 198.208 39.6506 199.16 39.72C199.721 39.7396 200.279 39.6381 200.796 39.4224C201.314 39.2067 201.779 38.8818 202.16 38.47" fill="#020200"/>
<path d="M214.51 35.94C214.479 35.2357 214.241 34.556 213.827 33.9854C213.413 33.4148 212.84 32.9784 212.18 32.7303C211.52 32.4822 210.802 32.4333 210.115 32.5898C209.427 32.7462 208.801 33.1011 208.313 33.6103C207.826 34.1196 207.498 34.7608 207.372 35.4545C207.245 36.1481 207.325 36.8636 207.602 37.5121C207.879 38.1606 208.34 38.7137 208.928 39.1026C209.516 39.4916 210.205 39.6993 210.91 39.7C211.397 39.7005 211.878 39.6023 212.326 39.4115C212.773 39.2207 213.177 38.9411 213.514 38.5897C213.85 38.2382 214.112 37.8223 214.283 37.3668C214.455 36.9114 214.532 36.4261 214.51 35.94ZM204.89 35.94C204.89 34.7533 205.242 33.5933 205.901 32.6066C206.56 31.6199 207.497 30.8509 208.594 30.3967C209.69 29.9426 210.897 29.8238 212.061 30.0553C213.224 30.2868 214.294 30.8582 215.133 31.6974C215.972 32.5365 216.543 33.6056 216.775 34.7695C217.006 35.9333 216.887 37.1397 216.433 38.2361C215.979 39.3325 215.21 40.2695 214.223 40.9288C213.237 41.5881 212.077 41.94 210.89 41.94C210.1 41.9467 209.317 41.796 208.586 41.4969C207.855 41.1977 207.191 40.756 206.632 40.1975C206.074 39.639 205.632 38.9749 205.333 38.244C205.034 37.513 204.883 36.7298 204.89 35.94Z" fill="#020200"/>
<path d="M228.87 34.63V41.32C228.872 41.3672 228.863 41.4142 228.845 41.458C228.828 41.5018 228.801 41.5415 228.767 41.5744C228.733 41.6073 228.693 41.6328 228.649 41.6493C228.604 41.6658 228.557 41.6728 228.51 41.67H226.71C226.662 41.6743 226.614 41.6683 226.568 41.6525C226.523 41.6367 226.481 41.6114 226.446 41.5783C226.411 41.5453 226.384 41.5051 226.365 41.4606C226.347 41.416 226.338 41.3681 226.34 41.32V34.98C226.34 32.98 225.34 32.16 223.92 32.16C223.209 32.182 222.525 32.435 221.971 32.8807C221.417 33.3264 221.024 33.9405 220.85 34.63V41.32C220.853 41.3676 220.846 41.4154 220.829 41.4599C220.812 41.5045 220.785 41.5448 220.751 41.578C220.717 41.6113 220.676 41.6368 220.631 41.6526C220.586 41.6685 220.538 41.6744 220.49 41.67H218.69C218.643 41.6728 218.596 41.6658 218.551 41.6493C218.507 41.6328 218.467 41.6073 218.433 41.5744C218.399 41.5415 218.372 41.5018 218.355 41.458C218.337 41.4142 218.329 41.3672 218.33 41.32V30.52C218.329 30.4728 218.337 30.4258 218.355 30.382C218.372 30.3382 218.399 30.2986 218.433 30.2656C218.467 30.2327 218.507 30.2072 218.551 30.1907C218.596 30.1743 218.643 30.1672 218.69 30.17H220.39C220.437 30.1672 220.484 30.1743 220.529 30.1907C220.573 30.2072 220.613 30.2327 220.647 30.2656C220.681 30.2986 220.708 30.3382 220.725 30.382C220.743 30.4258 220.752 30.4728 220.75 30.52L220.85 32.07C221.254 31.4136 221.819 30.8709 222.49 30.493C223.162 30.1151 223.919 29.9145 224.69 29.91C227.12 29.91 228.87 31.55 228.87 34.63Z" fill="#020200"/>
<path d="M240.31 35.94C240.279 35.2357 240.041 34.556 239.627 33.9854C239.213 33.4148 238.64 32.9784 237.98 32.7303C237.32 32.4822 236.602 32.4333 235.915 32.5898C235.227 32.7462 234.601 33.1011 234.113 33.6103C233.626 34.1196 233.298 34.7608 233.172 35.4545C233.045 36.1481 233.126 36.8636 233.402 37.5121C233.679 38.1606 234.139 38.7137 234.728 39.1026C235.316 39.4916 236.005 39.6993 236.71 39.7C237.196 39.7005 237.678 39.6023 238.126 39.4115C238.573 39.2207 238.977 38.9411 239.314 38.5897C239.65 38.2382 239.912 37.8223 240.083 37.3668C240.254 36.9114 240.332 36.4261 240.31 35.94ZM230.69 35.94C230.69 34.7533 231.042 33.5933 231.701 32.6066C232.36 31.6199 233.298 30.8509 234.394 30.3967C235.49 29.9426 236.697 29.8238 237.861 30.0553C239.024 30.2868 240.093 30.8582 240.933 31.6974C241.772 32.5365 242.343 33.6056 242.575 34.7695C242.806 35.9333 242.687 37.1397 242.233 38.2361C241.779 39.3325 241.01 40.2695 240.023 40.9288C239.037 41.5881 237.877 41.94 236.69 41.94C235.9 41.9467 235.117 41.796 234.386 41.4969C233.655 41.1977 232.991 40.756 232.432 40.1975C231.874 39.639 231.432 38.9749 231.133 38.244C230.834 37.513 230.683 36.7298 230.69 35.94Z" fill="#020200"/>
<path d="M263.2 34.63V41.32C263.203 41.3676 263.196 41.4154 263.179 41.4599C263.162 41.5045 263.135 41.5448 263.101 41.578C263.066 41.6113 263.025 41.6368 262.98 41.6526C262.935 41.6685 262.887 41.6744 262.84 41.67H261.04C260.992 41.6744 260.945 41.6685 260.9 41.6526C260.854 41.6368 260.813 41.6113 260.779 41.578C260.745 41.5448 260.718 41.5045 260.701 41.4599C260.684 41.4154 260.677 41.3676 260.68 41.32V34.98C260.68 32.98 259.62 32.16 258.23 32.16C257.48 32.1148 256.742 32.3612 256.17 32.8477C255.598 33.3341 255.236 34.0229 255.16 34.77V41.32C255.163 41.3676 255.156 41.4154 255.139 41.4599C255.122 41.5045 255.095 41.5448 255.061 41.578C255.026 41.6113 254.985 41.6368 254.94 41.6526C254.895 41.6685 254.848 41.6744 254.8 41.67H253C252.953 41.6728 252.906 41.6657 252.861 41.6493C252.817 41.6328 252.777 41.6073 252.743 41.5744C252.709 41.5414 252.682 41.5018 252.665 41.458C252.647 41.4142 252.639 41.3672 252.64 41.32V34.98C252.64 32.98 251.64 32.16 250.22 32.16C249.509 32.182 248.825 32.435 248.271 32.8807C247.717 33.3264 247.324 33.9405 247.15 34.63V41.32C247.152 41.3681 247.143 41.416 247.125 41.4606C247.106 41.5051 247.079 41.5452 247.044 41.5783C247.009 41.6114 246.967 41.6367 246.922 41.6525C246.876 41.6683 246.828 41.6743 246.78 41.67H244.99C244.942 41.6744 244.894 41.6685 244.849 41.6526C244.804 41.6368 244.763 41.6113 244.729 41.578C244.695 41.5448 244.668 41.5045 244.651 41.4599C244.634 41.4154 244.627 41.3676 244.63 41.32V30.52C244.627 30.4724 244.634 30.4246 244.651 30.3801C244.668 30.3355 244.695 30.2952 244.729 30.262C244.763 30.2287 244.804 30.2032 244.849 30.1873C244.894 30.1715 244.942 30.1656 244.99 30.17H246.69C246.784 30.17 246.874 30.2065 246.941 30.2719C247.008 30.3372 247.047 30.4263 247.05 30.52L247.15 32.07C247.552 31.4137 248.114 30.8709 248.785 30.4929C249.455 30.1149 250.21 29.9142 250.98 29.91C251.748 29.8731 252.51 30.0654 253.169 30.4624C253.828 30.8595 254.354 31.4434 254.68 32.14C255.131 31.4353 255.756 30.8595 256.496 30.4686C257.236 30.0778 258.064 29.8853 258.9 29.91C261.45 29.91 263.2 31.55 263.2 34.63Z" fill="#020200"/>
<path d="M275.27 30.57L269.12 45.85C269.088 45.9367 269.029 46.0107 268.951 46.0612C268.874 46.1116 268.782 46.1357 268.69 46.13H266.89C266.62 46.13 266.51 45.99 266.6 45.73L268.28 41.73L263.77 30.58C263.67 30.32 263.77 30.18 264.06 30.18H265.88C265.973 30.1752 266.066 30.1996 266.145 30.2497C266.223 30.2999 266.285 30.3734 266.32 30.46L269.53 38.82L272.75 30.46C272.781 30.3724 272.839 30.2973 272.917 30.2467C272.995 30.196 273.087 30.1726 273.18 30.18H275.02C275.29 30.18 275.41 30.32 275.31 30.58" fill="#020200"/>
</g>
<defs>
<clipPath id="clip0_8_9">
<rect width="275.31" height="46.13" fill="white"/>
</clipPath>
</defs>
</svg>
