<?xml version="1.0" encoding="utf-8"?>
<!-- Generator: Adobe Illustrator 27.1.1, SVG Export Plug-In . SVG Version: 6.00 Build 0)  -->
<svg version="1.1" id="Layer_1" xmlns="http://www.w3.org/2000/svg" xmlns:xlink="http://www.w3.org/1999/xlink" x="0px" y="0px"
	 viewBox="0 0 782.34 141.54" style="enable-background:new 0 0 782.34 141.54;" xml:space="preserve">
<style type="text/css">
	.st0{stroke:#000000;stroke-width:0.5;stroke-miterlimit:10;}
</style>
<g>
	<g>
		<path d="M144.82,12.01h-0.14H17.17h-0.14c-1.93,0-3.52,1.58-3.52,3.51v7.28c0,18.62,15.09,33.71,33.71,33.71
			c18.62,0,33.71-15.09,33.71-33.71c0,18.62,15.09,33.71,33.71,33.71s33.71-15.09,33.71-33.71v-7.28
			C148.33,13.59,146.75,12.01,144.82,12.01"/>
		<path d="M54.21,59.29h-7c-18.63,0-33.73,15.1-33.73,33.73c0,18.63,15.1,33.73,33.73,33.73h7c2.09,0,3.8-1.72,3.8-3.81v-0.16V63.25
			V63.1C58.01,61.01,56.3,59.29,54.21,59.29"/>
		<path d="M99.42,59.29h-7c-18.63,0-33.73,15.1-33.73,33.73c0,18.63,15.11,33.73,33.73,33.73h7c2.09,0,3.8-1.72,3.8-3.81v-0.16
			V63.25V63.1C103.22,61.01,101.51,59.29,99.42,59.29"/>
		<path d="M139.76,81.81v-0.03h2.7h0.65c2.86,0,5.2-2.34,5.2-5.2v-1.33V63.26V63.1c0-2.09-1.72-3.8-3.81-3.8h-7.89v0.03
			c-18.15,0.54-32.71,15.41-32.71,33.71c0,18.29,14.56,33.16,32.71,33.7v0.03h1.02h6.87c2.09,0,3.81-1.71,3.81-3.81v-0.16V110.8
			v-1.33c0-2.86-2.34-5.2-5.2-5.2h-0.65h-2.7v-0.03c4.82-0.31,8.67-4.35,8.67-9.24v-1.97v-1.97
			C148.43,86.16,144.58,82.13,139.76,81.81"/>
	</g>
	<g>
		<path class="st0" d="M186.31,56.74v-9.33h-18.27c-0.58,0-0.97-0.39-0.97-0.97v-3.5c0-0.39,0-0.65,0.26-1.04l18.6-28.97
			c0.32-0.45,0.65-0.65,1.17-0.65h4.15c0.58,0,0.91,0.39,0.91,0.97v29.16h4.6c0.58,0,0.78,0.39,0.78,0.97v3.11
			c0,0.58-0.19,0.91-0.78,0.91h-4.6v9.33c0,0.58-0.26,0.91-0.84,0.91h-4.08C186.64,57.65,186.31,57.32,186.31,56.74z M186.31,42.42
			V21.29L172.9,42.42H186.31z"/>
		<path class="st0" d="M204.87,31.91v-11.6h-2.38c-0.34,0-0.57-0.23-0.57-0.57v-1.66c0-0.34,0.23-0.53,0.57-0.53h2.38v-4.38
			c0-0.34,0.19-0.53,0.53-0.53h2.38c0.34,0,0.49,0.19,0.49,0.53v4.38h3.1c0.34,0,0.53,0.19,0.53,0.53v1.66
			c0,0.34-0.19,0.57-0.53,0.57h-3.1v11.14c0,1.36,0.6,1.89,1.7,1.89c0.3,0,0.79-0.04,1.17-0.08c0.53-0.04,0.72,0.15,0.72,0.53v1.59
			c0,0.72-1.55,0.91-2.61,0.91C206.61,36.29,204.87,34.97,204.87,31.91z"/>
		<path class="st0" d="M216.13,35.54V9.58c0-0.34,0.19-0.53,0.53-0.53h2.38c0.34,0,0.49,0.19,0.49,0.53v10.88
			c1.06-1.89,3.02-3.36,6.01-3.36c3.97,0,6.73,2.68,6.73,7.56v10.88c0,0.34-0.19,0.53-0.53,0.53h-2.38c-0.34,0-0.49-0.19-0.49-0.53
			V25.19c0-3.1-1.59-4.95-4.42-4.95s-4.91,1.85-4.91,4.95v10.35c0,0.34-0.15,0.53-0.49,0.53h-2.38
			C216.31,36.07,216.13,35.88,216.13,35.54z"/>
		<path class="st0" d="M255.45,56.87L242.1,13.38c-0.19-0.65,0.06-1.1,0.78-1.1h4.28c0.52,0,0.97,0.19,1.1,0.78l10.82,36.42
			l11.73-36.42c0.19-0.58,0.52-0.78,1.1-0.78h4.41c0.52,0,0.84,0.19,1.04,0.78l11.73,36.42l10.82-36.42
			c0.19-0.58,0.58-0.78,1.1-0.78h4.28c0.71,0,0.97,0.45,0.78,1.1l-13.28,43.48c-0.19,0.58-0.65,0.78-1.17,0.78h-4.67
			c-0.58,0-0.97-0.19-1.17-0.78l-11.66-37l-11.73,37c-0.19,0.58-0.58,0.78-1.1,0.78h-4.73C256.03,57.65,255.58,57.45,255.45,56.87z"
			/>
		<path class="st0" d="M306.25,41.77c0-9.46,7.06-16.66,16.4-16.66c9.33,0,16.33,7.19,16.33,16.66c0,9.46-7,16.65-16.33,16.65
			C313.31,58.42,306.25,51.23,306.25,41.77z M322.65,52.98c6.09,0,10.69-4.54,10.69-11.21s-4.6-11.28-10.69-11.28
			c-6.16,0-10.69,4.6-10.69,11.28S316.49,52.98,322.65,52.98z"/>
		<path class="st0" d="M346.55,56.74V26.8c0-0.58,0.32-0.91,0.91-0.91h3.82c0.65,0,0.91,0.26,0.91,0.97l0.19,3.76
			c1.17-3.11,3.3-5.51,7.19-5.51c1.36,0,2.33,0.26,2.92,0.65c0.39,0.32,0.52,0.58,0.52,1.17v3.24c0,0.71-0.45,0.84-1.17,0.65
			c-0.84-0.19-1.62-0.32-2.33-0.32c-5.31,0-7.13,4.47-7.13,8.29v17.95c0,0.58-0.26,0.91-0.84,0.91h-4.08
			C346.88,57.65,346.55,57.32,346.55,56.74z"/>
		<path class="st0" d="M370.08,56.74V12.22c0-0.58,0.32-0.91,0.91-0.91h4.08c0.58,0,0.91,0.32,0.91,0.91v44.52
			c0,0.58-0.32,0.91-0.91,0.91h-4.08C370.4,57.65,370.08,57.32,370.08,56.74z"/>
		<path class="st0" d="M383.55,41.77c0-9.46,6.35-16.66,15.49-16.66c5.25,0,9.2,2.33,11.47,6.16V12.22c0-0.58,0.32-0.91,0.91-0.91
			h4.08c0.58,0,0.91,0.32,0.91,0.91v44.52c0,0.58-0.32,0.91-0.91,0.91h-3.76c-0.58,0-0.84-0.32-0.84-0.91l-0.13-4.73
			c-2.33,3.95-6.29,6.42-11.73,6.42C389.9,58.42,383.55,51.3,383.55,41.77z M400.08,53.04c6.22,0,10.56-4.47,10.56-11.21
			s-4.34-11.34-10.56-11.34c-6.29,0-10.82,4.6-10.82,11.28C389.26,48.51,393.79,53.04,400.08,53.04z"/>
		<path class="st0" d="M437.85,35.16c0-13.16,9.85-23.39,23.13-23.39c6.35,0,11.47,2.33,15.49,6.03c0.45,0.45,0.58,0.91,0.13,1.49
			l-2.59,2.79c-0.39,0.45-0.84,0.45-1.36,0c-3.17-2.72-6.93-4.41-11.6-4.41c-9.72,0-17.04,7.45-17.04,17.5s7.32,17.43,17.04,17.43
			c4.67,0,8.42-1.69,11.6-4.41c0.52-0.52,0.97-0.45,1.36-0.06l2.59,2.85c0.52,0.52,0.32,0.97-0.13,1.43
			c-4.02,3.76-9.14,6.09-15.49,6.09C447.7,58.49,437.85,48.31,437.85,35.16z"/>
		<path class="st0" d="M480.94,41.77c0-9.46,7.06-16.66,16.4-16.66s16.33,7.19,16.33,16.66c0,9.46-7,16.65-16.33,16.65
			S480.94,51.23,480.94,41.77z M497.34,52.98c6.09,0,10.69-4.54,10.69-11.21s-4.6-11.28-10.69-11.28c-6.16,0-10.69,4.6-10.69,11.28
			S491.18,52.98,497.34,52.98z"/>
		<path class="st0" d="M518.65,56.74V26.8c0-0.58,0.32-0.91,0.91-0.91h3.82c0.65,0,0.91,0.26,0.91,0.97l0.19,4.02
			c1.81-3.24,5.18-5.77,10.3-5.77c6.8,0,11.54,4.6,11.54,12.96v18.66c0,0.58-0.32,0.91-0.91,0.91h-4.08c-0.58,0-0.84-0.32-0.84-0.91
			V38.98c0-5.31-2.72-8.49-7.58-8.49s-8.42,3.18-8.42,8.49v17.76c0,0.58-0.26,0.91-0.84,0.91h-4.08
			C518.98,57.65,518.65,57.32,518.65,56.74z"/>
		<path class="st0" d="M555.72,56.74V30.62h-3.76c-0.58,0-0.97-0.39-0.97-0.97V26.8c0-0.58,0.39-0.91,0.97-0.91h3.76v-6.55
			c0-6.03,3.18-9.07,9.01-9.07c1.36,0,2.53,0.13,3.63,0.65c0.39,0.19,0.58,0.39,0.58,0.84v3.56c0,0.45-0.39,0.52-0.84,0.45
			c-0.84-0.13-1.62-0.19-2.27-0.19c-3.5,0-4.21,2.07-4.21,4.79v5.51h6.35c0.58,0,0.97,0.32,0.97,0.91v2.85
			c0,0.58-0.39,0.97-0.97,0.97h-6.35v26.12c0,0.58-0.32,0.91-0.91,0.91h-4.08C556.04,57.65,555.72,57.32,555.72,56.74z"/>
		<path class="st0" d="M571.98,41.64c0-9.33,6.54-16.53,16.07-16.53c9.46,0,14.97,7.19,14.97,15.04c0,2.59-0.52,3.76-2.66,3.76
			h-22.68c0.71,5.7,4.8,9.72,11.79,9.72c3.5,0,6.16-0.97,8.62-2.72c0.39-0.26,0.78-0.26,1.04,0.07l1.43,2.01
			c0.45,0.52,0.26,0.91-0.26,1.36c-2.79,2.72-6.87,4.08-11.34,4.08C578.59,58.42,571.98,50.97,571.98,41.64z M597.84,39.57
			c-0.32-5.7-4.08-9.46-9.79-9.46c-5.7,0-9.72,3.56-10.37,9.46H597.84z"/>
		<path class="st0" d="M608.01,56.74V26.8c0-0.58,0.32-0.91,0.91-0.91h3.82c0.65,0,0.91,0.26,0.91,0.97l0.19,3.76
			c1.17-3.11,3.3-5.51,7.19-5.51c1.36,0,2.33,0.26,2.92,0.65c0.39,0.32,0.52,0.58,0.52,1.17v3.24c0,0.71-0.45,0.84-1.17,0.65
			c-0.84-0.19-1.62-0.32-2.33-0.32c-5.31,0-7.13,4.47-7.13,8.29v17.95c0,0.58-0.26,0.91-0.84,0.91h-4.08
			C608.33,57.65,608.01,57.32,608.01,56.74z"/>
		<path class="st0" d="M627.32,41.64c0-9.33,6.54-16.53,16.07-16.53c9.46,0,14.97,7.19,14.97,15.04c0,2.59-0.52,3.76-2.66,3.76
			h-22.68c0.71,5.7,4.8,9.72,11.79,9.72c3.5,0,6.16-0.97,8.62-2.72c0.39-0.26,0.78-0.26,1.04,0.07l1.43,2.01
			c0.45,0.52,0.26,0.91-0.26,1.36c-2.79,2.72-6.87,4.08-11.34,4.08C633.93,58.42,627.32,50.97,627.32,41.64z M653.18,39.57
			c-0.32-5.7-4.08-9.46-9.79-9.46c-5.7,0-9.72,3.56-10.37,9.46H653.18z"/>
		<path class="st0" d="M663.35,56.74V26.8c0-0.58,0.32-0.91,0.91-0.91h3.82c0.65,0,0.91,0.26,0.91,0.97l0.19,4.02
			c1.81-3.24,5.18-5.77,10.3-5.77c6.8,0,11.54,4.6,11.54,12.96v18.66c0,0.58-0.32,0.91-0.91,0.91h-4.08c-0.58,0-0.84-0.32-0.84-0.91
			V38.98c0-5.31-2.72-8.49-7.58-8.49s-8.42,3.18-8.42,8.49v17.76c0,0.58-0.26,0.91-0.84,0.91h-4.08
			C663.67,57.65,663.35,57.32,663.35,56.74z"/>
		<path class="st0" d="M696,41.7c0-9.46,7.13-16.59,16.59-16.59c5.05,0,9.27,2.07,11.99,5.38c0.39,0.52,0.39,0.97,0,1.36l-2.27,2.14
			c-0.52,0.58-1.1,0.39-1.49,0c-1.94-2.07-4.28-3.5-8.04-3.5c-6.42,0-11.08,4.67-11.08,11.21c0,6.55,4.67,11.28,11.21,11.28
			c3.69,0,6.03-1.36,7.91-3.37c0.45-0.45,1.04-0.65,1.56-0.13l2.27,2.2c0.39,0.39,0.39,0.84,0,1.3c-2.72,3.37-6.93,5.44-12.05,5.44
			C703.13,58.42,696,51.23,696,41.7z"/>
		<path class="st0" d="M728.34,41.64c0-9.33,6.54-16.53,16.07-16.53c9.46,0,14.97,7.19,14.97,15.04c0,2.59-0.52,3.76-2.66,3.76
			h-22.68c0.71,5.7,4.8,9.72,11.79,9.72c3.5,0,6.16-0.97,8.62-2.72c0.39-0.26,0.78-0.26,1.04,0.07l1.43,2.01
			c0.45,0.52,0.26,0.91-0.26,1.36c-2.79,2.72-6.87,4.08-11.34,4.08C734.95,58.42,728.34,50.97,728.34,41.64z M754.19,39.57
			c-0.32-5.7-4.08-9.46-9.79-9.46c-5.7,0-9.72,3.56-10.37,9.46H754.19z"/>
	</g>
	<g>
		<path class="st0" d="M167.2,110.88c0-9.46,7.06-16.65,16.4-16.65c9.33,0,16.33,7.19,16.33,16.65c0,9.46-7,16.65-16.33,16.65
			C174.26,127.53,167.2,120.34,167.2,110.88z M183.59,122.09c6.09,0,10.69-4.54,10.69-11.21s-4.6-11.28-10.69-11.28
			c-6.16,0-10.69,4.6-10.69,11.28S177.44,122.09,183.59,122.09z"/>
		<path class="st0" d="M207.5,125.85V95.91c0-0.58,0.32-0.91,0.91-0.91h3.82c0.65,0,0.91,0.26,0.91,0.97l0.19,4.02
			c1.81-3.24,5.18-5.77,10.3-5.77c6.8,0,11.54,4.6,11.54,12.96v18.66c0,0.58-0.32,0.91-0.91,0.91h-4.08c-0.58,0-0.84-0.32-0.84-0.91
			v-17.76c0-5.31-2.72-8.49-7.58-8.49s-8.42,3.18-8.42,8.49v17.76c0,0.58-0.26,0.91-0.84,0.91h-4.08
			C207.82,126.76,207.5,126.43,207.5,125.85z"/>
		<path class="st0" d="M256.62,104.27c0-13.16,9.85-23.39,23.13-23.39c6.35,0,11.47,2.33,15.49,6.03c0.45,0.45,0.58,0.91,0.13,1.49
			l-2.59,2.79c-0.39,0.45-0.84,0.45-1.36,0c-3.18-2.72-6.93-4.41-11.6-4.41c-9.72,0-17.04,7.45-17.04,17.5
			c0,10.04,7.32,17.43,17.04,17.43c4.67,0,8.42-1.68,11.6-4.41c0.52-0.52,0.97-0.45,1.36-0.07l2.59,2.85
			c0.52,0.52,0.32,0.97-0.13,1.43c-4.02,3.76-9.14,6.09-15.49,6.09C266.47,127.6,256.62,117.42,256.62,104.27z"/>
		<path class="st0" d="M301.97,125.85V95.91c0-0.58,0.32-0.91,0.91-0.91h3.82c0.65,0,0.91,0.26,0.91,0.97l0.19,3.76
			c1.17-3.11,3.3-5.51,7.19-5.51c1.36,0,2.33,0.26,2.92,0.65c0.39,0.32,0.52,0.58,0.52,1.17v3.24c0,0.71-0.45,0.84-1.17,0.65
			c-0.84-0.19-1.62-0.32-2.33-0.32c-5.31,0-7.13,4.47-7.13,8.29v17.95c0,0.58-0.26,0.91-0.84,0.91h-4.08
			C302.3,126.76,301.97,126.43,301.97,125.85z"/>
		<path class="st0" d="M321.93,110.75c0-9.33,6.55-16.52,16.07-16.52c9.46,0,14.97,7.19,14.97,15.03c0,2.59-0.52,3.76-2.66,3.76
			h-22.68c0.71,5.7,4.8,9.72,11.79,9.72c3.5,0,6.16-0.97,8.62-2.72c0.39-0.26,0.78-0.26,1.04,0.06l1.43,2.01
			c0.45,0.52,0.26,0.91-0.26,1.36c-2.79,2.72-6.87,4.08-11.34,4.08C328.54,127.53,321.93,120.08,321.93,110.75z M347.79,108.68
			c-0.32-5.7-4.08-9.46-9.79-9.46c-5.7,0-9.72,3.56-10.37,9.46H347.79z"/>
		<path class="st0" d="M356.99,110.88c0-9.46,6.35-16.65,15.49-16.65c5.44,0,9.46,2.53,11.73,6.54l0.13-4.86
			c0-0.58,0.26-0.91,0.84-0.91h3.76c0.58,0,0.91,0.32,0.91,0.91v29.94c0,0.58-0.32,0.91-0.91,0.91h-3.76
			c-0.58,0-0.84-0.32-0.84-0.91l-0.13-4.73c-2.33,3.95-6.29,6.42-11.73,6.42C363.34,127.53,356.99,120.41,356.99,110.88z
			 M373.51,122.16c6.22,0,10.56-4.47,10.56-11.21c0-6.74-4.34-11.34-10.56-11.34c-6.29,0-10.82,4.6-10.82,11.28
			C362.69,117.62,367.23,122.16,373.51,122.16z"/>
		<path class="st0" d="M400.21,119.63V99.73h-4.08c-0.58,0-0.97-0.39-0.97-0.97v-2.85c0-0.58,0.39-0.91,0.97-0.91h4.08v-7.52
			c0-0.58,0.32-0.91,0.91-0.91h4.08c0.58,0,0.84,0.32,0.84,0.91V95h5.31c0.58,0,0.91,0.32,0.91,0.91v2.85
			c0,0.58-0.32,0.97-0.91,0.97h-5.31v19.12c0,2.33,1.04,3.24,2.92,3.24c0.52,0,1.36-0.06,2.01-0.13c0.91-0.06,1.23,0.26,1.23,0.91
			v2.72c0,1.23-2.66,1.55-4.47,1.55C403.19,127.15,400.21,124.88,400.21,119.63z"/>
		<path class="st0" d="M417.05,83.99c0-1.94,1.56-3.5,3.5-3.5s3.43,1.56,3.43,3.5s-1.49,3.5-3.43,3.5S417.05,85.93,417.05,83.99z
			 M417.64,95.91c0-0.58,0.26-0.91,0.84-0.91h4.08c0.58,0,0.91,0.32,0.91,0.91v29.94c0,0.58-0.32,0.91-0.91,0.91h-4.08
			c-0.58,0-0.84-0.32-0.84-0.91V95.91z"/>
		<path class="st0" d="M440.77,125.98L428.91,96.1c-0.26-0.71,0-1.1,0.71-1.1h4.15c0.52,0,0.84,0.26,1.04,0.78l9.2,24.37l9.2-24.37
			c0.19-0.52,0.52-0.78,1.04-0.78h4.15c0.71,0,0.97,0.39,0.71,1.1l-11.86,29.88c-0.19,0.52-0.65,0.78-1.17,0.78h-4.15
			C441.42,126.76,440.96,126.5,440.77,125.98z"/>
		<path class="st0" d="M462.93,110.75c0-9.33,6.54-16.52,16.07-16.52c9.46,0,14.97,7.19,14.97,15.03c0,2.59-0.52,3.76-2.66,3.76
			h-22.68c0.71,5.7,4.8,9.72,11.79,9.72c3.5,0,6.16-0.97,8.62-2.72c0.39-0.26,0.78-0.26,1.04,0.06l1.43,2.01
			c0.45,0.52,0.26,0.91-0.26,1.36c-2.79,2.72-6.87,4.08-11.34,4.08C469.54,127.53,462.93,120.08,462.93,110.75z M488.79,108.68
			c-0.32-5.7-4.08-9.46-9.79-9.46s-9.72,3.56-10.37,9.46H488.79z"/>
		<path class="st0" d="M513.15,125.85V82.3c0-0.58,0.39-0.91,0.97-0.91h22.03c0.58,0,0.97,0.32,0.97,0.91v3.56
			c0,0.58-0.39,0.91-0.97,0.91h-16.91v14h16.07c0.58,0,0.91,0.32,0.91,0.91v3.56c0,0.58-0.32,0.91-0.91,0.91h-16.07v15.16h16.98
			c0.58,0,0.91,0.39,0.91,0.97v3.56c0,0.58-0.32,0.91-0.91,0.91h-22.1C513.54,126.76,513.15,126.43,513.15,125.85z"/>
		<path class="st0" d="M543.8,110.82c0-9.46,7.13-16.59,16.59-16.59c5.05,0,9.27,2.07,11.99,5.38c0.39,0.52,0.39,0.97,0,1.36
			l-2.27,2.14c-0.52,0.58-1.1,0.39-1.49,0c-1.94-2.07-4.28-3.5-8.04-3.5c-6.42,0-11.08,4.67-11.08,11.21
			c0,6.54,4.67,11.28,11.21,11.28c3.69,0,6.03-1.36,7.91-3.37c0.45-0.45,1.04-0.65,1.56-0.13l2.27,2.2c0.39,0.39,0.39,0.84,0,1.3
			c-2.72,3.37-6.93,5.44-12.05,5.44C550.92,127.53,543.8,120.34,543.8,110.82z"/>
		<path class="st0" d="M577.75,110.88c0-9.46,7.06-16.65,16.39-16.65c9.33,0,16.33,7.19,16.33,16.65c0,9.46-7,16.65-16.33,16.65
			C584.81,127.53,577.75,120.34,577.75,110.88z M594.15,122.09c6.09,0,10.69-4.54,10.69-11.21s-4.6-11.28-10.69-11.28
			c-6.16,0-10.69,4.6-10.69,11.28S587.99,122.09,594.15,122.09z"/>
		<path class="st0" d="M617.08,125.85V95.91c0-0.58,0.32-0.91,0.91-0.91h3.82c0.65,0,0.91,0.26,0.91,0.97l0.19,4.02
			c1.81-3.24,5.18-5.77,10.3-5.77c6.8,0,11.54,4.6,11.54,12.96v18.66c0,0.58-0.32,0.91-0.91,0.91h-4.08c-0.58,0-0.84-0.32-0.84-0.91
			v-17.76c0-5.31-2.72-8.49-7.58-8.49s-8.42,3.18-8.42,8.49v17.76c0,0.58-0.26,0.91-0.84,0.91h-4.08
			C617.4,126.76,617.08,126.43,617.08,125.85z"/>
		<path class="st0" d="M651.36,110.88c0-9.46,7.06-16.65,16.39-16.65c9.33,0,16.33,7.19,16.33,16.65c0,9.46-7,16.65-16.33,16.65
			C658.42,127.53,651.36,120.34,651.36,110.88z M667.75,122.09c6.09,0,10.69-4.54,10.69-11.21s-4.6-11.28-10.69-11.28
			c-6.16,0-10.69,4.6-10.69,11.28S661.6,122.09,667.75,122.09z"/>
		<path class="st0" d="M690.69,125.85V95.91c0-0.58,0.32-0.91,0.91-0.91h3.82c0.65,0,0.91,0.26,0.91,0.97l0.13,3.56
			c1.62-2.98,4.41-5.31,9.01-5.31c4.34,0,7.58,2.01,9.27,6.09c1.62-3.43,4.67-6.09,9.92-6.09c6.61,0,10.63,4.34,10.63,12.7v18.92
			c0,0.58-0.32,0.91-0.91,0.91h-4.08c-0.58,0-0.84-0.32-0.84-0.91v-18.02c0-5.25-2.07-8.23-6.42-8.23c-4.28,0-7.13,3.05-7.13,8.23
			v18.02c0,0.58-0.26,0.91-0.84,0.91h-4.08c-0.58,0-0.91-0.32-0.91-0.91v-18.02c0-5.25-2.33-8.23-6.61-8.23
			c-4.34,0-6.93,3.05-6.93,8.23v18.02c0,0.58-0.26,0.91-0.84,0.91h-4.08C691.01,126.76,690.69,126.43,690.69,125.85z"/>
		<path class="st0" d="M749.4,138.03l4.47-11.15L741.69,96.1c-0.26-0.71,0-1.1,0.71-1.1h4.15c0.52,0,0.84,0.26,1.04,0.78l9.2,24.37
			l9.2-24.37c0.19-0.52,0.58-0.78,1.1-0.78h4.08c0.71,0,1.04,0.39,0.78,1.1l-16.78,42.19c-0.19,0.52-0.58,0.78-1.1,0.78h-4.02
			C749.4,139.07,749.14,138.68,749.4,138.03z"/>
	</g>
</g>
</svg>
