<svg width="108" height="80" viewBox="0 0 108 80" fill="none" xmlns="http://www.w3.org/2000/svg">
<g clip-path="url(#clip0_12_1237)">
<path d="M7.76189 58.0802L6.26217 52.7296H6.22358L4.68913 58.0802H2.6775L0.443359 50.5743H2.38425L3.77207 56.0416H3.81065L5.27307 50.5743H7.21139L8.67509 56.0416H8.71368L10.1015 50.5743H12.0424L9.77351 58.0802H7.76189Z" fill="black"/>
<path d="M15.8483 50.573H13.9087V58.0776H15.8483V50.573Z" fill="black"/>
<path d="M18.6998 50.5743H23.4974C25.509 50.5743 26.0209 51.8439 26.0209 52.845C26.0209 54.4232 25.2158 55.3854 23.644 55.3854H20.6394V58.0802H18.6998V50.5743ZM20.6394 54.0381H22.7257C23.3109 54.0381 24.0415 53.9992 24.0415 53.0006C24.0415 52.0384 23.4575 51.923 22.9083 51.923H20.6394V54.0381Z" fill="black"/>
<path d="M32.4931 50.3811C36.3337 50.3811 36.9202 52.7672 36.9202 54.3467C36.9202 55.9262 36.3337 58.3097 32.4931 58.3097C28.6525 58.3097 28.0647 55.9236 28.0647 54.3467C28.0647 52.7698 28.6512 50.3811 32.4931 50.3811ZM32.4931 56.8871C34.2488 56.8871 34.87 55.5398 34.87 54.3467C34.87 53.1913 34.2488 51.8063 32.4931 51.8063C30.7374 51.8063 30.1149 53.1913 30.1149 54.3467C30.1149 55.5022 30.7374 56.8871 32.4931 56.8871Z" fill="black"/>
<path d="M35.9736 10.1194C36.5589 9.35037 36.8868 8.54246 36.8868 7.69436C36.8521 4.8414 33.1928 2.49938 27.4859 0.691639L27.266 0.616425V1.61626L27.3766 1.65516C30.1857 2.38007 32.4198 3.22948 33.9556 4.19559C35.499 5.12021 36.2978 6.12134 36.2605 7.12247C36.2605 7.85257 35.8952 8.54895 35.126 9.27775C33.517 7.81366 30.8455 6.583 27.4435 5.50536L27.2248 5.42755V6.46499L27.3342 6.50389C30.151 7.23399 32.3825 8.08599 33.9157 9.04173C34.2064 9.23495 34.4996 9.43077 34.7556 9.6201C33.8784 10.3515 32.6351 11.0431 31.0256 11.695C29.9285 11.232 28.758 10.7704 27.4396 10.3476L27.221 10.2698V11.3072L27.3303 11.3461C28.2808 11.5783 29.1233 11.8467 29.9285 12.1177C25.9759 13.5442 20.4105 14.7334 13.8303 15.5037V18.0052C20.5983 17.043 26.3065 15.6204 30.367 13.8866C31.0256 13.5792 31.6468 13.3108 32.2333 13.0022C32.8165 13.2536 33.379 13.5511 33.9157 13.8918C34.2064 14.085 34.4996 14.2808 34.7556 14.4688C33.8784 15.2011 32.6351 15.8927 31.0256 16.5437C29.9285 16.0808 28.758 15.6204 27.4396 15.1963L27.221 15.1185V16.1261L27.3303 16.1651C28.2448 16.3959 29.1233 16.6656 29.9285 16.9341C25.9759 18.3605 20.4105 19.551 13.8303 20.3213V22.8228C20.5983 21.8995 26.3065 20.4367 30.367 18.7055C31.0256 18.3968 31.6468 18.1271 32.2333 17.8198C32.8168 18.0685 33.3794 18.3643 33.9157 18.7042C34.2064 18.8961 34.4996 19.0932 34.7556 19.2813C33.8784 20.0127 32.6351 20.7043 31.0256 21.3561C29.9645 20.8958 28.758 20.4328 27.4396 20.0101L27.221 19.9335V20.9334L27.3303 20.9723C28.2448 21.2031 29.1233 21.4716 29.9285 21.7413C25.9759 23.1678 20.4105 24.3595 13.8303 25.1285V27.6314C20.5983 26.6691 26.3065 25.2439 30.367 23.5127C31.0256 23.2041 31.6468 22.9343 32.2333 22.627C32.8167 22.8783 33.3793 23.1763 33.9157 23.5179C34.2064 23.7111 34.4996 23.9069 34.7556 24.095C33.8784 24.8246 32.6351 25.5163 31.0256 26.1699C29.9285 25.7095 28.758 25.2465 27.4396 24.8225L27.221 24.7473V25.7484L27.3303 25.786C28.2808 26.0181 29.1233 26.2866 29.9285 26.5563C25.9759 27.9828 20.4105 29.1732 13.8303 29.9435V32.4451C20.5983 31.5217 26.3065 30.059 30.367 28.3277C31.0256 28.0191 31.6468 27.7494 32.2333 27.4407C32.8166 27.6908 33.3792 27.9874 33.9157 28.3277C34.2064 28.5184 34.4996 28.7168 34.7556 28.9035C33.8784 29.6349 32.6351 30.3265 31.0256 30.9784C29.9645 30.5154 28.758 30.0551 27.4396 29.631L27.221 29.5532V30.5907L27.3303 30.627C28.2448 30.8591 29.1233 31.1288 29.9285 31.3986C25.9759 32.825 20.4105 34.0142 13.8303 34.7858V37.2873C20.5983 36.3627 26.3065 34.9012 30.367 33.1687C31.0256 32.8613 31.6468 32.5916 32.2333 32.283C32.8166 32.5357 33.3791 32.8344 33.9157 33.1765C34.2064 33.3684 34.4996 33.5655 34.7556 33.7535C33.6945 34.6004 32.1214 35.4472 30.0725 36.1786C26.1213 37.6413 20.525 38.8344 13.829 39.6436V42.1438C20.597 41.1816 26.3052 39.759 30.3658 37.9876C32.744 36.9502 34.5369 35.8323 35.6392 34.5614C36.0418 35.0633 36.2605 35.5626 36.2605 36.102C36.2978 37.7879 34.0649 39.5282 30.0776 40.991C26.1264 42.4525 20.5301 43.6455 13.8341 44.4534V46.9563C20.6022 45.994 26.3103 44.5689 30.3709 42.8376C34.3955 41.0662 36.8097 39.0263 36.8097 36.6791C36.8097 35.8323 36.4817 35.0633 35.8952 34.2917C36.4817 33.5227 36.8097 32.7148 36.8097 31.8667C36.8097 31.0186 36.4881 30.2509 35.8952 29.4832C36.4817 28.7142 36.8097 27.9063 36.8097 27.0595C36.8097 26.2127 36.4817 25.4424 35.8952 24.6734C36.4817 23.9018 36.8097 23.0939 36.8097 22.2483C36.8097 21.4028 36.4817 20.6312 35.8952 19.8609C36.4817 19.0906 36.8097 18.2827 36.8097 17.4359C36.8097 16.5891 36.4817 15.8188 35.8952 15.0498C36.4817 14.2808 36.8097 13.4716 36.8097 12.6248C36.8817 11.6626 36.5524 10.8547 35.9685 10.122M32.9678 12.5859C34.1022 11.8934 35.054 11.1996 35.7125 10.4306C36.1138 10.9312 36.3351 11.4317 36.3351 11.9712C36.3351 12.7013 35.9685 13.3977 35.2006 14.1265C34.5207 13.5241 33.7709 13.0068 32.9678 12.5859ZM36.2978 31.2157C36.2978 31.9471 35.9325 32.6422 35.1633 33.371C34.5781 32.8315 33.8089 32.3335 32.9678 31.8317C34.1022 31.1392 35.054 30.4467 35.7125 29.6764C36.0791 30.177 36.2978 30.6762 36.2978 31.2157ZM36.2978 26.4046C36.2978 27.1347 35.9325 27.8311 35.1633 28.5599C34.5781 28.0217 33.8089 27.5224 32.9678 27.0206C34.1022 26.3268 35.054 25.6343 35.7125 24.864C36.0791 25.3645 36.2978 25.8664 36.2978 26.4046ZM36.2978 21.5922C36.2978 22.3248 35.9325 23.0186 35.1633 23.7474C34.5781 23.2093 33.8089 22.71 32.9678 22.2094C34.1022 21.5156 35.054 20.8232 35.7125 20.0542C36.0791 20.5534 36.2978 21.054 36.2978 21.5922ZM36.2978 16.781C36.2978 17.5137 35.9325 18.2075 35.1633 18.9376C34.5781 18.3981 33.8089 17.9002 32.9678 17.397C34.1022 16.7058 35.054 16.012 35.7125 15.2417C36.0791 15.7423 36.2978 16.2429 36.2978 16.781Z" fill="black"/>
<path d="M13.5048 62.2377H14.3099L15.0791 65.0855L15.9563 62.2377H16.7254L17.6026 65.0855L18.4078 62.2377H19.1769L18.0052 65.8947H17.2L16.3228 63.0845L15.4444 65.8947H14.6392L13.5048 62.2377Z" fill="black"/>
<path d="M19.8342 64.0844C19.8342 63.047 20.4195 62.1599 21.8832 62.1599C23.3469 62.1599 23.9321 63.0457 23.9321 64.0844C23.9321 65.1231 23.3469 66.0088 21.8832 66.0088C20.4195 66.0088 19.8342 65.1231 19.8342 64.0844ZM23.1642 64.0844C23.1642 63.2765 22.6883 62.737 21.878 62.737C21.0677 62.737 20.5918 63.2765 20.5918 64.0844C20.5918 64.8923 21.0677 65.4318 21.878 65.4318C22.7192 65.4318 23.1642 64.8923 23.1642 64.0844Z" fill="black"/>
<path d="M24.9932 62.2365H27.1887C28.0659 62.2365 28.3579 62.6605 28.3579 63.2376C28.3681 63.4288 28.3168 63.6181 28.2115 63.7775C28.1063 63.9369 27.9528 64.0577 27.774 64.122C28.1766 64.1998 28.2885 64.585 28.2885 65.1244C28.2885 65.2787 28.2885 65.7015 28.4351 65.8934H27.6299C27.5758 65.719 27.551 65.5366 27.5566 65.354C27.5566 64.8158 27.4833 64.4695 26.9354 64.4695H25.6839V65.9323H24.952V62.2365H24.9932ZM27.0048 63.8925C27.4074 63.8925 27.6273 63.777 27.6273 63.353C27.6273 62.964 27.3701 62.8148 27.0048 62.8148H25.7611V63.8925H27.0048Z" fill="black"/>
<path d="M29.5297 62.2377H30.2602V65.2774H32.3838V65.8947H29.5297V62.2377Z" fill="black"/>
<path d="M33.3342 62.2365H35.2018C36.5562 62.2365 36.9228 63.0457 36.9228 64.0844C36.9228 64.8923 36.5922 65.8934 35.3793 65.8934H33.3342V62.2365ZM34.0661 65.3553H35.095C35.6095 65.3553 36.1922 65.162 36.1922 64.0844C36.1922 62.8913 35.4603 62.8148 35.0578 62.8148H34.0712L34.0661 65.3553Z" fill="black"/>
<path d="M15.0791 68.9344H13.9087V72.5914H15.0791V68.9344Z" fill="black"/>
<path d="M16.3229 68.9344H17.64L19.249 71.244V68.9344H20.4194V72.5914H19.1397L17.456 70.2818V72.5914H16.3229V68.9344Z" fill="black"/>
<path d="M21.2979 68.9344H24.9932V69.7436H23.7121V72.5914H22.5417V69.7436H21.2606V68.9344H21.2979Z" fill="black"/>
<path d="M25.9077 68.9344H29.3831V69.7436H27.0422V70.3972H29.2364V71.1662H27.0422V71.8224H29.3831V72.6303H25.9077V68.9344Z" fill="black"/>
<path d="M30.4442 68.9344H31.6147V71.7446H33.7369V72.5914H30.4442V68.9344Z" fill="black"/>
<path d="M34.6886 68.9344H35.859V71.7446H37.98V72.5914H34.6886V68.9344Z" fill="black"/>
<path d="M38.9691 68.9344H42.4444V69.7436H40.1023V70.3972H42.2978V71.1662H40.1023V71.8224H42.4444V72.6303H38.9691V68.9344Z" fill="black"/>
<path d="M47.6781 71.2051C47.5315 72.013 47.1289 72.7457 45.4825 72.7457C44.0201 72.7457 43.287 72.0519 43.287 70.82C43.287 69.588 43.9828 68.8955 45.4825 68.8955C46.5437 68.8955 47.4221 69.1652 47.6781 70.4361H46.3919C46.3199 70.1664 46.1347 69.7423 45.4774 69.7423C44.7468 69.7423 44.5269 70.2429 44.5269 70.8602C44.5269 71.4774 44.7468 71.9741 45.4774 71.9741C45.9919 71.9741 46.3199 71.7057 46.3919 71.2816H47.6781V71.2051Z" fill="black"/>
<path d="M48.3713 68.9344H52.0653V69.7436H50.7855V72.5914H49.615V69.7436H48.334V68.9344H48.3713Z" fill="black"/>
<path d="M52.9438 68.9344H54.1092V71.0897C54.1092 71.6681 54.3664 71.8587 54.9143 71.8587C55.4622 71.8587 55.7182 71.6681 55.7182 71.0897V68.9344H56.8899V71.3205C56.8899 72.3217 56.1581 72.7068 54.9503 72.7068C53.7066 72.7068 53.0107 72.3178 53.0107 71.3205V68.9344H52.9438Z" fill="black"/>
<path d="M59.0533 68.9344H60.481L61.9807 72.5914H60.737L60.517 72.0182H58.9736L58.7549 72.5966H57.5176L59.0533 68.9344ZM59.7852 69.8577L59.3106 71.2401H60.2971L59.7852 69.8577Z" fill="black"/>
<path d="M62.7499 68.9344H63.9203V71.7446H66.0413V72.5914H62.7499V68.9344Z" fill="black"/>
<path d="M69.4433 68.9357H72.0041C72.9559 68.9357 73.2903 69.4739 73.2903 70.1651C73.2903 70.7823 72.9971 71.397 72.0465 71.397H70.5725V72.629H69.4381L69.4433 68.9357ZM70.615 70.6215H71.644C71.9719 70.6215 72.1186 70.4672 72.1186 70.1586C72.1186 69.8499 71.9719 69.6982 71.644 69.6982H70.615V70.6215Z" fill="black"/>
<path d="M74.309 68.9344H77.0898C77.9323 68.9344 78.2603 69.3585 78.2603 69.9719C78.2603 70.4737 78.003 70.7435 77.7124 70.8187C77.9323 70.8952 78.1136 71.0884 78.1509 71.4671C78.1882 72.1985 78.2243 72.4293 78.3696 72.6225H77.0834C77.0233 72.4495 76.9983 72.266 77.0101 72.0831C77.0101 71.506 76.8274 71.3906 76.5355 71.3906H75.4743V72.6225H74.3026L74.309 68.9344ZM75.4808 70.5515H76.5766C76.8699 70.5515 77.0165 70.3972 77.0165 70.1275C77.0165 69.8966 76.8699 69.7384 76.5766 69.7384H75.4808V70.5515Z" fill="black"/>
<path d="M81.4809 68.819C82.7234 68.819 83.7485 69.243 83.7485 70.7434C83.7485 72.2438 82.7195 72.6679 81.4809 72.6679C80.2423 72.6679 79.212 72.2438 79.212 70.7434C79.212 69.243 80.241 68.819 81.4809 68.819ZM81.4809 71.8976C82.1021 71.8976 82.5099 71.5527 82.5099 70.7811C82.5099 70.0095 82.1073 69.6658 81.4809 69.6658C80.8545 69.6658 80.4519 70.0121 80.4519 70.7811C80.4146 71.5527 80.8545 71.8976 81.4809 71.8976Z" fill="black"/>
<path d="M84.8096 68.9357H87.3704C88.3222 68.9357 88.6502 69.4739 88.6502 70.1651C88.6502 70.7823 88.3569 71.397 87.4077 71.397H85.9427V72.629H84.8096V68.9357ZM85.98 70.6215H87.009C87.337 70.6215 87.4836 70.4672 87.4836 70.1586C87.4836 69.8499 87.337 69.6982 87.009 69.6982H85.98V70.6215Z" fill="black"/>
<path d="M89.7126 68.9344H93.188V69.7436H90.8458V70.3972H93.0414V71.1662H90.8458V71.8224H93.188V72.6303H89.7126V68.9344Z" fill="black"/>
<path d="M94.2119 68.9344H96.9914C97.8338 68.9344 98.1631 69.3585 98.1631 69.9719C98.1631 70.4737 97.9059 70.7435 97.6152 70.8187C97.8338 70.8952 98.0165 71.0884 98.0165 71.4671C98.0525 72.1985 98.0898 72.4293 98.2364 72.6225H96.9566C96.8955 72.4497 96.8701 72.2661 96.882 72.083C96.882 71.506 96.6994 71.3906 96.4074 71.3906H95.345V72.6225H94.1746V68.9266L94.2119 68.9344ZM95.3823 70.5515H96.5167C96.81 70.5515 96.9566 70.3972 96.9566 70.1275C96.9566 69.8966 96.81 69.7384 96.5167 69.7384H95.3823V70.5515Z" fill="black"/>
<path d="M98.9322 68.9344H102.626V69.7436H101.346V72.5914H100.175V69.7436H98.8949V68.9344H98.9322Z" fill="black"/>
<path d="M104.603 71.4372L103.066 68.9357H104.419L105.187 70.4737L105.955 68.9357H107.309L105.774 71.4372V72.5914H104.603V71.4372Z" fill="black"/>
<path d="M13.5048 77.4414C13.5048 76.404 14.09 75.5157 15.5537 75.5157C17.0174 75.5157 17.6026 76.4027 17.6026 77.4414C17.6026 78.4801 17.0174 79.3659 15.5537 79.3659C14.09 79.3659 13.5048 78.4801 13.5048 77.4414ZM16.8348 77.4414C16.8348 76.6322 16.3589 76.094 15.5485 76.094C14.7382 76.094 14.2688 76.6322 14.2688 77.4414C14.2688 78.2506 14.7434 78.7875 15.5485 78.7875C16.3537 78.8264 16.8348 78.2493 16.8348 77.4414Z" fill="black"/>
<path d="M18.6625 75.6324H20.8581C21.7366 75.6324 22.0285 76.0551 22.0285 76.6335C22.0383 76.8246 21.9868 77.0138 21.8816 77.1731C21.7765 77.3324 21.6232 77.4533 21.4446 77.5179C21.8472 77.5944 21.9591 77.9809 21.9591 78.5191C21.9591 78.6721 21.9591 79.0961 22.1057 79.2894H21.298C21.2433 79.115 21.2181 78.9327 21.2234 78.7499C21.2234 78.2104 21.1513 77.8642 20.6021 77.8642H19.3584V79.327H18.6278V75.6324H18.6625ZM20.6394 77.2482C21.042 77.2482 21.2607 77.1328 21.2607 76.71C21.2607 76.321 21.0034 76.1706 20.6394 76.1706H19.3957V77.2482H20.6394Z" fill="black"/>
<path d="M26.8956 79.2881H26.4557L26.3464 78.8264C26.1819 79.0138 25.9792 79.163 25.752 79.2638C25.5248 79.3645 25.2787 79.4144 25.0306 79.4099C23.5669 79.4099 22.9803 78.5255 22.9803 77.4855C22.9803 76.4455 23.6029 75.5623 24.9933 75.5623C26.0544 75.5623 26.7116 76.1381 26.8235 76.8306H26.0171C25.8717 76.3313 25.4319 76.1381 24.956 76.1381C24.0415 76.1381 23.7135 76.7165 23.7135 77.5244C23.7135 78.4866 24.2974 78.8718 24.9187 78.8718C25.6518 78.8718 26.0171 78.5255 26.1277 77.9096H25.1759V77.3325H26.8956V79.2881Z" fill="black"/>
<path d="M29.3097 75.6324H30.1856L31.7291 79.2881H30.9188L30.5535 78.3647H28.9071L28.5418 79.2881H27.7418L29.3097 75.6324ZM30.3387 77.7877L29.7547 76.2471L29.1309 77.7877H30.3387Z" fill="black"/>
<path d="M32.6024 75.6324H33.4436L35.5298 78.366V75.6324H36.2257V79.2894H35.4205L33.3343 76.5557V79.2894H32.6397V75.6324H32.6024Z" fill="black"/>
<path d="M38.2 75.6337H37.4681V79.2907H38.2V75.6337Z" fill="black"/>
<path d="M39.1879 78.711L41.6021 76.1719H39.3718V75.5935H42.5539V76.1329L40.1757 78.6721H42.5539V79.2894H39.1879V78.711Z" fill="black"/>
<path d="M44.676 75.6324H45.5532L47.0902 79.2881H46.285L45.9185 78.3647H44.2734L43.9069 79.2881H43.1017L44.676 75.6324ZM45.705 77.7877L45.1197 76.2471L44.4972 77.7877H45.705Z" fill="black"/>
<path d="M48.6633 76.2095H47.3462V75.6324H50.6749V76.2095H49.3591V79.2881H48.6273V76.2095H48.6633Z" fill="black"/>
<path d="M52.3226 75.6337H51.5907V79.2907H52.3226V75.6337Z" fill="black"/>
<path d="M53.3824 77.4414C53.3824 76.404 53.969 75.5157 55.4314 75.5157C56.8938 75.5157 57.4803 76.4027 57.4803 77.4414C57.4803 78.4801 56.8951 79.3659 55.4314 79.3659C53.969 79.4035 53.3824 78.4801 53.3824 77.4414ZM56.7485 77.4414C56.7485 76.6322 56.2738 76.094 55.4687 76.094C54.6635 76.094 54.1825 76.6322 54.1825 77.4414C54.1825 78.2506 54.6584 78.7875 55.4687 78.7875C56.2738 78.8264 56.7485 78.2493 56.7485 77.4414Z" fill="black"/>
<path d="M58.5414 75.6324H59.3826L61.4675 78.366V75.6324H62.1646V79.2894H61.3222L59.2372 76.5557V79.2894H58.5414V75.6324Z" fill="black"/>
</g>
<defs>
<clipPath id="clip0_12_1237">
<rect width="106.866" height="78.7909" fill="white" transform="translate(0.443359 0.613831)"/>
</clipPath>
</defs>
</svg>
