<svg width="219" height="63" viewBox="0 0 219 63" fill="none" xmlns="http://www.w3.org/2000/svg">
<g clip-path="url(#clip0_108_3150)">
<path d="M76.6396 29.1853V3.01918H86.346C87.9336 2.99199 89.5119 3.2652 90.997 3.8243C92.1408 4.3165 93.1145 5.13185 93.7974 6.16937C94.4803 7.20689 94.8425 8.421 94.8391 9.66136C94.8565 10.7762 94.5634 11.8741 93.9923 12.8333C93.4212 13.7926 92.5945 14.5757 91.6036 15.0959C93.04 15.2824 94.3479 16.0156 95.2529 17.1415C96.1578 18.2674 96.5893 19.6984 96.4568 21.1342C96.4402 22.8224 95.8524 24.4557 94.7884 25.7705C93.7244 27.0852 92.2462 28.0046 90.5926 28.3802C88.9394 28.7912 87.241 28.9941 85.5372 28.984L76.6396 29.1853ZM88.3682 7.44731C87.604 7.11945 86.7713 6.98129 85.9416 7.04474H81.0884V13.8882H85.5372C86.5779 13.883 87.6078 13.678 88.5704 13.2844C88.9495 13.053 89.2776 12.7477 89.535 12.3868C89.7925 12.0259 89.9739 11.6169 90.0683 11.1844C90.1628 10.7519 90.1683 10.3048 90.0847 9.87014C90.001 9.43545 89.8298 9.0221 89.5815 8.65497C89.2861 8.15681 88.8687 7.74131 88.3682 7.44731ZM89.7837 18.3163C88.8088 17.9858 87.7783 17.849 86.7505 17.9138H81.0884V25.1598H86.5482C87.7203 25.1552 88.883 24.9509 89.9859 24.5559C90.5923 24.2617 91.1034 23.8037 91.4609 23.2343C91.8185 22.6649 92.0081 22.007 92.0081 21.3355C91.9108 20.6905 91.6575 20.0788 91.27 19.5528C90.8825 19.0269 90.3724 18.6026 89.7837 18.3163Z" fill="black"/>
<path d="M126.992 3.01929H122.543V29.1854H126.992V3.01929Z" fill="black"/>
<path d="M159.751 3.01929H155.302V29.1854H159.751V3.01929Z" fill="black"/>
<path d="M174.31 2.81788C176.809 2.77881 179.288 3.25867 181.59 4.22684V8.45367C179.348 7.26663 176.849 6.64463 174.31 6.64217C171.883 6.64217 169.659 7.44728 169.659 9.46006C169.659 14.8946 183.208 12.6805 183.208 21.5367C183.208 26.3674 179.163 29.5879 173.097 29.5879C169.966 29.5984 166.891 28.7637 164.199 27.1725L166.019 23.5495C168.134 24.885 170.592 25.5839 173.097 25.5623C175.726 25.5623 178.354 24.5559 178.354 22.1406C178.354 16.5048 165.008 18.9201 165.008 10.0639C164.907 5.43449 168.648 2.81788 174.31 2.81788Z" fill="black"/>
<path d="M204.44 29.1854V17.9139H191.701V29.1854H187.05V3.01929H191.701V13.687H204.44V3.01929H208.889V29.1854H204.44Z" fill="black"/>
<path d="M86.5481 33.6135C89.0708 33.5455 91.5714 34.0986 93.8278 35.2237L92.4123 39.048C90.6855 38.2744 88.8394 37.798 86.9525 37.6391C81.8971 37.6391 78.8639 41.8659 78.8639 46.8978C78.8639 51.9298 81.6949 56.3579 86.9525 56.3579C88.8675 56.3929 90.7557 55.9057 92.4123 54.949L93.8278 58.7732C91.5644 59.8785 89.0688 60.4305 86.5481 60.3835C78.6616 60.3835 74.2129 54.949 74.2129 47.0991C74.2129 39.8531 78.6616 33.6135 86.5481 33.6135Z" fill="black"/>
<path d="M184.825 33.6135C187.348 33.5455 189.849 34.0986 192.105 35.2237L190.69 39.048C188.963 38.2744 187.117 37.798 185.23 37.6391C180.174 37.6391 177.141 41.8659 177.141 46.8978C177.141 51.9298 179.972 56.3579 185.23 56.3579C187.145 56.3929 189.033 55.9057 190.69 54.949L192.105 58.7732C189.816 59.8044 187.338 60.3526 184.825 60.3835C176.939 60.3835 172.49 54.949 172.49 47.0991C172.49 39.8531 177.141 33.6135 184.825 33.6135Z" fill="black"/>
<path d="M119.509 46.8979C119.509 54.7477 114.454 60.3835 107.174 60.3835C99.8943 60.3835 94.8389 54.949 94.8389 47.0991C94.8389 39.2493 99.8943 33.6135 107.174 33.6135C114.454 33.6135 119.509 39.048 119.509 46.8979ZM114.858 46.8979C114.858 41.2621 111.623 37.6391 107.174 37.6391C102.725 37.6391 99.4898 41.2621 99.4898 47.0991C99.4898 52.9362 102.725 56.5592 107.174 56.5592C111.623 56.5592 114.656 52.7349 114.858 46.8979Z" fill="black"/>
<path d="M122.543 50.1182V33.8147H126.992V50.4201C126.992 54.8482 129.418 56.4585 133.058 56.4585C136.698 56.4585 139.125 54.8482 139.125 50.4201V33.9153H143.573V50.2189C143.573 57.2636 139.529 60.484 132.856 60.484C126.183 60.484 122.543 57.3642 122.543 50.1182Z" fill="black"/>
<path d="M152.269 41.0607C152.269 41.8658 152.471 43.2748 152.471 44.4824V59.9808H147.618V33.8147H152.471L164.604 51.5272C164.604 50.722 164.402 49.3131 164.402 48.1054V33.8147H168.952V59.9808H164.908L152.269 41.0607Z" fill="black"/>
<path d="M200.194 34.0159H195.745V60.182H200.194V34.0159Z" fill="black"/>
<path d="M204.44 59.9807V34.0159H208.889V55.9552H219V59.9807H204.44Z" fill="black"/>
<path d="M151.865 3.01929H130.43V7.04485H138.923V29.1854H143.372V7.04485H151.865V3.01929Z" fill="black"/>
<path d="M114.454 29.1852C110.612 21.3353 109.601 19.1213 107.983 19.1213H103.737V29.1852H99.2881V3.01904H108.287C114.96 3.01904 117.589 6.64206 117.589 10.4663C117.675 11.9611 117.239 13.4394 116.354 14.6503C115.469 15.8611 114.191 16.7297 112.735 17.1085C113.949 17.7123 115.162 20.329 119.611 28.9839L114.454 29.1852ZM108.59 7.0446H103.939V14.8944H108.388C111.623 14.8944 113.039 13.2842 113.039 10.8689C113.039 8.45355 111.623 7.0446 108.59 7.0446Z" fill="black"/>
<path d="M48.3292 29.7891C56.5936 29.7891 63.2932 23.1206 63.2932 14.8946C63.2932 6.66853 56.5936 0 48.3292 0C40.0648 0 33.3652 6.66853 33.3652 14.8946C33.3652 23.1206 40.0648 29.7891 48.3292 29.7891Z" fill="black"/>
<path d="M14.964 29.7891C23.2284 29.7891 29.928 23.1206 29.928 14.8946C29.928 6.66853 23.2284 0 14.964 0C6.69961 0 0 6.66853 0 14.8946C0 23.1206 6.69961 29.7891 14.964 29.7891Z" fill="black"/>
<path d="M48.3292 63.0001C56.5936 63.0001 63.2932 56.3316 63.2932 48.1055C63.2932 39.8795 56.5936 33.2109 48.3292 33.2109C40.0648 33.2109 33.3652 39.8795 33.3652 48.1055C33.3652 56.3316 40.0648 63.0001 48.3292 63.0001Z" fill="black"/>
<path d="M14.964 63.0001C23.2284 63.0001 29.928 56.3316 29.928 48.1055C29.928 39.8795 23.2284 33.2109 14.964 33.2109C6.69961 33.2109 0 39.8795 0 48.1055C0 56.3316 6.69961 63.0001 14.964 63.0001Z" fill="black"/>
</g>
<defs>
<clipPath id="clip0_108_3150">
<rect width="219" height="63" fill="white"/>
</clipPath>
</defs>
</svg>
