<svg width="71" height="60" viewBox="0 0 71 60" fill="none" xmlns="http://www.w3.org/2000/svg">
<g clip-path="url(#clip0_12_1552)">
<path d="M5.66259 36.5699L5.84326 36.7204C5.64753 35.3654 5.54214 33.8899 5.9336 32.5951C6.52078 30.5174 7.25852 28.4999 7.63492 26.3469C7.93603 24.6757 8.28232 22.7937 8.08659 21.1827C7.86075 22.056 7.63492 22.9142 7.15313 23.6669C5.33136 26.4824 3.46442 29.7947 4.74418 33.378C4.71407 33.4232 4.6689 33.4683 4.62373 33.4382C4.11183 32.2488 3.99138 30.9088 3.66015 29.6441C2.77185 26.2867 0.197288 23.4712 0.950084 19.5868C0.543574 20.4299 0.393015 21.3784 0.182232 22.2969C-0.269446 24.6757 0.182232 27.19 0.829637 29.3882C1.6276 32.1133 4.2925 34.0706 5.66259 36.5699Z" fill="black"/>
<path d="M4.96995 19.1336C5.61888 17.839 6.56259 16.7148 7.72518 15.8514C10.3148 13.8942 13.1453 11.3648 13.1905 8.05246C12.3172 10.4313 9.71256 11.425 7.98113 13.051C7.0849 13.8765 6.38961 14.8963 5.94858 16.0321L5.88836 15.9869C6.09914 15.0234 6.50565 14.1652 6.79171 13.2317C7.54451 10.7023 7.40901 7.67607 9.87818 5.97475C8.61348 6.30598 7.54451 7.119 6.59599 8.17291C4.59355 10.3861 4.77422 13.6533 5.03017 16.544C5.1078 17.4067 5.0876 18.2754 4.96995 19.1336Z" fill="black"/>
<path d="M7.9812 11.9233C9.36635 10.6285 10.9623 9.66495 12.1366 8.12925C13.5368 6.27737 14.7564 4.19966 16.5932 2.60373C14.109 3.56731 11.429 4.561 9.81802 7.1205C8.87101 8.61104 8.72045 10.3726 7.9812 11.9233Z" fill="black"/>
<path d="M9.02157 18.4727C9.61794 17.2299 10.0046 15.897 10.1658 14.528C9.93447 15.117 9.57439 15.6469 9.11191 16.0788C7.09441 17.9909 4.73063 19.8578 4.27895 22.5679C4.23194 22.9582 4.16156 23.3453 4.06817 23.7272C3.97784 23.7724 3.97784 23.667 3.94772 23.6369L4.20368 20.2944C4.44457 17.0273 2.72819 13.3988 4.61019 10.5231C4.54996 10.5081 4.50479 10.5683 4.45963 10.5834C2.74325 12.7665 1.599 15.1754 1.599 18.1113C1.599 21.7398 3.69177 24.2843 3.94772 27.6869C4.48823 24.1337 7.46931 21.6043 9.02157 18.4727Z" fill="black"/>
<path d="M5.03018 40.7705C6.9724 42.3062 9.29101 43.4956 11.0676 44.8506C10.7213 43.9623 10.1492 43.1493 9.92336 42.2309C8.8845 38.0303 9.45663 33.1522 7.66497 29.2678C7.9962 31.481 7.12296 33.4382 6.92723 35.5461C6.75979 37.2106 7.04049 38.8896 7.74025 40.4091C7.93598 40.8458 8.29732 41.2222 8.40271 41.6738C7.75531 41.0867 7.28857 40.3489 6.85195 39.6262C4.75918 36.2386 0.377902 34.0405 0.0767831 29.9152C-0.0737762 31.752 0.091839 33.6942 0.694076 35.3202C1.52215 37.5485 3.1497 39.2799 5.03018 40.7705Z" fill="black"/>
<path d="M31.4383 51.8968C28.0507 51.8968 25.0094 53.5379 22.0434 54.7725C19.3484 55.8866 15.7801 55.6758 13.3862 54.0197C14.5606 55.4952 16.1415 56.4136 17.7826 57.0309C20.8088 58.2353 24.347 57.3169 26.9366 55.6608C28.7885 54.4714 30.3844 52.7851 32.5976 52.7851C36.1659 52.7851 39.9148 56.4437 43.1217 59.756C43.633 59.3641 44.1114 58.9311 44.552 58.4612C41.1945 55.2678 36.4519 51.8968 31.4383 51.8968Z" fill="black"/>
<path d="M25.3857 52.2567C25.9127 52.1212 26.5451 52.1663 27.0268 51.9856C25.0093 51.5791 23.0671 50.9618 21.5013 49.5315C19.258 47.4839 17.2706 45.3008 14.8767 43.7049C16.7587 46.2343 17.2857 49.9079 20.7184 51.1877C21.3206 51.4135 22.0283 51.4587 22.5552 51.7899C21.8928 51.8953 21.3206 51.6845 20.7034 51.549C16.2769 50.6005 10.8869 51.82 7.57458 48.0561C8.82423 50.5252 11.4138 52.4674 13.9131 53.2805C17.7539 54.5768 21.7723 53.1465 25.3857 52.2567Z" fill="black"/>
<path d="M17.9783 50.4063C15.1026 48.0877 14.666 44.6097 13.3863 41.5685C12.5883 39.6714 11.2935 37.9701 9.90834 36.3139C11.429 39.3552 10.7665 43.2698 12.7388 46.1304C13.3561 47.0338 14.2143 47.8919 15.0123 48.5996L14.9822 48.6447C14.2595 48.3135 13.6121 47.8016 12.9496 47.2596C9.50183 44.3839 4.30753 44.0226 2.24487 39.3402C2.80194 42.7729 5.52706 45.8142 8.47802 47.7414C11.2799 49.5782 14.8768 49.3825 17.9783 50.4063Z" fill="black"/>
<path d="M58.0421 8.12925C59.2164 9.68001 60.8124 10.6285 62.1975 11.9233C61.4598 10.3726 61.3092 8.61104 60.3758 7.1205C58.7648 4.561 56.0848 3.56731 53.6006 2.60373C55.4073 4.19966 56.6268 6.26232 58.0421 8.12925Z" fill="black"/>
<path d="M63.387 13.2332C63.658 14.1516 64.0645 15.0249 64.2904 15.9884L64.2301 16.0336C63.7891 14.8978 63.0938 13.878 62.1976 13.0525C60.4662 11.4114 57.8615 10.4328 57.0033 8.03892C57.0485 11.3663 59.879 13.8957 62.4686 15.8379C63.6272 16.7055 64.57 17.8287 65.2238 19.1201C65.1064 18.2669 65.0861 17.4032 65.1636 16.5455C65.4346 13.6397 65.6002 10.3876 63.6128 8.17442C62.6643 7.12051 61.5954 6.29243 60.3307 5.97626C62.7712 7.67758 62.6342 10.7023 63.387 13.2332Z" fill="black"/>
<path d="M65.9766 20.2794L66.2325 23.6218C66.2024 23.6519 66.2024 23.7422 66.1121 23.7121C66.0187 23.3303 65.9483 22.9431 65.9013 22.5528C65.4496 19.8578 63.0708 17.9758 61.0683 16.0637C60.6058 15.6318 60.2458 15.102 60.0144 14.513C60.1756 15.882 60.5623 17.2148 61.1587 18.4576C62.7094 21.5892 65.6905 24.1186 66.2325 27.6869C66.4885 24.2692 68.5812 21.7398 68.5812 18.1113C68.5812 15.1754 67.437 12.7665 65.7206 10.5834C65.6754 10.5533 65.6303 10.5081 65.57 10.5231C67.452 13.3988 65.7206 17.0258 65.9766 20.2794Z" fill="black"/>
<path d="M66.5186 29.6291C66.1874 30.8938 66.0669 32.2488 65.555 33.4232C65.5098 33.4533 65.4647 33.3931 65.4346 33.363C66.7143 29.7797 64.8474 26.4824 63.0256 23.6519C62.5438 22.9142 62.318 22.0409 62.0921 21.1677C61.8964 22.7937 62.2427 24.6607 62.5438 26.3319C62.9353 28.4849 63.658 30.5024 64.2451 32.5801C64.6366 33.8749 64.5312 35.3353 64.3355 36.7054L64.5161 36.5548C65.8712 34.0556 68.5511 32.0983 69.3642 29.3581C70.0116 27.175 70.4632 24.6456 70.0116 22.2668C69.8008 21.3484 69.6352 20.3998 69.2437 19.5567C69.9814 23.4562 67.4069 26.2716 66.5186 29.6291Z" fill="black"/>
<path d="M48.1202 54.7725C45.1392 53.5379 42.1129 51.8968 38.7253 51.8968C33.7268 51.8968 28.9691 55.2844 25.6417 58.4612C26.0784 58.9351 26.5572 59.3684 27.072 59.756C30.2639 56.4587 34.0279 52.7851 37.5961 52.7851C39.8094 52.7851 41.4053 54.4714 43.2572 55.6608C45.8317 57.3019 49.3699 58.2353 52.4112 57.0309C54.0372 56.4136 55.6181 55.4952 56.8075 54.0197C54.3986 55.6608 50.8153 55.8866 48.1202 54.7725Z" fill="black"/>
<path d="M63.3418 39.5961C62.8901 40.3188 62.4384 41.0716 61.791 41.6437C61.8964 41.2071 62.2577 40.8157 62.4535 40.379C63.152 38.8591 63.4326 37.1805 63.2665 35.516C63.0557 33.4082 62.1825 31.4509 62.5287 29.2377C60.722 33.1221 61.3092 38.0002 60.2703 42.2008C60.0445 43.1343 59.4724 43.9473 59.1261 44.8205C60.9027 43.4655 63.2213 42.2761 65.1635 40.7404C67.0455 39.2649 68.6716 37.5184 69.5297 35.26C70.147 33.634 70.2976 31.6918 70.147 29.855C69.8309 34.0104 65.4345 36.2086 63.3418 39.5961Z" fill="black"/>
<path d="M57.2004 47.2596C56.538 47.8016 55.8906 48.3135 55.1679 48.6447L55.1378 48.5996C55.9357 47.8769 56.7939 47.0187 57.4112 46.1304C59.3835 43.2698 58.7211 39.3402 60.2417 36.3139C58.8566 37.9701 57.5618 39.6714 56.7638 41.5685C55.4841 44.6097 55.0474 48.0877 52.1718 50.4063C55.2733 49.3825 58.8716 49.5782 61.657 47.7564C64.5929 45.8293 67.318 42.788 67.8901 39.3552C65.841 44.0226 60.6633 44.3839 57.2004 47.2596Z" fill="black"/>
<path d="M49.4753 51.5656C48.8581 51.7011 48.2859 51.8968 47.6235 51.8065C48.1504 51.4752 48.843 51.4301 49.4603 51.2042C52.893 49.9094 53.42 46.2358 55.302 43.7214C52.9081 45.3174 50.9207 47.5005 48.6774 49.5481C47.1116 50.9784 45.1693 51.5806 43.1519 52.0022C43.6336 52.1829 44.266 52.1377 44.793 52.2732C48.4214 53.1766 52.4263 54.5918 56.2806 53.3121C58.7649 52.484 61.3545 50.5418 62.6192 48.0877C59.2918 51.8366 53.8882 50.6321 49.4753 51.5656Z" fill="black"/>
<path d="M35.0818 0.163162C21.3809 0.163162 10.2395 11.3045 10.2395 25.0054C10.2395 38.7063 21.3809 49.8477 35.0818 49.8477C48.7827 49.8477 59.9241 38.7063 59.9241 25.0054C59.9241 11.3045 48.7827 0.163162 35.0818 0.163162ZM35.0818 29.748C34.1438 29.748 33.2268 29.4699 32.4469 28.9488C31.667 28.4276 31.0591 27.6869 30.7002 26.8203C30.3412 25.9537 30.2473 25.0002 30.4303 24.0802C30.6133 23.1602 31.065 22.3152 31.7282 21.6519C32.3915 20.9886 33.2366 20.5369 34.1565 20.3539C35.0765 20.1709 36.0301 20.2649 36.8967 20.6238C37.7633 20.9828 38.504 21.5907 39.0251 22.3706C39.5462 23.1505 39.8244 24.0674 39.8244 25.0054C39.8246 25.6284 39.7021 26.2452 39.4638 26.8208C39.2256 27.3964 38.8763 27.9194 38.4359 28.3599C37.9954 28.8005 37.4726 29.15 36.8971 29.3884C36.3216 29.6268 35.7047 29.7495 35.0818 29.7495V29.748ZM38.65 21.0156C37.7508 20.2086 36.6042 19.7308 35.398 19.6606V15.5955C37.6832 15.6646 39.8637 16.57 41.5257 18.1399L38.65 21.0156ZM34.7807 19.6606C33.5744 19.7308 32.4278 20.2086 31.5286 21.0156L28.6529 18.1399C30.315 16.57 32.4954 15.6646 34.7807 15.5955V19.6606ZM31.107 21.4522C30.3 22.3514 29.8222 23.4981 29.752 24.7043H25.6869C25.756 22.419 26.6614 20.2386 28.2313 18.5765L31.107 21.4522ZM29.752 25.3065C29.8222 26.5128 30.3 27.6594 31.107 28.5586L28.2313 31.4343C26.6614 29.7722 25.756 27.5918 25.6869 25.3065H29.752ZM31.5286 28.9952C32.4278 29.8023 33.5744 30.2801 34.7807 30.3503V34.4154C32.4954 34.3463 30.315 33.4409 28.6529 31.8709L31.5286 28.9952ZM35.3829 30.3352C36.5891 30.265 37.7358 29.7872 38.635 28.9802L41.5107 31.8559C39.8486 33.4258 37.6682 34.3312 35.3829 34.4003V30.3352ZM39.0716 28.5586C39.8787 27.6594 40.3564 26.5128 40.4266 25.3065H44.4917C44.4226 27.5918 43.5172 29.7722 41.9473 31.4343L39.0716 28.5586ZM40.4266 24.7043C40.3564 23.4981 39.8787 22.3514 39.0716 21.4522L41.9473 18.5765C43.5172 20.2386 44.4226 22.419 44.4917 24.7043H40.4266ZM41.9473 17.7184C40.1677 16.0352 37.8313 15.0653 35.3829 14.9932V10.4765C39.0286 10.5513 42.5122 11.9974 45.1391 14.5265L41.9473 17.7184ZM34.7807 14.9932C32.3329 15.0682 29.9975 16.0378 28.2163 17.7184L25.0244 14.5265C27.6513 11.9974 31.1349 10.5513 34.7807 10.4765V14.9932ZM27.7947 18.1399C26.1116 19.9195 25.1417 22.2559 25.0696 24.7043H20.5528C20.6277 21.0586 22.0738 17.575 24.6029 14.9481L27.7947 18.1399ZM25.0846 25.3065C25.1597 27.7543 26.1292 30.0897 27.8098 31.8709L24.6029 35.0628C22.0738 32.4359 20.6277 28.9523 20.5528 25.3065H25.0846ZM28.2313 32.2925C30.0109 33.9756 32.3473 34.9455 34.7957 35.0176V39.5344C31.15 39.4595 27.6664 38.0134 25.0395 35.4843L28.2313 32.2925ZM35.3829 35.0026C37.8307 34.9276 40.1661 33.958 41.9473 32.2774L45.1391 35.4693C42.5122 37.9984 39.0286 39.4445 35.3829 39.5193V35.0026ZM42.3689 31.8559C44.052 30.0763 45.0219 27.7399 45.094 25.2915H49.6108C49.5359 28.9372 48.0898 32.4208 45.5607 35.0477L42.3689 31.8559ZM45.094 24.7043C45.019 22.2565 44.0495 19.9211 42.3689 18.1399L45.5607 14.9481C48.0898 17.575 49.5359 21.0586 49.6108 24.7043H45.094ZM45.5607 14.1049C42.8208 11.467 39.1856 9.96128 35.3829 9.88928V5.88441C40.243 5.95753 44.8914 7.88581 48.3762 11.2744L45.5607 14.1049ZM34.7807 9.87423C30.9779 9.94622 27.3428 11.4519 24.6029 14.0899L21.7874 11.2744C25.2722 7.88581 29.9205 5.95753 34.7807 5.88441V9.87423ZM24.1813 14.5265C21.5433 17.2664 20.0376 20.9016 19.9656 24.7043H15.9758C16.0497 19.8445 17.9785 15.1967 21.3673 11.7126L24.1813 14.5265ZM19.9656 25.3065C20.0376 29.1093 21.5433 32.7445 24.1813 35.4843L21.3673 38.3013C17.9787 34.8165 16.0504 30.1682 15.9773 25.308L19.9656 25.3065ZM24.6029 35.9059C27.3428 38.5439 30.9779 40.0496 34.7807 40.1216V44.1114C29.9205 44.0383 25.2722 42.11 21.7874 38.7214L24.6029 35.9059ZM35.3829 40.1366C39.1856 40.0646 42.8208 38.5589 45.5607 35.921L48.3762 38.7364C44.8914 42.125 40.243 44.0533 35.3829 44.1264V40.1366ZM45.9973 35.4843C48.6353 32.7445 50.141 29.1093 50.213 25.3065H54.2028C54.1297 30.1667 52.2014 34.815 48.8128 38.2998L45.9973 35.4843ZM50.213 24.7043C50.141 20.9016 48.6353 17.2664 45.9973 14.5265L48.8128 11.7111C52.2014 15.1958 54.1297 19.8442 54.2028 24.7043H50.213ZM48.8128 10.8529C45.2147 7.34465 40.4077 5.35072 35.3829 5.28217V0.765399C41.6049 0.836709 47.5593 3.30692 52.0046 7.66101L48.8128 10.8529ZM34.7807 5.28217C29.7564 5.35363 24.9505 7.34714 21.3508 10.8529L18.174 7.66101C22.6193 3.30692 28.5737 0.836709 34.7957 0.765399V5.28217H34.7807ZM20.9292 11.2744C17.421 14.8725 15.4271 19.6795 15.3585 24.7043H10.8417C10.913 18.4823 13.3833 12.5279 17.7374 8.08257L20.9292 11.2744ZM15.3736 25.3065C15.445 30.3308 17.4385 35.1367 20.9443 38.7364L17.7374 41.9132C13.3855 37.4738 10.9198 31.5229 10.8568 25.3065H15.3736ZM21.3673 39.158C24.9654 42.6662 29.7724 44.6601 34.7972 44.7287V49.2455C28.5752 49.1741 22.6208 46.7039 18.1755 42.3498L21.3673 39.158ZM35.3844 44.7287C40.4086 44.6572 45.2146 42.6637 48.8143 39.158L52.0062 42.3498C47.5605 46.7043 41.6055 49.1745 35.3829 49.2455V44.7287H35.3844ZM49.2359 38.7214C52.7441 35.1233 54.738 30.3163 54.8066 25.2915H59.3233C59.252 31.5135 56.7818 37.4679 52.4277 41.9132L49.2359 38.7214ZM54.8066 24.7043C54.7351 19.6801 52.7416 14.8741 49.2359 11.2744L52.4277 8.08257C56.7813 12.5281 59.2509 18.4825 59.3218 24.7043H54.8066Z" fill="black"/>
<path d="M36.5121 19.2556L36.3616 19.2706V19.4513L36.5121 19.4363V19.2556Z" fill="black"/>
<path d="M36.3315 19.0147H36.1357V19.1652H36.3315V19.0147Z" fill="black"/>
<path d="M35.7744 18.9695L35.9551 18.9996L35.9701 18.8491L35.7895 18.8189L35.7744 18.9695Z" fill="black"/>
<path d="M35.6239 18.9093L35.4583 18.8942L35.4733 18.7437L35.654 18.7587L35.6239 18.9093Z" fill="black"/>
<path d="M34.3742 18.7136H34.1785V18.8641H34.3742V18.7136Z" fill="black"/>
<path d="M33.7418 19.0147L33.9225 19.0448L33.9375 18.8942L33.7719 18.8641L33.7418 19.0147Z" fill="black"/>
<path d="M33.7719 19.2556L33.5612 19.1954L33.6063 19.0448L33.8021 19.105L33.7719 19.2556Z" fill="black"/>
<path d="M33.4106 19.4363L33.3805 19.2857L33.5311 19.2556L33.5612 19.4061L33.4106 19.4363Z" fill="black"/>
<path d="M13.7626 35.0191V35.3503H13.9132L13.8831 34.974L13.6873 34.8987V34.7632H13.5669V35.0191H13.7626Z" fill="black"/>
<path d="M14.8165 35.9375L15.1929 36.1182L15.3134 36.4645L15.494 36.6L15.6597 36.9764L15.5693 37.157L15.2833 36.9011L15.0875 36.615L14.9821 36.3892L14.8165 35.9375Z" fill="black"/>
<path d="M21.14 43.7516L21.2755 44.0828L21.0948 44.1882L20.9894 44.0376L20.7485 43.9624L20.7184 43.7365L20.5227 43.4354L20.8238 43.4806L21.14 43.7516Z" fill="black"/>
<path d="M34.3155 20.8967H34.0445L33.9993 20.3396L34.1499 20.2342V19.9481H33.2766L33.2465 19.6621L33.3669 19.5868L33.1712 19.5115L33.0207 19.7072L32.9755 19.9331L32.7195 19.9783V20.0987H32.5389V20.4299L31.8312 21.0171L30.431 20.9719C30.3257 21.1978 30.0848 20.9418 30.0848 20.9418C30.0396 20.7913 29.6782 20.9418 29.6782 20.9418C29.6782 21.2279 29.1965 20.8214 29.1965 20.8214L28.3232 20.189C27.8264 19.7374 27.0736 20.3095 27.0435 20.445C27.0736 20.8063 26.4713 20.5203 26.4713 20.5203C26.4713 20.5203 25.9745 20.3697 25.8992 20.5654C25.8239 20.7612 25.4927 20.716 25.4927 20.716L25.4475 20.8214L25.1916 20.8666L25.1464 21.0171L24.8453 21.0623L25.5981 21.0322C25.7938 21.0021 25.5228 21.4688 25.4024 21.4387L25.0561 21.4688L24.9356 21.5892H24.6044L24.4538 21.8L23.972 21.7699C23.972 21.7699 23.701 21.9957 23.7161 22.071C23.7312 22.1463 23.6709 22.3721 23.5956 22.3721C23.5204 22.3721 23.3698 22.598 23.415 22.6733C23.4601 22.7485 23.2644 23.0045 23.2644 23.0045L23.2192 23.2604L23.0687 23.3056V23.9982L22.7676 24.209V24.5101L22.3159 24.9919L22.3611 25.3984L21.9847 25.8049L22.0298 26.2114L21.804 26.2867L21.7588 26.4674L21.6534 26.9943L21.9094 27.0244C22.0298 26.9793 22.0148 27.3557 21.9094 27.4008C21.804 27.446 21.533 27.5514 21.6835 27.6568C21.8341 27.7622 21.277 27.7321 21.277 27.5815C21.277 27.4309 20.9759 27.2954 20.9006 27.3557C20.8254 27.4159 20.7049 27.1298 20.7049 27.1298C20.4339 26.8438 19.5757 27.1599 19.5757 27.1599L19.4553 27.5664C19.1843 27.6116 19.0036 28.0783 19.0036 28.0783C18.7777 28.1536 18.5971 28.4397 18.6724 28.515C18.7476 28.5902 18.5519 28.6204 18.5519 28.6204V29.1774L18.4315 29.3581L18.4616 29.9603C18.6121 29.9603 18.582 30.2464 18.582 30.2464C18.3261 30.2765 18.3863 30.6077 18.3863 30.6077L17.8593 30.7884L17.7539 30.939L17.1065 30.9089L16.9259 31.0895L16.7452 30.9089H15.4956L15.4504 30.7884L15.1944 30.7432L15.1643 30.4572L14.7879 30.4873L14.7126 30.6378L14.3061 30.668C14.3362 30.9239 13.8996 31.3003 13.8545 31.1949C13.8093 31.0895 13.5232 30.8185 13.6587 30.7583C13.8072 30.7147 13.958 30.6796 14.1104 30.6529V30.4722L13.1769 30.4421L13.0715 30.5927L12.6951 30.6228V31.0278L12.5145 31.073C12.394 31.1482 12.5446 31.4343 12.5446 31.4343C12.7253 31.615 12.5145 31.886 12.5145 31.886C12.3639 32.0365 12.6349 32.3226 12.6349 32.3226C12.8307 32.3678 12.5145 32.5183 12.5145 32.5183C12.5207 32.5845 12.5415 32.6486 12.5753 32.7058C12.6091 32.7631 12.6552 32.8122 12.7102 32.8496C12.6888 32.8802 12.6744 32.9152 12.6682 32.952C12.6619 32.9889 12.6639 33.0267 12.674 33.0627C12.684 33.0987 12.702 33.132 12.7265 33.1602C12.7509 33.1884 12.7814 33.2109 12.8156 33.226L12.8457 33.6626L13.0264 33.768V34.054L13.1318 34.2347H13.5383L13.5082 33.6024C13.1619 33.1958 13.8093 33.0905 13.8394 33.241C13.8695 33.3916 14.1405 33.4669 14.1405 33.4669C14.1857 33.8433 14.6223 34.0691 14.7428 33.6927C14.8632 33.3163 14.9686 33.5421 15.0439 33.7228C15.1192 33.9035 15.6009 34.3401 15.6009 34.3401H15.9773L16.0225 34.7014C16.4441 34.6713 16.5796 34.7316 16.7452 35.3037C16.7893 35.4681 16.8706 35.6201 16.9829 35.748C17.0952 35.8759 17.2353 35.9763 17.3926 36.0414L17.7389 36.0113C17.7389 35.7102 18.0852 36.0565 18.0852 36.2221C18.0852 36.3877 18.7627 36.9598 18.7627 36.9598L19.4402 37.1104L20.0726 37.6223L20.5543 37.5771H20.7501C20.8705 37.1405 21.4728 37.6072 21.533 37.7578C21.5932 37.9084 21.9847 38.1643 22.0298 38.0439C22.075 37.9234 22.3611 37.9987 22.4062 38.3751C22.4514 38.7515 22.6321 38.6762 22.6321 38.6762L24.0624 38.6461L24.5592 38.2095L25.839 38.1794C26.4864 38.1492 26.0949 37.2609 25.9594 37.2609C25.7336 37.0803 26.0347 36.3425 26.0347 36.3425L24.2114 34.6412C23.7899 34.6412 24.1663 34.0239 24.1663 34.0239C24.4975 33.8131 24.091 33.497 24.091 33.497C24.1362 33.1958 23.9103 32.8345 23.9103 32.8345C23.4586 32.5334 23.5791 31.9462 23.5791 31.9462V31.5397C23.2027 31.1784 23.7296 31.1332 23.7296 31.1332C23.9103 30.8321 23.6092 30.6062 23.6092 30.6062L23.5791 30.275L23.1726 30.2298L23.1274 29.0404L22.2241 27.7456C22.0434 27.7004 22.1789 27.3843 22.1789 27.3843C22.4047 27.2638 22.1337 26.9476 22.1337 26.9476L22.1036 26.3906L22.6306 26.3454L22.751 26.1497H23.007L22.9768 25.4872C22.9889 25.4452 23.0108 25.4066 23.0408 25.3747C23.0707 25.3428 23.1078 25.3185 23.149 25.3038C23.1902 25.2891 23.2343 25.2844 23.2777 25.2901C23.3211 25.2958 23.3624 25.3118 23.3984 25.3367L23.7447 25.3668L23.9404 24.9904L23.9856 24.6893L23.7146 24.6591C23.4135 24.4785 23.564 23.816 23.564 23.816C24.0458 23.1084 24.5878 23.5149 24.5878 23.5149L24.9341 23.4848C25.4611 23.8461 24.9793 24.4935 24.9793 24.4935C24.8739 24.6441 24.9341 25.1259 24.9341 25.1259L25.0546 25.9389L24.7233 26.225C24.4523 26.3755 24.4523 26.7369 24.7534 26.8121C24.9492 26.8422 24.8739 27.324 24.5728 26.9928C24.1211 26.9928 24.8287 27.3993 24.6179 27.2939C25.0696 27.5198 24.9642 27.0982 24.9642 27.0982L25.5665 26.6164C25.7923 26.4357 26.1988 26.9928 26.1988 27.0681C26.1988 27.1434 27.1925 27.0982 27.1925 27.0982C27.4635 27.2789 27.5689 27.7305 27.5689 27.7305C27.8399 27.3692 28.4271 27.7004 27.9905 27.9112C28.397 28.1672 28.397 28.393 28.397 28.393C28.7282 28.2876 28.7282 28.5436 28.7282 28.6188C28.7733 28.4964 28.8085 28.3705 28.8336 28.2424C28.4572 27.9564 29.3305 27.8661 29.0896 28.3629L28.939 28.5887L29.195 28.7845L29.2251 29.3716C29.7821 29.3265 29.6316 28.6339 29.6316 28.6339L29.8875 28.5887C29.8875 28.3629 30.0682 28.4833 30.0682 28.4833C29.8875 27.6252 30.4747 27.4746 30.4747 27.4746C30.8059 27.3993 30.821 26.7067 30.821 26.7067C30.5952 26.6014 30.7156 26.2551 30.9715 26.5562C31.2275 26.8573 30.821 25.9389 30.821 25.9389L30.6253 25.7582L30.3543 25.7281L30.3241 25.442H29.8725L29.7972 25.8034L29.6316 25.8787L29.5864 25.7733L29.5111 26.0593H29.0594L29.0293 25.7582L29.3003 25.6829L29.4057 25.5324L29.481 25.1259H29.8122L30.2338 25.0054C30.2639 24.5688 30.4898 24.6742 30.4898 24.6742L30.6403 24.7946L30.8662 24.9753L30.8963 25.1259L30.7457 25.2012L30.7156 25.4119L30.7909 25.698H30.9866C31.0619 25.2915 31.5888 25.2915 31.7394 25.5474L31.89 25.1861C31.5437 25.0054 31.89 24.7344 31.9803 24.8549C32.0706 24.9753 32.3115 24.5236 32.3115 24.5236C32.3115 24.5236 32.4922 24.7495 32.3115 24.4484C32.2852 24.4121 32.2673 24.3705 32.2591 24.3264C32.251 24.2824 32.2527 24.2371 32.2642 24.1938C32.2758 24.1506 32.2968 24.1104 32.3258 24.0763C32.3549 24.0422 32.3911 24.015 32.432 23.9967C32.3868 23.6956 32.7632 23.7407 32.7632 23.7407L32.7933 23.3342L32.447 23.3041C32.3718 23.6654 32.0706 23.3493 32.2212 23.274C32.3312 23.2126 32.4325 23.1366 32.5223 23.0482V22.7922L32.6729 22.747L32.703 22.4911H33.0794L33.4106 22.3405L33.4859 22.2201L33.8322 22.19L34.329 21.7383L34.2839 21.5426C33.9827 21.5426 34.2839 21.3167 34.2839 21.3167L34.314 20.8952L34.3155 20.8967Z" fill="black"/>
<path d="M24.228 25.9254L23.7763 25.8802L23.8064 26.0609H23.9269C24.1226 26.4222 23.957 27.2804 23.957 27.2804C23.957 27.2804 23.6559 27.3105 23.6107 27.1599C23.5655 27.0094 23.43 27.4912 23.5354 27.5664C23.6408 27.6417 23.9871 27.5665 24.0172 27.8525C24.0473 28.1386 24.2431 27.6718 24.2431 27.6718L24.228 25.9254Z" fill="black"/>
<path d="M23.7748 27.988V28.5903L24.1662 29.1323L24.3168 28.7709L24.377 28.5451L24.1963 28.4698L24.2265 28.0934L24.377 28.0633L24.3921 27.8826L24.0157 28.1386L23.7748 27.988Z" fill="black"/>
<path d="M24.4222 29.6893V29.4334L24.2415 29.4635L24.2264 29.6592L24.4222 29.6893Z" fill="black"/>
<path d="M24.1964 30.9089V30.7282L23.9856 30.7583V30.939L24.1964 30.9089Z" fill="black"/>
<path d="M24.4975 30.1244C24.5184 30.1244 24.5387 30.1183 24.5561 30.1067C24.5734 30.0951 24.5869 30.0786 24.5949 30.0594C24.6029 30.0401 24.605 30.0189 24.6009 29.9985C24.5968 29.978 24.5868 29.9593 24.5721 29.9445C24.5573 29.9298 24.5385 29.9197 24.5181 29.9157C24.4976 29.9116 24.4765 29.9137 24.4572 29.9217C24.4379 29.9297 24.4215 29.9432 24.4099 29.9605C24.3983 29.9778 24.3921 29.9982 24.3921 30.019C24.3917 30.033 24.3942 30.0469 24.3993 30.0599C24.4045 30.0728 24.4122 30.0846 24.4221 30.0945C24.4319 30.1044 24.4437 30.1121 24.4567 30.1173C24.4697 30.1224 24.4836 30.1249 24.4975 30.1244Z" fill="black"/>
<path d="M24.6631 30.6529C24.7213 30.6529 24.7685 30.6057 24.7685 30.5475C24.7685 30.4893 24.7213 30.4421 24.6631 30.4421C24.6049 30.4421 24.5577 30.4893 24.5577 30.5475C24.5577 30.6057 24.6049 30.6529 24.6631 30.6529Z" fill="black"/>
<path d="M24.6781 27.7471C24.7364 27.7471 24.7835 27.6999 24.7835 27.6417C24.7835 27.5835 24.7364 27.5363 24.6781 27.5363C24.6199 27.5363 24.5728 27.5835 24.5728 27.6417C24.5728 27.6999 24.6199 27.7471 24.6781 27.7471Z" fill="black"/>
<path d="M32.703 24.1939H32.8535L32.8837 24.3595L32.7783 24.4499L32.7331 24.5854L32.5374 24.6305L32.0857 25.0672L32.0556 25.2629L31.9351 25.4436L31.7846 25.82L31.2576 25.8501L31.1522 26.3017L31.2275 26.6932L31.6792 26.8739L31.7243 26.6179L31.8749 26.5426L31.905 26.2867L32.0104 26.106L32.161 25.9253L32.2061 25.7296L32.4621 25.5791L32.7632 25.5188L32.8837 25.3683L32.9288 25.0672L32.9589 24.8413L33.0643 24.6757L33.3654 24.5553V24.0735H33.2149L33.1848 23.8928L32.9138 23.8627L32.8535 23.9982H32.7331L32.703 24.1939Z" fill="black"/>
<path d="M33.8773 25.6242V25.2629L33.8321 24.9316L33.4557 24.751L33.1847 25.0069L33.1395 25.3683V25.5941L32.8836 25.6393L32.8384 26.3318L32.6427 26.4071L32.6728 26.6631L32.4018 26.7384L32.1308 26.8136L32.0856 27.1449L31.8899 27.2653L31.7845 27.5664L31.6641 28.3042C31.6641 28.3042 31.8899 28.7408 32.0103 28.53C32.0473 28.4718 32.0957 28.4217 32.1526 28.3829C32.2096 28.344 32.2739 28.3173 32.3416 28.3042L32.4169 28.1235L33.0944 28.1536C33.0972 28.1086 33.1157 28.066 33.1466 28.0333C33.1775 28.0005 33.219 27.9796 33.2638 27.9742C33.3085 27.9689 33.3537 27.9794 33.3916 28.0039C33.4294 28.0284 33.4574 28.0654 33.4708 28.1084C33.4708 28.2289 33.7267 28.1386 33.7267 28.1386L33.9074 27.8525H34.1784L34.2085 27.5514L34.329 27.4761V27.0244C34.4393 26.9963 34.5356 26.9286 34.5994 26.8343C34.6632 26.7399 34.6902 26.6254 34.6752 26.5125L34.7806 26.3921L34.7355 26.2114C34.5397 26.1361 34.6301 25.9555 34.7656 26.0006C34.9011 26.0458 34.5849 25.7748 34.5849 25.7748C34.4344 25.8952 34.3139 25.6242 34.3139 25.6242H33.8773Z" fill="black"/>
<path d="M34.2838 28.6956C34.2537 28.9968 33.8773 29.1022 33.8773 29.1022L33.6063 29.0269L33.4558 28.9064L33.4257 28.5451L33.6515 28.515L33.6967 28.6655L34.2838 28.6956Z" fill="black"/>
<path d="M35.6389 27.0696C35.6991 27.2954 35.6841 26.7083 35.7895 26.7384C35.8949 26.7685 35.8196 26.377 35.8196 26.377L35.3679 26.7083C35.5787 26.7384 35.6088 26.9627 35.6389 27.0696Z" fill="black"/>
<path d="M36.9638 25.7447C37.0691 25.9705 37.039 26.3017 37.4154 26.5577C37.5359 26.648 37.3402 26.8136 37.2197 26.7384C37.0993 26.6631 36.7379 26.106 36.7379 26.106V25.7748C36.8132 25.5791 36.9186 25.6543 36.9638 25.7447Z" fill="black"/>
<path d="M36.9639 33.4684L37.0391 33.5437L37.1144 33.6792L37.28 33.3931L37.1445 33.3479L36.9639 33.4684Z" fill="black"/>
<path d="M39.96 32.7005L40.1557 32.565L40.0804 32.4445L39.8696 32.565L39.96 32.7005Z" fill="black"/>
<path d="M47.2019 38.0002L47.4277 38.1056L47.4578 38.5422C47.759 38.8433 48.7376 38.5874 48.7376 38.5121C48.7376 38.4368 48.6924 37.5786 48.6924 37.5786L48.572 37.4582L48.5419 36.8258C48.6473 36.4946 48.0601 36.0128 48.0149 36.1182C47.9697 36.2236 47.6385 36.1483 47.6385 36.2387C47.6385 36.329 47.4428 36.8409 47.5331 37.0216C47.6235 37.2022 47.4578 37.2022 47.4277 37.3829C47.3976 37.5335 47.1417 37.8346 47.2019 38.0002Z" fill="black"/>
<path d="M46.6448 36.9764C46.5996 37.1721 46.4189 37.2775 46.3135 37.2022C46.2081 37.1269 46.434 37.3227 46.4942 37.4281C46.5077 37.4498 46.5265 37.4678 46.5489 37.4803C46.5713 37.4928 46.5965 37.4993 46.6222 37.4993C46.6478 37.4993 46.673 37.4928 46.6954 37.4803C46.7178 37.4678 46.7366 37.4498 46.7501 37.4281C46.7953 37.3227 46.7803 37.0968 46.8254 36.9914C46.8706 36.886 46.6749 36.871 46.6448 36.9764Z" fill="black"/>
<path d="M45.6661 32.3241H45.4855V32.8059H45.6661V32.3241Z" fill="black"/>
<path d="M48.0751 27.4309C47.9697 27.2804 48.5719 27.0244 48.6773 27.3256C48.7827 27.6267 48.6773 27.5815 48.5719 27.5514C48.4665 27.5213 48.2256 27.6267 48.0751 27.4309Z" fill="black"/>
<path d="M48.6171 24.0283L48.587 24.1789L48.858 24.224L48.8882 24.0735L48.6171 24.0283Z" fill="black"/>
<path d="M47.9095 24.4649L47.9245 24.5101L48.0751 24.4499L48.0149 24.3294L47.9848 24.2391L47.9095 24.2843L47.7288 24.3896L47.5632 24.2843L47.4879 24.4198L47.6836 24.5402L47.7288 24.5703L47.7589 24.5402L47.9095 24.4649Z" fill="black"/>
<path d="M48.858 18.2769H48.4816C48.4816 18.2769 48.6021 18.3221 48.2558 17.9909C48.2189 17.9467 48.1714 17.9126 48.1178 17.8917C48.0641 17.8708 48.0061 17.8638 47.949 17.8713C47.892 17.8788 47.8377 17.9006 47.7913 17.9347C47.7449 17.9687 47.7079 18.014 47.6837 18.0662L47.2771 18.1113V18.5178L47.0814 18.5931L47.1115 18.8491L47.3825 18.819C47.3825 18.819 47.3825 19.1201 47.4578 18.9996C47.5331 18.8792 48.1654 19.0297 48.1052 19.3309C48.0902 19.4513 48.7376 19.7825 48.6623 20.189C48.7052 20.1941 48.7465 20.2083 48.7834 20.2307C48.8203 20.253 48.852 20.2831 48.8762 20.3188C48.9005 20.3545 48.9168 20.395 48.9241 20.4376C48.9313 20.4801 48.9293 20.5237 48.9182 20.5654L49.3398 20.6106L49.4603 20.3547L49.5807 20.3848V20.2342L49.3097 20.1589L49.2645 19.3459L49.0839 19.2255L49.129 19.0147L48.9333 18.9394L49.0387 18.6082L48.858 18.2769Z" fill="black"/>
<path d="M49.9571 20.8666L49.7614 20.8364L49.3097 20.9117L49.0537 21.3935C49.1471 21.461 49.2242 21.5484 49.2796 21.6495C49.385 21.8301 49.4301 22.869 49.129 23.0497C48.8279 23.2303 49.1591 23.1249 49.1591 23.1249L49.114 23.682C49.1892 23.938 49.3097 23.8025 49.385 23.682C49.4602 23.5616 49.5355 23.5314 49.6409 23.3959C49.7747 23.2463 49.868 23.0649 49.9119 22.869C49.942 22.6883 50.0625 22.4173 49.9872 22.342C49.9119 22.2668 50.0625 21.9054 50.0625 21.9054C50.0922 21.8418 50.1076 21.7724 50.1076 21.7022C50.1076 21.6319 50.0922 21.5625 50.0625 21.4989C50.0295 21.4099 50.0219 21.3135 50.0405 21.2205C50.0591 21.1274 50.1032 21.0414 50.1679 20.9719L49.9571 20.8666Z" fill="black"/>
<path d="M50.2582 21.9054L50.2732 21.7097L50.4238 21.7247L50.4087 21.9355L50.2582 21.9054Z" fill="black"/>
<path d="M50.2432 22.613L50.1077 22.5378L50.1829 22.3872L50.3184 22.4625L50.2432 22.613Z" fill="black"/>
<path d="M50.0323 20.5956L49.9269 20.3697C49.9264 20.2676 49.9416 20.166 49.9721 20.0686C50.0173 19.9632 49.8667 19.8729 49.7914 19.8428C49.7161 19.8126 49.7463 19.6169 49.7161 19.5115C49.686 19.4061 49.5204 19.3309 49.5204 19.3309C49.5204 19.3309 49.4752 18.9545 49.4752 18.8792C49.4752 18.8039 49.2494 18.6985 49.3247 18.6232C49.4 18.5479 49.4451 18.4426 49.5204 18.3974C49.5957 18.3522 49.4451 17.9909 49.5656 18.0662C49.686 18.1414 49.686 18.2769 49.7463 18.3673C49.8065 18.4576 49.7161 18.819 49.8516 18.8942C49.9872 18.9695 49.8215 19.2255 50.0323 19.2255C50.2431 19.2255 50.1076 19.7073 50.1076 19.7073C50.1076 19.7073 50.0624 20.0686 50.1829 20.0836C50.3033 20.0987 50.228 20.716 50.228 20.716L50.0323 20.5956Z" fill="black"/>
<path d="M48.4064 16.4853C48.4817 16.5907 48.6322 16.666 48.6322 16.7713C48.6322 16.8767 48.587 16.952 48.7376 16.9671C48.8882 16.9821 48.9936 16.937 49.0387 17.0725C49.0781 17.2145 49.0884 17.363 49.0688 17.5091C49.0387 17.6145 49.0989 17.765 49.2194 17.765C49.3398 17.765 49.37 17.7952 49.37 17.8704C49.37 17.9457 49.5205 17.5844 49.5205 17.5844C49.4276 17.487 49.3514 17.3751 49.2947 17.2531C49.2947 17.2531 49.1742 16.8918 49.1742 16.8466C49.1742 16.8015 48.9936 16.7412 48.9183 16.7262C48.843 16.7111 48.7225 16.4702 48.7225 16.4702L48.4064 16.4853Z" fill="black"/>
<path d="M48.6472 16.2444C48.5855 16.146 48.4966 16.0676 48.3913 16.0186C48.3084 15.9666 48.2165 15.9308 48.1202 15.9132C48.0935 15.9129 48.0672 15.9061 48.0436 15.8934C48.0201 15.8807 48 15.8624 47.9852 15.8401C47.9703 15.8178 47.9612 15.7923 47.9585 15.7656C47.9558 15.739 47.9596 15.7121 47.9697 15.6873C48.0149 15.5669 47.8944 15.5067 47.8944 15.4013C47.8944 15.2959 47.9697 15.2959 48.0901 15.3712C48.2106 15.4464 48.1955 15.4766 48.2859 15.597C48.3762 15.7174 48.4364 15.853 48.5418 15.8228C48.6472 15.7927 48.7225 16.0487 48.8128 15.9734C48.9032 15.8981 48.8881 16.1541 48.8881 16.1541L48.6472 16.2444Z" fill="black"/>
<path d="M45.7263 19.1201C45.8618 19.2556 44.9735 19.2255 44.9735 19.1201C44.9735 19.0147 45.0488 18.6684 45.2746 18.7437C45.5005 18.819 45.5306 18.292 45.5306 18.292C45.5306 18.292 45.3349 18.3221 45.5005 18.2167C45.6661 18.1113 45.5005 17.9608 45.4252 17.8855C45.3673 17.821 45.3168 17.7503 45.2746 17.6747H45.6209C45.7715 17.5693 45.8166 17.0875 45.8166 17.0875C45.8932 17.1214 45.9786 17.1294 46.0601 17.1104C46.1416 17.0914 46.2147 17.0463 46.2683 16.9821C46.3024 17.0851 46.3533 17.1818 46.4189 17.2682C46.5243 17.3886 46.1629 17.4489 46.2984 17.5241C46.4339 17.5994 46.4791 17.8253 46.4189 17.9005C46.3587 17.9758 46.0876 17.9307 46.0876 17.8253C46.0876 17.7199 45.9823 17.9457 46.0876 18.0812C46.193 18.2167 45.9672 18.3823 45.907 18.3823C45.8468 18.3823 45.5306 18.4275 45.8016 18.5931C45.9781 18.6829 46.18 18.7095 46.3737 18.6684C46.3737 18.6684 46.5996 18.6383 46.6748 18.7738C46.7501 18.9093 46.6447 18.9243 46.5243 18.9243C46.4038 18.9243 45.8016 18.8792 45.8016 18.8792C45.8016 18.8792 45.651 19.0448 45.7263 19.1201Z" fill="black"/>
<path d="M44.1153 19.3459C44.2358 19.3158 44.5369 19.3007 44.5971 19.376C44.6573 19.4513 44.4165 19.5567 44.4165 19.5567L44.1153 19.6019C44.025 19.4814 43.9949 19.376 44.1153 19.3459Z" fill="black"/>
<path d="M47.3524 17.223C47.5481 17.1176 47.9848 17.1176 47.9547 16.9671C47.9245 16.8165 48.2106 16.7714 48.2106 16.7714L48.2859 17.0725L48.5117 17.223L48.5418 17.5091C48.5418 17.5091 48.6171 17.4639 48.3461 17.5392C48.0751 17.6145 48.2407 17.7349 48.2407 17.7349L47.6385 17.7651L47.5632 17.5091L47.3524 17.223Z" fill="black"/>
<path d="M46.3737 15.8379C46.5243 15.8379 46.3285 16.4251 46.72 16.3648C47.1115 16.3046 46.7501 16.5455 47.0512 16.5606C47.3523 16.5756 47.2771 16.3347 47.3825 16.154C47.4878 15.9734 47.4276 15.868 47.262 15.8228C47.0964 15.7776 47.0813 15.7776 47.0362 15.5669C47.0178 15.5064 46.9849 15.4515 46.9402 15.4068C46.8956 15.3622 46.8406 15.3292 46.7802 15.3109L46.7049 15.0098L46.3737 15.2055L46.0425 15.6421C46.0425 16.0035 46.2231 15.8379 46.3737 15.8379Z" fill="black"/>
<path d="M47.0363 17.9909L47.1115 17.8403L47.247 17.9005L47.1718 18.0662L47.0363 17.9909Z" fill="black"/>
<path d="M46.9308 17.75H46.7803V17.9307H46.9308V17.75Z" fill="black"/>
<path d="M46.9007 14.3624L46.9308 14.5883L46.7802 14.6033L46.7501 14.3775L46.9007 14.3624Z" fill="black"/>
<path d="M46.6298 16.7262H46.4792V16.8466H46.6298V16.7262Z" fill="black"/>
<path d="M46.0727 16.7262L46.0576 16.5756L46.3136 16.5606L46.3286 16.7111L46.0727 16.7262Z" fill="black"/>
<path d="M44.01 19.1803L43.8745 19.1201L43.9498 18.9394L44.0853 18.9996L44.01 19.1803Z" fill="black"/>
<path d="M43.2271 18.7136L43.212 18.563L43.468 18.5329L43.483 18.6834L43.2271 18.7136Z" fill="black"/>
<path d="M38.8909 18.6684L38.3339 18.6835L38.3489 18.834L38.8909 18.819V18.6684Z" fill="black"/>
<path d="M37.9726 18.8792L37.9124 18.6533L38.0629 18.6232L38.1081 18.8491L37.9726 18.8792Z" fill="black"/>
<path d="M37.8672 19.0448L37.822 18.8942L37.8973 18.8792L37.9425 19.0147L37.8672 19.0448Z" fill="black"/>
<path d="M39.1168 18.6082L39.0867 18.7888L39.3577 18.819C39.3577 18.819 39.4781 18.9244 39.4781 18.9996C39.4781 19.0749 39.6588 19.1502 39.7491 19.1502C39.8395 19.1502 40.1255 18.9394 40.1255 18.9394C40.1255 18.9394 40.246 18.5781 40.1556 18.6082C40.0653 18.6383 39.8545 18.7888 39.8244 18.6383C39.7943 18.4877 39.4932 18.563 39.4932 18.563L39.1168 18.6082Z" fill="black"/>
<path d="M40.3665 18.3372C40.3665 18.4124 40.3213 18.5178 40.4719 18.5479C40.6224 18.5781 40.8934 18.4426 40.9235 18.5931C40.9536 18.7437 40.9536 18.8491 41.1494 18.9243C41.3015 18.9906 41.4652 19.0264 41.6312 19.0297C41.7817 19.0297 42.1129 18.9846 42.1129 18.9846C42.2585 19.0043 42.4005 19.0449 42.5345 19.105C42.8055 19.3911 42.9862 19.4664 43.0615 19.3309C43.1367 19.1954 43.0314 18.9243 43.0163 18.819C43.0012 18.7136 42.6399 18.2318 42.5195 18.3372C42.399 18.4426 42.3689 18.3372 42.1431 18.4124C41.9172 18.4877 41.4354 18.4426 41.4204 18.3372C41.4053 18.2318 41.044 18.1866 41.044 18.0812C41.044 17.9758 40.788 17.8554 40.8181 18.0059C40.8482 18.1565 40.6375 18.2318 40.5923 18.1866C40.517 18.1264 40.3665 18.3372 40.3665 18.3372Z" fill="black"/>
<path d="M46.1178 15.0851L46.2984 14.528C46.0425 14.4829 46.1027 14.1968 46.1027 14.1968C46.0726 13.971 45.7263 13.715 45.6059 13.7903C45.4854 13.8656 45.5306 13.2633 45.5306 13.2633C45.5306 13.2633 45.7564 13.1128 45.8618 13.188C45.9672 13.2633 45.0036 11.9233 44.8079 12.0438C44.6122 12.1642 44.1605 11.9233 44.1755 11.6825C44.1906 11.4416 43.2722 10.6888 43.2722 10.6888C43.2722 10.6888 42.9711 10.493 42.9259 10.6436C42.8807 10.7942 42.7753 10.8995 42.9259 10.9748C43.0765 11.0501 43.0464 10.8544 43.227 11.02C43.4077 11.1856 43.7239 11.4265 43.6034 11.5771C43.5308 11.6676 43.438 11.7398 43.3324 11.7878L43.5131 11.9986H43.7841L43.8293 12.4352C43.8293 12.4352 44.1304 12.5858 44.2057 12.7665C44.2809 12.9472 44.2809 13.0525 44.2057 13.1429C44.1304 13.2332 43.9798 13.4289 44.0099 13.5946C44.0247 13.652 44.0529 13.7051 44.0922 13.7496C44.1314 13.7941 44.1806 13.8287 44.2358 13.8505L44.4315 13.8806L44.5821 13.9559V14.2871C44.7778 14.242 45.109 14.513 45.0789 14.6936C45.0488 14.8743 45.1241 14.7689 45.38 14.9496C45.636 15.1303 45.5607 15.1604 45.7263 15.2808C45.8919 15.4013 46.0425 15.3109 46.1178 15.0851Z" fill="black"/>
<path d="M41.994 11.6222C41.9639 11.5168 41.9187 11.1706 42.0693 11.1856C42.149 11.1943 42.226 11.22 42.2951 11.2609C42.4758 11.3362 42.4908 11.1404 42.4908 11.1404H42.7618L43.1081 11.4265L43.0629 11.6523L42.807 11.6825C42.6865 11.4867 42.4306 11.562 42.4758 11.7276C42.5209 11.8932 42.3553 12.2395 42.2499 12.2546C42.1445 12.2696 41.8284 12.2847 41.8434 12.1341C41.8886 11.9836 41.994 11.6222 41.994 11.6222Z" fill="black"/>
<path d="M41.7968 10.9447V10.749C41.7968 10.749 41.7667 10.5533 41.6462 10.5533C41.5258 10.5533 41.2999 10.4027 41.3451 10.2973C41.3903 10.1919 40.9235 10.0865 40.9235 10.0865C40.9235 10.0865 40.502 9.68002 40.6525 9.72518C40.8031 9.77035 40.7278 9.54451 40.7278 9.54451C40.6034 9.56523 40.4775 9.57531 40.3514 9.57463C40.2761 9.54451 40.3062 9.31867 40.3062 9.31867C40.3062 9.31867 40.0051 9.2434 40.0051 9.31867C40.0051 9.39395 40.1105 9.39395 40.1557 9.54451C40.2009 9.69507 40.1858 9.95102 40.4116 9.99619C40.6375 10.0414 40.6826 10.1016 40.7128 10.207C40.7429 10.3124 41.0139 10.3274 41.0139 10.3274L41.2096 10.4328L41.7968 10.9447Z" fill="black"/>
<path d="M39.0867 8.35509L39.0114 8.1443L38.8157 8.09914V8.32498L39.0867 8.35509Z" fill="black"/>
<path d="M39.0115 7.28613C38.7555 7.0904 39.3578 7.43669 39.3578 7.43669C39.4301 7.43296 39.5016 7.45302 39.5614 7.49381C39.6212 7.53459 39.6661 7.59386 39.689 7.66253C39.689 7.73781 39.96 7.7077 39.96 7.7077L39.9901 7.52702L39.7944 7.27107L39.6137 7.15063C39.6137 7.15063 39.3427 7.12051 39.3427 7.04524C39.3427 6.96996 39.1169 7.36141 39.0115 7.28613Z" fill="black"/>
<path d="M43.6185 7.43669C43.5432 7.66252 43.5131 7.96364 43.3927 7.96364C43.2722 7.96364 43.3174 8.29487 43.3174 8.29487C43.4585 8.2928 43.5995 8.30287 43.7389 8.32498C43.8443 8.3551 43.8443 8.61105 43.8443 8.61105C44.2207 8.58093 44.3713 9.09284 44.3261 9.22834C44.281 9.36384 44.4767 9.34879 44.4767 9.34879C44.4799 9.52054 44.4648 9.69215 44.4315 9.86069C44.3863 9.96608 44.7627 10.0414 44.8531 10.1919C44.9434 10.3425 44.8079 10.8544 44.7326 10.8845C44.6574 10.9146 44.9284 10.9899 44.9133 11.1103C44.8983 11.2308 44.9886 11.1103 45.0187 11.3211C45.0488 11.5319 45.094 11.9535 45.094 11.9535L45.4403 11.9836C45.4854 11.6523 46.1328 11.6373 46.2382 11.6825C46.6598 11.833 46.991 12.4955 46.991 12.646C46.991 12.7966 46.72 12.8267 46.72 12.8267L46.7652 13.5644C47.1867 13.6849 47.5481 14.3022 47.4879 14.4076C47.4276 14.513 47.789 14.4829 47.789 14.4829C47.8342 14.0312 48.2708 14.1817 48.2858 14.3323C48.3009 14.4829 48.3912 14.8141 48.3912 14.8141L48.5117 15.0399L48.6923 15.2206L48.9634 15.1905L49.0386 15.341L49.3699 15.3862C49.4794 15.504 49.5801 15.6299 49.671 15.7626C49.7011 15.8379 50.0775 15.8078 50.1678 15.8379C50.2582 15.868 50.4238 15.9433 50.4388 16.0637C50.4843 16.1816 50.545 16.2929 50.6195 16.395C50.6195 16.395 50.9206 16.4702 50.9507 16.5756C50.9931 16.6894 51.0434 16.8001 51.1013 16.9069L51.3572 17.1176L51.3874 17.3435L51.6584 17.3736L51.7336 17.6747L52.1853 17.6446L52.4413 17.4639C52.7725 17.2833 52.9983 17.0574 53.0134 16.952C53.0284 16.8466 53.0887 16.4702 53.3446 16.5455C53.6006 16.6208 53.4199 15.9884 53.4199 15.9884C53.4199 15.9884 53.0736 15.7325 53.0887 15.612C53.1037 15.4916 52.7424 15.2356 52.7574 15.1303C52.7725 15.0249 52.4262 14.8291 52.4563 14.7237C52.4864 14.6184 52.2757 14.3473 52.2757 14.3473L51.8993 13.986L51.8541 13.7602L51.553 13.7301L50.9507 12.9923L50.9808 12.7815L50.8002 12.7514V12.4654L50.6195 12.36L50.3485 12.3299L49.7914 11.7276L49.7463 11.4416H49.4753L49.5204 10.9146C49.7011 10.6888 49.5957 10.2521 49.5957 10.2521C49.5957 10.2521 49.2494 10.4328 49.0687 10.3575C48.8881 10.2823 49.144 10.1016 49.144 10.1016V9.90585L48.9935 9.7553C48.9935 9.7553 48.5719 9.80046 48.5418 9.72518C48.5117 9.6499 48.4364 9.31867 48.4364 9.31867L48.4063 8.88205L48.2256 8.80677L48.1955 8.65621L47.9245 8.68633V8.38521L47.7739 8.34004L47.6234 8.26476L47.5933 7.96364L47.0362 7.93353L46.8555 7.67758L46.6598 7.37646L46.0274 7.33129L45.8769 7.18073L45.6209 7.13557L45.4403 7.06029L45.365 7.18073L44.8832 7.21085L44.8531 7.36141C44.6423 7.4668 43.6486 7.36141 43.6185 7.43669Z" fill="black"/>
<path d="M46.2533 6.77423C46.2081 6.5785 46.7501 6.39783 46.8856 6.54839C47.0211 6.69895 47.3674 6.72906 47.4126 7.48186C47.4276 7.75286 46.9609 7.19579 46.9609 7.19579L46.5845 7.07535C46.5039 7.06841 46.4278 7.03518 46.368 6.98077C46.3081 6.92637 46.2678 6.85379 46.2533 6.77423Z" fill="black"/>
<path d="M38.906 7.09039L38.7705 7.03017L38.8759 6.78928L39.0114 6.86456L38.906 7.09039Z" fill="black"/>
<path d="M37.6112 4.59112L37.2799 4.25989V3.97383L37.1745 3.86844L37.0692 3.50709L36.7379 3.4017L36.4067 3.52215L36.0604 3.74799L35.684 3.79316L35.4883 4.019L36.2862 4.09427L36.4368 4.35023L37.0089 4.39539L37.3853 4.77179C37.7316 4.92235 37.8069 4.77179 37.6112 4.59112Z" fill="black"/>
<path d="M37.566 3.34147C37.5058 3.11564 37.1896 3.62754 37.5208 3.71787C37.7322 3.77952 37.9568 3.77952 38.1682 3.71787L38.2435 3.56731L39.4932 3.59743C39.5613 3.52403 39.6127 3.43669 39.6437 3.34147C39.6437 3.34147 39.9448 3.23608 40.0653 3.29631C40.1857 3.35653 40.0954 2.93496 39.9599 2.99519C39.8366 3.02396 39.7098 3.03411 39.5835 3.0253H39.1318C39.1017 2.84463 38.7103 2.91991 38.6801 3.0253C38.65 3.13069 38.5145 3.14575 38.5145 3.14575L37.9424 3.19092C37.8822 3.34147 37.5961 3.44687 37.566 3.34147Z" fill="black"/>
<path d="M35.0818 7.63241C35.4733 7.75286 35.6088 7.66252 35.6389 7.55713C35.669 7.45174 35.684 7.43669 35.8346 7.40657C35.9852 7.37646 35.8045 7.07534 35.6539 7.10546C35.5861 7.12428 35.5135 7.11595 35.4517 7.08223C35.3899 7.0485 35.3436 6.99203 35.3227 6.92478C35.2926 6.80434 35.0517 6.47311 35.0216 6.72906C34.9915 6.98501 34.8409 6.98501 34.871 7.16568C34.9011 7.34635 34.9915 7.6023 35.0818 7.63241Z" fill="black"/>
<path d="M32.2076 7.91848C32.1925 7.82814 32.7044 7.81308 32.7797 7.88836C32.855 7.96364 32.8098 8.09915 33.0357 8.09915C33.2615 8.09915 33.1561 8.24971 33.1411 8.32499C33.126 8.40027 32.8701 8.37015 32.8399 8.29487C32.8098 8.21959 32.4334 8.18948 32.4334 8.18948C32.4334 8.18948 32.2377 8.03892 32.2076 7.91848Z" fill="black"/>
<path d="M40.4568 2.78441L40.517 2.84463L40.5621 2.79946L40.8181 2.58868L40.7127 2.46823L40.517 2.63385L40.3965 2.49834L40.2911 2.61879L40.4568 2.78441Z" fill="black"/>
<path d="M39.3427 2.19723L39.3728 2.16712L39.6589 1.98644L39.5685 1.866L39.3427 2.01656L39.1771 1.91117L39.1018 2.04667L39.2975 2.16712L39.3427 2.19723Z" fill="black"/>
<path d="M38.4393 7.37646L38.6049 7.63241L38.7254 7.54208L38.5597 7.27107L38.5296 7.24096H38.4995L38.2436 7.21085L38.2285 7.36141L38.4393 7.37646Z" fill="black"/>
<path d="M30.2504 14.3157L30.2805 14.6018H30.6569C30.8075 14.6018 30.5365 14.4211 30.5365 14.4211C30.5365 14.4211 30.2354 14.4512 30.2504 14.3157Z" fill="black"/>
<path d="M30.7307 14.3323L30.821 14.2118L30.9716 14.3323L30.8813 14.4527L30.7307 14.3323Z" fill="black"/>
<path d="M26.1687 9.57463L26.2741 9.46924L26.4247 9.6198L26.3193 9.72519L26.1687 9.57463Z" fill="black"/>
<path d="M33.2299 42.4116L33.3353 42.517L33.4557 42.3965L33.531 42.3212L33.4407 42.261L33.1847 42.1406L33.1245 42.2761L33.2751 42.3514L33.2299 42.4116Z" fill="black"/>
<path d="M31.2577 40.5748L31.4383 40.6952L31.5287 40.5748L31.4233 40.4995L31.4985 40.4393L31.4082 40.3188L31.2577 40.4543L31.1824 40.5146L31.2577 40.5748Z" fill="black"/>
<path d="M50.1242 35.6213C50.1107 35.5765 50.0854 35.5361 50.051 35.5043C50.0166 35.4725 49.9743 35.4505 49.9285 35.4407L49.8833 35.5912C49.8984 35.5912 49.9134 35.6063 49.9285 35.6213L49.9586 35.7568C49.9435 35.7719 49.9285 35.787 49.9285 35.802L50.0339 35.9074C50.1003 35.8276 50.1328 35.7249 50.1242 35.6213Z" fill="black"/>
<path d="M50.3486 35.1396L50.1077 35.1245L50.1227 34.8987L50.3636 34.9288L50.3486 35.1396Z" fill="black"/>
<path d="M56.1465 33.1672C56.2519 33.107 56.3874 32.9715 56.3724 33.2576C56.3573 33.5436 56.2369 33.4533 56.1465 33.5436C56.0562 33.634 55.996 33.2576 56.1465 33.1672Z" fill="black"/>
<path d="M57.4248 32.0817V32.0516C57.4221 31.9937 57.4067 31.9372 57.3796 31.886L57.2441 31.9613C57.2592 31.9914 57.2592 32.0365 57.2742 32.0667C57.2731 32.1111 57.2893 32.1543 57.3194 32.1871C57.3348 32.1973 57.3522 32.204 57.3704 32.2066C57.3886 32.2092 57.4072 32.2077 57.4248 32.2022L57.3947 32.0516C57.3947 32.0667 57.4098 32.0667 57.4248 32.0817Z" fill="black"/>
<path d="M57.0936 32.2037C57.1388 32.3542 57.184 32.5048 57.184 32.5199L57.3195 32.4596C57.2814 32.3618 57.2512 32.2611 57.2291 32.1585L57.0936 32.2037Z" fill="black"/>
<path d="M56.5365 32.8059L56.3859 32.7908C56.3708 32.9113 56.401 33.0618 56.5214 33.0769L56.5515 32.9263C56.5422 32.8868 56.5372 32.8465 56.5365 32.8059Z" fill="black"/>
<path d="M55.8891 29.7797C55.874 29.7345 55.859 29.6893 55.8138 29.6743C55.6765 29.6515 55.5358 29.684 55.4224 29.7646L55.5127 29.885C55.583 29.835 55.6673 29.8087 55.7536 29.8098V29.7947L55.8891 29.7797Z" fill="black"/>
<path d="M48.9483 21.6645C48.8512 21.74 48.7377 21.7916 48.6171 21.8151L48.5418 22.1012L48.4213 22.2065C48.4422 22.2906 48.4422 22.3785 48.4213 22.4625C48.3912 22.6432 48.1654 22.7486 48.1654 22.7486L48.06 22.869C47.8344 22.8842 47.6081 22.8842 47.3825 22.869C47.3421 22.8505 47.3092 22.8189 47.289 22.7794C47.2688 22.7398 47.2626 22.6946 47.2713 22.651C47.28 22.6075 47.3031 22.5682 47.337 22.5394C47.3708 22.5107 47.4134 22.4942 47.4578 22.4926C47.6083 22.5227 47.4276 22.056 47.4276 22.056L47.6234 22.0259C47.6234 22.0259 47.6535 21.5742 47.7288 21.5742C47.804 21.5742 47.6987 21.4236 47.6083 21.3484C47.518 21.2731 47.3825 21.0171 47.2771 21.0472C47.1118 21.0627 46.9455 21.0627 46.7802 21.0472L46.705 21.1978L46.434 21.243C46.434 21.243 46.4641 21.4387 46.4038 21.4989C46.2533 21.6796 45.6812 22.056 45.9221 21.4236L45.9973 21.2731V21.0472L45.5457 21.0171C45.5457 21.0171 45.3198 20.9418 45.3198 20.8365C45.3176 20.7603 45.3075 20.6847 45.2897 20.6106L44.7627 20.0234L44.1304 19.9482L44.0852 19.8277L43.7088 19.7825C43.2572 19.5567 42.8506 19.7524 42.9259 20.1439C43.0012 20.5353 43.1217 20.6708 42.8808 20.6708C42.8157 20.6778 42.7503 20.6621 42.6954 20.6265C42.6406 20.5908 42.5997 20.5374 42.5796 20.4751C42.5796 20.4751 42.3839 20.3998 42.3839 20.5052C42.3839 20.6106 42.3086 20.8063 42.3839 20.9117C42.4592 21.0171 42.2785 21.1677 42.2032 21.0924C42.128 21.0171 41.9322 20.7913 41.9774 20.716C42.0226 20.6407 41.6311 20.1589 42.0226 20.0837C42.414 20.0084 41.9925 19.7825 42.143 19.7223L42.3387 19.6169H42.5345L42.6549 19.5115L42.3237 19.4664L42.128 19.4363L41.7516 19.4061C41.5415 19.5345 41.382 19.7312 41.2999 19.9632C41.1042 20.3396 40.6224 19.8127 40.803 19.6019C40.9837 19.3911 40.246 19.5718 40.1255 19.6772C40.0051 19.7825 39.6287 19.7223 39.6287 19.7223C39.5534 19.9482 39.2071 19.6922 39.2974 19.5417C39.356 19.468 39.3926 19.3793 39.4028 19.2857L39.2824 19.2556L39.1318 19.5417C38.7855 19.5417 38.6801 19.7374 38.7554 19.8729C38.8307 20.0084 38.65 19.8428 38.6049 20.0234C38.5597 20.2041 38.635 20.2041 38.7855 20.2794C38.9361 20.3547 38.7103 20.3547 38.8157 20.4751C38.921 20.5956 39.2222 20.4751 39.0415 20.6558C38.8608 20.8365 38.5145 20.7612 38.5145 20.7612C38.4844 20.987 38.0177 20.9418 37.9575 20.8666C37.8972 20.7913 37.5359 20.3396 37.5359 20.3396L37.0541 20.3095C37.0089 19.9482 37.2799 20.1288 37.3853 19.8578C37.4602 19.6176 37.5106 19.3704 37.5359 19.1201C37.5359 19.1201 37.1294 19.09 37.1143 19.2255C37.0993 19.361 36.8433 19.4363 36.8433 19.4363C36.8433 19.4363 36.6476 19.5115 36.7229 19.6169C36.7982 19.7223 36.5723 19.7675 36.5723 19.7675C36.5723 19.7675 36.6175 19.9331 36.5422 19.9933C36.3465 20.2041 35.8346 20.0234 35.7593 19.9482L35.4582 19.8277L35.1571 19.632L34.8108 19.7825L34.7054 19.8879H34.329L34.2989 20.1891L34.9764 20.2643L35.0216 20.8967L34.7506 20.8063H34.5699L34.4946 20.6558L34.344 20.6257V21.1827L34.4946 21.3032L34.615 21.4236L34.871 21.4538L34.9162 21.7549L35.5485 21.785L35.6238 21.9054L36.0002 21.9355L36.7229 22.6733L36.6777 22.8991L36.5573 22.9744C36.6024 23.1551 36.226 23.0497 36.226 23.0497V23.2002L36.4067 23.2304L36.5874 23.3357L36.8433 22.8991C37.1143 22.7184 37.2498 22.9744 37.2649 23.125C37.2799 23.2755 37.1444 23.2454 37.1444 23.2454V23.6067L37.295 23.6519C37.551 23.953 37.1896 24.1337 37.1896 24.1337L37.1143 24.3897C37.0391 24.6155 36.768 24.5703 36.768 24.5703L36.6627 24.7209L36.3615 24.7962L36.9487 24.8714C37.0089 24.6607 37.1595 24.6155 37.2348 24.7209C37.2839 24.8082 37.3099 24.9067 37.3101 25.0069L37.4606 25.0371L37.4305 25.3231L37.5811 25.3683V26.1813L37.7617 26.377C38.0629 26.2566 38.0629 26.4523 37.9123 26.5577C37.7617 26.6631 37.8671 27.1148 37.8671 27.1148L37.7467 27.2352V27.446L37.5961 27.5514V27.8375C37.3402 27.717 37.0391 27.7622 36.9638 27.8375C36.7379 27.6869 36.2561 27.7321 36.2561 27.8676C36.4067 28.0633 36.0755 28.1235 36.0755 28.1235L35.8948 28.3192C36.0152 28.5752 35.7744 28.6053 35.7744 28.6053V29.0871L35.4732 29.3732L35.5033 30.0356C35.5033 30.2163 35.8797 30.2314 35.955 30.141C36.0303 30.0507 36.3314 30.3518 36.3314 30.3518H36.5573L36.6024 29.9001L36.4519 29.8248V29.0871L36.7078 28.801C37.0089 28.6956 36.9035 29.4635 36.9035 29.5388C36.9337 29.8248 37.0541 29.7947 37.1746 29.7345C37.4305 29.6291 37.2197 30.0206 37.024 29.9905C36.8283 29.9603 36.9487 30.2464 36.9487 30.2464L37.0692 30.2916L36.8433 30.4722L36.6476 30.6981L36.3916 30.6228L36.0905 30.5927L35.9851 30.412L35.8045 30.3819L35.7744 30.7433L35.6539 30.8938L35.3528 31.1949C35.7593 31.1949 35.3076 31.481 35.2022 31.481C35.4281 31.5563 35.1721 31.7821 34.6 31.6014V31.7806L34.4043 31.8107L34.5849 32.0064L34.7807 32.0366L34.7054 32.4732C34.7054 32.8044 33.8773 32.5786 33.802 32.5033L33.7719 32.955L33.6214 32.9851L33.6515 33.2862L33.6214 33.7228L33.8924 33.6777V33.8583L34.5699 33.8884L35.5485 32.8496L36.1206 32.7291C36.1658 32.4732 36.4218 32.7743 36.4218 32.7743C36.6777 32.7442 36.7229 32.9249 36.7229 32.9249L37.0541 32.97C37.3251 33.0453 37.1595 33.0754 37.1746 33.1808C37.2047 33.3314 37.3251 33.2862 37.3251 33.2862L37.3703 32.955L37.5208 32.9851L37.3703 32.8044L37.0993 32.684L36.7982 32.5635C36.6024 32.2774 36.8433 32.3377 37.0541 32.3678H37.3853C37.3853 32.3678 37.7617 32.8797 37.7617 33.0001C37.7617 33.1206 37.9424 33.1507 37.9424 33.1507L38.1682 33.1206L38.2435 33.3013H38.4694L38.5446 33.4518H38.9963L39.0264 33.226L38.6049 33.1507L38.5748 32.8947L38.2736 32.8195C38.1682 32.3828 38.3489 32.2624 38.4694 32.4581L38.6199 32.4882L38.5748 32.1118L38.7554 32.0667L38.7103 31.5397L38.5597 31.4945V31.3139L39.1921 31.344C39.1582 31.1836 39.1686 31.0171 39.2222 30.8622H39.4028L39.4329 30.9826L40.2008 31.0579L40.7428 30.4406C40.7127 30.3955 40.803 30.3653 40.7428 30.3051C40.6826 30.2449 40.5621 30.3051 40.4417 30.2298C40.3212 30.1546 40.4417 29.7179 40.4116 29.6276C40.3815 29.5373 40.8331 29.3717 40.7579 29.5975C40.733 29.6492 40.7201 29.7058 40.7201 29.7631C40.7201 29.8204 40.733 29.877 40.7579 29.9287C41.0891 29.6276 41.3601 29.9588 41.33 30.0341C41.2999 30.1094 41.5107 30.1847 41.6311 30.1094C41.7516 30.0341 41.9021 30.3352 41.8569 30.4858C41.8118 30.6364 41.3601 30.6062 41.33 30.4557C41.2999 30.3051 41.2246 30.3503 41.1794 30.4256C41.1234 30.4718 41.0551 30.5007 40.9829 30.5088C40.9107 30.5168 40.8377 30.5036 40.7729 30.4707C40.7428 30.4557 40.7428 30.4406 40.7278 30.4256L40.1857 31.0429H40.2159C40.517 31.2235 40.3664 31.4494 40.261 31.4945C40.1738 31.5243 40.0822 31.5395 39.99 31.5397L39.9448 31.6451L39.2974 31.6903L39.2523 31.9462C39.1912 31.9388 39.1292 31.9473 39.0724 31.9708C39.0156 31.9944 38.9658 32.0323 38.9279 32.0807C38.89 32.1292 38.8653 32.1867 38.8562 32.2475C38.8471 32.3084 38.8539 32.3706 38.8759 32.428C38.8981 32.4804 38.9095 32.5367 38.9095 32.5936C38.9095 32.6505 38.8981 32.7068 38.8759 32.7592L39.1469 32.8797L39.4932 32.7743C39.5383 32.5183 39.7642 32.4732 39.975 32.3226C40.1857 32.1721 40.5019 32.6087 40.3965 32.8044C40.3412 32.891 40.3052 32.9886 40.2911 33.0905L40.3212 33.3163L40.0653 33.4217L39.8696 33.5271L39.8395 33.6475H39.1619L39.0415 33.768L38.7103 33.7981L38.6049 33.9487L38.379 33.9788C38.379 33.9788 38.0026 34.1594 38.1532 34.3552C38.3038 34.5509 37.5208 34.5358 37.3552 34.2498C37.3101 34.5057 37.024 34.2799 37.024 34.2799L36.753 34.2046L36.7229 33.8282C36.6777 33.5723 36.1959 33.5723 36.226 33.7529C36.2561 33.9336 35.3227 33.8282 35.3227 33.8282L35.0216 33.9788L34.7506 34.1444L34.7204 34.2648L34.2688 34.31L34.073 34.4154L33.9978 34.2648H33.802L33.6063 34.5509C33.0793 34.581 32.5825 34.8821 32.6277 35.0026C32.6728 35.123 32.4319 35.2585 32.4319 35.2585L32.2061 35.3338L32.0555 35.5596L31.7544 35.665L31.7093 36.192L31.5587 36.2974V36.5232L31.378 36.5684V36.6888L31.1221 36.7189L31.2726 37.0953L31.4684 37.2007C31.8146 37.2459 31.6641 37.6825 31.6641 37.6825L31.8598 37.7126L31.9652 37.9987L32.1609 38.4052C32.2362 38.7063 32.462 38.631 32.5674 38.616C32.6728 38.6009 32.7632 38.9171 32.7632 38.9171L33.7569 38.9472C33.7569 38.9472 33.7117 39.0526 33.8773 39.0978C34.0429 39.1429 35.2022 39.2032 35.2474 39.1279C35.2022 38.9021 35.8797 38.8418 36.1508 39.0526C36.2475 39.1094 36.3551 39.1454 36.4665 39.1584C36.578 39.1713 36.6909 39.161 36.7982 39.1279L37.1746 39.5796L37.4305 40.1366L37.8521 40.2571L38.1532 40.3324L38.2586 40.769L38.4844 40.7991L38.5597 41.0852C38.8307 41.2809 38.4844 41.7175 38.4844 41.7175V42.2746L38.6801 42.38L38.65 42.5908L38.9828 42.922L39.3592 42.9521L40.3077 43.9608L41.0605 44.1867L41.1809 44.5932L41.3767 44.5631L41.5272 44.4426L42.1295 44.4125L42.4306 44.1265L42.7618 44.0813L45.5472 41.7175L45.2912 41.5669V41.0099C45.7429 40.6786 45.773 40.0915 45.3364 40.0463C45.0202 40.0011 45.1557 39.6699 45.4568 39.6097L45.6375 39.5344V39.3086L46.2096 38.7816V38.3751L44.96 37.3362C44.4029 37.1405 44.96 35.921 45.3364 35.936C45.7128 35.9511 45.3063 34.054 45.3063 34.054L45.1105 33.9487L45.1557 33.3314H44.8847L44.433 33.9185L44.3126 34.3251C44.2674 34.852 42.7166 34.7617 42.6414 34.6864C42.4485 34.5709 42.2472 34.4703 42.0391 34.3853C42.0391 34.3853 41.6326 34.054 41.5573 34.1594C41.4821 34.2648 41.1358 34.039 41.1358 34.1143C41.1358 34.1896 40.8045 33.9336 40.8045 33.9336L40.3077 33.7529L40.6841 33.6777L40.6088 33.3765L41.2562 33.7078C41.3315 33.8132 41.6627 33.783 41.6627 33.783L41.7681 33.9035C41.8289 33.8966 41.8904 33.9039 41.9479 33.9248C42.0053 33.9457 42.0572 33.9796 42.0994 34.0239C42.2198 34.1745 42.8823 34.054 42.8823 34.054L43.0629 34.2046L43.3339 34.31L44.1168 34.3401L44.147 33.8583L44.2975 33.7078L44.2674 33.4066L44.4481 33.2561V33.0001L44.5986 32.955L44.6287 32.3979L44.7492 32.3678V31.1483L44.3728 30.7869C44.3427 30.9074 43.9512 30.9074 43.9512 30.9074C43.9512 30.9074 43.8458 31.088 43.7706 31.088C43.6953 31.088 43.876 31.3139 43.8157 31.4644C43.7555 31.615 43.5598 31.615 43.5598 31.615L43.1834 31.7204L43.078 31.8408H42.6715L42.6263 31.5096L43.078 31.3891L43.3339 31.2687L43.4544 31.0128C43.4845 30.7568 43.7856 30.7869 43.7856 30.7869C43.7856 30.7869 44.3577 30.3051 44.3879 30.0793C44.418 29.8534 44.6137 29.2211 44.96 29.2211H45.6074C45.8633 29.1157 45.7881 28.7845 45.7881 28.7845L46.1193 28.7393L46.1645 28.92C46.1645 28.92 46.6161 28.9651 46.6613 28.8899C46.7065 28.8146 46.8119 28.6339 46.9323 28.7092C47.0527 28.7845 47.4593 28.5285 47.4593 28.5285C47.4894 28.3479 48.1067 28.4231 48.1067 28.4231L48.1819 28.1973C48.1819 28.1973 47.7604 27.6101 47.6851 27.6101C47.6098 27.6101 47.2033 27.2488 47.1581 27.3843C46.7516 27.2789 46.7817 26.7218 46.7817 26.7218L46.6312 26.3605C46.6312 26.1497 46.2548 25.7281 46.1795 25.7733C45.8031 25.4872 46.0741 25.1711 46.1795 25.1409C46.2849 25.1108 46.5258 24.7645 46.5258 24.7645L46.6462 24.4032L47.0678 24.2828L47.113 23.9515L46.8871 23.9214C46.8871 23.9214 47.1431 23.4697 47.2635 23.4697C47.384 23.4697 48.2121 23.4697 48.2873 23.4246C48.3626 23.3794 48.5132 22.9729 48.5132 22.8976C48.5132 22.8223 48.7089 22.7922 48.7842 22.7772C48.9101 22.693 49.0135 22.5793 49.0853 22.4459C49.2208 22.19 49.0552 21.5576 48.9498 21.663L48.9483 21.6645Z" fill="black"/>
<path d="M35.0818 30.8185C35.1119 30.7884 35.1571 30.939 35.2323 30.9089C35.3076 30.8788 35.3377 31.0444 35.2625 31.0444C35.1872 31.0444 35.1872 31.1347 35.1872 31.1799C35.1936 31.2505 35.172 31.3208 35.127 31.3756C35.0667 31.4358 35.0216 31.3907 34.9463 31.3605C34.8835 31.3211 34.8089 31.3051 34.7355 31.3154C34.6452 31.3154 34.7204 31.4659 34.7204 31.4659C34.7204 31.4659 34.329 31.4509 34.4043 31.3907C34.4795 31.3304 34.5548 31.3154 34.4946 31.2702C34.4344 31.225 34.4946 31.1949 34.4946 31.1196C34.4946 31.0444 34.6753 31.0745 34.6301 31.0293C34.5849 30.9841 34.6301 30.7583 34.7204 30.8787L34.7807 30.7432C34.7204 30.683 34.7656 30.668 34.6452 30.6228C34.5247 30.5776 34.6301 30.3518 34.6301 30.3518L34.6452 30.2012C34.6753 30.0055 35.0517 29.9905 35.0818 30.1561C35.0911 30.2512 35.0911 30.347 35.0818 30.4421L35.1872 30.4873C35.1872 30.4873 35.1721 30.6077 35.0818 30.6077C34.9915 30.6077 35.0818 30.668 35.0216 30.7282L35.0818 30.8185Z" fill="black"/>
<path d="M33.8472 31.0142C33.9074 30.8938 34.0278 30.412 34.1784 30.5626C34.329 30.7131 34.4193 30.5626 34.4193 30.5626C34.4437 30.5942 34.4594 30.6318 34.4647 30.6714C34.47 30.7111 34.4647 30.7514 34.4494 30.7884C34.4193 30.939 34.3741 31.0895 34.2838 31.1196C34.1935 31.1497 34.1182 31.1949 33.9977 31.21C33.9074 31.225 33.8472 31.0142 33.8472 31.0142Z" fill="black"/>
</g>
<defs>
<clipPath id="clip0_12_1552">
<rect width="70.2013" height="59.5913" fill="white" transform="translate(0 0.164673)"/>
</clipPath>
</defs>
</svg>
