<svg width="7" height="300" viewBox="0 0 7 300" fill="none" xmlns="http://www.w3.org/2000/svg">
<path d="M3.05526 300C2.4295 293.742 2.02459 287.485 1.6933 281.264C1.36201 275.006 1.10434 268.748 0.920295 262.528C0.736246 256.27 0.625817 250.012 0.589007 243.791C0.515387 237.534 0.552197 231.276 0.773056 225.055C1.17796 212.54 2.17183 200.061 2.35588 187.546C2.46631 181.288 2.4295 175.031 2.31907 168.81C2.28226 167.264 2.24545 165.681 2.20864 164.135L2.0614 159.46C1.95097 156.331 1.80373 153.202 1.6933 150.074L1.21477 140.613L0.993915 135.939L0.809866 131.264C0.589007 125.006 0.478577 118.748 0.368148 112.528C0.147289 100.012 -0.11038 87.5337 4.98742e-05 75.0184C0.110479 62.5031 0.404958 50.0245 0.883486 37.5092C0.993915 34.3804 1.14115 31.2515 1.28839 28.1227L1.50925 23.4479L1.76692 18.773C2.09821 12.5153 2.50312 6.25767 3.05526 0H3.68103C4.23318 6.25767 4.63809 12.5153 4.96938 18.7362L5.22704 23.411L5.4479 28.0859C5.59514 31.2147 5.74238 34.3436 5.85281 37.4724C6.33134 49.9877 6.62582 62.4663 6.73625 74.9816C6.84668 87.4969 6.58901 99.9755 6.36815 112.491C6.25772 118.748 6.14729 125.006 5.92643 131.227L5.74238 135.902L5.52152 140.613L5.0798 150C4.96938 153.129 4.78533 156.258 4.71171 159.387L4.56447 164.061C4.52766 165.607 4.49085 167.19 4.45404 168.736C4.34361 174.994 4.3068 181.252 4.41723 187.472C4.60128 199.988 5.59514 212.466 6.00005 224.982C6.22091 231.239 6.25772 237.497 6.1841 243.718C6.14729 249.975 6.00005 256.233 5.85281 262.454C5.66876 268.712 5.4479 274.969 5.0798 281.19C4.74852 287.448 4.34361 293.706 3.71784 299.926H3.05526V300Z" fill="#FF4E42"/>
</svg>
